<svg width="324" height="457" fill="none" xmlns="http://www.w3.org/2000/svg"><path d="M37.212 185.003c7.728-.53 8.998-5.726 8.045-10.604-2.011-10.498.106-19.83 6.67-28.737-5.4-3.924-10.269-7.529-15.35-10.922-.953-.637-3.07 0-4.34.53-2.118.848-3.918 2.227-5.93 3.393-3.81 2.121-6.669 1.591-8.362-2.757-1.059-2.757-2.541-5.408-3.812-8.165-1.27-2.757-2.328-4.666-6.351-4.56-2.118.106-4.447-3.923-6.67-6.044 1.588-1.485 3.07-3.818 4.976-4.348 7.304-2.015 14.715-5.62 21.596.636 4.235-7.21 3.917-6.892-2.223-11.24-3.07-2.227-5.187-6.044-7.41-9.225-1.694-2.44-2.647-5.408-4.447-7.741-2.752-3.712-2.435-6.257 1.165-7.953 21.808 27.676 43.51 55.141 65.423 82.923-.529.743-.952 1.909-1.693 2.333-4.764 2.333-4.87 6.469-4.976 11.135-.212 5.726 1.059 9.331 6.246 13.043 3.6 2.651 4.764 8.907 6.352 13.785 2.54 8.059 4.34 16.33 6.775 24.389.635 2.015 2.117 4.03 3.811 5.302 3.705 2.651 7.622 4.984 11.857 6.893 1.588.742 4.128.212 5.822-.53 4.552-1.909 8.681-4.666 13.339-6.363 1.694-.636 5.082-.212 6.14.955 4.235 4.877 7.305 10.816 11.857 15.163 6.775 6.575 9.21 15.164 12.704 23.329 11.645 27.465 23.184 55.035 35.04 82.394 3.917 8.907 8.893 17.391 12.704 27.146-4.34-1.802-8.787-3.499-13.127-5.408-13.233-5.726-26.36-11.452-39.487-17.072-3.917-1.697-6.14-3.606-5.611-8.484 1.376-10.604 2.858-21.314 2.858-32.024 0-8.801-1.693-17.709-3.176-26.51a465.16 465.16 0 00-6.034-29.373c-.635-2.757-2.646-5.62-4.869-7.529-5.611-4.984-11.54-9.332-17.468-13.998-.423.319-.741.531-1.164.849.423.848.635 1.909 1.27 2.545 1.482 1.484 3.07 2.969 4.87 4.029 11.221 6.151 15.667 16.012 16.832 28.313.635 7.423 2.541 14.846 4.552 22.163 2.435 9.225 2.541 18.345 1.059 27.676-.741 4.666-.741 9.438-1.271 14.21-.529 4.453-1.482 9.013-2.223 13.255-11.962-4.242-23.713-8.483-35.57-12.725-6.458-2.227-12.915-4.348-19.373-6.575-.953-.318-2.223-.424-2.858-1.06-6.776-6.044-14.08-4.56-21.702-2.015-4.447 1.485-9.105 2.651-13.657 3.924-5.928 1.696-10.269 4.984-11.433 11.452-.53 3.075-.741 3.075-9.104 4.03-.424 3.499-.953 7.104-1.482 10.816-4.764-.849-7.622-2.651-6.987-7.953.317-2.863 1.694-6.469-2.33-8.271-.317-.106-.529-1.485-.317-1.909 4.235-6.469-.847-10.816-3.388-15.8-1.376-2.757-2.964-5.514-4.658-8.589 2.965-2.015 5.505-4.03 8.47-5.621 3.599-1.908 2.117-4.559.846-6.68-.529-.955-3.176-1.167-4.658-.955-2.646.531-5.293 1.697-9.316 3.076 1.694-7.847 3.706-14.528 4.553-21.315 1.058-8.483 6.563-12.512 13.127-16.86 10.374-6.893 21.066-11.664 34.723-10.816-.635 6.574-.953 13.149-1.8 19.617-1.164 8.908-.635 9.438 8.681 8.802 5.61-.424 9.316-2.227 11.857-7.529 3.917-7.847 8.786-15.164 12.915-22.905.741-1.272.424-3.605-.317-4.984-2.859-5.408-6.988-9.225-13.869-8.059-1.482.212-3.175-.53-4.764-.212-8.892 1.803-13.762-4.242-18.843-9.65-.847-.848-1.059-2.545-1.165-3.817-.105-4.454-.317-8.802.106-13.255.106-1.803 1.165-3.924 2.54-5.196 2.224-2.121 2.753-3.712 1.165-6.681-1.693-3.181-3.705-3.605-6.351-2.439-3.282 1.379-4.764.212-5.823-2.863-1.482-4.666-3.282-8.907-5.187-13.785zm219.454 76.667c-9.316-9.332-20.22-14.634-25.301-26.086-2.753-6.257-6.352-12.089-9.528-18.133-2.117-4.03-4.446-5.302-7.728-1.167-.635.743-1.694 1.167-3.07 2.227-2.541-3.605-4.764-6.999-7.411-10.286-.635-.848-2.117-1.06-3.281-1.484.106 1.272-.106 2.757.529 3.711 2.011 3.075 4.552 5.832 6.352 9.014 2.223 4.029 4.446 3.605 7.199.742.952-.955 2.117-1.803 3.493-2.863 2.329 4.241 4.87 8.059 6.669 12.194 4.658 11.135 12.492 19.406 21.597 27.147 9.316 7.953 18.208 16.542 26.042 25.874 3.705 4.453 4.658 11.452 6.458 17.39.317.955-1.271 3.076-2.541 3.818-8.575 5.514-16.726 12.088-26.148 15.482-4.658 1.696-11.645-2.651-17.362-4.772-1.27-.53-1.8-3.605-2.223-5.62-.424-2.015-.529-4.242-.424-6.363.424-6.786-2.54-12.088-6.775-17.072-4.023-4.666-7.728-9.544-11.962-14.846 3.281-2.863 6.563-5.62 9.739-8.589.847-.849 1.165-2.227 1.694-3.287-1.27.106-2.753-.107-3.599.53-3.6 2.651-6.987 7.529-10.587 7.741-3.387.212-7.093-4.454-10.692-6.999a6.61 6.61 0 00-2.329-1.06c-2.647-.637-6.775-.319-7.622-1.909-1.906-3.393-2.541-7.635-2.753-11.665-.635-8.059-.635-16.224-1.058-24.283 0-.954-.741-1.909-1.059-2.863-.529.106-.953.106-1.482.212 0 2.333-.212 4.666 0 6.893.953 11.028 2.011 21.95 3.07 32.978.318 3.5 1.906 5.09 5.611 3.818 6.563-2.227 9.316 4.348 15.562 6.892-7.093 2.333-12.916 3.712-18.315 6.363-5.293 2.545-9.845 6.468-15.456 10.18-1.058-2.121-2.011-3.712-2.646-5.408-3.176-7.953-5.611-16.331-9.634-23.965-3.282-6.257-8.257-11.559-12.598-17.179-1.058-1.379-2.329-2.439-3.493-3.817-6.246-7.635-6.14-8.484 3.07-11.241 3.705-1.06 7.622-1.59 11.433-1.802 14.609-.849 25.937-8.484 37.158-16.861 12.598-9.438 25.831-18.027 39.064-26.722 3.282-2.227 7.304-3.287 11.645-5.09-6.458-23.753-12.81-47.188-19.267-70.835 8.681-2.015 16.832-3.818 26.36-6.044 1.482 7.422 2.646 14.951 4.446 22.374 2.223 9.226 1.165 18.027-2.011 26.722-.636 1.591-.953 3.394-.953 5.196-.847 21.314-1.376 42.523-2.541 63.837-.318 6.68.318 12.937 3.599 18.769 5.294 8.801 1.271 17.603 1.059 28.207zM93.954 141.846c-11.644.106-11.644.106-13.868 8.166-20.22-25.556-40.016-50.37-59.707-75.29.424-.53.741-1.06 1.165-1.59 9.951 0 19.902-.212 29.853.212 1.377 0 3.176 2.44 4.023 4.136 1.376 2.757 2.223 5.832 3.388 9.225 3.07-2.12 5.717-4.03 8.469-5.938 1.694.954 3.388 2.015 5.081 2.97 3.176 1.696 7.2 5.513 9.528 4.665 5.505-1.909 11.116-5.302 14.821-9.544 2.117-2.439 1.27-7.953.847-11.982-.424-3.394-2.011-6.68-3.705-9.756-.53-1.06-2.965-1.803-4.34-1.697-12.175 1.379-24.35 3.075-36.524 4.666-3.81-9.013-3.81-9.12 2.753-15.588 3.387-3.287 6.88-6.574 10.48-9.65 3.07-2.65 5.188-5.408 4.87-9.861-.106-1.273 2.117-3.394 3.705-4.03 7.728-3.287 15.562-6.468 23.396-9.332 3.388-1.272 5.399-3.18 5.293-6.786-.106-3.075 1.588-4.03 4.341-3.818.317 0 .741.107 1.058 0 7.834-1.484 12.916 1.273 15.774 9.014 1.376 3.817 4.446 6.256 8.787 7.529 9.21 2.65 18.208 6.362 27.418 9.225 5.611 1.803 3.811 6.15 3.494 9.438-.106 1.166-3.6 2.545-5.611 2.651-3.07.106-4.446.954-4.87 4.03-.529 3.817-2.435 6.256-6.669 6.998-3.811.636-7.411 2.015-11.01 3.288-1.27.424-3.07 1.908-3.07 2.863.318 4.241-2.435 4.665-5.505 5.514-6.14 1.59-12.174 3.393-18.208 5.302-1.165.318-2.753 1.696-2.753 2.65 0 4.56-2.117 9.438 3.07 13.256 4.552 3.393 3.176 9.65-1.905 12.407-6.776 3.605-13.445 7.316-13.657 16.33-.106 3.181-.317 6.786 1.059 9.543 3.493 7.105 1.8 13.786-1.27 20.784zm188.331 282.173c-9.527-6.786-19.479-13.573-29.006-20.996-8.681-6.786-17.785-12.619-28.266-15.694-9.21-2.757-11.645-10.71-16.514-18.769 6.563-.318 11.856-.848 17.255-.742 3.282 0 5.188-.955 6.564-4.03 4.023-8.907 9.845-16.754 10.374-27.252.106-3.712 4.553-8.377 8.152-10.18 2.329-1.167 8.787 1.378 10.057 3.923 10.692 21.314 24.031 41.356 30.806 64.473 1.694 5.62 1.271 11.77 1.8 17.709.106.636 0 1.59-.424 2.015-3.387 3.075-6.881 6.044-10.798 9.543z" fill="#fff" fill-opacity=".9" stroke="#fff" stroke-opacity=".9" stroke-miterlimit="10"/><path d="M247.245 324.127c-6.987 5.727-7.94 13.043-9.951 20.042-1.8 6.469-5.505 12.407-8.893 18.345-2.117 3.712-20.643 2.333-22.655-1.59-5.293-10.286-10.692-20.572-15.562-31.07-5.61-12.089-10.48-24.496-15.985-36.69-1.588-3.5-.318-5.09 2.329-7.317 8.787-7.423 19.479-9.968 30.171-12.725 1.165-.318 3.282.742 4.129 1.803 4.764 6.044 10.057 11.876 13.762 18.557 2.117 3.817 2.117 9.119 2.117 13.785.106 5.408 1.059 9.332 7.199 10.922 4.235 1.273 8.046 3.606 13.339 5.938zm47.109 52.173c-1.588 1.061-3.07 2.015-4.87 3.288-7.41-15.058-14.821-29.692-21.702-44.644-2.858-6.15-6.034-11.452-13.868-13.467 8.681-5.302 17.256-10.604 26.784-16.436 2.752 8.589 6.246 16.542 6.563 25.45.318 8.483.106 16.966 1.27 25.343 1.059 6.787 3.706 13.362 5.823 20.466zm-9.424 50.368c2.541-2.757 4.446-6.15 7.411-7.528 3.281-1.697 4.022-3.394 3.917-6.787-.212-8.695.952-17.603-3.6-25.768-.741-1.484.635-4.135 1.059-6.256.635 0 1.27-.106 1.905-.106.741 1.378 1.8 2.757 2.012 4.135.635 4.666 1.27 9.438 1.27 14.21.106 13.255 9.104 22.48 14.503 33.296 2.859 5.833 6.564 11.241 9.528 16.967.741 1.379.741 4.242 0 4.878-1.905 1.378-3.917 4.241-7.199 1.272-7.833-7.316-15.773-14.421-23.713-21.632-2.117-2.227-4.34-4.242-7.093-6.681z" fill="#fff" fill-opacity=".9" stroke="#fff" stroke-opacity=".9" stroke-miterlimit="10"/></svg>