<svg width="406" height="242" fill="none" xmlns="http://www.w3.org/2000/svg"><path d="M86.135 3.536c-3.282.742-6.564 1.379-9.846 2.12-.106-.53-.106-.953-.211-1.484 6.88-1.696 12.81-5.62 21.066-2.12 15.139 6.468 30.913 11.452 46.263 17.39 14.186 5.514 28.265 11.346 42.134 17.709 2.329 1.06 3.07 5.408 4.869 8.801-6.034 1.803-10.48 3.182-14.503-1.06-.529-.53-3.176-.318-3.494.212-5.399 9.226-15.138 7.317-23.395 9.332-11.434 2.757-22.549 1.696-33.347-2.758-3.282-1.378-5.399-.212-7.199 3.076-5.187 10.074-9.634 11.134-20.008 5.408-3.176-1.803-6.458-3.5-9.74-5.196-.635-.318-1.588.106-3.81.318 2.01 1.803 2.963 2.863 4.128 3.5 4.234 2.544 8.469 4.983 12.703 7.422 6.776 3.817 15.351 1.06 18.527-5.938.741-1.697 1.905-3.394 2.964-5.408 2.858.636 5.822.954 8.575 2.014 10.163 4.03 20.431 1.697 30.594.425.741-.106 1.376-.318 2.012-.425 7.622-.105 15.244-.424 18.526-7.21 5.928.212 10.692.424 15.456.53 3.811.106 5.611-1.59 4.552-5.62-.212-.955 0-2.015 0-3.924 12.068 5.196 23.608 10.18 35.888 15.376-7.517 7.953-13.974 16.012-21.808 22.799-8.152 6.999-9.422 16.436-11.645 25.768-.635 2.651-1.588 5.302-2.435 8.165-11.645-3.075-22.867-5.938-33.982-8.801-.212.636-.53 1.272-.741 1.908.953.637 1.905 1.485 2.964 1.803 9.104 2.545 18.208 5.09 27.419 7.317 2.858.742 4.022 1.59 2.964 4.666-.847 2.332-1.165 4.771-1.482 7.21-.53 4.666-2.435 7.847-7.623 7.847-3.705 0-4.869 2.121-4.975 5.302-.318 7.847-3.176 14.316-9.104 19.724-7.517 6.999-15.986 10.816-26.043 7.741-5.716-1.803-9.739-.955-12.809 4.241-.953 1.485-1.906 2.97-3.07 4.772-9.634-7.847-17.997-14.739-26.36-21.632-7.093-5.832-13.657-12.407-21.173-17.285-4.764-3.075-11.01-4.347-16.727-5.408-4.658-.848-5.08-2.969-4.552-6.892 1.165-7.529 2.118-14.952 2.647-22.587.212-2.651-1.376-5.408-2.117-8.165h-2.223c-4.13 6.256-8.152 12.407-12.28 18.663-8.258-2.757-10.693-1.485-15.14 7.741 2.965 2.333 5.93 4.56 9.317 7.317-6.034 5.514-12.598-.424-18.42 2.121-5.611 2.545-11.963 3.499-18.526 5.408 0-2.757.105-4.56 0-6.469-.106-2.969.846-4.56 4.128-4.772 6.14-.424 10.692-3.499 14.504-8.377 3.705-4.666 7.516-9.437 12.068-13.255 7.94-6.68 5.717-15.058 4.87-23.329-.212-1.696 0-3.5 0-5.302 1.588.318 3.281.424 4.658 1.167 6.457 3.499 12.81 7.21 19.584 11.028 9.21-27.57 18.315-54.717 27.313-81.757-.635-.213-1.27-.637-1.905-1.167z" stroke="#fff" stroke-opacity=".9" stroke-miterlimit="10"/><path d="M195.809 186.56c-14.186 6.256-27.63 12.088-41.393 18.133-3.917-11.029-14.291-14.952-21.278-22.269-1.588-1.697-3.811-4.348-3.494-6.15.636-3.606 7.093-7.317 10.057-6.151 10.269 4.242 19.903.318 27.948-4.453 6.776-3.924 12.175-11.241 12.281-20.36 0-4.878 1.587-7.953 7.092-8.377 1.694-.106 3.811-2.651 4.553-4.454 1.482-3.712 2.434-7.741 2.858-11.771.317-3.393 2.117-4.029 4.87-4.029 7.41-.106 14.82-.318 22.125-.424 1.588 0 3.494.318 4.658-.424 12.81-7.953 24.878-2.651 37.158 1.378 5.929 1.909 12.174 2.969 18.103 4.56 1.376.318 3.07 1.06 3.705 2.227 2.223 4.029 4.235 8.165 5.823 12.406 1.799 4.772-3.071 10.498-8.046 11.665-5.928 1.378-11.433 4.242-17.256 6.044-2.117.636-4.552.318-6.881.318-3.176.106-6.669-.742-9.422.424-16.938 7.529-33.77 15.588-50.603 23.223-3.705 1.697-5.505 3.818-2.858 8.484zm-137.94-51.748c9.421 1.485 18.314 3.182 25.936 10.499 11.116 10.71 23.502 20.041 35.359 29.903 1.376 1.06 2.858 2.015 5.081 3.605-7.41 7.211-13.656 13.467-20.22 19.512-.953.954-2.858 1.06-4.34 1.166-9.21.849-18.42 1.591-27.737 2.439-1.27.106-2.434.848-3.599 1.379.106.53.106.954.212 1.484 11.327-1.06 22.655-2.121 34.511-3.181.847 9.544 1.8 17.921 2.329 26.298.106 1.485-1.27 3.924-2.434 4.348-8.575 3.181-17.256 5.938-25.937 8.801-13.445-34.463-22.867-69.138-19.161-106.253z" stroke="#fff" stroke-opacity=".9" stroke-miterlimit="10"/><path d="M294.581 96.96c-2.858 5.513-6.034 11.028-8.681 16.648-2.223 4.559-5.717 5.302-9.951 3.923-6.14-1.802-12.28-3.923-18.526-5.832-10.269-3.181-20.22-3.075-30.806-.424-9.316 2.333-19.374 1.909-30.066 2.863 3.176-12.089 3.176-23.965 13.021-32.66 6.882-6.15 12.81-13.468 18.844-20.572 2.859-3.288 4.976-3.394 9.21-1.91 21.914 7.424 37.476 24.178 55.896 36.585.424.212.635.742 1.059 1.378zm.105 45.063c5.187 1.273 9.951 2.439 14.715 3.606 7.834 1.909 7.834 1.909 7.622 9.968 0 1.06-.106 2.014-.212 3.075-15.032 1.696-26.995 10.074-39.381 16.966-14.503 8.059-29.536 14.21-45.415 18.77-6.881 1.908-13.763 4.241-20.538 6.574-3.07 1.06-4.764.742-6.14-2.439-2.435-5.408-5.293-10.604-8.151-16.436 9.104-4.136 17.467-7.953 25.83-11.877 9.528-4.347 19.056-8.801 28.583-13.043 1.165-.53 3.07-1.272 3.917-.742 6.67 4.136 12.386-.212 18.421-1.803 4.234-1.06 8.575-2.014 12.597-3.499 2.012-.742 3.811-2.333 5.188-3.924 1.27-1.484 2.011-3.605 2.964-5.196zm24.348 2.866c-5.611-1.485-11.115-3.5-16.726-4.242-4.87-.636-6.67-3.605-9.316-7.211-7.199-9.755-6.034-18.769.529-27.994 1.271-1.803 2.117-3.924 3.599-6.575a7212.815 7212.815 0 0125.09 22.163c1.059.954 2.012 2.014 3.176 2.757 2.858 1.696 3.176 3.605 1.376 6.468-2.752 4.666-5.187 9.756-7.728 14.634zm-209.821 85.362c-.953-9.544-1.8-18.345-2.753-27.358h33.453c-.423 5.62 2.541 6.68 6.987 6.468 5.082-.212 5.082.106 8.469 10.18-15.138 3.499-30.382 6.999-46.156 10.71zm261.059-44.537c0-5.409.106-10.923 0-16.331 0-2.757.847-4.241 3.811-4.453 4.658-.213 9.634-3.288 13.339 2.332 2.541 3.924 5.399 7.529 7.94 11.347 4.658 6.998 1.27 11.982-4.023 16.86-4.975 4.56-8.892 10.18-16.938 9.968-3.599-.106-4.235-.954-4.129-4.029.212-5.09.106-10.392 0-15.694zm-211.833 33.084c-1.164-3.606-2.223-6.893-3.493-10.711 10.374-4.559 20.431-8.907 30.488-13.361 2.753-1.166 5.611-2.12 8.152-3.499 2.752-1.484 4.446-.318 5.505 2.015 1.588 3.075 2.858 6.256 4.552 10.074-14.927 5.09-29.959 10.18-45.204 15.482z" stroke="#fff" stroke-opacity=".9" stroke-miterlimit="10"/><path d="M366.037 205.437c-1.482-5.408-4.023-10.923-4.129-16.331 0-6.15-2.752-10.816-5.505-15.482-1.905-3.181-2.223-5.62-.317-8.589.318-.424.529-.954.741-1.378 4.87-13.043 12.492-14.316 23.078-2.969-2.858.424-5.081.848-7.304 1.06-3.494.318-5.082 1.803-4.976 5.726.318 10.922.106 21.844.106 32.767v5.09c-.635 0-1.165.106-1.694.106zm-214.902.32h-7.939c1.058-6.68-2.859-6.574-7.622-6.362-8.575.318-17.15.106-27.313.106 4.446-4.666 7.94-8.377 11.433-11.983 6.034-6.256 6.14-6.256 12.809-.954 4.764 3.817 9.528 7.741 13.974 11.876 1.8 1.591 2.647 4.136 4.658 7.317zm176.369-12.729c-1.694-2.969-3.388-4.665-3.706-6.68-1.058-5.514-1.588-11.028-2.223-16.649-.423-3.181 1.165-4.453 4.235-4.347 4.764.212 9.528-.212 14.186.318 2.434.318 4.552 2.333 7.092 3.605-6.246 8.484-16.62 11.771-19.584 23.753zm23.501 11.137c-4.658-2.121-8.575-3.817-12.28-5.726-5.293-2.651-6.352-6.15-2.223-10.604 4.128-4.56 9.21-8.377 14.08-12.831 3.281 5.302 6.881 9.332 3.811 15.694-1.8 3.923-2.118 8.483-3.388 13.467zm-18.208-72.534c3.282 2.969 6.246 5.408 8.893 8.165.635.636.529 2.651 0 3.605-1.376 2.439-2.858 4.878-4.87 6.787-1.058.954-3.387 1.485-4.764 1.06-6.881-2.439-6.987-3.075-4.023-9.649 1.377-3.288 2.965-6.257 4.764-9.968zm63.73 18.346a491.476 491.476 0 017.305-6.893c.741 1.909 1.693 3.181 1.588 4.454-.424 6.786-.953 13.573-2.012 20.254-.212.954-3.493 1.908-5.399 1.908-.635 0-2.223-3.711-1.694-4.559 3.388-5.09 3.917-9.968.212-15.164zm-36.1-16.647c.212 4.559.529 7.953.529 11.24 0 1.378-.741 3.711-1.376 3.711-1.376.212-3.494-.318-4.34-1.272-2.541-2.757-4.658-6.363-2.012-9.862 1.694-2.545 4.023-5.62 7.199-3.817zm34.406 12.511c-7.834-7.316-8.045-9.119-1.799-14.421 9.845 9.65 9.527 9.119 1.799 14.421zm-2.328 17.497a1312.359 1312.359 0 00-11.328-10.604c2.223-.318 3.811-.742 5.505-.742 2.541.106 6.14-.424 7.199.954 2.541 3.394 1.482 7.211-1.376 10.392zm-40.865-31.813c-.423-2.121-.847-4.454-1.482-7.529 3.917-.53 7.834-.954 12.069-1.484.423 2.545.847 4.559 1.164 6.574-3.917.743-7.728 1.591-11.751 2.439zm21.808 5.832c-.847 3.287-1.799 6.574-3.07 11.664-2.435-2.333-4.764-3.605-5.611-5.514-.741-1.802-.846-5.302.318-6.044 1.8-1.379 4.87-1.273 7.305-1.803a9.155 9.155 0 001.058 1.697zm-50.919 21.53c.106-2.439.212-4.454.423-7.635 5.611 2.227 10.481 4.136 15.35 6.15a7.74 7.74 0 01-.423 1.485h-15.35zm55.26-9.437c2.964-4.03 4.87-6.681 7.199-9.862 2.117 2.545 4.023 4.878 6.775 8.165-4.87.636-8.681 1.06-13.974 1.697zm-9.953-26.407c2.118.318 4.023.636 6.352 1.06-.212 2.863-.423 5.621-.635 8.272-7.305-.637-7.516-1.061-5.717-9.332zm-15.455 32.659a4027.878 4027.878 0 00-11.327-4.878c2.964-6.68 4.128-6.892 8.257-1.166 1.165 1.484 2.223 3.075 3.282 4.666.212.106-.106.636-.212 1.378zm27.525-20.892c.106-3.181.317-6.362.529-10.498 2.541 1.273 4.129 2.227 6.246 3.288-1.906 2.969-3.493 5.302-5.081 7.741-.636-.212-1.165-.318-1.694-.531z" stroke="#fff" stroke-opacity=".9" stroke-miterlimit="10"/></svg>