<svg width="226" height="378" xmlns="http://www.w3.org/2000/svg"><path d="M160.485 219.951c1.165-6.469 2.223-13.043 3.388-19.512.106-.53.318-1.06.318-1.59-1.165-15.482 5.504-28.631 11.962-41.886 3.494-7.105.529-11.877-7.41-12.937-1.165-.212-2.435-.212-3.917-.318-.635-4.348-1.059-8.484-1.906-12.513-.212-1.167-1.8-1.909-2.752-2.863-.212 1.272-.847 2.545-.741 3.711.529 3.818 1.376 7.529 2.329 12.089-9.74-.53-19.056-.955-28.266-1.591-8.892-.742-17.785-1.696-26.677-2.757-1.483-.212-2.965-.848-4.235-1.696-1.8-1.061-3.705-2.227-4.976-3.924-8.68-10.922-20.325-14.209-33.558-13.255-4.447.318-5.293-1.803-5.082-5.62.212-6.681.106-13.255.106-21.314 6.67 2.757 12.174 4.878 17.468 7.104 11.856 4.878 23.395 10.392 35.57 14.528 18.526 6.256 37.475 10.922 57.166 9.65 11.433-.743 22.443 1.484 32.182 6.15 8.787 4.136 15.774 12.089 23.396 18.451.53.424.318 2.757-.317 3.605-7.622 9.756-14.927 19.936-23.396 29.056-5.187 5.62-11.857 9.967-18.314 14.103-6.141 3.923-10.481 9.119-13.974 15.27-1.8 3.181-4.341 6.044-6.564 9.013-.741-.424-1.27-.636-1.8-.954zM9.101 121.971c1.482.106 2.541-.212 3.07.212 6.564 4.772 13.233 2.121 20.22 1.167 7.623-.955 15.35-.212 23.926-.212-.318 4.029-.636 6.68-.742 9.437-.211 6.893-.211 13.786-.423 20.678-.635 26.722-1.165 53.551-2.223 80.273-.212 4.56-2.435 9.013-4.235 13.361-5.505 13.467-5.081 22.693 6.035 32.555 5.293 4.771 9.845 10.391 15.88 16.86-6.988.848-12.599 1.697-18.21 2.121-.952.106-2.752-1.591-3.07-2.757-1.905-6.575-3.81-13.149-5.187-19.83-.847-3.923-1.376-8.059-1.058-12.089 1.164-18.769-6.352-35.523-12.175-52.596-2.435-7.104-9.95-12.406-14.715-18.875-1.588-2.121-2.858-5.408-2.54-7.847 1.588-11.452-.106-22.056-4.235-32.872-2.223-5.939-1.164-13.15-1.27-19.83 0-2.969.635-6.15.952-9.756z" fill-opacity=".9" stroke="#fff" stroke-opacity=".9" stroke-miterlimit="10"/><path d="M58.01 182.627c4.447 2.545 8.47 4.984 12.598 7.105a1433.858 1433.858 0 0028.371 14.633c2.435 1.167 3.706 2.439 3.917 5.408.318 6.151 1.377 12.195 2.012 18.345.317 2.969 1.376 4.56 4.658 4.242 2.011-.212 4.129 0 6.458 0 .635 4.242 1.482 7.953 1.799 11.77.424 5.196 2.329 8.802 7.517 10.711 2.329.848 4.34 2.863 7.092 4.771-3.917 6.681-7.834 13.362-11.856 19.83-.53.742-2.118 1.166-3.176 1.166-11.751.106-23.608 0-35.359.106-2.752 0-4.446-.848-4.234-3.923.74-9.332-3.176-16.224-10.057-22.375-6.987-6.15-10.693-14.421-10.798-23.753-.212-14.845.105-29.585.211-44.431.106-1.06.53-2.014.847-3.605zm21.067 8.167c-5.717-3.288-12.28-6.787-18.632-10.816-1.376-.849-2.435-3.182-2.54-4.878-.212-16.755-.107-33.403-.107-50.9 12.386.424 24.349-3.181 32.606 7.953 7.834 10.604 19.268 11.559 31.018 12.089 11.963.636 23.82 1.484 35.676 2.227.847.106 1.588.53 3.176.954a6487.864 6487.864 0 00-10.48 32.767c-11.539-5.62-23.078-3.5-34.618-1.379-9.104 1.697-18.42 2.545-27.524 4.56-2.752.742-4.976 4.242-8.575 7.423zM26.145 94.612c10.27-.636 19.691-1.272 29.642-1.908v27.676c-3.493 0-7.198-.106-10.798 0-6.563.318-13.445-.106-19.796 1.379-6.352 1.484-10.163-2.545-15.033-4.56-.741-.318-1.059-2.439-1.059-3.711.106-4.348.953-8.802.741-13.149-.317-6.045-1.8-11.983-1.8-18.027 0-4.984.318-10.392 2.224-14.952 3.811-9.332 1.059-18.133-.741-26.934C7.195 29.29 4.02 18.369 1.162 7.235c5.928-4.56 12.81-5.408 20.008-1.697 4.128 2.121 7.834.955 11.645-.742a100.873 100.873 0 017.834-3.181c6.457-2.333 12.174.424 14.08 6.999 1.164 4.135 2.011 8.377 3.07 13.043-5.929.53-11.01 1.59-15.986 1.272-6.034-.424-8.787 2.015-9.422 8.271 2.012.742 4.235 1.59 6.458 2.333.847 7.741-.106 9.12-7.199 12.3-.74.319-1.588 1.061-1.694 1.697-1.27 15.482-2.54 30.858-3.81 47.082z" fill-opacity=".9" stroke="#fff" stroke-opacity=".9" stroke-miterlimit="10"/><path d="M84.053 193.654c.318-4.454 2.753-6.151 6.458-6.681 13.339-2.121 26.572-5.09 40.016-6.256 6.352-.531 13.022 1.908 19.479 3.393 11.222 2.651 11.328 2.757 10.904 13.997-.106 3.394-1.27 6.787-1.8 10.286-.635 4.56-.952 9.226-1.588 13.892-.211 1.696-.529 3.499-1.482 4.771-7.198 9.438-14.609 18.77-22.231 28.631-6.14-2.969-13.55-5.302-13.127-15.057.106-1.591-.635-3.076-.741-4.666-.424-5.09-1.8-8.802-8.152-7.635-.952.212-3.175-2.015-3.387-3.393-1.059-5.196-1.588-10.392-2.117-15.588-.318-3.288-1.377-5.196-4.764-6.681-6.034-2.545-11.751-5.938-17.468-9.013zm6.88 115.798c-.53 15.588-1.27 31.176-1.482 46.764 0 4.029 1.694 8.165 2.752 12.194.53 2.121 1.482 4.242 2.54 6.999-3.81.53-7.092 1.379-10.48 1.379-1.588 0-3.81-1.167-4.552-2.545-7.41-12.725-15.35-25.238-21.702-38.493-2.858-6.044-2.329-13.679-3.387-20.572-.636-4.136-1.377-8.165-2.224-13.149 6.564-.742 13.127-1.485 19.691-2.121 1.059-.106 2.33.53 3.282 1.061 4.446 2.969 8.787 6.044 13.233 9.119.74-.106 1.482-.424 2.329-.636z" fill-opacity=".9" stroke="#fff" stroke-opacity=".9" stroke-miterlimit="10"/><path d="M99.931 283.895h18.844c-.847 5.62-1.376 11.558-2.646 17.284-2.435 11.771-2.541 23.647-2.435 35.63.106 10.604-2.541 21.208-4.023 31.812-.106.848-.318 1.697-.423 2.545-.953 6.044-.953 6.044-6.987 5.302v-36.266c-6.67 10.498.846 22.269-4.13 32.873-4.128-5.62-5.716-12.831-5.504-20.996.423-12.301.423-24.602.847-36.902.106-2.545.212-5.727 1.694-7.317 4.869-4.984 5.187-10.816 4.869-17.073-.317-2.015-.106-4.135-.106-6.892z" fill-opacity=".9" stroke="#fff" stroke-opacity=".9" stroke-miterlimit="10"/><path d="M54.622 243.281c6.034 6.893 11.962 13.255 17.467 19.936 1.27 1.59 1.694 4.135 2.012 6.362.529 3.075 1.058 6.257 1.058 9.438-.106 3.817 1.906 4.878 5.188 4.878h16.197c0 5.408.317 10.392-.106 15.27-.53 5.938-8.47 8.483-13.445 4.029-7.199-6.574-13.868-13.891-20.643-20.996-1.694-1.803-3.07-4.029-4.976-5.408-10.586-8.059-9.74-17.921-5.081-28.631.847-1.909 1.8-3.817 2.329-4.878zm105.758-61.186c-5.082-.106-7.305-2.969-6.141-6.468 2.647-8.165 5.505-16.225 8.046-24.39 1.27-4.135 3.811-5.408 7.516-3.605 3.07 1.485 6.035 2.863 3.282 7.847-4.128 7.741-7.093 16.012-10.586 24.071-.529 1.061-1.694 1.909-2.117 2.545z" fill-opacity=".9" stroke="#fff" stroke-opacity=".9" stroke-miterlimit="10"/></svg>