<svg width="304" height="164" fill="none" xmlns="http://www.w3.org/2000/svg"><path d="M149.642 129.526c-2.541-12.725-5.082-24.919-7.199-37.114-2.117-11.983-1.8-11.665 9.21-16.648 8.575-3.924 17.468-3.5 26.36-3.394 4.34 0 6.034-1.166 5.717-5.726-.318-4.136-.106-8.377-.106-13.68h32.288c-8.786 4.879-6.352 12.62-5.399 19.618.741 5.833-3.917 3.5-6.034 4.984 0 .53-.318 1.167-.106 1.59 5.082 9.12.529 18.876 2.012 28.314.211 1.378-1.588 4.029-2.965 4.453-16.726 5.833-33.558 11.347-50.285 16.861-.847.318-1.8.424-3.493.742z" stroke="#fff" stroke-opacity=".9" stroke-miterlimit="10"/><path d="M237.085 97.607c-8.258 4.029-17.044 8.271-25.725 12.512l-1.906-1.272V80.215c1.165-.211 2.753-.423 5.082-.847-.424-4.984-.847-9.862-1.377-14.634-.423-3.075.318-5.408 3.282-6.999 3.176-1.696 4.658-4.135 4.341-8.165-.424-4.878-.318-9.862 0-14.846.105-1.59 1.693-3.71 3.175-4.453 2.965-1.379 6.352-1.803 9.528-2.97 9.528-3.393 17.679-8.8 25.196-15.481 4.552-4.03 10.163-6.999 15.138-10.392 1.059 1.484 1.482 1.802 1.482 2.014-.529 9.438-.529 9.12 8.893 9.65 5.293.318 10.586 1.909 15.668 3.5 4.658 1.378 2.54 6.044 3.387 9.119.212.848-1.693 3.181-2.435 3.181-2.329-.212-5.187-.53-6.881-2.014-5.505-4.56-8.045-4.454-12.28 1.166-2.964 3.923-5.928 7.847-9.316 10.498-2.435.424-4.87.742-7.304 1.378-1.694.425-3.388 1.06-4.87 2.121-5.611 4.136-10.163 2.44-14.715-2.014-1.376-1.379-4.341-2.227-6.14-1.697-1.165.424-2.118 3.5-2.118 5.408-.211 17.709-.105 35.311-.105 53.869zM43.777 126.451c-1.694-15.482 7.198-24.92 18.208-32.873 1.059-.742 2.753-1.166 3.917-.848 6.458 1.59 12.915 3.393 19.267 5.196.741.212 1.694 1.06 1.694 1.697.953 10.498 8.257 18.026 12.069 27.252 2.011 4.878 4.552 9.438 7.198 13.997 1.588 2.651 1.271 4.242-1.588 5.196-5.081 1.803-10.163 3.818-15.35 5.196-1.588.424-3.493-.954-5.293-1.484-1.059-.318-2.647-1.273-3.282-.849-4.129 2.757-7.199.531-10.48-1.802-8.258-5.726-16.515-11.347-24.666-17.073-1.27-.848-2.012-2.333-3.07-3.605h1.376zm46.58-27.571c9.422 4.771 16.515-.743 23.713-3.712 1.8-.742 2.541-5.408 2.859-8.377.423-3.712 1.799-5.196 5.61-4.984 4.341.318 8.787.106 13.657.106 2.329 11.028 4.658 21.95 6.987 32.872.847 3.818 1.27 7.635 2.541 11.241 1.376 3.711.211 5.62-3.282 6.786-9.104 3.182-17.997 6.681-27.207 9.544-1.588.53-4.87-.424-5.505-1.697-6.458-12.618-12.598-25.449-18.844-38.174-.317-.743-.212-1.591-.53-3.606zm90.09-30.541c-1.482.318-2.012.53-2.435.53-11.963-1.06-23.29.636-33.876 6.999-2.859 1.696-6.67 1.908-10.163 2.332-14.398 1.591-28.901 2.864-43.405 4.242-1.587.106-3.07 0-4.234 0-.53-.53-.741-.53-.741-.742-4.129-16.437-5.187-13.68 9.951-18.345 7.199-2.227 14.609-4.03 21.385-7.211 9.951-4.666 20.325-3.181 30.594-3.605 9.528-.319 19.056.106 28.477 0 3.071 0 4.658.636 4.447 4.03-.106 3.817 0 7.74 0 11.77z" stroke="#fff" stroke-opacity=".9" stroke-miterlimit="10"/><path d="M79.03 154.231c-21.384 8.589-43.192 12.725-66.376 5.514 1.165-10.074 4.552-20.042-.529-29.797 9.316-9.544 17.573-14.846 29.43-18.557-.53 4.984-.53 9.649-1.694 13.997-1.058 4.03.424 5.62 3.388 7.635 8.892 5.62 17.361 11.77 26.254 17.391 2.858 1.802 6.034 2.438 9.528 3.817zm0-85.678c2.33 8.801 4.341 16.542 6.564 25.343-3.387-.742-6.034-1.166-8.68-1.802-9.634-2.121-19.268-4.03-28.795-6.469-1.906-.424-3.388-2.545-5.082-3.817 1.376-1.485 2.647-3.075 4.129-4.348 9.316-7.529 20.855-6.362 31.865-8.907zm-69.87 58.11c-1.799-2.227-3.493-4.878-5.822-6.893-4.128-3.605-2.011-6.044 1.27-8.165 7.411-4.559 15.033-8.801 22.655-13.149.741-.424 2.118-.424 2.753.106 3.6 2.545 7.199 5.302 10.163 7.635A15251.815 15251.815 0 009.16 126.663zM216.864 33.03v14.42c-3.282.319-6.669.85-10.057 1.061-6.14.424-12.28.742-18.314 1.06-2.435.107-5.082.107-4.764-3.18.318-3.076-2.329-7.742 2.964-8.696 9.845-1.697 19.691-3.075 30.171-4.666zm-36.736 6.041v10.286h-39.381c12.174-6.999 24.137-14.103 39.381-10.286zM57.752 93.366c-4.764 4.135-8.364 7.316-12.175 10.286-.847.636-2.752.742-3.599.212-3.705-2.545-7.199-5.514-11.116-8.59 2.647-3.817 5.082-7.422 7.517-11.028 6.14 2.97 12.174 5.726 19.373 9.12zm56.32-10.391c0 8.483-7.199 14.845-15.562 14.527-8.787-.318-11.433-2.969-10.587-11.028 8.47-1.166 17.045-2.333 26.149-3.5z" stroke="#fff" stroke-opacity=".9" stroke-miterlimit="10"/></svg>