<svg width="354" height="208" fill="none" xmlns="http://www.w3.org/2000/svg"><path d="M158.486 117.613c18.103-6.681 29.324-19.936 35.676-37.327 13.445 4.56 12.386 4.348 12.916 15.058.211 5.196-.106 10.074-3.07 14.634-.741 1.166-.953 4.241-.318 4.559 4.658 2.969 9.634 5.514 14.609 8.165.53-.848.953-1.59 1.482-2.438-2.329-1.379-4.552-2.864-6.881-4.03-8.469-4.242-6.987-3.287-3.811-10.074 1.059-2.227 1.27-4.984 1.27-7.529 0-3.711-.635-7.423-.635-11.028 0-2.863-.847-4.454-3.705-5.514-3.176-1.166-6.14-3.181-9.104-4.772 3.599-8.271 6.457-9.12 14.503-7.74 5.928 1.06 12.174.741 18.209.423 12.491-.636 24.454-2.969 35.993-8.589 13.974-6.787 16.409-5.09 19.691 12.513-2.117-.424-4.341-.318-5.929-1.273-4.022-2.439-6.881-.848-9.739 1.803-2.435 2.227-4.87 4.666-7.728 6.256-4.552 2.545-5.187 5.62-2.541 9.756 3.07 4.878 1.377 9.756.53 14.74-.318 1.696.635 4.347 2.011 5.514 3.705 3.181 7.94 5.726 12.81 9.225 1.482-3.711 2.646-6.68 3.493-8.801 7.093-1.166 14.292-2.121 21.384-3.605 6.882-1.485 14.292-2.545 15.668-11.983 4.658 0 9.316-.106 14.08.106 1.376.106 2.964.954 4.023 1.909 6.246 5.726 12.28 11.558 19.055 17.921-6.14 5.408-10.586 11.346-18.526 11.346-4.023 0-6.246 1.273-6.987 5.196-1.482 8.059-5.611 12.195-14.503 12.301-8.152 0-16.409 1.59-24.455 3.287-3.811.848-7.833 2.969-10.692 5.62-5.081 4.878-9.633 10.286-13.656 16.012-3.07 4.454-5.187 3.075-8.258.53-8.786-7.635-17.255-15.694-26.571-22.374-6.564-4.666-14.186-7.953-21.702-11.028-11.751-4.878-23.82-9.226-35.782-13.574-3.917-1.484-8.046-2.332-11.963-3.499-.635-.742-.741-1.272-.847-1.696z" stroke="#fff" stroke-opacity=".9" stroke-miterlimit="10"/><path d="M148.957 58.656c13.974-4.136 26.89-13.467 42.24-4.454-.106 1.273-.318 3.288-.318 5.302-.106 5.196 0 10.498-.212 15.694-.105 2.44-.529 5.09-1.376 7.423-4.023 10.498-11.327 18.557-20.114 25.132-4.87 3.605-10.586 6.256-16.091 8.801-1.165.53-3.494-1.06-5.082-1.909-12.809-6.786-25.407-13.997-38.534-20.253-4.34-2.015-9.845-1.485-14.927-2.227-.74-7.847-.635-8.06-8.998-10.816-3.705-1.273-5.082-3.076-5.187-7.211-.106-4.984-1.165-10.074-2.435-14.952-.847-3.181-.106-4.347 2.858-5.302 17.785-5.938 35.57-11.982 53.249-18.345 3.812-1.378 5.294-.424 6.67 3.075 2.435 6.68 5.399 13.043 8.257 20.042zm-.952 62.882c-7.622 4.029-4.975 8.377-2.329 12.831 2.435 4.029 5.082 8.271 1.165 13.679a7047.235 7047.235 0 00-33.241-5.726c-4.341-.742-8.575-1.697-12.916-2.227-15.985-2.015-27.1-12.937-39.593-21.526-7.41-5.196-15.244-9.65-22.866-14.634-5.823-3.817-11.645-7.74-17.15-11.982-1.059-.849-1.376-3.818-.847-5.303.423-1.272 2.858-2.757 4.234-2.65 11.328.848 22.338 1.166 33.242 6.15 12.915 5.938 26.677 10.498 41.604 9.65 5.505-.319 11.539 1.272 16.621 3.711 10.586 5.196 20.537 11.452 32.076 18.027z" stroke="#fff" stroke-opacity=".9" stroke-miterlimit="10"/><path d="M151.604 148.578c2.329-6.575-1.059-12.725-4.764-18.769-.529-.849.318-3.076 1.164-3.924 1.165-1.06 3.282-2.333 4.659-1.909 22.125 5.408 43.615 13.043 64.576 22.057 4.129 1.802 7.622 5.514 11.116 8.589 8.257 7.105 16.515 14.209 24.56 21.526.953.848 1.906 2.757 1.588 3.818-2.223 7.847-4.87 15.694-7.304 23.541-.212.848-.636 1.59-1.271 3.075-1.27-.636-2.541-.955-3.493-1.697-8.258-6.15-16.409-12.619-24.878-18.557-15.456-10.71-30.912-21.42-46.792-31.282-5.399-3.287-12.28-4.242-19.161-6.468zm50.285-135.731c4.975-2.014 9.21-3.605 13.339-5.514 4.128-1.803 8.045-3.923 13.021-6.362v63.836h11.327c0 .742 0 1.59-.106 2.333-9.422-.318-18.949.106-28.265-1.379-5.293-.848-9.422-1.272-13.127 3.076-.953 1.166-2.329 2.014-3.6 3.075-3.705-6.893.106-13.043 1.588-18.981 3.282-13.361 7.834-26.192 5.823-40.084zm-51.344 42.84c-2.647-7.635-5.188-14.74-7.94-22.481 18.209-6.363 36.099-12.725 54.096-18.981 3.494 8.907.847 16.86-.953 24.813-.211 1.06-.529 2.015-.846 3.075-2.329 8.165-2.753 9.226-10.481 6.045-12.492-5.09-21.702 2.65-31.971 6.574-.423.106-.847.424-1.905.955zM24.673 78.062c1.059-8.907 3.07-11.24 10.48-11.452 11.963-.212 22.761-5.09 33.877-8.696 3.917-1.272 5.823-.318 6.458 3.394.74 5.302 1.588 10.71 1.482 16.012 0 4.03 1.164 5.832 5.081 6.468 2.859.425 5.717 1.59 8.575 2.44v6.892c-6.246-1.485-12.174-2.545-17.997-4.242-5.822-1.802-11.645-3.923-17.15-6.574-8.045-3.924-16.726-3.181-25.195-4.242-1.8-.212-3.705 0-5.61 0zM3.289 64.275c7.198 1.167 13.55 2.121 20.537 3.288-.423 1.696-.847 3.393-1.376 5.196-1.059 3.711-2.964 4.984-6.987 3.393-4.552-1.803-9.316-2.757-14.398-4.242.847-2.757 1.694-5.514 2.224-7.635z" stroke="#fff" stroke-opacity=".9" stroke-miterlimit="10"/></svg>