<svg width="267" height="303" fill="none" xmlns="http://www.w3.org/2000/svg"><path d="M133.215 302.247c-5.082-13.785-10.057-26.934-14.821-39.977-4.87-13.679-7.199-28.313-14.927-40.932-.741-1.166-1.482-2.333-2.117-3.605-.635-1.167-1.165-2.333-1.8-3.5 1.482-.636 3.07-1.908 4.552-1.908 10.587.318 21.173.53 31.654 1.484 6.987.637 11.221-4.453 16.726-6.68.635-.212.953-2.545.635-3.818-3.493-14.315-7.198-28.631-10.904-43.052 6.458-6.893 14.186-12.089 23.502-14.528 2.117-.53 4.658-.106 6.881.106 1.588.106 3.176 1.167 4.552.955 6.14-.955 9.74 2.333 13.127 6.786 2.753 3.712 5.929 6.999 9.211 10.18 1.376 1.379 3.493 2.651 5.399 2.651 17.785.318 35.57.424 53.355.53.741 0 1.588-.318 2.435-1.696-1.165-.318-2.223-.743-3.388-.743-16.197-.424-32.394-.53-48.591-1.166-2.753-.106-5.823-1.803-8.046-3.605-3.07-2.545-5.505-5.833-8.046-9.014-3.387-4.348-7.198-7.635-13.338-6.362-.636.106-1.588.212-2.118-.106-11.539-6.363-20.008 2.12-29.43 6.044-.741.318-1.376.954-2.117 1.379-4.023-29.48-8.046-58.747-12.068-88.65 9.633 1.908 19.373 3.71 29.112 5.62 12.386 2.439 24.772 4.877 37.158 7.422 2.012.425 4.235.955 5.928 2.121 18.844 12.407 37.688 25.026 56.532 37.539.423.318.635.848-.424 1.272-.212 3.075-1.058 6.257-.635 9.226 1.27 8.377 3.599 16.542 4.658 24.813 2.011 16.012-3.599 29.586-14.609 41.144-18.209 18.981-35.676 38.917-54.838 56.944-18.949 17.921-39.593 34.039-59.601 50.899-.635.424-1.376.849-3.599 2.227z" stroke="#fff" stroke-opacity=".9" stroke-miterlimit="10"/><path d="M50.428 11.166c2.435 4.772 5.082 9.544 7.305 14.421 6.14 13.362 12.28 26.829 18.103 40.296 1.588 3.605 3.387 4.136 6.987 2.651 3.81-1.59 7.94-2.333 12.28-3.5.635 3.924-.318 9.226 7.093 6.151-2.965 9.968 4.658 14.952 8.151 21.95 1.165 2.44 1.482 5.302 2.541 7.741.847 1.909 1.8 4.348 3.387 5.302 4.129 2.545 5.505 5.727 5.082 10.498-.529 6.999.529 13.998-3.917 20.36-1.165 1.591-.741 4.454-.741 6.681-.212 8.165-5.823 13.149-10.163 18.981-1.059 1.379-1.376 3.181-2.117 4.878 1.588-.212 3.282-.212 4.869-.53 1.694-.424 3.388-.955 4.976-1.697 3.599-1.697 6.775-1.378 9.316 1.697 2.858 3.393 5.399 2.333 8.152 0 .529-.424 1.058-.955 1.587-1.379 5.505-4.029 5.505-3.923 7.093 2.757 2.329 9.756 4.976 19.406 7.199 29.055.635 2.757 1.588 7.317.318 8.166-3.494 2.544-8.046 4.983-12.175 5.089-9.104.319-18.42-2.332-27.312-1.06-11.01 1.485-18.632-3.817-26.784-9.013-10.269-6.681-20.643-13.255-30.806-20.148-7.622-5.196-9.528-14.634-5.61-23.329 2.752-6.044 6.14-12.195 6.88-18.557 2.223-19.936 3.176-39.978 4.87-59.913C58.05 66.095 56.145 53.9 53.498 41.6c-.846-4.136-.529-8.378-1.058-12.62-.741-5.725-1.8-11.452-2.753-17.178.424-.318.53-.53.741-.636z" stroke="#fff" stroke-opacity=".9" stroke-miterlimit="10"/><path d="M2.579 68.746c10.586 1.484 20.326 3.18 30.17 4.135 1.695.212 3.918-1.908 5.506-3.287 3.81-3.287 7.304-6.893 11.539-10.922.318 2.227.847 4.136.847 6.044-.212 24.071-.741 48.143-4.235 72.108-.74 4.984-3.6 6.044-6.88 7.21-6.988 2.333-14.08 4.03-21.068 6.257-3.81 1.272-5.822.53-6.563-3.712-2.859-16.436-5.717-32.766-8.787-49.096C1.414 88.787.25 80.198 2.05 71.397c.318-1.06.53-2.227.53-2.651z" stroke="#fff" stroke-opacity=".9" stroke-miterlimit="10"/><path d="M5.966 18.058c14.61 2.97 20.22-8.271 28.69-16.542 4.657 9.755 12.491 16.754 11.962 28.206-.318 6.363 1.588 12.831 2.54 19.194.424 3.181.106 5.514-2.646 8.27C33.914 69.595 34.02 69.7 16.552 67.05c-1.058-.212-2.117-.318-3.07-.53-9.633-1.91-12.28-6.893-8.68-16.225.317-.848.635-1.59 1.164-2.333 4.976-7.529 4.87-15.375 1.165-23.435-.847-1.484-.636-3.287-1.165-6.468zm53.25.106c6.881 3.817 13.762 7.423 20.432 11.558C86 33.647 92.14 37.995 98.28 42.236c7.834 5.302 15.562 10.816 23.396 16.012 2.646 1.697 3.705 3.5 3.811 6.787.212 8.06 1.694 16.118 1.376 24.177-.212 5.727-2.435 11.347-3.811 17.603-4.129-2.227-7.093-3.499-7.093-8.377 0-2.863-2.117-5.832-3.705-8.483-4.129-6.787-8.787-13.255-6.034-22.269-2.541.106-4.235.212-5.929.212-.317-.318-.74-.424-.847-.742-2.329-6.893-2.329-6.893-9.104-4.984-3.705 1.06-7.41 2.015-11.433 3.075-7.093-15.588-13.974-30.858-20.855-46.127.423-.319.74-.637 1.164-.955z" stroke="#fff" stroke-opacity=".9" stroke-miterlimit="10"/><path d="M111.936 161.953c.635-1.06.847-2.014 1.376-2.438 5.505-4.56 7.093-10.498 6.246-17.391-.106-.848 0-1.909.424-2.545 6.14-9.332 3.387-20.042 4.869-30.116.212-1.378.318-2.863.953-4.029 4.764-9.332 4.764-19.3 3.705-29.373-.211-2.227-.317-4.454.847-6.893 1.165 4.984 2.647 9.968 3.282 15.058 2.858 22.798 5.399 45.703 8.046 68.608.106.848-.212 2.227-.847 2.757-3.811 3.181-7.622 6.256-11.645 9.12-.847.53-2.964.53-3.6-.107-3.281-3.605-6.987-4.241-11.327-2.226-.529.106-1.27-.212-2.329-.425zm-76.751 7.954c-6.246-4.984-12.174-9.756-19.055-15.27 8.998-2.863 17.15-5.408 25.619-8.059-2.223 8.059-4.34 15.482-6.564 23.329z" stroke="#fff" stroke-opacity=".9" stroke-miterlimit="10"/></svg>