<svg width="203" height="495" fill="none" xmlns="http://www.w3.org/2000/svg"><path d="M106.983 295.698c-8.575-3.712-16.303-8.271-24.666-10.392-13.762-3.606-22.337-13.043-30.383-23.647-3.07-4.03-6.034-8.166-8.786-12.513-.741-1.167-.847-3.712-.106-4.56 4.658-5.408 9.633-10.604 15.456-16.966 5.399 5.408 10.375 9.437 14.186 14.421 4.234 5.726 9.316 9.438 15.985 11.877 8.68 3.181 17.15 7.104 25.831 10.498 1.694.636 3.599.53 5.399.848.106-.636.317-1.272.423-1.803-7.198-2.969-14.397-6.044-21.596-9.013-1.588-.636-3.176-1.485-4.87-1.909-11.115-2.333-17.996-9.968-24.242-18.769-2.118-3.075-5.611-5.196-8.681-7.953 2.646-3.287 4.975-6.575 7.728-9.438 9.633-10.18 12.492-23.753 17.785-36.053 3.493-8.166 8.469-15.694 12.915-23.329.53-.955 2.753-1.803 3.705-1.379 7.834 3.181 15.562 6.681 23.82 10.286-.953 2.651-2.435 6.256-3.811 9.968.741.318 1.376.636 2.117.954 1.8-3.499 3.599-6.999 5.611-10.922 7.198 3.499 14.503 6.787 21.49 10.71 6.14 3.499 12.386 5.514 19.479 5.196 5.928-.318 6.987 1.273 5.399 6.999-4.235 14.527-8.998 28.843-13.021 43.37-2.223 8.272-3.388 16.861-4.87 25.238-.741 4.454-1.164 9.013-1.906 13.467-.846 4.878.106 5.938 5.188 5.514 2.117-.106 4.234-.318 6.246-.318.847 0 1.694.424 2.964.848-2.012 12.301-4.129 24.602-6.034 36.797-.53 3.181-.953 6.68-.106 9.649 1.376 4.772 1.588 9.12-1.271 13.043-7.092 9.65-8.151 21.102-10.268 32.237-5.082 25.449-9.846 51.005-14.715 76.561a6943.248 6943.248 0 00-4.87 25.874c-4.34-2.651-8.152-4.454-11.327-7.105-4.129-3.393-7.94-3.499-12.492-1.06-3.494 1.908-7.305 3.287-11.116 4.771-6.458 2.439-13.127-2.12-12.704-9.013.106-1.697 1.906-3.817 3.494-4.666 9.422-5.09 10.269-10.18 2.329-17.496-3.705-3.394-6.458-8.06-12.492-7.954-.953 0-2.647-2.12-2.752-3.393-.636-4.135-3.388-4.878-6.67-5.514-3.917-.742-7.834-1.697-11.75-2.651-1.06-.212-2.436-1.06-2.965-.742-6.564 4.135-11.116-1.061-16.197-3.394-2.964-1.378-5.187-2.226-7.199 1.803-.953 1.803-4.234 2.333-6.458 3.5-.635-1.803-1.587-3.712-1.693-5.515-.212-4.559.317-9.225-.212-13.785-.53-4.878 2.011-7.635 5.187-10.71 5.929-6.044 13.022-9.438 21.067-11.134 7.94-1.697 13.233-6.257 17.256-13.149 3.176-5.62 15.244-7.635 21.279-5.514 6.351 2.226 13.232 2.969 19.902 4.135.635.106 1.905-1.378 2.117-2.439 1.8-6.786 3.388-13.573 4.87-20.466.212-1.06-.847-2.863-1.8-3.605-3.493-2.651-7.304-4.772-10.904-7.317-2.223-1.59-5.822-3.393-5.928-5.302-.212-4.878.317-10.18 1.905-14.845 1.377-4.136 4.553-7.741 7.728-12.831z" stroke="#fff" stroke-opacity=".9" stroke-miterlimit="10"/><path d="M64.003 140.244c7.94 9.968 20.644 6.363 30.7 11.665-1.693 3.075-3.493 6.15-5.08 9.437-4.341 9.332-9.317 18.557-12.81 28.313-4.235 11.665-11.54 21.208-19.373 30.434-4.13 4.878-7.94 9.862-12.175 14.527-2.329 2.545-5.293 4.454-8.363 6.999-9.74-13.573-19.055-26.51-28.371-39.447-2.223-3.181-4.447-6.363-6.67-9.438-1.588-2.227-1.058-3.499 1.165-5.09 18.208-13.255 36.417-26.616 54.52-40.083 2.646-1.909 4.34-4.666 6.457-7.317zm93.796-19.194c5.822-11.665 14.186-22.056 19.69-33.933-.635-.318-1.164-.742-1.799-1.06-2.541 4.029-5.082 8.059-7.834 12.406-1.482-.954-2.647-1.696-3.705-2.439.106-.742.105-1.378.317-1.802 1.8-3.182 3.176-6.787 5.505-9.544 2.223-2.757 5.082-5.408 8.152-6.893 7.939-3.711 10.586-11.24 14.185-18.027a63.59 63.59 0 002.012-4.453c2.541 19.511 5.187 39.447 7.622 59.382.953 7.847-5.081 13.15-8.152 19.512-.211.424-1.587.53-2.434.424-12.386-1.378-23.714-5.408-33.559-13.573zm-49.016-31.814c5.822 5.09 11.221 9.968 17.255 15.376-5.822 8.908-11.433 17.603-17.255 26.404-3.176 4.772-6.352 9.65-9.951 14.21-1.06 1.272-3.388 2.439-4.976 2.227-7.199-1.167-14.503-2.545-21.596-4.56-2.435-.636-4.235-3.393-6.67-5.514 14.927-16.436 28.901-32.131 43.193-48.143z" stroke="#fff" stroke-opacity=".9" stroke-miterlimit="10"/><path d="M193.052 39.08c1.27 7.742-1.27 13.998-4.023 20.679-3.599 8.483-9.528 13.467-17.15 18.027-3.917 2.332-6.246 7.74-8.363 12.194-1.906 4.03-3.917 4.454-7.199 2.333-3.705-2.333-7.41-4.666-11.751-7.317 6.246-7.422 4.658-16.224 4.87-24.813 0-1.273.424-2.97 1.165-3.818 11.327-12.512 24.348-20.89 42.451-17.284zM165.95 493.782c-8.363-6.257-15.562-11.453-22.655-16.967-1.058-.848-2.223-2.651-2.011-3.817 2.435-14.104 5.187-28.207 8.046-43.795 3.811 4.03 6.563 6.893 9.316 9.968 2.117 2.333 4.658 4.454 6.14 7.211 2.858 5.302 4.234 11.134 8.892 15.8 1.906 1.908.318 8.165-.847 12.194-1.588 6.257-4.234 12.301-6.881 19.406zm27.101-336.361v22.163c-22.02 2.651-41.287-4.878-59.495-16.967 1.164-2.332 2.223-4.771 3.493-6.998.424-.955 1.059-1.697 2.117-3.181 4.764 2.651 9.74 4.983 14.186 7.953 3.494 2.332 6.775 3.075 10.375 1.166 8.892-5.196 18.738-4.348 29.324-4.136zm-28.372 81.121c4.975-15.482 9.633-30.116 14.397-44.749.318-.955.635-2.015.953-2.969 2.435-8.59 3.493-9.12 13.445-6.469-.424 5.514-.212 11.347-1.483 16.861-2.752 12.831-6.14 25.449-9.421 38.174-.318 1.061-2.223 2.439-3.176 2.333-4.658-.848-9.21-2.015-14.715-3.181zm-49.544-105.299c5.293-8.271 10.48-16.118 15.773-24.495 7.199 4.772 14.186 9.438 21.914 14.528-3.282 5.302-6.457 10.498-9.739 15.588-5.929 9.331-6.034 9.331-15.033 2.969a2519.877 2519.877 0 01-12.915-8.59z" stroke="#fff" stroke-opacity=".9" stroke-miterlimit="10"/><path d="M188.922 1.223c3.917 11.982 6.881 22.48 5.082 34.25-15.033-1.696-28.584 1.485-39.699 12.62-.318-.425-.635-.955-1.059-1.379 11.539-14.846 23.184-29.585 35.676-45.491zm-23.184 99.997c-3.705 6.575-6.987 12.619-10.692 19.088a7744.192 7744.192 0 01-23.078-14.74c3.387-5.196 6.457-10.18 9.951-14.952.529-.742 3.282-.848 4.446-.212 6.352 3.393 12.492 6.999 19.373 10.816zm26.89 52.491c-.846.106-1.693.318-2.54.318-9.74-.849-19.056.848-28.266 4.241-2.329.849-5.822.213-8.151-.848-4.447-2.015-8.469-4.878-13.022-7.635 2.541-4.56 4.976-8.907 7.623-13.785 6.034 3.605 12.174 6.574 17.679 10.604 6.457 4.772 13.55 4.878 20.961 4.666 2.011-.106 4.023.424 6.034.742-.106.53-.212 1.06-.318 1.697z" stroke="#fff" stroke-opacity=".9" stroke-miterlimit="10"/><path d="M193.578 143.954c-1.058 1.166-2.117 3.287-3.176 3.287-7.304.212-14.82 2.969-21.596-2.863-4.446-3.818-9.951-6.469-15.138-9.438-3.917-2.227-1.8-4.347-.424-6.892 1.482-2.757 3.07-4.03 6.14-2.015 8.893 6.044 18.527 10.604 29.325 11.982 3.387.425 4.869 1.697 4.869 5.939zm-80.243-7.636c7.199 4.666 13.763 8.908 20.326 13.255.529.319 1.165.955 1.27 1.591.847 4.03-5.822 10.498-9.951 9.968-8.257-1.061-14.927-5.09-21.808-10.18 3.6-5.09 6.882-9.862 10.163-14.634zm51.345 105.51c4.869.954 9.527 1.697 13.974 2.863.846.212 1.905 2.651 1.693 3.712-1.799 7.316-3.811 14.527-5.928 21.844-1.8 6.256-7.093 2.969-10.692 3.181-4.341.212-2.117-3.499-1.906-5.514.847-8.589 1.906-17.072 2.859-26.086zm-36.841-139.865a5506.313 5506.313 0 01-16.938-15.27c4.023-3.923 7.516-7.529 10.586-10.498 4.235 2.545 8.046 4.984 11.963 6.893 2.646 1.272 3.705 2.439 2.117 5.196-2.435 4.241-4.764 8.483-7.728 13.679zm11.539-19.405c-3.917-2.333-6.669-4.03-10.269-6.15 4.87-4.454 8.999-8.378 13.233-12.195.741.318 1.377.742 2.118 1.06-1.588 5.514-3.176 11.135-5.082 17.285zm-14.715-10.181c5.822-5.196 11.539-10.392 17.361-15.588.424.53.953 1.06 1.376 1.485-5.61 5.302-11.327 10.71-16.938 16.012-.635-.636-1.27-1.273-1.799-1.909z" stroke="#fff" stroke-opacity=".9" stroke-miterlimit="10"/></svg>