<svg width="338" height="267" fill="none" xmlns="http://www.w3.org/2000/svg"><path d="M102.718 178.76c-3.917-3.181-7.093-5.832-10.375-8.377-3.176-2.545-3.388-5.62-1.694-8.907 1.27-2.651 2.753-5.302 4.129-7.953 6.14-11.771 5.822-22.905-2.012-34.039-7.622-10.71-14.82-21.738-22.125-32.66-.847-1.273-1.588-2.652-2.964-4.879 15.138-4.56 29.642-8.907 44.992-13.573-1.165 9.226-2.329 17.497-3.494 25.768-.106.53-.847 1.485-1.27 1.485-7.41-.212-10.163 6.574-14.927 10.18-.953.742-1.058 2.545-1.588 3.817.424.318.953.53 1.376.848 3.6-3.287 7.093-6.574 10.799-9.649 3.387-2.864 5.61-2.121 6.881 2.014 4.975 16.119 9.845 32.131 14.821 48.249.635 2.121 1.799 4.029 2.964 6.786-1.694 2.545-4.023 5.621-5.929 8.908-.529.954-.211 2.439-.317 3.711 1.164-.53 2.541-.742 3.282-1.59 1.799-2.121 3.281-4.56 4.869-6.787 2.118-2.969 3.917-5.408-.529-8.695-2.117-1.485-2.223-5.62-3.282-8.696-3.387-10.498-6.246-21.314-10.269-31.494-4.128-10.286-4.658-20.36-1.905-30.751 0-.213.106-.319.106-.53-.53-10.287 4.128-15.695 14.609-16.437 5.081-.424 10.163-2.227 15.774-3.5 5.081 26.723 9.527 53.021 33.347 72.533-4.235 3.393-7.411 6.468-11.116 8.801-4.552 2.863-6.246 7.211-8.046 11.876-.741 1.909-2.54 4.242-4.446 4.878-11.01 4.242-19.902 10.71-24.984 21.845-.529 1.06-2.435 1.908-3.811 2.12-4.023.531-8.045 1.167-12.068 1.061-15.456-.53-28.16 5.832-39.593 15.588-3.494 2.969-7.41 5.832-12.28 4.56-8.046-2.015-11.434 4.029-15.774 8.589-7.093 7.529-13.974 15.376-21.596 22.481-3.07 2.863-7.622 4.135-11.54 5.938-.74.318-2.328-.106-2.752-.743-2.752-3.817-6.14-7.528-7.622-11.77-3.705-10.71.635-19.936 10.269-26.51 3.81-2.651 6.67-6.681 9.527-10.392.53-.636-.211-3.075-1.058-4.03-3.494-3.923-.53-7.317.847-10.604.317-.636 2.223-1.166 3.176-.848.847.318 1.482 1.591 1.8 2.651.74 1.803.634 4.454 1.905 5.514 4.129 3.499 6.775 2.757 9.74-2.015.74-1.272 1.587-2.545 2.858-4.453-2.541-1.485-4.764-2.864-7.093-4.136 2.646-6.787 3.917-7.211 16.726-5.726v18.451h6.67c.317-.424.635-.742.74-1.061 1.165-2.332 2.435-6.892 3.494-6.786 3.917.318 8.681.954 11.54 3.287 8.15 6.681 7.94 7.105 17.36 2.227 3.918-2.227 7.623-4.242 11.858-6.575z" stroke="#fff" stroke-opacity=".9" stroke-miterlimit="10"/><path d="M220.332 95.2c-13.762 12.194-27.63 24.495-41.181 36.477-17.467-14.633-24.983-34.039-28.159-55.671-.106-.848-.212-1.697-.424-2.651-3.07-13.255-3.07-13.15 10.057-17.073 10.057-3.075 20.114-6.256 29.96-9.861 3.599-1.273 5.399-.743 6.881 2.757 4.87 11.452 9.739 22.904 15.033 34.039 1.905 4.135 4.975 7.635 7.833 11.982zM58.15 266.138c-9.74-8.801-18.95-17.179-28.795-26.086-.635.318-2.54 1.272-4.34 2.227l-.953-1.273c4.658-4.241 9.422-8.377 13.868-12.831 4.658-4.665 9.316-9.437 13.339-14.739 2.752-3.606 5.293-6.045 9.951-4.878 6.246 1.59 10.375-1.591 14.927-5.514 10.057-8.59 21.278-15.164 35.358-14.74 4.552.106 9.21-.424 13.868.318-5.081 5.09-11.327-.424-17.255 2.227-3.282 20.466 1.27 42.841-10.057 62.776-.53-.106-1.377 0-1.8-.424-4.129-3.181-8.046-2.439-11.857.53-4.34 3.393-7.622 2.969-10.269-2.439-.846-1.696-3.07-3.499-4.87-3.711-6.669-.955-7.092-.318-7.41 6.362-.211 4.666.953 9.862-3.705 12.195zM215.144 79.613c-5.399-11.983-10.692-23.753-16.197-35.842 11.539-3.711 23.396-8.165 35.465-11.346 14.503-3.817 26.783-11.983 39.804-18.77 7.093-3.71 14.292-7.528 21.491-10.921 5.504-2.545 7.198-1.379 7.833 4.453.53 5.408 1.165 10.816 2.118 16.225.741 3.817-.106 6.362-3.176 8.695-6.246 4.56-12.386 9.225-18.42 14.103-3.071 2.44-5.823 5.302-8.364 8.271-2.858 3.394-4.552 3.394-6.351-.636-4.023-9.331-3.917-8.695-13.763-6.786-9.21 1.802-13.021 9.437-19.055 14.633-6.564 5.726-13.127 11.559-19.797 17.179-.529.53-1.588.742-1.588.742zm-35.781 61.395c5.505 7.847 4.235 20.041 16.091 23.647-1.164 1.59-1.693 2.969-2.752 3.817-7.834 6.787-12.174 15.164-12.386 25.662-.106 3.711-1.059 7.317-1.059 11.028 0 5.726-2.54 9.438-7.41 12.407-6.034 3.605-11.751 7.741-17.574 11.664-2.646 1.803-4.34 1.591-6.14-1.59-5.399-9.438-11.221-18.663-16.832-27.995-1.588-2.545-2.117-4.878-.212-7.741 2.647-3.923 5.082-8.059 6.987-12.3 4.023-8.802 13.022-10.605 20.009-15.164 2.223-1.485 4.869-3.287 5.61-5.514 3.282-8.165 9.21-13.043 15.668-17.921z" stroke="#fff" stroke-opacity=".9" stroke-miterlimit="10"/><path d="M225.731 98.063a10044.87 10044.87 0 0120.009 21.314c-6.776 6.892-13.233 13.891-20.115 20.359-7.516 7.105-15.561 13.574-23.078 20.572-2.752 2.545-4.552 2.227-7.622.424-5.187-2.969-6.775-7.847-8.787-12.618-1.482-3.5-4.34-7.529-3.599-10.604.741-3.076 5.081-5.408 7.94-7.953 11.433-10.392 23.184-20.784 35.252-31.494zm3.175-27.039c6.67-5.938 13.021-12.3 20.22-17.497 3.6-2.65 8.575-3.393 13.021-4.666.636-.212 2.435 1.06 2.647 1.91 2.011 8.058 8.998 10.71 15.138 14.209 2.435 1.378 4.764 2.863 7.94 4.665-4.87 5.833-9.21 11.559-13.974 16.755-2.329 2.439-10.798.954-13.444-2.121-2.541-2.97-4.87-6.044-6.882-9.226-1.905-2.969-3.917-3.075-6.563-1.06-.529.424-1.165.848-1.694 1.166-8.257 6.045-8.257 6.045-16.409-4.135zm63.836 1.907c8.787 5.09 8.999 5.196 14.504-3.605 5.716-9.331 11.115-18.981 16.832-28.949 3.599 1.484 7.94 3.393 13.021 5.62-8.787 11.134-17.573 21.632-25.725 32.555-9.845 13.255-22.866 23.222-34.935 34.145-.952.848-4.023.742-5.081-.212-5.929-5.196-5.717-5.302-.318-11.983 7.305-9.013 14.398-18.239 21.702-27.57zm-87.125 93.951c14.927-14.103 29.748-28.207 44.992-42.628 2.329 2.015 4.976 4.348 8.152 7.105-13.657 15.27-27.313 30.433-40.97 45.809-4.234-3.499-8.151-6.786-12.174-10.286zm-19.903 39.66c1.165-13.149.212-25.662 12.069-33.933 2.964-2.015 4.975-3.181 8.575-.848 8.151 5.302 8.892 12.725 1.164 18.451-6.881 5.196-13.762 10.286-21.808 16.33zm89.138-148.67c11.856-9.438 22.866-18.345 33.664-26.934.847.212 1.27.106 1.482.318 7.199 5.408 7.411 5.62.106 10.816-6.881 4.878-11.857 11.452-15.985 18.557-2.753 4.666-5.399 5.832-9.951 2.969-2.753-1.803-5.399-3.393-9.316-5.726zm-26.36 58.642c-7.092-7.105-13.656-13.679-20.114-20.254 3.706-2.97 7.199-5.832 11.328-9.12 5.716 5.409 11.539 10.923 17.15 16.437.635.636.741 2.651.211 3.287-2.646 3.287-5.61 6.469-8.575 9.65z" stroke="#fff" stroke-opacity=".9" stroke-miterlimit="10"/><path d="M249.021 80.143c5.505 6.044 8.045 15.058 17.891 13.255.211.742.317.954.211 1.06-5.822 8.483-6.034 8.484-13.232 1.379-2.965-2.863-6.141-5.727-9.105-8.59-.635-.53-.847-1.484-1.482-2.65 1.906-1.485 3.6-2.758 5.717-4.454zm14.291 29.054c3.071 3.288 5.505 5.726 8.152 8.59a1326.265 1326.265 0 00-10.798 11.558c-2.541-2.651-4.764-4.984-7.305-7.529 3.282-4.135 6.352-8.059 9.951-12.619zm37.583-35.735c-6.352-3.5-6.563-4.136-2.435-8.907 4.976-5.833 10.057-11.453 15.245-17.18.635-.635 1.482-1.06 3.282-.741a4540.57 4540.57 0 01-16.092 26.828zm-84.903 10.921c10.163-9.12 12.492-9.331 18.632-1.272a1705.084 1705.084 0 01-10.48 9.12c-2.647-2.652-5.293-5.09-8.152-7.848z" stroke="#fff" stroke-opacity=".9" stroke-miterlimit="10"/></svg>