<svg width="686" height="401" fill="none" xmlns="http://www.w3.org/2000/svg"><path d="M137.477 217.799l4.337-.747 2.244-.898 1.944.898 4.188 1.495.598 1.345 2.841.897-1.645 1.645h.748l2.543-.448 2.093.448 2.244-1.047-3.59-2.093-4.337-2.242h-2.542l-1.346-1.795h-2.692l-1.496-.747-2.692.747-2.543.897-.897 1.645zm17.646 8.671l-1.495-1.495-3.59.747 1.944 1.346h1.646l1.495-.598zm17.8-.449v1.047h3.44l.449-2.093-3.889 1.046zm13.608 15.401h-2.244v2.392h1.047l1.197-2.392zm-35.593-35.136l.449 1.345 1.944-1.345v-.897l-2.393.897zm1.645 3.737l-.897 1.496.897.598v1.794l1.346-.449-.598-1.495-.748-1.944zm1.944-4.037l-.598.598v2.393l1.197-.897-.599-2.094zm2.393 5.233v1.795h1.047l-1.047-1.795zm3.739 4.037h-1.047v1.795h1.047v-1.795zm1.495 3.889h-1.645l-.449 1.046h1.795l.299-1.046zm-4.187-5.235h-1.047l1.495 2.243-.448-2.243zm31.557 22.578h-1.048l1.048 1.047.598-.448-.598-.599zm-4.189 1.795h-1.048v1.347h1.048v-1.347zm1.196-3.289l-1.198.898.599.598.599-1.496zm-1.645-2.094l1.047 1.646.599-.449-.599-1.197h-1.047zm-.599-2.84v1.197l1.048-.599-.449-1.047-.599.449zm2.245-1.046l-.898.598.449.898.449-1.496zm-4.187-2.993l-.898 1.047.898.897v-1.944zm2.543.297l-1.346.599.748 1.047.598-1.646zm-21.089-3.883l-2.244-.449-.598.449 1.346 1.046.897 1.496h-4.785l1.196 1.495h4.038l1.047-4.336-.897.299zm5.085 1.046l-1.346-1.046-2.542-.449-.299.15-1.047 4.336 1.047 1.495 1.794-1.944h4.637l.598-1.046-2.842-1.496zm-30.062 17.642l1.645-8.373-.598-.299-9.273 5.682 2.393 2.242.449 1.047h5.533l-.149-.299zm.15.299h-5.534l1.496 3.289 4.487 2.691.748.299 1.495-3.139-2.692-3.14zm-13.461-10.916l-1.495-3.588 3.29.299 3.888-.897.15-.748 2.991-7.027-1.495-1.047-6.132 1.944-3.59 6.13-6.58-.448-5.085-5.981 1.794-10.167-3.589-1.495-3.739-8.373-4.188 1.346-5.234-6.429h-9.273l-8.226-3.738-4.935-.748 1.197 5.084 3.14 7.475h-2.692l4.038 3.738 2.692 5.084 3.889 4.635 1.047-2.094-2.992-4.634-1.944-5.832-3.44-4.784v-4.635l3.44.449 2.244 8.073 4.337 3.738 5.533 11.662-1.346 4.187 13.311 7.924 6.73 2.841 3.59-1.944 4.038 3.439 1.346-3.439h3.29z" fill="#fff" fill-opacity=".9"/><path d="M127.306 227.217l-3.291-.299 1.496 3.588h-3.29l-1.346 3.439 2.692 2.093 2.093.449 2.842-2.99-.748-6.43-.448.15zm2.244 4.785l1.645-5.682-3.44.748.748 6.429 1.495-1.645-.448.15z" fill="#fff" fill-opacity=".9"/><path d="M125.661 236.489l3.739.598 1.197 1.046 2.692-1.644-5.534-2.243-2.094 2.243z" fill="#fff" fill-opacity=".9"/><path d="M134.635 230.508l-4.637 1.345-2.243 2.393 5.534 2.242 6.58-4.036-5.234-1.944zm240.638-42.316l1.047 1.346 2.692-.598 1.047-1.645h-2.393l-2.393.897zm49.055 49.638h-2.393v1.196h2.393v-1.196zm-40.381-53.527l10.619-1.196h4.786l.448-.598-1.196-1.794-.748-3.589.748-1.196-1.944-.448-.15-2.093-1.795-1.496-3.44-.598-.299 1.196-4.337.748-5.234-1.346-2.842-1.196-5.085.897-1.944 1.795-2.692-.299-1.047.747.299.897-4.038.598-1.645 1.047.299 1.345 1.047.299.149 1.795-1.047.598 3.739 4.037 3.889.897 1.495-1.346 3.739 1.944 2.842-.748 1.645-1.345 2.842-.15-.449 2.243 1.346.448v-2.093z" fill="#fff" fill-opacity=".9"/><path d="M402.344 178.322l.897-1.196-2.243-1.644-2.094-3.14-.15.299-2.841.299.598.448.149 2.094 1.945.448-.449.897.897-.299.599.598.747-.598 1.945 1.794z" fill="#fff" fill-opacity=".9"/><path d="M408.774 173.537l-2.094-3.289-2.243 1.645-2.094-1.645-.598.598.897 1.794-2.841-.897-.898.598 2.094 3.14 2.244 1.645-.898 1.196-1.944-1.794-.748.598 1.645 1.644 2.094-.149 2.243-2.093 1.197 1.794v1.196l.897.299.599-4.336 1.495-1.196-1.047-.748zm-25.275 20.036l-.448-1.196-1.945.299-.149 1.196-1.795 2.691 2.393 5.682.449-1.495.598-6.13.897-1.047z" fill="#fff" fill-opacity=".9"/><path d="M382.003 188.791l-.897 3.887 1.944-.299.15.449 1.196-2.691-2.393-1.346zm4.039 12.11h1.495l1.346-2.094-2.542-2.242 4.038-1.795-1.346-2.84-3.889 2.691-1.795-.748-.747.748-.599 6.13v1.047l2.393.448 1.646-1.345z" fill="#fff" fill-opacity=".9"/><path d="M393.22 186.098v-1.196l2.244-.897v-.898h-.898l-10.618 1.197v2.093l-1.346-.449-.15.598-.449 2.243 2.393 1.346-1.196 2.691.299.747-.15.299 1.795.748 3.889-2.691.149.149 4.038-2.99v-2.99z" fill="#fff" fill-opacity=".9"/><path d="M401.447 202.245h4.337l.748-2.541 2.243.448.299-1.046h.15l-1.496-1.944v-2.093l-2.692-2.094-2.692-1.943.15-1.944.748-.897.598-1.794-2.393-.897-2.094-2.393h-3.888v.898l-2.244.897v4.186l-4.038 2.99 1.197 2.542h1.495l9.572 7.625z" fill="#fff" fill-opacity=".9"/><path d="M409.372 202.544l-1.047-1.346.449-1.046-2.243-.449-.748 2.392 2.243 1.196 1.346-.747zm6.88 7.328v-1.196l-1.346-.598v2.841l1.645.748-.299-1.795z" fill="#fff" fill-opacity=".9"/><path d="M417.449 212.71l-.748.15-.15-1.196-1.645-.748v.299l-1.944-4.186-3.589-4.486-1.346.748-2.244-1.196v.149h-4.337l-9.572-7.625h-1.495v.15l-4.038 1.794 2.542 2.243-1.346 2.093h-1.495l-1.646 1.345-2.393-.448v2.392l4.188 5.682 1.496 3.139 1.944.449 1.346 3.738.449 2.243 3.739 3.738 2.692 4.036 1.196 2.841 1.645-.747v-2.094l6.132 1.645.299 2.093 3.739-4.934 13.61-3.738v-6.578h-7.029v-2.991z" fill="#fff" fill-opacity=".9"/><path d="M425.973 207.48l-3.888 4.934-4.637.299v2.991h7.03l2.542-5.383-1.047-2.841zm-15.105 18.54l-3.739 4.934-.299-2.093-6.132-1.645v2.093l-1.645.748.598 1.345 1.795 6.43 3.29-.598 1.197-1.346 2.094.897 2.393-1.645 3.888-1.794 5.235-1.495v-1.944l1.495-.448-2.841-5.383-7.329 1.944z" fill="#fff" fill-opacity=".9"/><path d="M431.357 213.608l-3.439-.598-.898-2.692-2.542 5.532v6.43l-6.282 1.794 2.842 5.382 2.991-1.046 1.496-.449.598-1.196 1.645-.449.897-1.943h1.795v-2.841l1.197-1.196 2.393-3.738-2.693-2.99z" fill="#fff" fill-opacity=".9"/><path d="M440.481 206.58l-1.645-3.289-2.393-1.047-1.646-2.542 1.646-2.392-.3-1.944h-2.093l-1.496-6.877 1.047-1.197-.449-3.737-8.674-4.187-5.683 2.691.149.897-5.085 1.047-6.281-2.691.149-1.495-.897-.299v-1.196l-1.196-1.795-2.244 2.094-2.094.149-2.243-2.243-.897.299-.3.299.748 3.589 1.197 1.794-.449.598 2.094 2.392 2.393.897-.598 1.795-.748.897-.15 1.943 2.692 1.944 2.692 2.093v2.093l1.496 1.944 3.141.15 3.14 4.485 7.628 3.738 3.29-1.794 2.094 2.99 8.674 1.645h.3v-2.243l2.991-1.495z" fill="#fff"/><path d="M439.733 184.004l.747-2.392 3.141-.747v-1.496l-8.824-4.336-1.495-3.438-7.179-4.187-2.991 2.093v2.094h-2.992l-3.589-2.542-2.243 1.196.598 1.645v2.691l2.542 2.542 1.346 4.934 5.684-2.692 8.674 4.187.299 2.392 2.991.748 3.291-2.692z" fill="#fff" fill-opacity=".9"/><path d="M446.613 177.876l-1.346-2.542 3.44-1.943-.748-1.047 1.495-1.495 2.992.747.897-.897-1.047-1.196-.748 1.196-1.346-.897v-2.392l-3.29 3.439-4.487-.15-.448-1.794-1.945-.448v-2.243l-1.645-1.794h-6.58l-3.59-2.093-.748 1.345-2.991-.747v-2.542l-5.234 1.046 1.645 10.167h2.243v-2.093l2.991-2.093 7.179 4.186 1.496 3.439 8.824 4.336v1.196l2.393.748.598-3.439z" fill="#fff" fill-opacity=".9"/><path d="M445.864 197.013l4.936-2.392 1.047-5.084 2.094-.747.448-5.233 2.992-.898 2.692-1.345v-1.944l-2.842.449-2.094 2.541h-1.795v-3.737l-1.495-.748-1.346 2.691-2.244.748-2.093-.598-.15.598-2.393-.748v.299l-3.141.748-.747 2.392-3.291 2.691-2.991-.747.15 1.345-1.047 1.197 1.495 6.877h2.094l.299 1.944-1.645 2.392h11.067v-2.691z" fill="#fff" fill-opacity=".9"/><path d="M456.932 211.666l-.897-2.542-3.291-2.99 2.094-2.841 2.991.449 3.59-6.429.448-2.692 2.094-1.943-2.991-.748-1.645-1.196-.449-2.99 1.197-1.645-3.141-2.093.15-1.346-2.692.897-.449 5.233-2.094.748-1.047 5.083-4.935 2.393v2.691h-11.068l1.646 2.542 2.392 1.046 1.646 3.29-2.992 1.495v2.242l6.431-.448h3.291l2.393 3.14 1.794.598 1.346-1.196 4.188-.748zm18.097-66.385l-2.093-.748-3.44-3.14-3.141 1.196-3.141-.149-9.123-10.317-3.739 2.841-7.179-1.495-.598-2.841-3.739-.448-2.393 1.943-9.422 3.738-2.393.748 2.393 2.093h-1.645l-.748 3.14 2.393 1.944v1.794l-4.038.448-3.59-1.046-4.935 1.046-5.085-2.392h-2.842l-3.14 3.289v2.393l-2.543-1.944-1.047 1.495.15 4.486 3.888 3.737 1.945 1.496 2.692-2.243h4.187s1.047 4.186 1.197 4.485c.149.299-4.038.449-4.038.449l-1.346 2.243 1.794 2.541 3.141 1.495.897 2.692 2.244-1.196 3.589 2.541h.748l-1.645-10.167 5.234-1.046v-1.047l3.59-1.794 1.047 3.14-.898 1.794 3.59 2.093h6.58l1.646 1.794v2.243l1.944.449.449 1.794 4.486.149 3.141-3.439v.449l.748-1.645h4.187v-1.495l5.833.449 5.235.149 2.243.897.748-1.794-1.196-3.887-1.197-.15v-1.495l2.842-.448 1.645-.598-.898-.898.898-4.336 3.589.599 1.496-1.496-.748-1.943 1.496-2.094.897-.897-1.047-1.644h-1.795zm-19.891 11.811v2.542l-1.795-.897v-2.392l1.795-1.794 1.795.598-1.795 1.943zm-91.98 14.952l-1.196 2.392.449 1.047 2.542-1.645 1.944-.15.299-.897-1.645-.897-.299-1.046-2.393 1.046.299.15z" fill="#fff" fill-opacity=".9"/><g filter="url(#filter0_d)"><path d="M245.503 12.4l-11.486 2.974-2.387 6.244-2.685-1.635-7.16 4.162 2.834 2.974-4.027 3.866-11.039 2.23 1.044 5.5 6.415 1.339-8.95 1.932 3.281 7.583 13.276 1.338-1.044 20.22 3.282 3.27-4.326 3.42v4.163h5.668l-4.027 6.988-4.028 2.23 2.685 17.544 4.028 5.798 5.967 4.757 10.292-20.07 9.249-2.677 6.116-6.69 17.005-6.84-9.398-1.189 1.641-6.095 4.773 5.5 3.133.447V76.33l-4.326-7.136 5.37.446 3.282-2.825 1.641-10.556-2.089-3.717 4.475.595.895-3.717-3.281-2.379 15.961-21.26-6.116-4.163-13.276 8.475 5.668-8.475-5.668 2.527.895-2.527-9.696 1.04 17.751-5.203-4.475-3.717-2.089-1.19-11.187 1.19 10.74-3.42-11.934-2.675-4.773 2.676-5.221-.892-5.668 2.973s3.729 6.988 3.132 7.583c-.596.446-4.326 0-4.326 0l-1.044-7.583-2.386 5.65-3.879-.149 1.492-5.5z" fill="#02FFCD"/><path d="M253.532 13.273a95.85 95.85 0 00-.343-.663l5.076-2.662 5.054.864.174.03.155-.087 4.606-2.583 9.945 2.23-8.981 2.86.205.973 11.027-1.172 1.91 1.088 3.719 3.089-16.85 4.939.194.977 8.906-.956-.63 1.779-.388 1.098 1.063-.475 4.086-1.822-4.705 7.034.685.7 12.998-8.297 5.41 3.683-15.646 20.841-.305.407.411.298 3.011 2.183-.711 2.953-4.029-.535-.992-.132.49.872 2.004 3.566-1.586 10.203-2.983 2.568-5.162-.428-.977-.081.508.838 4.254 7.017v4.636l-2.377-.338-4.651-5.36-.617-.71-.244.908-1.641 6.095-.149.554.569.072 7.488.948-15.219 6.121-.106.042-.077.084-6.021 6.587-9.113 2.637-.207.06-.099.192-10.014 19.528-5.431-4.331-3.92-5.644-2.615-17.084 3.723-2.062.122-.067.069-.12 4.027-6.988.433-.75h-6.034v-3.42l4.136-3.27.441-.35-.398-.397-3.124-3.113 1.033-19.997.024-.476-.474-.047-12.983-1.31-2.924-6.753 8.355-1.805-.003-.978-6.088-1.27-.889-4.687 10.554-2.132.142-.03.105-.1 4.027-3.865.36-.345-.344-.361-2.397-2.515 6.355-3.695 2.431 1.481.513.312.214-.56 2.295-6.004 10.403-2.693-1.266 4.67-.165.607.628.024 3.878.148.346.014.134-.319 1.679-3.974.796 5.78.053.383.383.046.059-.496-.059.496h.003l.009.002.032.003a59.846 59.846 0 00.559.059c.363.035.855.078 1.368.106.51.028 1.052.043 1.511.021a4.62 4.62 0 00.64-.068c.174-.034.393-.092.563-.219l.028-.021.025-.025a.766.766 0 00.209-.505 1.78 1.78 0 00-.033-.435 6.705 6.705 0 00-.296-1.02c-.274-.76-.692-1.707-1.123-2.622a84.807 84.807 0 00-1.224-2.482z" stroke="#fff" stroke-opacity=".9"/></g><path d="M167.684 261.905l5.235-.598-1.197-9.569-9.571-2.692-.599-6.429 3.44-3.738-.748-.598-9.272 4.336-1.944 4.336-4.637-2.841-6.132 1.196-.598-.747-1.495 3.14 4.785 1.943 1.197-1.943 2.243-2.243 1.496 2.093 2.094 7.476-4.188 7.027 19.144 11.214.747-11.363z" fill="#fff" fill-opacity=".9"/><path d="M156.317 266.987l-8.525-4.934-.149.299-3.739 6.429 1.944 3.439-1.196 1.046 3.739 2.841 7.926-9.12z" fill="#fff" fill-opacity=".9"/><path d="M165.889 285.526l-5.384-1.196-1.047-5.532 4.188-4.336h3.14l-.149-1.346-10.32-6.13-7.926 9.121-3.739-2.841-1.944 1.645 5.085 6.728 6.431 13.157 6.73 5.233 5.533 4.934 2.692-2.392v-13.008l-3.29-4.037zm14.058-25.416l-1.645-3.887 8.226-1.795-1.196-2.392 2.393-4.485-5.833-4.037.897-2.093h-14.657l-3.14-2.542-3.44 3.738.598 6.429 9.572 2.691 1.196 9.569h-.149l2.991 2.542 4.187-3.738z" fill="#fff" fill-opacity=".9"/><path d="M188.472 260.86l1.944 2.093 4.935-2.392-2.991-5.682 1.496-2.392h-.15l-5.533-4.785-.449-.149-2.393 4.485 1.197 2.392-.3.15 2.244 1.944v4.336z" fill="#fff" fill-opacity=".9"/><path d="M196.548 259.211l3.291.897.598-3.14-1.047-2.691 1.197-1.795h-6.731l-1.495 2.393 2.991 5.681v.15l1.196.448v-1.943z" fill="#fff" fill-opacity=".9"/><path d="M201.633 261.154l2.991-4.037-3.589-4.635h-.449l-1.196 1.795 1.047 2.691-.599 3.14h-.299l.598 1.046h1.496zm-30.509 47.399l2.542 6.28 2.543-2.392h7.627l1.197-4.934 5.085-1.346 2.393 1.346 1.645-2.542-2.393-5.383-3.59-.448-1.047-4.785-8.824-3.588-1.645-4.784-7.627 3.438.149.15v13.008l-.149.299 2.094 3.14v2.541z" fill="#fff" fill-opacity=".9"/><path d="M175.91 390.038l-1.047-4.784-2.094.747-.598-4.934 1.495-.747-.299-12.858-2.542-7.177.598-8.223-.598-7.327 1.196-5.382-1.944-5.532 1.047-6.429 1.645-3.738-.299-5.084 2.542-3.738-.448-.747-.898.747-2.542-6.279v-2.542l-2.094-3.14-2.542 2.093.448.299.15 26.913-1.346 17.942.748 7.775 2.692 3.289-.599 6.429-.747 4.486-2.094 2.242 1.794 3.738 2.094 9.121 5.384 8.372 7.179 4.635h5.534l1.047-1.046-6.282-9.121h-6.58zm18.245-70.721v2.542l-1.346 2.392h5.684l3.14-8.223-2.542.299-1.047-4.037-3.889.15-1.495-5.084-.15.15-2.393-1.346-5.085 1.346-1.047 4.784 3.44 3.738 6.73 3.289zm0 19.739l1.197 1.345 8.375 2.542 2.991-5.233-10.768-7.177-1.795 8.523z" fill="#fff" fill-opacity=".9"/><path d="M202.98 323.355v-2.542l-2.542-1.644-1.945 5.083h-5.683l1.346-2.392v-2.542l-6.73-3.289-3.44-3.738-.149.15h-7.628l-1.645 1.644.449.748-2.543 3.738.299 5.083-1.645 3.738-1.047 6.429 1.944 5.532-1.196 5.383.598 7.326-.598 8.223 2.542 7.177.3 12.858-1.496.748.598 4.934 2.094-.748 1.047 4.785h6.581l6.281 9.12 1.795-1.943-9.871-10.915 4.935-11.064-4.935-2.99 3.739-3.29 2.692-7.775-3.29-3.289 4.935 1.047v-6.13l9.273-1.944 1.196-5.532-4.487-5.084.599.15-1.197-1.346 1.795-8.522.448.299 1.197-2.542 5.384-4.934z" fill="#fff" fill-opacity=".9"/><path d="M238.426 275.66l-14.059-5.682-10.618-2.841-6.282-2.691.599-2.841-3.44-4.485-2.991 4.037h-1.496l-.598-1.047-2.991-.897v1.944l-1.197-.449-4.935 2.243-1.945-2.093v-4.336l-2.243-1.944-7.927 1.645 1.646 3.887-4.188 3.738-2.991-2.542-5.085.598-.748 11.363-.299-.149.149 1.346h-3.14l-4.188 4.336 1.047 5.532 5.384 1.196 3.141 3.887 7.627-3.439 1.645 4.785 8.824 3.588 1.047 4.785 3.59.448 2.393 5.383-1.496 2.392 1.496 5.083 3.888-.149 1.047 4.037 2.543-.299-1.197 3.14 2.543 1.644v2.542l-5.385 4.934-1.196 2.542 10.32 6.877 6.879-12.26v-4.784l13.61-7.177 4.487-11.064v-10.466l9.123-11.363-2.393-4.934z" fill="#fff"/><path d="M66.432 97.889l-4.636 2.542-5.085-6.728L80.49 51.24l-.3-.15-3.29-3.887-7.926-4.934h-2.393l-1.346-4.784-4.487-3.588-10.32 2.242-9.87 5.682-3.74-1.196-2.691 3.289 1.047 8.373 3.738 4.186-4.785 1.794-3.29-1.345 2.243-2.093-2.244-1.645-9.572 2.84.748 7.477 3.141 1.345 6.88-1.346-2.543 6.13-9.272 1.346-6.88 5.682v8.223l4.187.748-1.495 6.13 5.384 1.644h2.094l-8.226 7.775-15.105 5.981 1.944 1.046 6.73-1.196 16.452-9.12 7.178-3.439-2.392-2.84 5.683-3.29 4.486-1.495L35.623 94l6.282-2.242 2.093-3.888 5.833 3.44 8.974 6.578 3.739 11.363 3.29 10.466 3.739-2.99-3.14-18.84zm110.972 57.259l-5.533 4.486-9.273 3.289.149.299-1.645 1.495-2.094-.747-2.692.747-.747 1.196.747.599-7.777 3.438-1.495-1.794 1.944-.299.897-.598.599-3.289h-.299l-.898-2.093-1.196 1.196s-.748-.748-1.047-.748c-.299 0 1.495-1.794 1.495-1.794l.599-1.944-2.992-1.196-2.093 1.196-1.346 2.392-.3 3.738-2.841 3.29-1.047-1.346 1.944-5.532-.598-2.093 2.692-2.991h5.833l-1.795-2.093-3.29.897-2.393-1.495.598-1.944-6.281 2.393-2.692-1.645 4.785-2.542-7.029-3.439-56.234-5.382.598.897-4.785.897-1.047 9.868-3.889 10.466v10.018l3.14 10.167 5.534 4.635.45 1.794 4.935.598 8.225 3.887h9.273l5.384 6.429 4.188-1.495 3.589 8.373 3.59 1.495 1.196-6.877 7.627-2.692 5.385 1.196 2.393-1.196-.449-1.644 10.918 1.046 3.29 1.794-.15 4.336 2.692 6.13 2.244-1.196.448-4.934-1.645-10.316 10.918-7.326 1.795-10.466.299-.3 1.047 4.037 1.795-2.99-.748-2.99.448-.299.3 2.242 2.841-3.438-.448-1.346.747-.598 7.179-2.093.598-4.486 7.03-3.289v-5.981h-3.59z" fill="#fff" fill-opacity=".9"/><path d="M59.852 119.863l3.888.897-1.944 8.224-1.944-2.991v-6.13zm5.534 13.457l-.897 1.944 4.038 4.635 2.243 1.196c.748-1.196-3.14-5.981-3.14-5.981l-2.244-1.794zM111.6 47.2l3.888 5.681 9.572-6.728 8.824-1.046-1.496-7.177-10.618-1.944-1.346 4.187L111.6 47.2z" fill="#fff"/><path d="M133.883 47.2h-7.029l-4.936 3.887s-.448 1.196 0 1.943c.449.598 5.833 1.047 5.833 1.047l-7.328 1.346v2.84h6.73l2.543 4.336-9.273-2.84-1.047 2.84 3.29 2.691v4.934h5.983l7.029-3.887 1.795 4.934h5.533l-1.495-3.738 3.888 1.495v-3.14l-2.243-5.681 3.141-9.12-2.693-3.888-4.486 10.167.897-7.475-6.132-2.692zm27.071 0c-.598.298-5.534 2.092-5.534 2.092s-6.132 3.29-5.683 3.738c.449.449 4.487 10.616 4.487 10.616l4.785-4.336 1.945-6.43V47.2zm11.516 3.887l-7.03-2.093-4.486 7.625 1.196 2.542 2.991-3.738 1.645 2.243 5.684-6.579zm-28.268-23.622c-.598-.15-9.422 6.729-8.824 6.43.598-.3 4.337 6.28 4.337 6.28l10.021-1.347 2.692 1.346 4.786-6.28h-4.337l1.645-6.429h-2.842l-2.692 7.476-2.692-1.047-2.094-6.429zm1.946-7.328h-3.888l-10.619 4.635 2.243 4.336 9.572-3.44 2.692-5.531zm10.917.001l-7.328-1.046.748 5.532h3.888l2.692-4.486zm3.888-5.384l-.748 5.382-5.833-2.69 6.581-2.692zm-1.345 17.196v6.279h3.44l-2.094 4.934h3.291l5.533-9.42-5.085-1.794v4.037l-3.739-1.046-1.346-2.99zm10.169-17.196l-4.337 7.027h4.337l-1.047 7.326h3.739l2.842-8.97-5.534-5.383zm10.319 10.915l-3.141-3.888-1.645 5.682 2.393 1.645 2.393-3.44zm.002 6.279l-5.683-2.84v2.84l3.29 1.944 2.393-1.944zm-8.374.002v5.68l3.589.898-.897 4.635-1.945 4.037 4.786 2.84 9.572 1.944 4.936-.897v-5.98l-5.534-.599-8.974-2.541 2.244-4.336-4.188-2.691-3.589-2.99zm-.002 10.016l-1.944 5.233-2.991-2.691 2.393-4.336 2.542 1.794zM151.531 68.58l1.795 5.532-1.795 1.794-5.085-3.588 5.085-3.738zm29.464-14.504h-5.684l-7.477 9.42-1.047 6.13 7.627 3.738 6.581 1.644 2.393-3.738 2.243 6.73 4.337 6.429-4.935 6.728-1.197 3.14-6.132-1.944-2.393 5.532h5.684l4.187 2.542 2.393 4.336 6.73 4.485-2.542-7.027 5.384 3.738 1.944-4.486-4.187-8.522 2.692-1.794 3.739 8.074 6.281-8.224-9.273-8.073 3.739-2.99-3.29-7.626-4.935-5.382-2.094-3.44h-7.328l1.495-8.073-5.833 1.196-2.393 2.542-2.393 8.223-.897-3.887 2.842-6.28 3.739-3.14z" fill="#fff"/><path d="M187.126 55.424v5.98h5.983l-1.346-4.485-4.637-1.495zm.001 28.106l-2.244-1.794-3.888 1.794.747 3.888 5.385-3.888zm-22.434 7.027l-3.739 5.083-1.346 3.29 2.543 2.242 4.636-3.29 2.991 2.094 1.945-4.037-7.03-5.382zm17.049-50.385l5.384 1.794 5.833 1.197 5.683-3.14-1.047-2.542 6.431-2.691 5.384-5.831-1.795-3.44h7.03l6.132-5.68 9.272-2.692s.15-3.29 0-2.691c-.149.598 6.73-2.841 6.73-2.841l-1.645-4.486-6.58-4.335L218.982.55 205.97 2.794l-9.272 3.14-.748 7.326 8.076 4.037-1.047 1.644-7.627-4.186-1.197-7.476h-2.243l-5.684 6.13-1.944 6.579 3.141 1.794h-4.188l-.448 7.177h4.636l2.991 1.495-6.132 5.532-2.542 4.186zm-35.595 5.832l1.496 4.037 3.739-2.093v-1.944h-5.235zm60.123 97.334l-2.243.747-2.842 4.037-3.739 5.682 1.047.897h2.244l3.589-.598 1.944.598-3.29 2.093 1.496.897 3.14-2.99-.897 1.794 2.393 1.196s1.795-4.037 1.495-4.037c-.299 0-2.243-.747-2.243-.747l.598-4.037h-4.935v-1.645l2.243-3.887zm-64.907 0h1.645v2.542l-2.243-.598.598-1.944z" fill="#fff"/><path d="M204.924 136.01l-3.888-2.841-4.487-5.233 2.393-1.943-4.487-12.41-4.038 7.326-4.936-1.794.748-7.625-3.14-2.243-1.496-3.887-8.375-1.794-2.094 10.017-3.29 5.233 2.392 6.13-2.093 3.589-5.684 1.943.15 9.42-4.337 1.196-1.795-4.187 2.243-7.326-5.683-1.046-8.225-7.925-4.786 1.645 1.495-8.672-2.692-.299 10.619-13.307 5.534-3.887 7.029-3.738 2.692-3.439 7.328-2.093 2.244-2.841-.898-4.485h2.393l1.496-2.841-5.534-3.29-2.094 3.44-5.085 6.428-.748-4.335.599-5.532-3.44 4.036-.748-4.037 2.094-4.933-1.047-8.224-5.982 3.439s-2.692 5.383-2.094 5.831c.598.449 3.29 3.29 3.29 3.29l-2.692 4.933-3.739 4.037-1.795-6.578-3.888 2.69-6.73-1.644-1.795-5.382h-4.786l-2.094 5.98-2.094-3.439-6.431.15-2.692-2.392 3.291-.598-1.047-4.934-8.675-5.98-3.739 1.644-3.14-1.645v-7.326l-17.648 5.083-6.58-5.98L56.71 93.698l5.085 6.728 4.637-2.392 3.14 18.838-3.738 2.991 2.392 11.512 5.983 10.018 56.234 5.382 7.029 3.439 4.936-2.542 2.093.599 2.842 2.541.449 3.738 6.431 2.392 2.094 3.29-1.795 1.345-2.244-2.093-.598 4.785h-1.196l-.598 3.289 1.944-1.495 1.645.448 2.094-.448.299.299.748-1.196-1.047-1.495 3.739-.898 1.196.748.598-1.196 1.496-.598.449 1.645 9.272-3.29 5.534-4.485h3.29v5.98l.898-.448.747 4.037 4.786-2.841 8.376-3.588-1.047-1.944-3.739 1.944-4.337-.898-1.197-4.335 3.739-1.795-2.393-2.99-10.619 6.13 6.282-6.13 3.44-2.542 10.618.748 6.431-2.392 3.291-3.14-1.496-5.383zM111.3 109.247l-1.196 2.243-4.038-.598v-.897l2.841.149 1.197-1.944 2.991-.747 3.44 1.944H111.3v-.15zm10.619 3.14c.15-.15 2.094 0 2.094 0l-2.094 4.037s-.897-.299-1.047-.449c0-.299.897-3.588 1.047-3.588zm0 7.476v-2.094l2.692-2.84 1.645 2.093-2.841.598v2.243l-2.992 2.242-.448-1.495 1.944-.747zm1.197 15.699l-1.496 2.392-1.047-.598 1.496-3.14-1.945-.149v-1.047h2.992v2.542zm.299 6.578c-.15 0 0-4.485 0-4.485l.897-.598-.299 2.542.598 1.943c.15.15-.897.598-1.196.598zm3.29 0v-5.382h-1.197l-.747-2.392.747-1.496h-2.093l-2.393-2.093.747-2.242h2.244l-.449 2.242.898 1.047 1.196-2.093 1.795.747v5.532l.748 4.934-1.496 1.196zm40.082 8.074l1.645-1.046.897 1.943-2.542-.897zm6.58-6.877l-2.991 1.345v-1.345l2.991-1.197v1.197zm8.226-8.074l-1.645-1.346 1.495-2.243 1.795 1.196-1.645 2.393zm11.815.747h-3.589l.448 3.589-2.243-4.336 1.196-1.346 4.188.449v1.644z" fill="#fff"/><path d="M580.467 117.324l-1.795 3.14 1.795 5.831 2.692 2.392 2.094 9.121 1.944 4.934 1.496 3.887.598-2.99 2.094 1.645v-2.243l-3.29-2.243-1.047-5.981 3.44 1.346-2.842-4.186-3.589-6.13-1.047-2.991-2.543-5.532zm17.796 32.591h1.496l3.14-3.29v-1.943l-3.29 1.943-1.346 3.29zm5.835-4.334l1.795-2.991-.898-.897-1.495 3.888h.598zM333.994 55.423l2.543-12.11 2.841-.898-5.384-5.532-2.393-1.944-1.196.748.598 5.98-1.795-5.083-1.645-.598-3.589 2.392 3.589 5.98 1.047 1.646 1.496-.898-.449-2.392 4.188 2.392-5.235 1.944 2.094 4.635 3.29 3.738z" fill="#fff" fill-opacity=".9"/><path d="M340.277 43.164h-2.244l1.047 2.691.299 4.486 2.543-1.944v2.691l2.841-3.887-3.439-.748V44.66l-1.945.449.898-1.944zm-2.243-11.213h-3.14l-1.496 2.99 2.243 1.944 2.992-.747-2.693 1.644 2.693 1.645 2.692.748 3.439-1.645.748-5.084-4.187-1.495-1.945 2.093-1.346-.598v-1.495zm28.564-4.338l3.589 1.346.598-3.29h1.645l-1.046-1.794h-1.795l-2.991 3.738zm4.637 3.14l2.244 1.196 1.047-2.99 1.944-2.542-2.543-2.542-1.495 2.542-1.197 4.336zm7.775-1.793l2.692-1.047 2.244 1.047 1.495-.449 1.496-2.093-2.543-1.346-2.243 1.346-3.739-.748.598 3.29z" fill="#fff" fill-opacity=".9"/><path d="M388.882 21.484l-2.842 1.047.897 3.887 2.692-1.345-1.794-1.794 1.794-.748-.747-1.047zm2.093-4.336h-2.094v2.692l2.094 2.541 1.495-2.541-1.495-2.692zm-8.225.594h-2.542v2.093l-1.346 1.645v2.392l1.944 1.196h1.944l1.645-2.69-2.841-2.543 1.196-2.093zm6.132 10.168l-1.047-.896-1.795 1.943 1.496 1.047 1.346-2.093zm-12.413 2.096h-1.346l1.346 1.944 1.944-1.047-1.944-.897zm6.281-14.803h-2.542l1.196 1.944h1.346v-1.944zm46.512-7.923l-2.542 5.083 1.346 3.738 4.786 1.046 2.841-4.037-6.431-5.83zm8.526 6.13l-3.739 4.336v2.691l3.739 1.495 5.533.45 1.496-1.795-3.739-5.383-3.29-1.794zm8.075 2.692v3.737l1.795 6.58 1.346.597 2.393-3.14 2.542-2.242-.897-1.795-7.179-3.737zm86.597 0v2.84h-4.936l-2.542-1.794 2.243-1.046h5.235zm-7.48 11.808l-1.346 4.037h5.982v-2.99l-4.636-1.047zm-3.142-10.762l-7.179-1.046v3.737l-4.636-3.737-1.645 3.737 2.991 4.187 5.235 2.392 4.187-4.037 2.842-1.794-1.795-3.439zM407.427 43.164l2.393 3.887-7.628 6.58-3.739 7.026-2.093 8.523 2.692 5.382 4.038 1.794-1.944 1.645-5.534-.897-5.085-4.486 1.795-2.392v-2.84l.747-8.373-.747-3.14 3.14-1.645.748-3.439s5.833-2.99 5.982-2.99c.15 0 2.693-2.99 2.693-2.99l2.542-1.645zM392.47 83.83l-3.589-.598v2.243l.748 1.645h2.841v-3.29zm26.922-24.37l1.346 2.543h-2.543l-1.196-1.346 2.393-1.196zm61.767-20.335l-2.692 1.047v2.093h2.692v-3.14z" fill="#fff" fill-opacity=".9"/><path d="M614.864 56.172l1.495-1.196 2.543.598.897-6.13-3.739-3.589 1.047-1.943 1.496 2.392 2.094.448.448-2.093 2.393-.15 1.496 1.795 5.683-1.495-2.991-5.084-2.244-1.345 2.692-2.99-2.093-3.44-4.786-.747-2.543 2.093 2.692 3.588h-2.393l-2.841-4.037-11.666-1.495-9.572-1.495-9.721 2.093 1.197 2.393 3.439 2.69-.747 2.393-2.244-1.495-2.542-.897-1.944-2.093-1.197 2.691-7.777 1.794.299 2.542-2.393-1.645-3.141.748-1.495-4.037-4.487-2.093-6.281 2.99-3.889 1.196-.299-1.495-1.944-.897-1.346 1.196-3.44-2.093.299-2.093-5.384.598-.748 4.485-.748-3.439-2.542 1.047.149-2.093-8.824.598 2.543 2.093-2.094 1.794 2.094.598 1.795 2.99-2.244.15.15 2.84-4.038-1.644-1.795.748.299 1.196-3.141-.15-1.794-1.495 1.495 6.728-5.085-2.69-4.038-2.244 2.393-.448-1.495-2.243-1.496.3-.15-2.094-5.533-2.392-4.188.448-1.496.897 1.945 3.14-5.235 1.495-3.739-.15.15-2.541-8.076 1.645-2.992 1.196-3.14-1.346v3.14l-3.44 5.383-.449-3.44 2.543-8.372.897-6.28-6.132-4.336-3.141-1.345-3.439 1.644-1.197 2.841-1.196-4.485-4.338 1.345.599-3.14-3.44-.897-1.496 5.084 3.739 4.485-4.487.449 2.692 3.29-2.692-1.496-2.243 2.243-1.196-.897-4.039 1.046 1.795.897-5.384 3.738-2.094 4.187.15 2.99 3.44 1.645-1.496 1.046-8.076 2.841 2.393 4.934 4.038 2.093 1.645.897.748.449 1.495 3.588-1.794 1.794-.898-5.233h-3.439l-5.085-2.84-1.346 1.794.897 1.943-2.842-.897 1.645 3.29 4.188 1.196-6.132-.748-2.243-7.027-1.346-.15 1.495 4.037-1.645 1.496 1.047 2.84 2.842 2.094 1.196 5.382 1.346 1.196 2.991-1.495 4.338 2.392-.599 2.392-1.645-1.046-2.094-1.944L433 81.888l1.646 4.037-1.197 3.738-1.346 1.794-1.944-.747 1.495-8.373-2.841-2.84-2.692-7.477-1.945-1.644-.747-6.43-5.684-.448.15 6.43-1.496 3.14 3.44 6.428 1.645.3 2.692 2.242-.299 3.14-5.384-3.44-5.683-2.092-3.589.15-.449 1.494 1.496 2.692-1.646 1.794-1.346-1.794-5.533 1.943-.748 1.496-2.094.149-.15-2.392-7.029 5.083-1.047.897-.299 2.841-2.542.3-1.795-2.393 2.094-1.645-2.094-2.392-3.44-.299 1.197 5.831 1.495.449.15 3.588-3.44-1.196-3.739 3.887 2.094 2.692-1.346 1.495-5.085-2.393-.748 1.944 3.29 1.495-1.346 1.495-3.589-1.794-1.944-3.738.299-2.84-5.085-3.14.747-.449 5.385 2.392 4.337 1.346 4.187-1.944.449-3.289-10.17-6.878-4.038.599-3.44-1.197-1.346-.448-2.542 2.542-.15-.3-.598 1.944 3.141 4.187-.898 2.093 2.244 4.934v2.691l1.794 5.831 1.346 1.794-4.337 7.476 2.244 1.944-2.543 2.093.748 4.785.897 4.934-1.944 1.794-1.645 3.738-3.889 1.943 1.047 2.991-.897 1.345.149 1.047 1.945.299 2.393-.748 4.038.897h5.234l.299-1.345 2.094-.299.449-.748h2.991l.299 1.794 1.047 1.047 1.196-.299 1.795 2.99 2.842-.747.897 1.046 4.337 1.047.449 1.196-.897.448.448 2.243-.149 1.196-1.645.449-.449 1.495.897-.299-.598 1.645-1.196 3.14-1.346-.15.149 1.047 2.393 1.345 4.038 2.991 3.141 2.392-.299 1.794 3.44.598 1.196 1.047 2.842-.299 1.047-.898 2.841.898-.897-1.645.598-.598 2.243 1.645 2.244-1.645-3.141-4.785-2.243-1.495 1.047-3.588 1.944-.598 1.496-1.196-1.945-1.495-3.888-3.738-.15-4.486 1.047-1.495 2.543 1.944v-2.392l3.14-3.29h2.842l5.085 2.392 4.935-1.046 3.59 1.046 4.038-.448v-1.944l-2.393-1.944.748-3.139h1.645l-2.393-2.094 2.393-.747 9.422-3.738 2.393-1.944 3.739.449.598 2.841 7.179 1.495 3.739-2.841 9.123 10.317 3.141.149 3.141-1.196 3.439 3.14 2.094.747 2.094-.149 1.047 1.644.598-.598.449.598 1.346-1.345 2.991-3.589 4.188-1.046 4.636 2.542 5.534-.598-1.795-4.336 1.795-2.393 6.73 1.197 2.841 3.438 6.132-.747 5.534 2.392 8.076-1.196 3.141-2.841 4.636 1.196v-.299l2.543.15 1.645-1.944-.449-3.289.449-2.393v-2.093l-1.795-.448.449-1.794 3.739-1.496h3.589l3.739 1.196 3.59 5.084 2.991 4.336 2.841.598 4.637 1.794 1.047 3.439 2.692.449 1.047-2.094 2.692-1.345 1.495 2.392-.448 1.944.448 7.176-2.841-.448-1.197 1.196 1.197 5.383-.898 1.345.898.598.448-.598.898-2.243 1.495.15.748 1.495 2.243-.448 3.44-7.028 2.094-7.774.897-5.682-1.794-5.981-.748-5.382-.748-1.794-.748-3.14-5.683-2.691-.748 2.242-1.495-.897-1.496.598-1.196-3.14-3.291-.149 3.739-10.018 1.496-6.429 1.196-3.14 7.927-2.392 3.141-.15.448-2.541s4.786.748 5.085.748c.3.149-.448 1.644-.448 1.644l.598.897 5.833-3.14-.898-1.196-1.645-.15.599-5.83-1.047-3.29 2.841-1.794 3.141-1.046.449 3.737 2.841 1.346 1.795-5.98-1.944-4.037 3.739-.748 1.346 8.672-2.244 2.093-.149 8.522-.449 3.738-2.094 1.794.748 2.841-.15 5.233 7.478 13.008 2.842 5.084 2.393-2.094-.748-5.382 1.944-1.495-1.196-4.037 2.094-2.243-2.393-7.326 2.393-.15-1.795-2.392h-1.496l.15-3.738-1.795-.598-.448 1.495-1.496-1.644.15-5.682-1.346-3.588 3.439-2.841 1.496 2.392 1.496-4.037 2.542-.598 3.141 2.392v-1.943l.897-6.728 4.637-7.327h3.14v-2.541l-10.469-7.476h-2.243zm-248.567 63.843l-3.29-3.29 1.496-3.438 4.038 4.485-2.244 2.243zm7.03-3.29l-3.141-3.438.897-2.841 1.197.747 1.196 2.243.897 2.542-1.046.747zm7.029 10.018l-3.44-2.691 1.196-1.645 2.992 2.392-.748 1.944zm131.911 5.981v2.99l-4.786 1.346v-1.346l2.692-1.196 1.495-4.037 1.945-3.738-1.945-5.233h2.991l1.197 7.625-3.589 3.589zM613.072 235.14l-.748-.747-1.047 1.345.898 1.645.897-2.243zm28.865 45.751v.598l2.093 2.541.898-1.196-2.991-1.943zm2.243 4.484l-.748 1.196 2.842 1.346.299-1.196-2.393-1.346zm2.392-2.541h-.748l1.795 3.887 1.197-.897-2.244-2.99zm.749 4.484v1.196l2.393 1.197v-1.197l-2.393-1.196zm10.32 10.321l-1.197.747 1.197 2.243 1.346-.598-1.346-2.392zm1.345 2.99l-.598 1.795h1.496l-.898-1.795zm1.944 3.588h-1.047l.448 1.943h1.047l-.448-1.943zm20.491 0l-1.945 1.046-.747 1.645 2.692.449.598-1.496-.598-1.644zm3.59-2.692l-2.991 1.197v1.196h2.991v-2.393zm-33.802 9.569l-.748.897 1.944 3.14 3.29 2.242.748-1.345-2.991-2.692-2.243-2.242zm11.367 41.265l-1.346.449.598 4.635.748 4.336-.748 5.532-2.542.598v1.794l2.243 2.243-2.243 3.738 1.047 1.794 5.982-6.878 2.094-1.345 2.393-4.336-1.047-.897-1.795 1.495-2.094-1.794-.149-4.037-1.795.598 1.196-4.037-2.542-3.888zm-7.479 20.485l2.991 3.887-.747 2.392-4.038 3.589v1.943l-3.889.898-2.991 4.635-4.188 3.588-2.542-1.346-2.543-1.046 3.141-5.233 5.534-3.29 4.935-3.588 4.337-6.429zm-16.9 20.033l1.795 1.944-2.842 1.046 1.047-2.99zm-39.334-25.563c.299 0 3.589 2.692 3.589 2.692l3.739-1.346-1.047 4.187-2.692 3.139-2.692 1.495-1.047-2.093v-8.074h.15zm9.872-78.197h-1.496l-1.496 6.13-1.047 7.327-2.093 1.943-2.992-1.943-5.683-3.589-.748-2.243 2.992-4.934-4.936-.598-4.038-1.495v1.944l-3.589.448-3.44 3.738v2.542l-2.393-.747-2.842-2.094-4.486 2.991-2.393 2.99-.748 2.243-1.944-2.243-1.795 2.243v1.943l-2.094 3.14-12.563 3.289-3.44 1.944-1.495 6.579.747 3.289-.747 1.047.747 5.98 1.047 7.925s-2.841 4.485-2.542 4.635c.299.149 1.795 2.541 1.795 2.541l3.888 1.047 5.384-2.841h5.683l2.543-2.392 2.692-.15.897-1.495h3.59l3.29-1.196 6.282.598 3.439 1.495 2.244 7.327 5.384-5.532-2.842 6.429 3.44-.897-1.047 2.84 2.094-.448v5.083l.897 2.542 5.534 3.589 2.991-2.393 1.795 3.439 5.085-3.439 3.141.15 1.495-2.093 1.496-5.084 7.627-10.466 4.188-11.363-1.496-8.522-7.029-12.41-3.739-3.439-1.496-8.971-2.243-.598-1.495-7.775z" fill="#fff" fill-opacity=".9"/><path d="M582.262 289.117v1.645l1.944.598 1.197-1.645-3.141-.598zm3.889 62.499l2.842-.897 1.047 1.644h-3.141l-.748-.747zm-9.423-67.582l-.448-1.196-3.889.747-1.645.898 2.094 1.046.149-.149 3.739-1.346zm44.125-7.777v1.645l3.589 1.047h2.991l2.094-2.692v-2.392h-1.346l-1.645 3.29h-2.692l-2.991-.898z" fill="#fff" fill-opacity=".9"/><path d="M626.086 270.426v1.196l2.991 1.196 1.646 2.99h.747l-1.944-3.738-3.44-1.644zm8.077 5.98v1.944l1.346 1.794 1.795-1.196-3.141-2.542zm-12.265 8.073l-3.738-4.485 1.645-.299-.15-1.795-4.337-1.644.598-1.794-10.17-3.888-.299 14.653.299.149 4.038.748.748-3.888 2.692-.598 2.991 1.794 2.692 3.738 6.282 1.346v-1.645l-3.291-2.392zM514.812 254.13l-4.636-1.196v1.495l2.243 2.691 4.337 4.186s4.038 7.028 4.038 7.327c.15.299 1.646 2.84 1.646 2.84l6.73 6.43h2.841l1.047-5.682-2.841-1.794-.748-2.392-2.094-.748.748-1.645-1.197-1.196-3.44-2.392-4.486-4.037-4.188-3.887zm18.844 23.774l-2.841 2.093 6.281 2.094 7.029 1.046 4.338.598h3.888l2.244 1.196 4.038-.448s-.15 1.794 0 1.794c.149 0 4.337 1.645 4.337 1.645v-2.243l-3.44-.748.748-.897 2.841.449 4.487-.449v-1.644l-2.393 1.046-2.692-.448-3.739.448-4.187-.448h-3.291l-2.094-.748-3.29-2.093-3.739-1.495-.448 1.645-3.739-.3-4.338-2.093zm-18.845-15.699h-1.346l1.346 2.243 1.346-1.196-1.346-1.047zm2.692 5.084l-.898 1.196 1.795 1.495.598-1.345-1.495-1.346z" fill="#fff" fill-opacity=".9"/><path d="M531.862 268.633l-1.047 1.345 2.991 2.393.748-1.346-2.692-2.392zm3.739 2.392v1.346h1.794l.449-1.346h-2.243zm36.791-8.82l-2.692 1.047-6.131-.598-2.393 1.794-.898 3.439-1.495 5.083 1.495.748v3.887l2.244.299.448-6.279.748.747 1.197 4.187 3.739-2.094-3.889-4.485 4.337-2.093-.299-1.495-5.085 2.242-1.944-2.542 1.495-1.644h3.291l3.29 1.046 2.542-2.242v-1.047zm7.18-1.943c-.3 0-2.244 1.345-2.244 1.345v3.888l2.244 2.392v-1.196l-1.197-2.093h1.944v-2.393h-1.495l.748-1.943zm-4.04 11.361l-2.094.748 1.047 1.495h2.243l-1.196-2.243zm2.392 0l.449 2.243 3.29-1.046 2.991 1.046-1.046-2.243-2.393-.598-3.291.598zm14.508 6.282c-.299-.299-1.196-.598-1.196-.598l-1.047 1.943.449 1.645 1.794-2.99zm-6.281 2.241l-1.495.748.448 1.944 1.047-1.346v-1.346zm-16.9 5.235l-1.047 2.542 2.842-.598 1.795-1.794-2.094-1.047-1.496.897z" fill="#fff" fill-opacity=".9"/><path d="M598.564 267.738l-4.038 4.635-2.542-1.346-.599-3.738-3.739-1.346-3.439 1.346.448 1.196 2.393 1.944 3.141-.449.299 1.047-3.589.598 1.645 2.841 2.094-1.645 7.777 3.887 2.393 3.888-2.094 2.841 3.888-.598 2.842 2.392.299-14.653-7.179-2.84zm-41.128-7.478l-1.196-2.093.897-1.795-3.739-.448-2.393 6.578-8.375 1.496-1.645-2.542-1.197-.299s-2.393 3.14-1.645 3.14c.598-.15 3.739 7.924 3.739 7.924l7.777.598 1.047 1.645 2.692-1.645 1.196-3.887 2.393-4.934 2.842-.449-2.692-2.392.299-.897zm8.226-32.142l-4.188-4.784-1.196 1.944-.598 5.532 2.094 2.84 1.645 1.346 3.29.748 2.542 2.392 1.945 1.794h-1.346l-1.645 2.99-.748-2.99-2.094-.598v2.841l1.645-.748-.897 2.841 2.094 1.196 1.495-2.542.598 1.346 1.346-.598-1.047-2.542 1.795.15 1.047-.449-1.047-3.588-3.44-.449-.747-2.392-2.094-1.047h-2.094l-.598-2.691 2.243-2.542zm6.729 15.7l-2.542 3.738-.898-.897-3.29 1.944v2.093h.897l.898-1.794h2.542l.15 2.841 2.243 1.196 1.047-1.794v-1.944l2.094.598-.897-4.336-2.244-1.645zm-12.712-3.888l.598 2.242-4.486 4.486-.898-.598 4.786-6.13z" fill="#fff" fill-opacity=".9"/><path d="M561.026 235.146l1.944 3.589 1.496-1.196-.898-1.794-2.542-.599zm1.196-26.465l-1.495-1.046-1.944 3.14v2.99l1.196 1.495.449 1.346h.748l-.748-1.795 1.346-1.495.448-4.635zm-84.202 35.583l-.748 4.635 1.197 4.037 3.141-1.795s-.15-2.242 0-2.541c.149-.299-2.094-3.589-2.094-3.589l-1.496-.747zm120.245-92.398l-9.572-4.186v1.495l.897 2.691v2.841h-1.495v3.14l1.196 3.289 2.094-1.495-1.795-2.542 1.795-.299 3.44 1.794.748-4.186h2.692v-2.542zm-6.879 9.271l-1.794 1.794v2.99l.897 4.336-.897 3.738h-3.44l-1.197 3.887-1.944.748-3.739 1.047-3.44 3.289v1.794l-1.794 2.093 2.692 5.981 1.944-1.495v-5.383l-1.795-1.794 1.795-1.196 4.935-1.495 1.346 2.243 1.047 1.794 2.094-3.14v-1.794l2.243.897 1.047-1.047 1.795-2.243.748 2.841 1.645-2.99-1.197-1.794-1.196-4.635 1.795-1.495-.748-5.383-2.842-3.588z" fill="#fff" fill-opacity=".9"/><path d="M582.562 182.965l-3.888 1.345 1.944 3.29 1.944-2.243h1.496l-1.496-2.392z" fill="#fff" fill-opacity=".9"/><path d="M493.574 208.978l-1.794-.897.598-1.346 2.543.748 1.196 1.794 4.636.598-2.243 2.99 1.496 1.795.299-1.047.747-.748.898 4.336 1.047-1.495v-2.841h1.645v-2.541l2.393-5.233 2.841-1.795-1.645-1.794-1.047-2.242-3.29.448-5.235 3.588.449 2.243h-5.982l-.748-2.691h-1.496v3.738l-4.038-.449-5.683-1.495-6.58-3.14.448-3.887-3.29-1.047-1.496-4.784-4.038-.897-3.141 1.495.898.299-2.094 1.944-.449 2.691-3.589 6.429-2.991-.449-2.094 2.841 3.29 2.991.898 2.541-4.188.748-1.346 1.196.449.15 1.346 1.495 2.841-.299-1.944 1.794-1.645-.299 4.487 4.037 2.841-1.794.748-2.692 1.047 8.074 2.692 7.775 3.44 7.476 5.085 8.223 1.346-.449 3.29-4.186.898-6.728v-5.233l5.533-4.336 3.59-4.187 3.29-2.691 1.944-2.841 2.393.449-2.692-6.579 1.196-1.794z" fill="#fff"/><path d="M488.039 202.25h-2.393l-1.196-.748-3.739-2.243-3.739-1.046h-1.944l-.449 3.289 6.581 3.14 5.683 1.495 4.038.449v-3.29h-.897l-1.945-1.046zm-18.095-14.352l-2.692-2.841-3.29-1.346-1.645-3.289h-2.244v.897l-2.692 1.346h-.299l-.149 1.345 3.14 2.093-1.196 1.645.449 2.99 1.645 1.197 2.094.448 3.14-1.495 4.038.897.299.897 1.047-.897-1.645-3.887zm32.005 29.304l-.897-4.336-.748.748-.299 1.047-1.496-1.795 2.244-2.99-4.637-.598-1.196-1.794-2.542-.748-.599 1.346 1.795.897-1.196 1.794 2.692 6.579.149.149 2.393-1.943 1.795-.299 1.196 3.289 1.047 1.196.449-2.841-.15.299zm15.406 17.941l-1.945-2.541.449-3.14-2.842-4.037 1.197-2.542 3.44-2.542 2.393-2.84-4.487-1.346.897-1.196-1.346-2.093-2.243-.748-1.047-1.196 1.795-4.635-2.094-4.037-1.944.598.299.449-2.842 1.794-2.393 5.233v2.542h-1.645v2.84l-.897 1.196-.449 2.841 1.047 1.047 2.094 1.645-.898.747.898 1.196 1.047-1.046 1.346 4.037-.898 3.139.898.449 4.636-2.243v-1.495l2.393 4.785 1.645 4.335.897 3.738-.598 2.692v1.345l1.795-4.186-.299-2.093-.299-2.692zm-22.883-32.745l-1.795 1.496.448 1.644h5.983l-.449-2.242v-.15l-.897-.748h-3.29zm38.585 39.474l-1.046-1.944 2.991-2.541-.898-2.991-2.093-1.046v1.794l-2.693-1.495h-3.589l-1.496 2.242.449 3.439 1.795 2.093 1.047 1.346h1.645l.748-.897h3.14z" fill="#fff" fill-opacity=".9"/><path d="M536.796 230.361l-4.935-3.738-.299-1.196-1.645-1.346.299-2.99 1.196-2.542 2.244-.747-2.543-1.196v-1.795l-3.589-1.196-4.188 1.346-1.496.448 1.496 2.243.897 1.645h2.842l1.047 1.495-1.795 1.495.897 1.944 2.393 1.196 2.094 2.841 3.291 1.794-.599 1.944-.448 2.392h.149l.898 2.99-2.992 2.542 1.047 1.944h-3.14l-.748.897 1.047.299-.599 3.738 1.197-.449 2.692-3.588 1.346-.15 3.589-2.841v-3.438l-1.645-5.981zm28.864-54.274l-1.047.748 1.795 2.541-.748 1.944 1.346 2.392 2.692-2.242 2.542-1.645-1.944-5.383-2.094-2.84-4.038 2.242 1.496 2.243z" fill="#fff" fill-opacity=".9"/><path d="M565.213 161.137l.599 1.794-3.291-1.046-3.14 4.635v1.644l1.794.449v4.635l1.047 1.345 1.645-1.046.3.299 4.038-2.243-.898-1.047-1.944-1.046-.299-1.944 3.589-3.588-.748-2.991 1.646-1.943-1.945-1.196-2.393 3.289z" fill="#fff" fill-opacity=".9"/><path d="M568.204 151.564l1.346-1.196 2.692.449-.299-7.177.299-1.944-1.346-2.392-2.692 1.346-1.047 2.243-2.692-.598-1.047-3.439-4.636-1.795-2.992-.747-2.841-4.336-3.739-5.084-3.59-1.345h-3.589l-3.739 1.495-.449 1.794 1.646.449v2.093l-.449 2.392.449 3.289-1.646 1.944-2.692-.299-.598 6.878h4.188l1.346-1.346 2.393 2.392.748 1.944-2.693.299-2.093 1.794-1.047 1.795-2.244.747-1.645 1.794-2.692-.598-1.944.748v1.943l1.795.748-2.244 3.887-7.926 2.542-2.094 1.346h-2.991l-4.637-1.944-3.14-.598-4.039.598h-3.439l-2.692-4.037-4.188-2.242h-3.889l-2.243-1.346.449-1.645-.449-2.242-1.795-2.243-2.542-.449-1.197.449-2.692-3.738-1.645 1.495-1.346 2.243.748 1.943-1.496 1.496-3.589-.598-.897 4.335.897.748-1.645.598-2.842.598v1.346l1.047.149 1.197 3.888-.898 1.794-2.243-.897h-5.235l-5.833-.598v1.495h-4.187l-.748 1.645v1.943l1.346.897.748-1.196 1.047 1.196-.898.897-2.991-.747-1.495 1.495.747 1.047-3.439 1.943 1.346 2.542-.449 2.841 2.094.598 2.243-.748 1.346-2.691 1.496.748v3.738h1.794l2.094-2.542 2.842-.449v1.047h2.243l1.645 3.289 3.291 1.346 2.692 2.841 1.645 3.887-1.047.897 1.196 3.887 3.291 1.047v.598h1.944l3.739 1.047 3.739 2.242 1.196.748h2.393l1.945 1.047h.897v-.449h1.496l.299 1.047 1.794-1.495h3.291l.897.747 5.235-3.439 3.29-.448 1.047 2.242 1.346 1.346 1.944-.598 2.094 4.037-1.795 4.635 1.047 1.196 2.243.748 1.347 2.093-.898 1.196 4.487 1.346-.449.598 1.346.149v-2.542l2.393-.747 4.188-1.346 3.589 1.196v1.794l2.543 1.197 2.094-.748 1.944.598.748 2.392 1.196-.149V217.8l5.235-1.944 6.281-2.542 2.692-3.439 2.692-5.083 2.244-4.187 1.047-4.485-2.842-1.346 2.094-1.943-2.244-1.944 1.496-.897-4.038-5.532-2.543-1.047.449-3.289 2.543-2.392 2.392-.598.15-1.944h-3.141l-1.196-.897-1.346.897-.898 1.644h-1.196l-.598-2.093h-1.047l-1.795-1.495.15-2.243 2.094.15.598-2.542 1.495-.299 1.346-2.99 2.393.598-1.047 2.691.748 1.645-.897 1.196.748.598 1.495-1.346.449-1.046 3.44-1.645.299.15v-1.645l3.141-4.635 3.29 1.047-.598-1.795 2.393-3.289.897.598 1.047-1.346-1.346-5.532z" fill="#fff"/><path d="M527.374 140.799l-8.076 1.196-5.534-2.392-6.132.748-2.841-3.29-6.73-1.196-1.795 2.542 1.795 4.186-5.683.598-4.487-2.541-4.337 1.046-2.842 3.589-1.496 1.345 2.393 3.29 1.197-.449 2.542.449 1.795 2.242.449 2.243-.449 1.645 2.243 1.345h3.889l4.187 2.243 2.693 4.037h3.439l4.038-.598 3.141.598 4.637 1.944h2.991l2.094-1.346 7.926-2.542 2.244-3.887-1.795-.748v-1.943l1.944-.748 2.692.598 1.645-1.794 2.244-.748 1.047-1.794 2.093-1.794 2.692-.299-.747-1.944-2.393-2.392-1.346 1.346h-4.188l.598-6.429-4.636-1.197-3.141 2.841zm-22.733 94.943l-1.047 1.196-.598 5.233.897.748v-2.691l.748-2.393v-2.093zm.899 10.916l1.346 4.486.747-.748-1.047-2.99-1.046-.748zm45.466 15.848l2.393-6.579 3.739.449.748-1.496 2.393-1.196-5.534-3.887-5.683 5.831-4.187 3.738-1.795 2.691-2.094-.598 1.645 2.542 8.375-1.495zm-30.661-10.464l.748 3.887 2.094 3.14 5.534 3.439.448-1.196-1.944-2.841-.15-4.187-2.542-2.691-4.786-.448.598.897zm8.076-22.581l-.598-2.84-2.094-1.795-.598 1.346-1.645-.449-2.991.898v-3.738h-1.197l-1.645-2.692v.15l-3.44 2.542-1.196 2.541 2.841 4.037-.448 3.14 1.944 2.542.299 2.691.299 2.093-1.795 4.187v3.439l.599-.299 2.991 3.887 4.786.449-2.842-1.496-1.346-1.345.449-.449-.748-1.794-1.346-1.645-.898-.747.599-2.99.748-2.991.149-2.243h1.795v1.944l3.589 1.346v.149l-.448-3.439 1.495-2.242h3.589l.599.299.448-2.841-1.944-1.645z" fill="#fff" fill-opacity=".9"/><path d="M535.002 230.061l-3.29-1.795-2.094-2.84-2.393-1.196-.897-1.944 1.794-1.495-1.047-1.495h-2.841l-.897-1.645-1.496-2.243-.897.299v2.542l-1.346-.15-1.945 2.094 1.645 2.691h1.197v3.738l2.991-.897 1.645.448.598-1.345 2.094 1.794.599 2.841 1.944 1.644-.449 2.841 2.094 1.196v-1.794l1.944 1.047.449-2.393.598-1.943zm5.384-9.27h-3.29l-1.496 1.495.898 2.542h1.944l1.346-.897.598-2.093v-1.047zm-203.401-85.525v1.346l.898.299v-1.197l-.898-.448zm3.891-5.381l-.598 3.14.598.299.598-3.439h-.598zm3.887-1.944c-.149 0-1.196.299-1.196.299l-.748 1.197.299 1.943h.449l.897-1.644.299-1.795zm6.133-3.886l-1.197.598 1.197.299.599-.449-.599-.448zm.598 1.343h-1.197l-.598.598v1.944l.598-.299.3-.897h.897v-1.346zm-6.132-6.279l-.599.898 1.497.897v-1.346l-.898-.449zm-46.664-5.681l-1.047.299.449 1.196.598 1.794h.149v-2.243l-.149-1.046zm-24.078-12.857l-2.094-2.542-1.794 1.346s-2.094 2.242-1.795 2.392c.299.149 4.038 0 4.038 0l-.449 1.495h-3.29l.449 1.495h2.094l1.196 1.495-1.795.449.599 1.495h2.841l3.141 1.196 7.478-3.289 1.645-2.392-.748-3.589-2.393-2.093-4.337 1.794-3.141-.299-.149 2.392-1.795.449.299-1.794zm33.949 18.237l-1.047.598v.898l.748.448.299-.897v-1.047zm-3.888 7.178h-2.992l-.598 2.392-.748 1.196v1.197l-1.047 1.046.3 1.346 1.495-1.794-.598 2.093-.15 2.093h1.047l.598-2.392v1.944l-.598 1.943h1.047l1.944-.598s-.598 1.346-.598 1.495c0 .15.299.897.299.897h1.197l-.449 2.542-2.542-.299-.3 1.944 1.047.299-.149 1.196-1.944.897.299 1.047 1.495-.299 1.047.598 1.047.299 1.645-1.196-1.047 1.794h-2.393l-.897.747-2.243 2.243 1.047.449 1.944-1.196 1.196.299 1.197-1.496h1.944c.15 0 4.636-.299 4.636-.299l1.945-1.794-1.795-.448 1.944-2.393-.598-1.794h-2.692l.299-1.046-.598-.897-1.197-2.542-.598-.299-1.346-2.542-1.645-1.645h-1.944l1.645-.598-.15-.747 1.645-3.14-1.645-.449-2.094.449.15-1.196 1.496-.897v-.449zm-5.084.746l-1.496.299v1.196l-.897.449.299 2.542.149-.299.299-1.944.898-1.047.748-1.196z" fill="#fff" fill-opacity=".9"/><path d="M299.298 128.688s-1.047.299-.898.448c.3.15.898 1.347.898 1.347h.449v-.599l-.449-1.196zm3.29 9.566l-1.047.449v1.196l1.047-.897v-.748zm-5.983 0l.598.748.748-.748 1.196 1.047 1.047-.598-.448-2.392-1.346-.299h-.299l-1.496 1.345v.897z" fill="#fff" fill-opacity=".9"/><path d="M297.951 138.253l-.747.747-.599-.747v-.897l1.496-1.346-1.795-.299-1.196 1.495.897.449-.897.598h-2.842v1.046l.897.598-.897.748 1.645.897-1.645 1.645h2.094l-2.094.747-1.047.15.748 1.794 1.496.748 2.093-1.197 2.692-.747.599-.15.448-2.093-.149-2.243-.299-.747.299-.15-1.197-1.046zm-.746 42.469l-.449-.448.598-1.496-.897-1.644 1.197-.299 1.196-4.934-4.935-.598.149.299.15 3.439-1.944 3.737 1.046 1.496v3.289h3.44l-.299-1.196.748-1.645zm17.049-1.945l-.748.3.449.897.748-.598-.449-.599zm1.347-1.046l1.048.599.448-1.048-.748-.149-.748.598zm2.093-1.196h.748l.449.599h-.748l-.449-.599zm-42.476 26.166v1.347l.598-.599-.598-.748zm1.347 1.346l.449.897 1.496-.448v-1.047l-1.945.598zm3.289.449h-.747v1.046l1.046-.448-.299-.598zm1.946.449h.748l.748-1.496h-.748l-.748 1.496zm2.391-2.543l-.598-.298-.299.896h.897v-.598zm-9.72 3.439h.748l-.299-.747-.449.747z" fill="#fff" fill-opacity=".9"/><path d="M312.011 169.955l-3.141-.747-1.047-1.047-12.264-1.196-2.392 1.645.747 2.691 4.936.598-1.197 4.934-1.196.299.897 1.645-.598 1.495.449.448-.748 1.645.299 1.196h1.047l2.094 2.392 3.589-1.794h3.589l2.693-1.196 1.346-3.738-.748-1.794 3.29-3.888 2.692-1.345.299-1.645-2.542-.598h-2.094zm16.448-1.197l-1.645 1.495.897 2.841h.748v-4.336z" fill="#fff" fill-opacity=".9"/><path d="M323.974 163.077l-.748-2.99-1.645.897.449-1.495 1.495-1.645-.299-.897h1.645l.599-3.888-3.141-.747-3.44-1.346-1.795-1.345-1.346-2.094-.748.598-1.346 2.542-1.495.449-1.047 1.345h-1.795l-1.495-.897.149 2.692-1.794.149h-4.786l5.683 4.485 2.243 3.439-1.495 5.831 1.047 1.047 3.14.748h2.094l2.543.598.149-1.795 1.197-1.495 2.243.449 2.243 1.046 2.692-1.943-1.944-3.14.748-.598zm5.233-27.811l-1.047.448 1.047 1.196.897-.598-.897-1.046zm1.945-1.047l-.748.748.299.897 1.047.149v1.196l-1.047-.299-.598.299.449.449h1.794v-1.645l.599-.448v-1.944l-1.496.15.449 1.046-.748-.598z" fill="#fff" fill-opacity=".9"/><path d="M327.264 136.015l1.794-1.495.449-6.579-4.786 3.888 1.047 4.635c.897.299 1.944.448 2.543.598l-1.047-1.047zm-3.59 7.176l-.299-2.093-4.636 1.495-1.047 3.887 3.589 1.047.449-1.944h1.047l.449-.747-.449-1.197.897-.448z" fill="#fff" fill-opacity=".9"/><path d="M315.749 147.525l1.346 2.093 1.794 1.346 1.945.748.448-1.795v-2.392l-3.589-1.046-1.944 1.046z" fill="#fff" fill-opacity=".9"/><path d="M320.833 151.713l1.496.598h.15l-1.197-2.243-.449 1.645z" fill="#fff" fill-opacity=".9"/><path d="M334.293 152.163l-1.346-2.243 5.534-2.093-1.496-4.934.299-3.289-3.141-1.047-4.785.299-1.346-1.645c-.599-.149-1.646-.448-2.543-.598l.748 3.738-2.991.897.299 1.944-.898.598.449 1.047-.449.747h-1.047l-.448 2.093v2.393l1.196 2.242 2.991.748-.747 3.588.747.449 1.346-.299 2.244.747 4.187-.747 1.646.448-.299-.897 1.645-2.392-1.795-1.794zm-3.14-30.352l1.196-1.047-.897-2.691 1.495-2.392-1.495-1.196-.299-6.43 2.243-.598 1.196-6.877 1.346-1.346 1.496-2.99-.449-1.346 1.496-2.542 1.047.3.598-2.094 2.842.598 1.794-3.738 2.692 2.393 4.487-1.496.449-3.438 2.094-1.047 2.094 1.645 1.046 2.242 2.543-2.541-3.44-1.197 2.842-1.345-5.833-3.14-9.123 3.29-7.628 6.877-7.178 15.251-4.637 5.532-6.431 3.887 1.197 11.513 3.589 1.794 5.833-4.785.598 1.645h1.496l-.299-2.691z" fill="#fff" fill-opacity=".9"/><path d="M349.249 94.152l-.748-2.542-2.243-1.046-2.094-1.794-1.196 2.392-2.842-.598-.598 2.093-1.047-.3-1.496 2.543.449 1.345-1.496 2.99-1.346 1.346-1.196 6.878-2.243.598.299 6.429 1.495 1.196-1.495 2.392.897 2.692-1.196 1.046.299 2.692h-1.496l4.337 11.213 5.833-3.588.15-6.579 2.692-1.644.299-3.589-2.543-2.243-.299-5.382 6.282-6.13.299-4.785 3.888-.448-.897-3.44-.748-3.737z" fill="#fff" fill-opacity=".9"/><path d="M363.158 109.102l-1.794-5.831v-2.691l-2.393-4.934 1.047-2.094-3.141-4.336.598-1.794-.897-1.943-2.094-1.645-2.094 1.047-.448 3.438-4.487 1.496-2.692-2.393-.598 1.346 2.093 1.794 2.244 1.047.748 2.541.747 3.738.898 3.439 1.645-.149v2.541l-5.833 7.028.897 7.625 4.487 2.392 7.927-2.392 4.487-7.476-1.347-1.794zm-9.421 23.324l-3.141-.299-1.645 1.047v.299l3.14 2.541v1.346h-.299l2.393 2.243 3.889-1.944 1.495-3.439-3.14-1.644-2.692-.15zm5.235-3.437l1.945-.598-.299-1.196-.748-4.785h-.15l-5.085-.299-2.542 1.495.598 2.393 1.496.149v1.346l2.692-.299 2.093 1.794z" fill="#fff" fill-opacity=".9"/><path d="M361.663 132.127l-.748-3.738-1.944.599-2.094-1.795-2.692.299.15 2.243-1.496.15-1.645-1.944-2.243 2.392v2.841l1.645-1.047 3.141.299 2.692.15 3.14 1.645v-.15l2.094-1.944zm-26.621 49.937l5.085 3.439 1.047-3.888-6.132.449zm-5.684-3.439l-2.543.897v-5.383l2.543-.598v5.084zm9.273 7.775l.898 1.048.299-.748-1.197-.3zm-5.534-27.959l-2.243.299-1.346 1.795h-1.346l-.449.897-1.346-1.346-.897 1.495h-1.346l-.449.299.299 1.196-.747.598 1.944 3.14 1.944-1.495 2.692.598 1.645 2.99 3.59 3.589 4.337 2.243 2.094 1.794.748 2.841-.599 2.392h1.047l1.795-3.439-1.346-1.346.897-1.794 2.393 1.645.449-1.645-5.235-2.691.599-.897-3.59-1.346-1.944-2.99-2.393-1.944v-2.841l1.795-.299.747-2.541-3.739-1.197z" fill="#fff" fill-opacity=".9"/><path d="M340.875 163.226l1.047.15h2.543l2.542.598.748-.598-.748-1.645-1.047.299-2.393-.897-1.495-.598-1.646.897-1.196 1.196-2.542.299.299 1.346 1.944-.897 1.346 2.99 3.888 2.542-2.991-4.485-.299-1.197zm1.197-4.185l-.449-2.392h1.197v-2.243l-3.739-1.047-1.047 1.047-1.795-.449-1.495 2.243.299.897-1.645-.448-4.188.747h-.15l-.448 1.047 2.094.448.149-.149 2.244-.299 3.739 1.196-.15.299 1.944.15 3.44-1.047zm15.106 28.258v1.046l5.833.748.448-.897-3.141-.897h-3.14zm-5.833-7.328l-.449 1.645h1.047l-.598-1.645zm.596 1.947l-.448.149.149.598.299-.149v-.598zm-2.99-4.785l.748 1.197.3-.3-.449-.897h-.599zm8.077 1.644l.299 1.346 1.196.598.449 1.196.897-.299-.897-.598-.149-1.047-1.347-.448v-.748h-.448zm4.634 4.784h-1.046v.747h1.046v-.747zm3.89 2.539l.449.599 1.197-1.197-1.646.598zm-.597.601v1.046l-.449-.299.449-.747zm-6.283-1.644l.449.448.748-.448-.598-.748-.599.748zm4.188-2.69l.749.299.448-.299-.748-.449-.449.449zm-1.646-3.591l.748.598.448-1.047v1.047h.748l-.299-1.495h-.748l-.897.897zm-1.345-2.541v.598l.748.299v-1.196l-.748.299zm-.299 6.132l.748.598.748-.299-1.197-.748-.299.449z" fill="#fff" fill-opacity=".9"/><path d="M362.114 171.6v1.046l-1.496.299-2.991.15-4.636 1.196-1.496 1.645-1.047 1.943.598.748 1.795 1.794-.299 1.944 1.944 2.242 2.244.449-.599-2.093h1.197l-.15-1.196h1.197l-2.692-3.14.748-.748-1.346-2.691 1.794 1.196 1.346-.598-1.196-1.346 4.636-.448.299.448 1.197-2.392-1.047-.448zm-33.055-14.203l-2.244-.598-1.346.299-.598-.299v.149h-1.645l.299.897-1.496 1.645-.448 1.495 1.645-.897.448 1.794.449-.299h1.346l.897-1.495 1.347 1.346.448-.897h1.346l1.197-1.645-2.094-.449.449-1.046z" fill="#fff" fill-opacity=".9"/><path d="M360.317 166.964l-4.636-.299-1.346-1.196v1.196l.748 1.495-.748 1.346.299 1.046 1.346 1.495.15 1.346 1.495-.299 2.991-.15 1.496-.299v-1.046l.748.299 2.393-1.047-.599-1.644 1.646-2.243v-.748l-3.44-.747-2.543 1.495zm-11.964.298h-1.196l.299.897-1.346 2.093 1.944 1.495.748-1.644 1.196-.3v-.897l-1.645-1.644z" fill="#fff" fill-opacity=".9"/><path d="M347.456 165.32l.299-1.196-.448-.449-.3.299-2.542-.598h-2.543l-1.047-.149.3 1.196 2.991 4.485.149.15 1.795 1.196 1.346-2.093-.299-.898h.897l.299-1.046-.897-.897zm3.441 5.531l-.898-1.046-1.196.299-.748 1.644.449.299v3.589l1.944 2.242 1.047-1.943.897-1.047-1.495-1.794v-2.243zm-12.266-10.764l-1.944-.149-.598 2.243.299-.15.299.897 2.543-.299 1.196-1.196 1.645-.897h.15l-.598-1.196-2.992.747z" fill="#fff" fill-opacity=".9"/><path d="M350.895 173.097l1.496 1.794.598-.598 3.141-.897-.15-1.346-1.346-1.495-.15-.299-3.589 1.645v1.196zm1.796-8.675l-1.047-.897-2.393-2.691-2.244 1.196.748 1.346-.449.299.449.448-.299 1.196.897.898-.299 1.046h.299l1.646 1.645v.897l.897 1.046v1.047l3.589-1.645-.149-.747.748-1.346-.748-1.495v-1.196l.299.299-.299-1.346h-1.645zm-4.638-9.271l.748.598 1.197-1.196 2.841-.299v-1.943h-3.29l-4.188 1.046-2.542 1.047v1.345l2.841 1.047 2.393-1.645z" fill="#fff" fill-opacity=".9"/><path d="M352.839 154.403v-.149l-2.842.299-1.196 1.196-.748-.598-2.393 1.645-2.841-1.047v.897h-1.197l.449 2.392-.449.299.598 1.197 1.346.598 2.393.897 1.047-.299v.299l2.244-1.196.299.299 1.944-1.047 1.346-3.289 1.047-1.047-1.047-1.346zm-8.226-4.034l-2.842-.598-3.29-2.093-5.534 2.093 1.346 2.392 2.094 1.645-.149.149 1.794.449 1.047-1.047 3.739 1.047 2.543-1.047 3.14-.747-1.645-.897-2.243-1.346z" fill="#fff" fill-opacity=".9"/><path d="M354.484 145.433l-.15-1.345.748-1.496-1.047-2.99-2.243-2.243h-9.572l-4.786 2.094-.449 3.289 1.496 4.934 3.29 2.093 2.842.598 2.243 1.346 1.645.897 1.047-.299h3.291v.448l.747-.149 1.197-2.542.897-1.794-1.196-2.841z" fill="#fff"/><path d="M364.506 159.04l-2.543-3.888-4.337 1.645-2.543-1.495-1.346.299.15.149-1.047 1.047-1.346 3.289-1.944 1.047 2.094 2.392 1.047.897h1.645l.299 1.346 1.047.897 4.636.299 2.543-1.495 3.439.747v-2.242l1.646-.449.149-1.495-3.141.299-.448-3.289z" fill="#fff" fill-opacity=".9"/><path d="M386.34 155.153l.149-1.197-.449-2.242.748-.449-.448-1.196-4.487-1.047-.748-.897-2.842.748-1.794-3.14-1.197.299-1.047-1.046-.299-1.795h-2.991l-.449.897-2.093.3-.3 1.345h-5.234l-4.038-.897-2.393.598-1.944-.299v.299l1.196 2.841-.897 1.794-1.197 2.542-.748.149v1.645l.898 1.196 1.346-.299 2.542 1.495 3.59-1.345v-1.496h1.645l1.645.898 1.047.299 1.346 2.242 1.496 1.944-2.094.15-.748 2.392h-.598v.448l3.14-.299v-.299l2.842-3.14 2.692 1.496 1.645.598-1.795 1.644 1.945.598.149 1.496 5.235-1.496v-1.495l-2.692.449-1.944-1.645 2.243-1.196 2.991-1.047 2.842-.897.299-1.495 1.795-.448z" fill="#fff" fill-opacity=".9"/><path d="M366.3 159.487l2.094-.149-1.496-1.944-1.346-2.243-1.047-.299-1.645-.897h-1.645v1.495l.748-.299 2.542 3.888.449 2.84h.598l.748-2.392zm-37.242 97.181l-1.196 1.495 1.196.449v-1.944zm-4.188 7.18h-.747v.747h.747v-.747zm88.091 26.314l-3.291 4.934-2.692 2.841-4.337 1.346-1.944 2.99 1.196 3.887-2.393 5.383v3.738l3.44 4.336 4.188-1.346 6.431-20.185 1.047.299v-1.943l-1.645-6.28z" fill="#fff" fill-opacity=".9"/><path d="M305.877 195.369l-1.047 3.439-5.982 3.439-3.889.299-1.794 1.944v1.794l25.724 17.792 4.337-.598 11.815-8.522-1.346-2.093-2.243-.449-1.346-4.336.747-.598-1.495-10.914-1.645-2.991-1.795-2.841 1.795-1.794.149-5.532-4.786.897-6.73.449-7.627 2.841-1.795.448 2.393 7.326h-3.44z" fill="#fff"/><path d="M337.434 301.077l1.944.598h9.123l2.991.898 3.889.448 3.589-.897-3.141-2.841v-7.326l4.786.598-.449-4.784h-3.439l-.748-7.626-4.786-.598-.598 2.542-3.739-.449-1.645-4.036h-9.273l2.991 10.466-2.393 4.635-2.094 8.671 1.047.299 1.945-.598z" fill="#fff" fill-opacity=".9"/><path d="M386.639 217.947v-.15l-2.542-1.794-2.693-6.13-1.944-4.635-3.141-4.486.599-.299 3.589 4.486.598-1.047.449-1.645-2.393-5.681-.299.299-6.431-.598-2.692 1.495-8.076-1.645-.599-.299 1.346 22.129h24.229z" fill="#fff"/><path d="M380.507 269.978h-4.188l.449-2.692-4.636.449-.898 2.691v1.346h.748l.449 5.831 1.795 1.346 1.046 3.588 5.534 2.392-.149-.448h1.495l1.645 4.037v.747h4.637l4.636-.747 1.795-1.645v-.449l-3.291-9.12 1.795-3.14-11.965-7.326-.897 3.14zm-4.935 48.442l-.449-5.981-4.786-.748-4.187 2.991-1.945 2.541-.897 2.393-5.982-.748-4.188 2.841-2.243-4.037v7.177l-2.992 2.093-2.991-2.093-2.094.598 4.038 9.27v4.336l3.889 1.196 12.413-2.542 11.516-10.765 2.543-5.532-.898-.598-.747-2.392zm-93.475-80.59l4.337.598 2.244.598-1.197-3.439-1.346-1.645-1.645-2.99-1.795-1.495h-3.589l-2.543 1.047-.598.149-.748 2.691 3.44 5.233.748-.149 2.692-.598zm7.927 8.222l-1.346-2.841-3.141 1.047-1.196 1.196 1.944 4.037 1.346.897 1.047-1.346 1.346-2.99zm15.105 3.292l1.346-3.14-.598-2.542h-2.094l-3.141-1.346h-2.692l-3.29.748.598 4.037-1.495 3.289v1.196l2.243.748.15 3.14 6.281-1.944 2.842.897.448-1.645-.598-3.438zm-11.964-44.854l1.795-1.944 3.888-.299 5.982-3.439 1.047-3.439h3.44l-2.393-7.326-1.346.299h-3.888l-1.496-1.645-.897.449-1.047 3.439-4.936 3.289-1.944 6.13-3.589 4.336-2.991 1.645 8.375-.15v-1.345z" fill="#fff" fill-opacity=".9"/><path d="M284.79 214.954h2.393v-5.532h5.982l.449-2.84-.449-.299v-.449l-8.375.149-1.196 1.496-5.385 8.372-1.495 3.439h8.076v-4.336z" fill="#fff" fill-opacity=".9"/><path d="M287.78 230.953l1.496 1.047 2.094-1.047 2.243 1.047h6.581l.598-1.795-.598-.747-1.346-17.792 1.645-.299-6.88-4.785-.448 2.841h-5.983v5.532h-2.393v4.336h-8.076l-.299.897 1.496 1.645-1.945 8.821.599-.15 2.542-1.046h3.589l1.795 1.495 1.645 2.691 1.645-.897v-1.794zm74.63-13.005l-1.346-22.129-4.188-1.644h-4.786l-1.645 1.943.898 1.645-2.094 2.243-4.487-2.393-2.842-.448-.747-2.691-7.329-1.495-1.196 2.84-1.346.449v2.392l-.898 1.047-.598-.15 1.047 7.924-.748.599 1.346 4.335 2.244.449 1.346 2.093 4.187 1.196 4.637-1.644 16.451 8.522 2.094-.748.149-4.335h-.149z" fill="#fff" fill-opacity=".9"/><path d="M331.301 198.658v-2.392l1.346-.449 1.197-2.841h-.15l-2.991-2.093 2.094-2.093-.449-1.645-1.047-1.196 1.047-2.242-1.645.448-.897-1.196-1.945.449-.149 5.532-1.795 1.794 1.795 2.841 1.645 2.99.449 2.99.598.15.897-1.047zm57.88 34.687l.748.897 1.944-.448 2.244.448 3.29 2.692 1.794 2.093 1.496-.449v-.149l-5.534-5.233-2.243-.897-2.094-5.383-2.841 1.196-.748 2.841v3.289h.748l1.196-.897z" fill="#fff" fill-opacity=".9"/><path d="M401.445 245.456l-1.346-3.438.15-.299-2.393.598.598-2.094.449-1.495-1.496-1.794-3.29-2.691-2.243-.449-1.945.449-.747-.897-1.197.897h-.748v.299l-1.046 2.093-2.693 4.785-1.495 5.233-1.944.897.598.897 1.495 1.196 2.842 4.037 1.197 1.644h2.991l1.794 1.346 2.842 1.047 2.243-2.542 2.992.897 3.29-1.645 3.44-.448 5.683-6.28-10.021-2.243z" fill="#fff"/><path d="M403.688 243.365l-2.692-2.691-.897 1.345 1.346 3.439 10.021 2.243-5.684 6.279-3.44.449-3.29 1.645-.598-.15-1.795 1.794v8.672l1.197 1.645 10.618-10.018 6.73-9.868 2.244-8.522-13.76 3.738z" fill="#fff" fill-opacity=".9"/><path d="M396.658 257.714l1.794-1.794-2.392-.748-2.244 2.542-2.841-1.046-1.795-1.346h-2.991l-1.197-1.645-.448-.747-2.543 2.541 2.243 4.785-1.196 2.093-1.496 2.093h.599l-.748 2.393 11.965 7.326 2.243-4.037 2.243-2.093-1.196-1.645v-8.672z" fill="#fff" fill-opacity=".9"/><path d="M375.571 259.509l-1.047 2.841-1.944 3.738v1.645l4.188-.449.299-2.841h4.487l1.495-2.093 1.197-2.093-2.244-4.486-6.431.898v2.84zm5.085 28.411l-.599 2.393-.747 2.691.747 2.243 2.094.747-.748 2.392 1.646 3.14 1.794-2.841v-3.289l-1.047-1.645v1.047h-1.645l-.748-4.635-.598-5.233-1.495-.598v1.196l1.346 2.392zm-13.161 22.426l-.598-2.243-2.094-1.794-2.243-3.289h-4.188l-4.487.897v7.176l-2.393.598v7.177l1.645 2.841 4.188-2.841 5.982.748.898-2.393 1.944-2.541 4.188-2.991-.748-1.345h-2.094z" fill="#fff" fill-opacity=".9"/><path d="M377.217 308.852l1.196-2.691v-5.981l-4.786-1.495v-1.046l-3.29.598-.449 1.345-4.038 3.439-2.991-.897-.299.897 2.243 3.29 2.094 1.794.598 2.242h2.094l.748 1.346 4.786.748v.149l2.094-2.243v-1.495zm-18.246-6.731l-3.589.897-3.889-.449-2.991-.897h-9.123l-1.944-.598-1.945.598-1.046-.299-.15.449 3.589 6.728 2.094 8.373 2.842 8.373v.149l2.094-.598 2.991 2.093 2.991-2.093v-7.177l.598 1.197v-7.177l2.393-.598v-7.177l4.487-.897h4.188l.149-.449-4.038-.897.299.449zm-11.068-45.453l-2.243 1.047-1.645 3.438-5.684-.598.3 1.795 1.944-.599.598 1.795-1.645 1.644 1.196 1.047-1.196 3.738-2.543-1.196-2.542 1.196 1.496.598v1.196l-2.094 1.196 1.196 1.346.299 1.046 2.543-.598.149-.299h2.543l.897.598 2.692-2.242v-2.841l3.291-3.14.897-5.981 1.645-3.139-2.094-1.047z" fill="#fff" fill-opacity=".9"/><path d="M335.639 276.857h1.346l.897-2.093-2.542.598.299 1.495zm-1.346-16.597l-3.739.149-.598 2.542h4.337v-2.691z" fill="#fff" fill-opacity=".9"/><path d="M335.939 270.576l-1.496-.598 2.543-1.196 2.542 1.196 1.197-3.738-1.197-1.046 1.645-1.645-.598-1.794-1.944.598-.299-1.794-3.291-.299h-.747v2.691h-4.338l-.897 3.887 4.786 6.131 2.094-1.197v-1.196zm38.735-12.86l-1.645-2.692-3.739.449-1.346-1.495-4.636.299-5.683.299v1.644l-3.44-.448-2.692-1.944-1.496 1.645-.897 1.794.897.449-1.645 3.139-.897 5.981-3.291 3.14v2.841l-2.692 2.242-.897-.598h-2.542l-1.047 2.392h-1.346l.299.748h9.272l1.646 4.037 3.739.448.598-2.541 4.786.598.747 7.625h3.44l.15 1.196 1.795-.448 2.841 1.644 2.244-.598 3.14 2.991 2.244.448v-2.691h-1.795l-1.197-1.794.748-3.29-.598-1.196 3.589-2.392-2.093-3.738-.898-6.13h.898v-1.346l.897-2.691h.449v-1.645l1.944-3.738 1.047-2.84v-1.794h-.898z" fill="#fff" fill-opacity=".9"/><path d="M367.196 252.931l-3.589-3.589-1.646-1.794-2.393-2.093-1.495-4.336h-.15l-2.243 2.093-1.346 2.243h-4.337l.448 2.093-3.888 1.346-2.244.448-1.196-.598-1.197 2.542-.598 2.093 1.346 3.29 2.244 2.691.747-1.645 2.244-1.046 1.196.598.898-1.794 1.495-1.645 2.692 1.944 3.44.448v-1.645l5.683-.299 4.637-.299-.748-1.046zm-84.501-15.099h-.598l-2.692.598-.748.15 2.094 3.139.15.15 2.393-1.495-.599-2.542zm9.722 11.062v-1.346l-1.047-.747h-1.645l-1.047 2.243-1.047 1.345 8.376 5.233.149-.149-.149-3.14-2.244-.748v-1.196l.748-1.495h-2.094z" fill="#fff" fill-opacity=".9"/><path d="M293.613 239.028l-1.496-.448-2.094.897-1.346-.748v.299l-2.243-.598-3.739-.598.598 2.542-2.393 1.495 3.291 3.289.149.299 1.197-1.196 3.14-1.046 1.346 2.84-.299.748h1.645l1.047.748v1.345h2.094l.748-1.794-.598-4.037 1.495-.299-2.393-1.645-.149-2.093zm38.438 11.212l2.244.897 1.346-2.242 2.991-5.084 2.094-3.439-.299-2.84-1.645-1.346-1.795 1.047-2.543-.599-3.739 1.197-2.841-1.197-2.094.599-1.645-1.645-4.487.448-1.047 3.589 1.047 2.691-1.944 2.99v5.831l.598-.149 4.337 4.635 6.132-.598 1.047-2.99 2.243-1.795z" fill="#fff" fill-opacity=".9"/><path d="M342.667 256.669l-1.346-3.289.598-2.093 1.346-2.991-2.243-2.691-.748-1.645h2.991l-1.346-1.644v-3.29l-1.495-1.495.299 2.841-2.094 3.439-2.991 5.083-1.346 2.243-2.243-.897-2.244 1.794-1.047 2.99h.449l1.944 3.439-.598 1.944 4.487-.149 8.973.897.898-1.795-2.244-2.691zm-28.564-19.136l-.448-1.943-1.795-.748.598-1.944h-2.542l-4.786 2.692h-1.795l-2.543 4.186-.448 2.542h.299l3.141 1.346h1.495l.598-2.542h7.478l2.692-1.495.898-.748-1.346-1.944-1.496.598z" fill="#fff" fill-opacity=".9"/><path d="M312.457 246.801v-3.589l-1.196-2.093h-5.384l-.599 2.542h.599l.598 2.542-1.346 3.139.598 3.439-.449 1.645 2.094.598 6.282-2.392-1.197-2.243v-3.588zm6.132-7.177l.299-.598-1.196-.598-1.645 1.196-2.692 1.495h-.299l1.495 1.645.598 2.84-.598 4.635.748 1.795 2.393-.897v-5.832l1.944-2.99-1.047-2.691z" fill="#fff" fill-opacity=".9"/><path d="M315.15 245.605l-.598-2.841-1.496-1.645h-1.795l1.197 2.093v7.177l1.196 2.243 1.645-.598-.747-1.794.598-4.635zm4.486-14.203l.598-4.186v-3.29l-1.346.15-18.396-12.709-1.645.299 1.346 17.793.599.747-.599 1.794h-6.58l-2.244-1.046-2.093 1.046-1.496-1.046v1.794l-1.645.897v.299l1.346 1.645 1.196 3.139 1.346.748 2.094-.897 1.496.448.149 2.094 2.393 1.644 1.795-.448h2.393l.449-2.542 2.542-4.186h1.795l4.786-2.692h2.542l-.149.299 2.542-.299 4.786-1.495z" fill="#fff" fill-opacity=".9"/><path d="M358.523 231.551h2.094l-.598-8.672-16.153-8.373-2.542 1.046.897 2.393.15 1.644 1.196 1.795-.748 2.691v5.382l-4.038 3.888v2.841l3.141 2.84v3.29l1.346 1.644h-2.991l.748 1.645 2.243 2.691-.15.449 1.197.598 2.243-.449 3.889-1.345-.449-2.094h4.337l1.346-2.242 2.244-2.093-1.496-3.29.449-2.243 1.645-4.036z" fill="#fff"/><path d="M342.818 229.46v-5.383l.747-2.691-1.196-1.794-.15-1.645-.897-2.392-2.094.598-4.188-1.196-11.815 8.522-2.991.449v3.289l-.598 4.187-4.786 1.495-2.542.299-.449 1.645 1.795.747.448 1.944 1.496-.598 1.346 1.943.748-.448 1.196.598.748-2.99 4.487-.449 1.645 1.645 2.094-.598 2.841 1.196 3.739-1.196 2.543.598 1.794-1.047v-2.841l4.039-3.887zm36.94 65.035l-.449-1.495.748-2.691.598-2.393-1.346-2.392v-1.196l-4.038-1.794.299.747h-1.196l-1.047-1.644-3.589 2.392.598 1.196-.748 3.289 1.196 1.795h1.795V293l-2.243-.449-3.141-2.99-2.243.598-2.842-1.645-1.795.449.299 3.588-4.785-.598v7.326l2.841 2.393 4.038.897.15-.449 2.991.897 4.038-3.439.449-1.345 2.841-.598.449-1.047 6.132-2.093z" fill="#fff" fill-opacity=".9"/><path d="M393.068 288.516l-4.636.747h-4.637v4.486l1.047 1.644v3.29l-1.794 2.841-1.646-3.14.748-2.392-2.094-.748-.299-.748-6.132 2.094-.448 1.046h.448v1.047l4.786 1.495v5.981l-1.196 2.691v1.495l-2.094 2.243.449 5.831.748 2.392.897.598.449-1.047-.15-1.046 5.683-3.14v-4.186l-1.047-5.383 12.115-8.672.598-3.738v-7.326l-1.795 1.645zm4.787-46.198l2.393-.598.748-1.047-.449-.448.15-1.645-1.496.449-.299-.299-.449 1.495-.598 2.093zm-7.326-15.848l-2.543-2.094-1.346-6.429h-24.079l-.149 4.336-2.094.748-.299-.15.598 8.672h-2.094l-1.645 4.037-.449 2.243 1.645 3.289 1.496 4.336 3.141-2.093h5.533l2.992-.15 3.439-1.345 3.739-4.336 2.991 3.588 2.094.449v-.15l2.692-4.784 1.047-2.094v-3.588l.748-2.841 2.842-1.196-.299-.448z" fill="#fff" fill-opacity=".9"/><path d="M378.415 237.533l-3.739 4.336-3.44 1.346-2.991.149h-5.533l-3.141 2.094 2.393 2.093 1.645 1.794 3.589 3.588 2.094 2.542 3.739-.449 1.645 2.692h.898v-1.047l6.431-.897v-.299l2.542-2.542-2.393-3.289-1.495-1.196-.599-.897 1.945-.897 1.495-5.084-2.094-.448-2.991-3.589z" fill="#fff" fill-opacity=".9"/><defs><filter id="filter0_d" x="204.062" y="7.643" width="97.501" height="119.654" filterUnits="userSpaceOnUse" color-interpolation-filters="sRGB"><feFlood flood-opacity="0" result="BackgroundImageFix"/><feColorMatrix in="SourceAlpha" values="0 0 0 0 0 0 0 0 0 0 0 0 0 0 0 0 0 0 127 0" result="hardAlpha"/><feOffset dy="4"/><feGaussianBlur stdDeviation="2"/><feComposite in2="hardAlpha" operator="out"/><feColorMatrix values="0 0 0 0 0 0 0 0 0 0 0 0 0 0 0 0 0 0 0.25 0"/><feBlend in2="BackgroundImageFix" result="effect1_dropShadow"/><feBlend in="SourceGraphic" in2="effect1_dropShadow" result="shape"/></filter></defs></svg>