<svg width="780" height="1058"><path d="M280.983 848.698c-8.575-3.712-16.303-8.271-24.666-10.392-13.762-3.606-22.337-13.043-30.383-23.647-3.07-4.03-6.034-8.166-8.786-12.513-.741-1.167-.847-3.712-.106-4.56 4.658-5.408 9.633-10.604 15.456-16.966 5.399 5.408 10.375 9.437 14.186 14.421 4.234 5.726 9.316 9.438 15.985 11.877 8.681 3.181 17.15 7.104 25.831 10.498 1.694.636 3.599.53 5.399.848.106-.636.317-1.272.423-1.803-7.198-2.969-14.397-6.044-21.596-9.013-1.588-.636-3.176-1.485-4.87-1.909-11.115-2.333-17.996-9.968-24.242-18.769-2.118-3.075-5.611-5.196-8.681-7.953 2.646-3.287 4.975-6.575 7.728-9.438 9.633-10.18 12.492-23.753 17.785-36.053 3.493-8.166 8.469-15.694 12.915-23.329.53-.955 2.753-1.803 3.705-1.379 7.834 3.181 15.562 6.681 23.82 10.286-.953 2.651-2.435 6.256-3.811 9.968.741.318 1.376.636 2.117.954 1.8-3.499 3.599-6.999 5.611-10.922 7.198 3.499 14.503 6.787 21.49 10.71 6.14 3.499 12.386 5.514 19.479 5.196 5.928-.318 6.987 1.273 5.399 6.999-4.235 14.527-8.998 28.843-13.021 43.37-2.223 8.272-3.388 16.861-4.87 25.238-.741 4.454-1.164 9.013-1.906 13.467-.846 4.878.106 5.938 5.188 5.514 2.117-.106 4.234-.318 6.246-.318.847 0 1.694.424 2.964.848-2.012 12.301-4.129 24.602-6.034 36.797-.53 3.181-.953 6.68-.106 9.649 1.376 4.772 1.588 9.12-1.271 13.043-7.092 9.65-8.151 21.102-10.268 32.237-5.082 25.449-9.846 51.005-14.715 76.561a6868.451 6868.451 0 00-4.87 25.875c-4.34-2.65-8.152-4.45-11.327-7.11-4.129-3.39-7.94-3.5-12.492-1.06-3.494 1.91-7.305 3.29-11.116 4.78-6.458 2.43-13.127-2.13-12.704-9.02.106-1.69 1.906-3.82 3.494-4.66 9.422-5.09 10.269-10.184 2.329-17.5-3.705-3.394-6.458-8.06-12.492-7.954-.953 0-2.647-2.12-2.753-3.393-.635-4.135-3.387-4.878-6.669-5.514-3.917-.742-7.834-1.697-11.751-2.651-1.058-.212-2.435-1.06-2.964-.742-6.563 4.135-11.116-1.061-16.197-3.394-2.964-1.378-5.187-2.226-7.199 1.803-.953 1.803-4.234 2.333-6.457 3.5-.636-1.803-1.588-3.712-1.694-5.515-.212-4.559.317-9.225-.212-13.785-.529-4.878 2.011-7.635 5.187-10.71 5.929-6.044 13.022-9.438 21.067-11.134 7.94-1.697 13.233-6.257 17.256-13.149 3.176-5.62 15.244-7.635 21.278-5.514 6.352 2.226 13.233 2.969 19.903 4.135.635.106 1.905-1.378 2.117-2.439 1.8-6.786 3.388-13.573 4.87-20.466.212-1.06-.847-2.863-1.8-3.605-3.493-2.651-7.304-4.772-10.904-7.317-2.223-1.59-5.822-3.393-5.928-5.302-.212-4.878.317-10.18 1.905-14.845 1.377-4.136 4.553-7.741 7.728-12.831zm57.696-57.156c4.975-15.482 9.633-30.116 14.397-44.749.318-.955.635-2.015.953-2.969 2.435-8.59 3.493-9.12 13.445-6.469-.424 5.514-.212 11.347-1.483 16.861-2.752 12.831-6.14 25.449-9.421 38.174-.318 1.061-2.223 2.439-3.176 2.333-4.658-.848-9.21-2.015-14.715-3.181zm.001 3.286c4.869.954 9.527 1.697 13.974 2.863.846.212 1.905 2.651 1.693 3.712-1.799 7.316-3.811 14.527-5.928 21.844-1.8 6.256-7.093 2.969-10.692 3.181-4.341.212-2.117-3.499-1.906-5.514.847-8.589 1.906-17.072 2.859-26.086zm1.27 251.952c-8.363-6.25-15.562-11.45-22.655-16.96-1.058-.85-2.223-2.66-2.011-3.82 2.435-14.11 5.187-28.209 8.046-43.797 3.811 4.03 6.563 6.893 9.316 9.968 2.117 2.333 4.658 4.454 6.14 7.211 2.858 5.298 4.234 11.138 8.892 15.798 1.906 1.91.318 8.17-.847 12.2-1.588 6.25-4.234 12.3-6.881 19.4zM238.003 693.244c7.94 9.968 20.644 6.363 30.701 11.665-1.694 3.075-3.494 6.15-5.082 9.437-4.34 9.332-9.316 18.557-12.809 28.313-4.235 11.665-11.539 21.208-19.373 30.434-4.129 4.878-7.94 9.862-12.175 14.527-2.329 2.545-5.293 4.454-8.363 6.999-9.739-13.573-19.055-26.51-28.371-39.447-2.223-3.181-4.447-6.363-6.67-9.438-1.588-2.227-1.058-3.499 1.165-5.09 18.208-13.255 36.417-26.616 54.519-40.083 2.647-1.909 4.341-4.666 6.458-7.317zm-32.289 19.298c1.165-13.149.212-25.662 12.069-33.933 2.964-2.015 4.975-3.181 8.575-.848 8.151 5.302 8.892 12.725 1.164 18.451-6.881 5.196-13.762 10.286-21.808 16.33zm77.069-70.306c5.822 5.09 11.221 9.968 17.255 15.376-5.822 8.908-11.433 17.603-17.255 26.404-3.176 4.772-6.352 9.65-9.952 14.21-1.058 1.272-3.387 2.439-4.975 2.227-7.199-1.167-14.503-2.545-21.596-4.56-2.435-.636-4.235-3.393-6.67-5.514 14.927-16.436 28.901-32.131 43.193-48.143zm84.268 68.185v22.163c-22.02 2.651-41.287-4.878-59.495-16.967 1.164-2.332 2.223-4.771 3.493-6.998.424-.955 1.059-1.697 2.117-3.181 4.764 2.651 9.74 4.983 14.186 7.953 3.494 2.332 6.775 3.075 10.375 1.166 8.892-5.196 18.738-4.348 29.324-4.136zm-79.716-21.103c7.199 4.666 13.763 8.908 20.326 13.255.529.319 1.165.955 1.27 1.591.847 4.03-5.822 10.498-9.951 9.968-8.257-1.061-14.927-5.09-21.808-10.18 3.6-5.09 6.882-9.862 10.163-14.634zm-61.718-16.436c14.927-14.103 29.748-28.207 44.992-42.628 2.329 2.015 4.976 4.348 8.152 7.105-13.657 15.27-27.313 30.433-40.97 45.809-4.234-3.499-8.151-6.786-12.174-10.286zm106.182 1.168c5.822-11.665 14.186-22.057 19.69-33.933-.635-.318-1.164-.742-1.799-1.061-2.541 4.03-5.082 8.06-7.834 12.407-1.482-.954-2.647-1.696-3.705-2.439.106-.742.105-1.378.317-1.802 1.8-3.182 3.176-6.787 5.505-9.544 2.223-2.757 5.082-5.408 8.152-6.893 7.939-3.711 10.586-11.24 14.185-18.027a63.554 63.554 0 002.012-4.453c2.541 19.511 5.187 39.447 7.622 59.382.953 7.847-5.081 13.15-8.152 19.512-.211.424-1.587.53-2.434.424-12.386-1.378-23.714-5.408-33.559-13.573zm35.779 22.904c-1.058 1.166-2.117 3.287-3.176 3.287-7.304.212-14.82 2.969-21.596-2.863-4.446-3.818-9.951-6.469-15.138-9.438-3.917-2.227-1.8-4.347-.424-6.892 1.482-2.757 3.07-4.03 6.14-2.015 8.893 6.044 18.527 10.604 29.325 11.982 3.387.425 4.869 1.697 4.869 5.939zm-.95 9.757c-.846.106-1.693.318-2.54.318-9.74-.849-19.056.848-28.266 4.241-2.329.849-5.822.213-8.151-.848-4.447-2.015-8.469-4.878-13.022-7.635 2.541-4.56 4.976-8.907 7.623-13.785 6.034 3.605 12.174 6.574 17.679 10.604 6.457 4.772 13.55 4.878 20.961 4.666 2.011-.106 4.023.424 6.034.742-.106.53-.212 1.06-.318 1.697zm-77.493-20.468c5.293-8.271 10.48-16.118 15.773-24.495 7.199 4.772 14.186 9.438 21.914 14.528-3.282 5.302-6.457 10.498-9.739 15.588-5.929 9.331-6.034 9.331-15.033 2.969a2519.877 2519.877 0 01-12.915-8.59zm50.603-32.023c-3.705 6.575-6.987 12.619-10.692 19.088a7744.192 7744.192 0 01-23.078-14.74c3.387-5.196 6.457-10.18 9.951-14.952.529-.742 3.282-.848 4.446-.212 6.352 3.393 12.492 6.999 19.373 10.816zm27.314-62.139c1.27 7.741-1.27 13.997-4.023 20.678-3.599 8.483-9.528 13.467-17.15 18.027-3.917 2.332-6.246 7.741-8.363 12.194-1.906 4.03-3.917 4.454-7.199 2.333-3.705-2.333-7.41-4.666-11.751-7.317 6.246-7.423 4.658-16.224 4.87-24.813 0-1.273.424-2.969 1.165-3.818 11.327-12.512 24.348-20.89 42.451-17.284zm-4.13-37.858c3.917 11.982 6.881 22.48 5.082 34.251-15.033-1.697-28.584 1.484-39.699 12.619-.318-.425-.635-.955-1.059-1.379 11.539-14.846 23.184-29.585 35.676-45.491zm-49.544 81.335c-3.917-2.333-6.669-4.03-10.269-6.15 4.87-4.454 8.999-8.378 13.233-12.195.741.318 1.377.742 2.118 1.06-1.588 5.514-3.176 11.134-5.082 17.285zm-11.539 19.405a5492.034 5492.034 0 01-16.938-15.27c4.023-3.923 7.516-7.529 10.586-10.498 4.235 2.545 8.046 4.984 11.963 6.893 2.646 1.272 3.705 2.439 2.117 5.196-2.435 4.241-4.764 8.483-7.728 13.679zm-18.527-39.766c3.071 3.288 5.505 5.726 8.152 8.59a1326.265 1326.265 0 00-10.798 11.558c-2.541-2.651-4.764-4.984-7.305-7.529 3.282-4.135 6.352-8.059 9.951-12.619zm29.43-36.266c8.787 5.09 8.999 5.196 14.504-3.605 5.716-9.331 11.115-18.981 16.832-28.949 3.599 1.485 7.94 3.393 13.021 5.62-8.787 11.134-17.573 21.632-25.725 32.555-9.845 13.255-22.866 23.222-34.935 34.145-.952.848-4.023.742-5.081-.212-5.929-5.196-5.717-5.302-.318-11.983 7.305-9.013 14.398-18.239 21.702-27.571zm-14.079 46.446c5.822-5.196 11.539-10.392 17.361-15.588.424.53.953 1.06 1.376 1.485-5.61 5.302-11.327 10.71-16.938 16.012-.635-.636-1.27-1.273-1.799-1.909z" fill="#fff" fill-opacity=".9" stroke="#fff" stroke-opacity=".9" stroke-miterlimit="10"/><path d="M94.135 345.536c-3.282.742-6.564 1.379-9.846 2.121-.106-.53-.106-.954-.211-1.485 6.88-1.696 12.81-5.62 21.066-2.12 15.139 6.468 30.913 11.452 46.263 17.39 14.186 5.514 28.265 11.347 42.134 17.709 2.329 1.06 3.07 5.408 4.869 8.801-6.034 1.803-10.48 3.182-14.503-1.06-.529-.53-3.176-.318-3.494.212-5.399 9.226-15.138 7.317-23.395 9.332-11.434 2.757-22.549 1.696-33.347-2.757-3.282-1.379-5.399-.213-7.199 3.075-5.187 10.074-9.634 11.134-20.008 5.408-3.176-1.803-6.458-3.5-9.74-5.196-.635-.318-1.588.106-3.81.318 2.01 1.803 2.963 2.863 4.128 3.499 4.234 2.545 8.469 4.984 12.703 7.423 6.776 3.818 15.351 1.061 18.527-5.938.741-1.697 1.905-3.393 2.964-5.408 2.858.636 5.822.954 8.575 2.015 10.163 4.029 20.431 1.696 30.594.424.741-.106 1.376-.318 2.012-.424 7.622-.107 15.244-.425 18.526-7.211 5.928.212 10.692.424 15.456.53 3.811.106 5.611-1.591 4.552-5.62-.212-.955 0-2.015 0-3.924 12.068 5.196 23.608 10.18 35.888 15.376-7.517 7.953-13.974 16.012-21.808 22.799-8.152 6.999-9.422 16.436-11.645 25.768-.635 2.651-1.588 5.302-2.435 8.165-11.645-3.075-22.867-5.938-33.982-8.801-.212.636-.53 1.272-.741 1.908.953.637 1.905 1.485 2.964 1.803 9.104 2.545 18.208 5.09 27.419 7.317 2.858.742 4.022 1.59 2.964 4.666-.847 2.332-1.165 4.771-1.482 7.21-.53 4.666-2.435 7.847-7.623 7.847-3.705 0-4.869 2.121-4.975 5.302-.318 7.847-3.176 14.316-9.104 19.724-7.517 6.999-15.986 10.816-26.043 7.741-5.716-1.803-9.739-.955-12.809 4.241-.953 1.485-1.906 2.97-3.07 4.772-9.634-7.847-17.997-14.739-26.36-21.632-7.093-5.832-13.657-12.407-21.173-17.285-4.764-3.075-11.01-4.347-16.727-5.408-4.657-.848-5.08-2.969-4.552-6.892 1.165-7.529 2.118-14.952 2.647-22.587.212-2.651-1.376-5.408-2.117-8.165h-2.223c-4.13 6.256-8.152 12.407-12.28 18.663-8.258-2.757-10.693-1.485-15.14 7.741 2.965 2.333 5.93 4.56 9.317 7.317-6.034 5.514-12.598-.424-18.42 2.121-5.611 2.545-11.963 3.499-18.526 5.408 0-2.757.105-4.56 0-6.469-.106-2.969.846-4.56 4.128-4.772 6.14-.424 10.692-3.499 14.504-8.377 3.705-4.666 7.516-9.437 12.068-13.255 7.94-6.68 5.717-15.058 4.87-23.329-.212-1.696 0-3.499 0-5.302 1.588.318 3.281.424 4.658 1.167 6.457 3.499 12.81 7.21 19.584 11.028 9.21-27.571 18.315-54.717 27.313-81.757-.635-.213-1.27-.637-1.905-1.167zm232.899 141.353c-5.611-1.485-11.115-3.5-16.726-4.242-4.87-.636-6.67-3.605-9.316-7.211-7.199-9.755-6.034-18.769.529-27.994 1.271-1.803 2.117-3.924 3.599-6.575a7233.572 7233.572 0 0125.09 22.163c1.059.954 2.012 2.014 3.176 2.757 2.858 1.696 3.176 3.605 1.376 6.468-2.752 4.666-5.187 9.756-7.728 14.634zm-24.453-47.93c-2.858 5.514-6.034 11.029-8.681 16.649-2.223 4.559-5.717 5.302-9.951 3.923-6.14-1.802-12.28-3.923-18.526-5.832-10.269-3.181-20.22-3.075-30.806-.424-9.316 2.333-19.374 1.909-30.066 2.863 3.176-12.089 3.176-23.965 13.021-32.661 6.882-6.15 12.81-13.467 18.844-20.571 2.859-3.288 4.976-3.394 9.21-1.909 21.914 7.423 37.476 24.177 55.896 36.584.424.212.635.742 1.059 1.378zm-98.772 89.601c-14.186 6.256-27.63 12.088-41.393 18.133-3.917-11.029-14.291-14.952-21.278-22.269-1.588-1.697-3.811-4.348-3.494-6.15.636-3.606 7.093-7.317 10.057-6.151 10.269 4.242 19.903.318 27.948-4.453 6.776-3.924 12.175-11.241 12.281-20.36 0-4.878 1.587-7.953 7.092-8.377 1.694-.106 3.811-2.651 4.553-4.454 1.482-3.712 2.434-7.741 2.858-11.771.317-3.393 2.117-4.029 4.87-4.029 7.41-.106 14.82-.318 22.125-.424 1.588 0 3.494.318 4.658-.424 12.81-7.953 24.878-2.651 37.158 1.378 5.928 1.909 12.174 2.969 18.103 4.56 1.376.318 3.07 1.06 3.705 2.227 2.223 4.029 4.235 8.165 5.823 12.406 1.799 4.772-3.071 10.498-8.046 11.665-5.928 1.378-11.433 4.242-17.256 6.044-2.117.636-4.552.318-6.881.318-3.176.106-6.669-.742-9.422.424-16.938 7.529-33.77 15.588-50.603 23.223-3.705 1.697-5.505 3.818-2.858 8.484zm-137.94-51.748c9.421 1.485 18.314 3.182 25.936 10.499 11.116 10.71 23.502 20.041 35.359 29.903 1.376 1.06 2.858 2.015 5.081 3.605-7.41 7.211-13.656 13.467-20.22 19.512-.953.954-2.858 1.06-4.34 1.166-9.21.849-18.42 1.591-27.737 2.439-1.27.106-2.434.848-3.599 1.379.106.53.106.954.212 1.484 11.327-1.06 22.655-2.121 34.511-3.181.847 9.544 1.8 17.921 2.329 26.298.106 1.485-1.27 3.924-2.434 4.348-8.575 3.181-17.256 5.938-25.937 8.801-13.445-34.463-22.867-69.138-19.161-106.253zm236.817 7.211c5.187 1.273 9.951 2.439 14.715 3.606 7.834 1.909 7.834 1.909 7.622 9.968 0 1.06-.106 2.014-.212 3.075-15.032 1.696-26.995 10.074-39.381 16.966-14.503 8.059-29.536 14.21-45.415 18.77-6.881 1.908-13.763 4.241-20.538 6.574-3.07 1.06-4.764.742-6.14-2.439-2.435-5.408-5.293-10.604-8.151-16.436 9.104-4.136 17.467-7.953 25.83-11.877 9.528-4.347 19.056-8.801 28.583-13.043 1.165-.53 3.07-1.272 3.917-.742 6.67 4.136 12.386-.212 18.421-1.803 4.234-1.06 8.575-2.014 12.597-3.499 2.012-.742 3.811-2.333 5.188-3.924 1.27-1.484 2.011-3.605 2.964-5.196zm-143.551 63.734h-7.939c1.058-6.68-2.859-6.574-7.622-6.362-8.575.318-17.15.106-27.313.106 4.446-4.666 7.94-8.377 11.433-11.983 6.034-6.256 6.14-6.256 12.809-.954 4.764 3.817 9.528 7.741 13.974 11.876 1.8 1.591 2.647 4.136 4.658 7.317zm-41.922 24.494c-.953-9.544-1.8-18.345-2.753-27.358h33.453c-.423 5.62 2.541 6.68 6.987 6.468 5.082-.212 5.082.106 8.469 10.18-15.138 3.499-30.382 6.999-46.156 10.71zm49.226-11.453c-1.164-3.606-2.223-6.893-3.493-10.711 10.374-4.559 20.431-8.907 30.488-13.361 2.753-1.166 5.611-2.12 8.152-3.499 2.752-1.484 4.446-.318 5.505 2.015 1.588 3.075 2.858 6.256 4.552 10.074-14.927 5.09-29.959 10.18-45.204 15.482zm174.358-87.167c3.282 2.969 6.246 5.408 8.893 8.165.635.636.529 2.651 0 3.605-1.376 2.439-2.858 4.878-4.87 6.787-1.058.954-3.387 1.485-4.764 1.06-6.881-2.439-6.987-3.075-4.023-9.649 1.377-3.288 2.965-6.257 4.764-9.968zm37.475 54.083c0-5.409.106-10.923 0-16.331 0-2.757.847-4.241 3.811-4.453 4.658-.213 9.634-3.288 13.339 2.332 2.541 3.924 5.399 7.529 7.94 11.347 4.658 6.998 1.27 11.982-4.023 16.86-4.975 4.56-8.892 10.18-16.938 9.968-3.599-.106-4.235-.954-4.129-4.029.212-5.09.106-10.392 0-15.694zm-4.235 19.723c-1.482-5.408-4.023-10.923-4.129-16.331 0-6.15-2.752-10.816-5.505-15.482-1.905-3.181-2.223-5.62-.317-8.589.318-.424.529-.954.741-1.378 4.87-13.043 12.492-14.316 23.078-2.969-2.858.424-5.081.848-7.304 1.06-3.494.318-5.082 1.803-4.976 5.726.318 10.922.106 21.844.106 32.767v5.09c-.635 0-1.165.106-1.694.106zm-15.032-1.272c-4.658-2.121-8.575-3.817-12.28-5.726-5.293-2.651-6.352-6.15-2.223-10.604 4.128-4.56 9.21-8.377 14.08-12.831 3.281 5.302 6.881 9.332 3.811 15.694-1.8 3.923-2.118 8.483-3.388 13.467zm-23.501-11.137c-1.694-2.969-3.388-4.665-3.706-6.68-1.058-5.514-1.588-11.028-2.223-16.649-.423-3.181 1.165-4.453 4.235-4.347 4.764.212 9.528-.212 14.186.318 2.434.318 4.552 2.333 7.092 3.605-6.246 8.484-16.62 11.771-19.584 23.753zm-4.975-34.141c.106-2.439.212-4.454.423-7.635 5.611 2.227 10.481 4.136 15.35 6.15a7.74 7.74 0 01-.423 1.485h-15.35zm29.852-3.185c-3.917-1.696-7.622-3.287-11.327-4.878 2.964-6.68 4.128-6.892 8.257-1.166 1.165 1.484 2.223 3.075 3.282 4.666.212.106-.106.636-.212 1.378zm8.046-22.372c.212 4.559.529 7.953.529 11.24 0 1.378-.741 3.711-1.376 3.711-1.376.212-3.494-.318-4.34-1.272-2.541-2.757-4.658-6.363-2.012-9.862 1.694-2.545 4.023-5.62 7.199-3.817zm13.021 4.027c-.847 3.287-1.799 6.574-3.07 11.664-2.435-2.333-4.764-3.605-5.611-5.514-.741-1.802-.846-5.302.318-6.044 1.8-1.379 4.87-1.273 7.305-1.803a9.155 9.155 0 001.058 1.697zm-21.808-5.832c-.423-2.121-.847-4.454-1.482-7.529 3.917-.53 7.834-.954 12.069-1.484.423 2.545.847 4.559 1.164 6.574-3.917.743-7.728 1.591-11.751 2.439zm43.193 14.316c-7.834-7.316-8.045-9.119-1.799-14.421 9.845 9.65 9.527 9.119 1.799 14.421zm-17.044 3.609c2.964-4.03 4.87-6.681 7.199-9.862 2.117 2.545 4.023 4.878 6.775 8.165-4.87.636-8.681 1.06-13.974 1.697zm2.117-14.64c.106-3.181.317-6.362.529-10.498 2.541 1.273 4.129 2.227 6.246 3.288-1.906 2.969-3.493 5.302-5.081 7.741-.636-.212-1.165-.318-1.694-.531zm16.621 15.167a491.476 491.476 0 017.305-6.893c.741 1.909 1.693 3.181 1.588 4.454-.424 6.786-.953 13.573-2.012 20.254-.212.954-3.493 1.908-5.399 1.908-.635 0-2.223-3.711-1.694-4.559 3.388-5.09 3.917-9.968.212-15.164zm-4.022 13.361a1312.359 1312.359 0 00-11.328-10.604c2.223-.318 3.811-.742 5.505-.742 2.541.106 6.14-.424 7.199.954 2.541 3.394 1.482 7.211-1.376 10.392z" fill="#02FFCD" stroke="#fff" stroke-opacity=".9" stroke-miterlimit="10"/><path d="M122.718 684.76c-3.917-3.181-7.093-5.832-10.375-8.377-3.176-2.545-3.388-5.62-1.694-8.907 1.271-2.651 2.753-5.302 4.129-7.953 6.14-11.771 5.822-22.905-2.012-34.039-7.622-10.71-14.82-21.739-22.125-32.661-.847-1.272-1.588-2.651-2.964-4.878 15.138-4.559 29.642-8.907 44.992-13.573-1.165 9.226-2.329 17.497-3.494 25.768-.106.53-.847 1.485-1.27 1.485-7.41-.212-10.163 6.574-14.927 10.18-.953.742-1.058 2.545-1.588 3.817.424.318.953.53 1.376.848 3.6-3.287 7.093-6.574 10.799-9.649 3.387-2.863 5.61-2.121 6.881 2.014 4.975 16.119 9.845 32.131 14.821 48.249.635 2.121 1.799 4.029 2.964 6.786-1.694 2.545-4.023 5.621-5.929 8.908-.529.954-.211 2.439-.317 3.711 1.164-.53 2.541-.742 3.282-1.59 1.799-2.121 3.281-4.56 4.869-6.787 2.118-2.969 3.917-5.408-.529-8.695-2.117-1.485-2.223-5.62-3.282-8.696-3.387-10.498-6.246-21.314-10.269-31.494-4.128-10.286-4.658-20.359-1.905-30.751 0-.212.106-.319.106-.531-.53-10.286 4.128-15.694 14.609-16.436 5.081-.424 10.163-2.227 15.774-3.499 5.081 26.722 9.527 53.02 33.347 72.532-4.235 3.393-7.411 6.468-11.116 8.801-4.552 2.863-6.246 7.211-8.046 11.876-.741 1.909-2.54 4.242-4.446 4.878-11.01 4.242-19.902 10.71-24.984 21.845-.529 1.06-2.435 1.908-3.811 2.12-4.023.531-8.045 1.167-12.068 1.061-15.456-.53-28.16 5.832-39.593 15.588-3.494 2.969-7.41 5.832-12.28 4.56-8.046-2.015-11.434 4.029-15.774 8.589-7.093 7.529-13.974 15.376-21.596 22.481-3.07 2.863-7.622 4.135-11.54 5.938-.74.318-2.328-.106-2.752-.743-2.752-3.817-6.14-7.528-7.622-11.77-3.705-10.71.635-19.936 10.269-26.51 3.81-2.651 6.67-6.681 9.528-10.392.529-.636-.212-3.075-1.06-4.03-3.493-3.923-.528-7.317.848-10.604.317-.636 2.223-1.166 3.176-.848.847.318 1.482 1.591 1.8 2.651.74 1.803.634 4.454 1.905 5.514 4.129 3.499 6.775 2.757 9.74-2.015.74-1.272 1.587-2.545 2.858-4.453-2.541-1.485-4.764-2.864-7.093-4.136 2.646-6.787 3.917-7.211 16.726-5.726v18.451h6.67c.317-.424.635-.742.74-1.061 1.165-2.332 2.436-6.892 3.494-6.786 3.917.318 8.681.954 11.54 3.287 8.151 6.681 7.939 7.105 17.361 2.227 3.917-2.227 7.622-4.242 11.857-6.575zm117.614-83.561c-13.762 12.195-27.63 24.496-41.181 36.478-17.467-14.633-24.983-34.039-28.159-55.671-.106-.848-.212-1.697-.424-2.651-3.07-13.255-3.07-13.149 10.057-17.073 10.057-3.075 20.114-6.256 29.96-9.861 3.599-1.273 5.399-.743 6.881 2.757 4.87 11.452 9.739 22.904 15.032 34.039 1.906 4.135 4.976 7.635 7.834 11.982zM78.15 772.138c-9.74-8.801-18.95-17.179-28.795-26.086-.635.318-2.54 1.272-4.34 2.227l-.953-1.273c4.658-4.241 9.422-8.377 13.868-12.831 4.658-4.665 9.316-9.437 13.339-14.739 2.752-3.606 5.293-6.045 9.951-4.878 6.246 1.59 10.375-1.591 14.927-5.514 10.057-8.59 21.278-15.164 35.358-14.74 4.552.106 9.21-.424 13.868.318-5.081 5.09-11.327-.424-17.255 2.227-3.282 20.466 1.27 42.841-10.057 62.776-.53-.106-1.377 0-1.8-.424-4.129-3.181-8.046-2.439-11.857.53-4.34 3.393-7.622 2.969-10.269-2.439-.846-1.696-3.07-3.499-4.87-3.711-6.669-.955-7.092-.318-7.41 6.362-.211 4.666.953 9.862-3.705 12.195zm156.994-186.525c-5.399-11.983-10.692-23.753-16.197-35.842 11.539-3.711 23.396-8.165 35.465-11.346 14.503-3.817 26.783-11.983 39.804-18.769 7.093-3.712 14.292-7.529 21.491-10.922 5.504-2.545 7.198-1.379 7.833 4.453.53 5.408 1.165 10.817 2.118 16.225.741 3.817-.106 6.362-3.176 8.695-6.246 4.56-12.386 9.225-18.42 14.103-3.071 2.439-5.823 5.302-8.364 8.272-2.858 3.393-4.552 3.393-6.351-.637-4.023-9.331-3.917-8.695-13.763-6.786-9.21 1.802-13.021 9.437-19.055 14.633-6.564 5.726-13.127 11.559-19.797 17.179-.529.53-1.588.742-1.588.742zm13.762-8.589c6.67-5.938 13.021-12.301 20.22-17.497 3.6-2.651 8.575-3.393 13.021-4.666.636-.212 2.435 1.061 2.647 1.909 2.011 8.059 8.998 10.71 15.138 14.21 2.435 1.378 4.764 2.863 7.94 4.665-4.87 5.833-9.21 11.559-13.974 16.755-2.329 2.439-10.798.954-13.444-2.121-2.541-2.969-4.87-6.044-6.882-9.226-1.905-2.969-3.917-3.075-6.563-1.06-.529.424-1.165.848-1.694 1.166-8.257 6.045-8.257 6.045-16.409-4.135zm-12.914 13.359c10.163-9.119 12.492-9.331 18.632-1.272a1672.73 1672.73 0 01-10.48 9.119c-2.647-2.651-5.293-5.09-8.152-7.847zm-36.629 56.625c5.505 7.847 4.235 20.041 16.091 23.647-1.164 1.59-1.693 2.969-2.752 3.817-7.834 6.787-12.174 15.164-12.386 25.662-.106 3.711-1.059 7.317-1.059 11.028 0 5.726-2.54 9.438-7.41 12.407-6.034 3.605-11.751 7.741-17.574 11.664-2.646 1.803-4.34 1.591-6.14-1.59-5.399-9.438-11.221-18.663-16.832-27.995-1.588-2.545-2.117-4.878-.212-7.741 2.647-3.923 5.082-8.059 6.987-12.3 4.023-8.802 13.022-10.605 20.009-15.164 2.223-1.485 4.869-3.287 5.61-5.514 3.282-8.165 9.21-13.043 15.668-17.921zm46.368-42.946c7.093 7.529 13.551 14.422 20.009 21.315-6.776 6.892-13.233 13.891-20.115 20.359-7.516 7.105-15.561 13.574-23.078 20.572-2.752 2.545-4.552 2.227-7.622.424-5.187-2.969-6.775-7.847-8.787-12.618-1.482-3.5-4.34-7.529-3.599-10.604.741-3.076 5.081-5.408 7.94-7.953 11.433-10.392 23.184-20.784 35.252-31.495zm22.761 18.452c-7.092-7.105-13.656-13.679-20.114-20.254 3.706-2.969 7.199-5.832 11.328-9.119 5.716 5.408 11.539 10.922 17.15 16.436.635.636.741 2.651.211 3.287-2.646 3.287-5.61 6.469-8.575 9.65zm.529-36.371c5.505 6.044 8.045 15.057 17.891 13.255.211.742.317.954.211 1.06-5.822 8.483-6.034 8.484-13.232 1.379-2.965-2.863-6.141-5.727-9.105-8.59-.635-.53-.847-1.484-1.482-2.651 1.906-1.484 3.6-2.757 5.717-4.453zm25.831-22.271c11.856-9.438 22.866-18.345 33.664-26.934.847.212 1.27.106 1.482.318 7.199 5.408 7.411 5.62.106 10.816-6.881 4.878-11.857 11.452-15.985 18.557-2.753 4.666-5.399 5.832-9.951 2.969-2.753-1.803-5.399-3.393-9.316-5.726zm26.043 15.59c-6.352-3.5-6.563-4.136-2.435-8.908 4.976-5.832 10.057-11.452 15.245-17.178.635-.636 1.482-1.061 3.282-.742a4570.027 4570.027 0 01-16.092 26.828zm-37.794-375.491c1.483.106 2.541-.212 3.07.212 6.564 4.772 13.233 2.121 20.22 1.167 7.623-.955 15.351-.212 23.926-.212-.318 4.029-.636 6.68-.742 9.437-.211 6.893-.211 13.786-.423 20.678-.635 26.722-1.164 53.551-2.223 80.273-.212 4.56-2.435 9.013-4.235 13.361-5.505 13.467-5.081 22.693 6.035 32.555 5.293 4.771 9.845 10.391 15.879 16.86-6.987.848-12.598 1.697-18.208 2.121-.953.106-2.753-1.591-3.07-2.757-1.906-6.575-3.812-13.149-5.188-19.83-.847-3.923-1.376-8.059-1.058-12.089 1.164-18.769-6.352-35.523-12.175-52.596-2.435-7.104-9.951-12.406-14.715-18.875-1.588-2.121-2.858-5.408-2.54-7.847 1.587-11.452-.106-22.056-4.235-32.872-2.223-5.939-1.164-13.15-1.27-19.83 0-2.969.635-6.15.952-9.756zm69.976 68.823c-5.717-3.288-12.28-6.787-18.632-10.816-1.376-.849-2.435-3.182-2.541-4.878-.211-16.755-.106-33.403-.106-50.9 12.386.424 24.349-3.181 32.606 7.953 7.834 10.604 19.268 11.559 31.018 12.089 11.963.636 23.82 1.484 35.676 2.227.847.106 1.588.53 3.176.954a6487.864 6487.864 0 00-10.48 32.767c-11.539-5.62-23.078-3.5-34.618-1.379-9.104 1.697-18.42 2.545-27.524 4.56-2.753.742-4.976 4.242-8.575 7.423zm-52.932-96.182c10.269-.636 19.691-1.272 29.642-1.908v27.676c-3.493 0-7.199-.106-10.798 0-6.563.318-13.445-.106-19.796 1.379-6.352 1.484-10.163-2.545-15.033-4.56-.741-.318-1.059-2.439-1.059-3.711.106-4.348.953-8.802.741-13.149-.317-6.045-1.799-11.983-1.799-18.027 0-4.984.317-10.392 2.223-14.952 3.811-9.332 1.059-18.133-.741-26.934-2.329-11.135-5.505-22.057-8.363-33.191 5.928-4.56 12.809-5.408 20.008-1.697 4.128 2.121 7.834.955 11.645-.742a100.89 100.89 0 017.834-3.181c6.457-2.333 12.174.424 14.08 6.999 1.164 4.135 2.011 8.377 3.07 13.042-5.929.531-11.01 1.591-15.986 1.273-6.034-.424-8.786 2.015-9.422 8.271 2.012.742 4.235 1.591 6.458 2.333.847 7.741-.106 9.12-7.199 12.301-.741.318-1.588 1.06-1.694 1.696-1.27 15.482-2.54 30.858-3.811 47.082zm134.34 125.339c1.165-6.469 2.223-13.043 3.388-19.512.106-.53.318-1.06.318-1.59-1.165-15.482 5.504-28.631 11.962-41.886 3.494-7.105.529-11.877-7.41-12.937-1.165-.212-2.435-.212-3.917-.318-.635-4.348-1.059-8.484-1.906-12.513-.212-1.167-1.8-1.909-2.752-2.863-.212 1.272-.847 2.545-.741 3.711.529 3.818 1.376 7.529 2.329 12.089-9.74-.53-19.056-.955-28.266-1.591-8.892-.742-17.785-1.696-26.677-2.757-1.483-.212-2.965-.848-4.235-1.696-1.8-1.061-3.705-2.227-4.976-3.924-8.68-10.922-20.325-14.209-33.558-13.255-4.447.318-5.294-1.803-5.082-5.62.212-6.681.106-13.255.106-21.314 6.669 2.757 12.174 4.877 17.468 7.104 11.856 4.878 23.395 10.392 35.57 14.528 18.526 6.256 37.475 10.922 57.166 9.65 11.433-.743 22.443 1.484 32.183 6.15 8.786 4.136 15.773 12.089 23.395 18.451.53.424.318 2.757-.317 3.605-7.622 9.756-14.927 19.936-23.396 29.056-5.187 5.62-11.857 9.967-18.314 14.103-6.141 3.923-10.481 9.119-13.974 15.27-1.8 3.181-4.341 6.044-6.564 9.013-.741-.424-1.27-.636-1.8-.954zm-.105-37.856c-5.082-.106-7.305-2.969-6.141-6.468 2.647-8.165 5.505-16.225 8.046-24.39 1.27-4.135 3.811-5.408 7.516-3.605 3.07 1.485 6.035 2.863 3.282 7.847-4.128 7.741-7.093 16.012-10.586 24.071-.529 1.061-1.694 1.909-2.117 2.545zm-102.37.532c4.447 2.545 8.469 4.984 12.598 7.105a1436.04 1436.04 0 0028.371 14.633c2.435 1.167 3.706 2.439 3.917 5.408.318 6.151 1.377 12.195 2.012 18.345.317 2.969 1.376 4.56 4.658 4.242 2.011-.212 4.129 0 6.458 0 .635 4.242 1.482 7.953 1.799 11.77.424 5.196 2.329 8.802 7.517 10.711 2.329.848 4.34 2.863 7.092 4.771-3.917 6.681-7.834 13.362-11.856 19.83-.53.742-2.118 1.166-3.176 1.166-11.751.106-23.608 0-35.359.106-2.752 0-4.446-.848-4.234-3.923.741-9.332-3.176-16.224-10.057-22.375-6.987-6.15-10.693-14.421-10.798-23.753-.212-14.845.105-29.585.211-44.431.106-1.06.53-2.014.847-3.605zm26.043 11.027c.318-4.454 2.753-6.151 6.458-6.681 13.339-2.121 26.572-5.09 40.016-6.256 6.352-.531 13.022 1.908 19.479 3.393 11.222 2.651 11.328 2.757 10.904 13.997-.106 3.394-1.27 6.787-1.8 10.286-.635 4.56-.952 9.226-1.588 13.892-.211 1.696-.529 3.499-1.482 4.771-7.198 9.438-14.609 18.77-22.231 28.631-6.14-2.969-13.55-5.302-13.127-15.057.106-1.591-.635-3.076-.741-4.666-.424-5.09-1.8-8.802-8.152-7.635-.952.212-3.175-2.015-3.387-3.393-1.059-5.196-1.588-10.392-2.117-15.588-.318-3.288-1.377-5.196-4.764-6.681-6.035-2.545-11.751-5.938-17.468-9.013zm-29.431 49.627c6.034 6.893 11.962 13.255 17.467 19.936 1.271 1.59 1.694 4.135 2.012 6.362.529 3.075 1.058 6.257 1.058 9.438-.106 3.817 1.906 4.878 5.188 4.878h16.197c0 5.408.317 10.392-.106 15.27-.53 5.938-8.469 8.483-13.445 4.029-7.199-6.574-13.868-13.891-20.643-20.996-1.694-1.803-3.07-4.029-4.976-5.408-10.586-8.059-9.739-17.921-5.081-28.631.847-1.909 1.799-3.817 2.329-4.878zm36.311 66.171c-.53 15.588-1.271 31.176-1.482 46.764 0 4.029 1.694 8.165 2.752 12.194.529 2.121 1.482 4.242 2.541 6.999-3.811.53-7.093 1.379-10.481 1.379-1.588 0-3.811-1.167-4.552-2.545-7.41-12.725-15.35-25.238-21.702-38.493-2.858-6.044-2.329-13.679-3.387-20.572-.636-4.136-1.377-8.165-2.224-13.149 6.564-.742 13.128-1.485 19.691-2.121 1.059-.106 2.329.53 3.282 1.061 4.446 2.969 8.787 6.044 13.233 9.119.741-.106 1.482-.424 2.329-.636zm8.999-25.557h18.843c-.847 5.62-1.376 11.558-2.646 17.284-2.435 11.771-2.541 23.647-2.435 35.63.106 10.604-2.541 21.208-4.023 31.812-.106.848-.318 1.697-.423 2.545-.953 6.044-.953 6.044-6.987 5.302v-36.266c-6.67 10.498.846 22.269-4.129 32.873-4.129-5.62-5.717-12.831-5.505-20.996.423-12.301.423-24.602.847-36.902.106-2.545.212-5.727 1.694-7.317 4.869-4.984 5.187-10.816 4.869-17.073-.317-2.015-.105-4.135-.105-6.892zm180.71 114.631c-2.541-12.725-5.082-24.919-7.199-37.114-2.117-11.983-1.8-11.665 9.21-16.648 8.575-3.924 17.468-3.5 26.36-3.394 4.34 0 6.034-1.166 5.717-5.726-.318-4.135-.106-8.377-.106-13.679h32.288c-8.786 4.878-6.352 12.619-5.399 19.617.741 5.833-3.917 3.5-6.034 4.984 0 .53-.318 1.167-.106 1.591 5.082 9.119.529 18.875 2.012 28.313.211 1.378-1.588 4.029-2.965 4.453-16.726 5.833-33.558 11.347-50.285 16.861-.847.318-1.8.424-3.493.742zm87.443-31.919c-8.258 4.029-17.044 8.271-25.725 12.512l-1.906-1.272v-28.631c1.165-.212 2.753-.424 5.082-.848-.424-4.984-.847-9.862-1.377-14.634-.423-3.075.318-5.408 3.282-6.999 3.176-1.696 4.658-4.135 4.341-8.165-.424-4.878-.318-9.862 0-14.846.105-1.59 1.693-3.711 3.175-4.453 2.965-1.379 6.352-1.803 9.528-2.969 9.528-3.394 17.679-8.802 25.196-15.482 4.552-4.03 10.163-6.999 15.138-10.392 1.059 1.484 1.482 1.802 1.482 2.015-.529 9.437-.529 9.119 8.893 9.649 5.293.318 10.586 1.909 15.668 3.5 4.658 1.378 2.54 6.044 3.387 9.119.212.848-1.693 3.181-2.435 3.181-2.329-.212-5.187-.53-6.881-2.015-5.505-4.559-8.045-4.453-12.28 1.167-2.964 3.923-5.928 7.847-9.316 10.498-2.435.424-4.87.742-7.304 1.378-1.694.425-3.388 1.061-4.87 2.121-5.611 4.136-10.163 2.439-14.715-2.014-1.376-1.379-4.341-2.227-6.14-1.697-1.165.424-2.118 3.499-2.118 5.408-.211 17.709-.105 35.311-.105 53.869zm-20.221-64.578v14.422c-3.282.318-6.669.848-10.057 1.06-6.14.424-12.28.743-18.314 1.061-2.435.106-5.082.106-4.764-3.182.318-3.075-2.329-7.741 2.964-8.695 9.845-1.697 19.691-3.075 30.171-4.666zm-36.736 6.042v10.286h-39.381c12.174-6.999 24.137-14.103 39.381-10.286zm.319 29.268c-1.482.318-2.012.53-2.435.53-11.963-1.061-23.29.636-33.876 6.998-2.859 1.697-6.67 1.909-10.163 2.333-14.398 1.591-28.901 2.863-43.405 4.242-1.587.106-3.07 0-4.234 0-.529-.53-.741-.53-.741-.742-4.129-16.437-5.187-13.68 9.951-18.345 7.199-2.227 14.609-4.03 21.385-7.211 9.951-4.666 20.325-3.181 30.594-3.605 9.528-.319 19.056.106 28.477 0 3.071 0 4.658.636 4.447 4.029-.106 3.818 0 7.741 0 11.771zm-90.09 30.54c9.422 4.772 16.515-.742 23.713-3.711 1.8-.742 2.541-5.408 2.859-8.377.423-3.712 1.799-5.196 5.61-4.984 4.341.318 8.787.106 13.657.106 2.329 11.028 4.658 21.95 6.987 32.872.847 3.818 1.27 7.635 2.541 11.241 1.376 3.711.211 5.62-3.282 6.786-9.104 3.182-17.997 6.681-27.207 9.544-1.588.53-4.87-.424-5.505-1.697-6.458-12.618-12.598-25.449-18.844-38.174-.317-.743-.211-1.591-.529-3.606zm23.715-15.904c0 8.483-7.199 14.845-15.562 14.527-8.787-.318-11.433-2.969-10.587-11.028a2726.13 2726.13 0 0126.149-3.499zm-70.295 43.476c-1.694-15.482 7.198-24.92 18.208-32.873 1.059-.742 2.753-1.166 3.917-.848 6.458 1.591 12.915 3.393 19.267 5.196.741.212 1.694 1.06 1.694 1.697.953 10.498 8.257 18.026 12.068 27.252 2.012 4.878 4.553 9.438 7.199 13.997 1.588 2.651 1.271 4.242-1.588 5.196-5.081 1.803-10.163 3.818-15.35 5.196-1.588.424-3.493-.954-5.293-1.484-1.059-.318-2.647-1.273-3.282-.849-4.129 2.757-7.199.531-10.48-1.802-8.258-5.726-16.515-11.347-24.667-17.073-1.27-.848-2.011-2.333-3.07-3.605h1.377zm35.254-57.898c2.329 8.801 4.34 16.542 6.563 25.343-3.387-.742-6.034-1.166-8.681-1.802-9.633-2.121-19.267-4.03-28.794-6.469-1.906-.424-3.388-2.545-5.082-3.817 1.376-1.485 2.647-3.075 4.129-4.348 9.316-7.529 20.855-6.362 31.865-8.907zm-21.279 24.813c-4.764 4.135-8.364 7.316-12.175 10.286-.847.636-2.752.742-3.599.212-3.705-2.545-7.199-5.514-11.116-8.59 2.647-3.817 5.082-7.423 7.517-11.028 6.14 2.969 12.174 5.726 19.373 9.12zm21.279 60.865c-21.385 8.589-43.193 12.725-66.377 5.514 1.165-10.074 4.552-20.042-.529-29.797 9.316-9.544 17.573-14.846 29.43-18.557-.529 4.984-.529 9.649-1.694 13.997-1.058 4.03.424 5.62 3.388 7.635 8.892 5.62 17.361 11.77 26.254 17.391 2.858 1.802 6.034 2.438 9.528 3.817zm-69.87-27.568c-1.8-2.227-3.494-4.878-5.823-6.893-4.128-3.605-2.011-6.044 1.271-8.165 7.41-4.559 15.032-8.801 22.654-13.149.741-.424 2.118-.424 2.753.106 3.599 2.545 7.199 5.302 10.163 7.635a15018.89 15018.89 0 00-31.018 20.466zm93.054 359.584c-5.082-13.785-10.057-26.934-14.821-39.977-4.87-13.679-7.199-28.313-14.927-40.932-.741-1.166-1.482-2.333-2.117-3.605-.635-1.167-1.165-2.333-1.8-3.5 1.482-.636 3.07-1.908 4.552-1.908 10.587.318 21.173.53 31.654 1.484 6.987.637 11.221-4.453 16.726-6.68.635-.212.953-2.545.635-3.818-3.493-14.315-7.198-28.631-10.904-43.052 6.458-6.893 14.186-12.089 23.502-14.528 2.117-.53 4.658-.106 6.881.106 1.588.106 3.176 1.167 4.552.955 6.14-.955 9.74 2.333 13.127 6.786 2.753 3.712 5.929 6.999 9.211 10.18 1.376 1.379 3.493 2.651 5.399 2.651 17.785.318 35.57.424 53.355.53.741 0 1.588-.318 2.435-1.696-1.165-.318-2.223-.743-3.388-.743-16.197-.424-32.394-.53-48.591-1.166-2.753-.106-5.823-1.803-8.046-3.605-3.07-2.545-5.505-5.833-8.046-9.014-3.387-4.348-7.198-7.635-13.338-6.362-.636.106-1.588.212-2.118-.106-11.539-6.363-20.008 2.12-29.43 6.044-.741.318-1.376.954-2.117 1.379-4.023-29.48-8.046-58.747-12.068-88.65 9.633 1.908 19.373 3.711 29.112 5.62 12.386 2.439 24.772 4.878 37.158 7.423 2.012.424 4.235.954 5.928 2.12 18.844 12.407 37.688 25.026 56.532 37.539.423.318.635.848-.424 1.272-.212 3.075-1.058 6.257-.635 9.226 1.27 8.377 3.599 16.542 4.658 24.813 2.011 16.012-3.599 29.586-14.609 41.144-18.209 18.981-35.676 38.917-54.838 56.944-18.949 17.921-39.593 34.039-59.601 50.899-.635.424-1.376.849-3.599 2.227zm-21.279-140.294c.635-1.06.847-2.014 1.376-2.438 5.505-4.56 7.093-10.498 6.246-17.391-.106-.848 0-1.909.424-2.545 6.14-9.332 3.387-20.042 4.869-30.116.212-1.378.318-2.863.953-4.029 4.764-9.332 4.764-19.3 3.705-29.373-.211-2.227-.317-4.454.847-6.893 1.165 4.984 2.647 9.968 3.282 15.058 2.858 22.798 5.399 45.703 8.046 68.608.106.848-.212 2.227-.847 2.757-3.811 3.181-7.622 6.256-11.645 9.12-.847.53-2.964.53-3.6-.107-3.281-3.605-6.987-4.241-11.327-2.226-.529.106-1.27-.212-2.329-.425zm-61.508-150.787c2.435 4.772 5.082 9.544 7.305 14.422 6.14 13.361 12.28 26.828 18.103 40.295 1.588 3.605 3.387 4.136 6.987 2.651 3.811-1.591 7.939-2.333 12.28-3.499.635 3.923-.318 9.225 7.093 6.15-2.965 9.968 4.658 14.952 8.151 21.95 1.165 2.439 1.482 5.302 2.541 7.741.847 1.909 1.8 4.348 3.387 5.302 4.129 2.545 5.505 5.727 5.082 10.498-.529 6.999.529 13.998-3.917 20.36-1.165 1.591-.741 4.454-.741 6.681-.212 8.165-5.823 13.149-10.163 18.981-1.059 1.379-1.376 3.181-2.117 4.878 1.588-.212 3.282-.212 4.869-.53 1.694-.424 3.388-.955 4.976-1.697 3.599-1.697 6.775-1.378 9.316 1.697 2.858 3.393 5.399 2.333 8.152 0 .529-.424 1.058-.955 1.587-1.379 5.505-4.029 5.505-3.923 7.093 2.757 2.329 9.756 4.976 19.406 7.199 29.055.635 2.757 1.588 7.317.318 8.165-3.494 2.545-8.046 4.984-12.175 5.09-9.104.319-18.42-2.332-27.312-1.06-11.01 1.485-18.632-3.817-26.784-9.013-10.269-6.681-20.643-13.256-30.806-20.148-7.622-5.196-9.528-14.634-5.611-23.329 2.753-6.044 6.14-12.195 6.881-18.557 2.223-19.936 3.176-39.978 4.87-59.913 1.059-12.619-.847-24.814-3.494-37.114-.846-4.136-.529-8.378-1.058-12.619-.741-5.726-1.8-11.453-2.753-17.179.424-.318.53-.53.741-.636zm8.788 6.998c6.881 3.818 13.763 7.423 20.432 11.559 6.352 3.923 12.492 8.271 18.632 12.512 7.834 5.302 15.562 10.816 23.396 16.012 2.646 1.697 3.705 3.5 3.811 6.787.212 8.059 1.694 16.118 1.376 24.177-.212 5.727-2.435 11.347-3.811 17.603-4.129-2.227-7.093-3.499-7.093-8.377 0-2.863-2.117-5.832-3.705-8.483-4.129-6.787-8.787-13.255-6.034-22.269-2.541.106-4.235.212-5.929.212-.317-.318-.741-.424-.847-.742-2.329-6.893-2.329-6.893-9.104-4.984-3.705 1.06-7.41 2.015-11.433 3.075-7.093-15.588-13.974-30.858-20.855-46.128.423-.318.741-.636 1.164-.954zm-56.637 50.582c10.586 1.484 20.326 3.181 30.171 4.135 1.694.212 3.917-1.908 5.505-3.287 3.811-3.287 7.304-6.893 11.539-10.922.318 2.227.847 4.135.847 6.044-.212 24.071-.741 48.143-4.235 72.108-.741 4.984-3.599 6.044-6.881 7.21-6.987 2.333-14.08 4.03-21.067 6.257-3.811 1.272-5.822.53-6.563-3.712-2.859-16.436-5.717-32.766-8.787-49.096-1.694-8.696-2.858-17.285-1.059-26.086.318-1.061.53-2.227.53-2.651zm3.387-50.688c14.609 2.969 20.22-8.271 28.689-16.542 4.658 9.755 12.492 16.754 11.963 28.206-.318 6.363 1.588 12.831 2.54 19.194.424 3.181.106 5.514-2.646 8.271-12.598 12.407-12.492 12.513-29.96 9.862-1.058-.212-2.117-.318-3.07-.531-9.633-1.908-12.28-6.892-8.68-16.224.317-.848.635-1.59 1.164-2.333 4.976-7.528 4.87-15.375 1.165-23.435-.847-1.484-.636-3.287-1.165-6.468zm29.219 151.849c-6.246-4.984-12.174-9.756-19.055-15.27 8.998-2.863 17.15-5.408 25.619-8.059-2.223 8.059-4.341 15.482-6.564 23.329zm47.85 165.213c-5.822-10.392-11.962-20.253-17.044-30.645-2.011-4.242-2.329-9.65-2.434-14.422-.106-11.452-4.764-20.996-11.116-30.116-1.482-2.12-2.647-4.453-4.235-7.104 3.176-2.439 6.352-4.56 8.999-7.317 1.164-1.06 2.117-3.711 1.588-4.984-4.235-10.18-8.363-20.36-13.551-30.009-4.869-9.014-1.376-17.603-.953-27.359 11.645 7.741 22.338 14.634 32.818 21.95 5.399 3.712 11.222 7.423 15.456 12.301 8.575 9.862 12.069 22.375 15.88 34.569 4.234 13.574 8.998 26.935 13.656 40.296 1.059 2.969 2.435 5.832 4.235 8.377 2.964 4.136 1.482 6.575-2.223 8.801-11.328 6.999-22.549 14.104-33.877 21.209-1.905 1.484-4.234 2.757-7.199 4.453zm-78.021-188.331c.423.53.846.742.846.954.106 8.908 6.987 12.725 12.916 17.073 5.822 4.242 11.645 8.483 17.15 12.937 1.058.848 1.694 2.969 1.694 4.454-.212 4.878-.212 9.967-1.271 14.739-1.588 6.469.106 11.665 3.917 16.755 1.482 1.908 2.541 4.241 3.388 6.574.423 1.273.106 2.863-.212 4.242-.847 2.651-2.011 5.302-2.964 7.847-.212.424 0 1.06 0 1.59-1.588 12.513 1.905 23.541 9.845 33.297 6.564 8.059 7.622 18.133 7.94 27.783.423 9.755 5.505 17.178 9.528 25.237 2.964 5.727 6.034 11.453 9.104 17.391-3.705 3.818-7.94 5.938-13.127 5.726-23.396-.848-46.792-1.802-70.188-2.757-3.705-.106-7.41-.424-11.115-.424-3.917 0-5.823 2.545-4.553 6.15 1.377 3.818 4.764 7.847 4.023 11.029-.635 2.545-6.034 3.817-9.21 5.938-2.541 1.697-4.975 3.711-8.257 4.878 2.964-5.832 5.928-11.665 8.681-17.497.635-1.378 1.588-3.287 1.058-4.348-4.128-7.953-1.588-16.012-.106-23.753 3.282-17.284 7.411-34.251 11.328-51.429 1.27-5.514 2.435-6.151 7.622-3.606a250.51 250.51 0 0119.796 10.392c1.694.955 3.07 3.712 3.176 5.726.318 8.802.106 17.603.106 26.935 7.093.848 13.657 1.908 20.22 2.227 3.917.212 5.082 1.802 5.505 5.302.847 6.786 2.011 13.573 3.07 20.253.106.743.635 1.485 1.588 3.712.529-2.545 1.059-3.606.953-4.56-.953-7.847-1.906-15.694-3.176-23.541-.212-1.378-2.435-3.181-3.917-3.393-5.717-1.061-11.433-1.591-17.256-2.227-2.964-.318-4.34-1.485-4.234-4.666.211-7.211.317-14.527-.106-21.738-.106-2.015-1.482-4.772-3.176-5.832-8.681-5.409-17.679-10.286-27.207-15.694 1.27-4.136 2.117-9.862 4.552-14.846 5.399-11.028 5.187-22.905 5.717-34.569.529-11.453.106-22.905.106-34.251 0-5.09.317-10.286-.212-15.376-.318-5.939 2.858-10.286 6.458-14.634zm41.391 101.271c0-5.832-.105-11.028.106-16.224 0-1.06 1.059-2.227 1.694-3.287.847.742 1.906 1.272 2.435 2.121 1.164 1.696 2.117 3.605 2.964 5.514 2.858 6.468 1.059 9.649-7.199 11.876zm-42.98-206.036v-14.528c2.329 4.454 5.928 8.801 0 14.528z" fill="#fff" fill-opacity=".9" stroke="#fff" stroke-opacity=".9" stroke-miterlimit="10"/><path d="M638.168 371.199c-4.87 1.909-8.892 3.393-13.762 5.302-1.8-5.408-3.705-10.392-5.293-15.588-1.059-3.605-2.753-5.09-6.776-4.772-6.987.743-14.079.955-21.066 1.379-4.658.212-6.564 2.227-6.035 7.317.635 5.726.106 11.558.106 17.072-1.27.318-1.799.636-2.223.636-14.397-1.908-26.36 5.196-38.958 10.392-12.492 5.09-25.513 8.802-38.216 13.149-4.976 1.697-9.952 3.288-15.033 4.878-2.541.849-3.494-.212-5.187-2.439-5.082-6.362-8.258-13.149-11.328-20.678-2.011-4.877-8.575-7.953-13.445-11.452-3.493-2.545-6.563-7.529-12.068-3.393-.318.318-1.376-.106-2.011-.424-12.492-5.833-24.984-11.665-37.37-17.921-.847-.424-1.271-3.924-.53-5.09 6.564-10.18 13.233-20.254 20.326-30.01 7.305-10.18 14.609-20.466 22.973-29.797 4.869-5.514 11.433-9.756 17.785-13.785 6.881-4.348 11.856-10.074 16.409-16.755 4.763-6.892 10.586-13.043 16.091-19.511 1.694-1.909 2.964-2.757 5.505-.424a4728.361 4728.361 0 0048.274 43.9c20.431 18.133 41.286 35.948 61.506 54.187 5.929 5.408 11.539 11.453 15.88 18.133 2.964 4.242 3.07 10.074 4.446 15.694zm-190.131 6.043c-.423 7.953-2.011 16.224-.847 24.071.847 5.302.106 8.908-2.858 12.725-2.012 2.545-3.494 6.999-5.823 7.529-5.505 1.06-11.751 1.484-17.044-.106-6.669-1.909-13.021-3.287-19.902-1.909-2.117.424-4.446.106-6.881.106-2.647-11.77-1.271-23.223.952-34.675.953-4.984 1.377-10.18 2.753-15.058 1.164-4.135 3.388-7.953 5.293-11.876.318-.743 2.223-1.379 2.964-1.061a8454.655 8454.655 0 0141.393 20.254zm6.669-2.121c5.505 4.348 11.222 8.377 16.303 13.149 4.764 4.454 3.6 10.286-2.117 13.043-4.658 2.333-9.422 4.56-14.08 6.787-6.352-8.271-6.563-22.375-.106-32.979zm133.918 7.849c0-7.105-.212-12.937.106-18.664.106-1.272 2.011-3.181 3.281-3.393a211.224 211.224 0 0120.009-1.272c1.588 0 3.917 1.59 4.552 2.969 1.694 3.817 2.858 7.953 3.811 11.982.212 1.061-.847 3.394-1.588 3.5-9.739 1.802-19.585 3.287-30.171 4.878zm-145.668 40.929c2.434-4.242 4.234-11.346 7.41-12.089 8.257-1.908 14.821-7.635 22.761-8.695 2.752-.318 6.246 5.09 9.316 7.847-1.059.954-1.906 2.333-3.07 2.651a164.636 164.636 0 01-14.398 2.863c-5.399.848-10.692 1.591-15.032 5.408-1.483 1.379-3.494 2.121-5.188 3.287-.423-.424-1.058-.848-1.799-1.272zm-13.869 21.104c-5.823 3.287-10.904 6.15-15.985 8.907-2.435 1.273-5.294 2.015-7.623 3.5-7.939 4.772-7.939 4.878-16.514 3.181 0-1.273-.212-2.651 0-3.924 1.588-9.649 3.281-19.299 4.975-28.949.212-1.06.318-2.863.741-2.863 4.976-.636 11.751-3.287 14.715-1.06 7.093 5.408 12.598 13.255 19.691 21.208zm-14.927-20.997c9.21.636 17.679 1.272 26.254 1.909.847 3.287.847 3.287-9.951 16.224-5.293-5.938-10.586-11.877-16.303-18.133z" fill="#fff" fill-opacity=".9" stroke="#fff" stroke-opacity=".9" stroke-miterlimit="10"/><path d="M306.285 433.019c-9.527-6.786-19.479-13.573-29.006-20.996-8.681-6.786-17.785-12.619-28.266-15.694-9.21-2.757-11.645-10.71-16.514-18.769 6.563-.318 11.856-.848 17.255-.742 3.282 0 5.188-.955 6.564-4.03 4.023-8.907 9.845-16.754 10.374-27.252.106-3.712 4.553-8.377 8.152-10.18 2.329-1.167 8.787 1.378 10.057 3.923 10.692 21.314 24.031 41.356 30.806 64.473 1.694 5.62 1.271 11.77 1.8 17.709.106.636 0 1.59-.424 2.015-3.387 3.075-6.881 6.044-10.798 9.543zM61.212 194.003c7.728-.53 8.998-5.726 8.045-10.604-2.011-10.498.106-19.83 6.67-28.737-5.4-3.924-10.269-7.529-15.35-10.922-.953-.637-3.07 0-4.34.53-2.118.848-3.918 2.227-5.93 3.393-3.81 2.121-6.669 1.591-8.362-2.757-1.059-2.757-2.541-5.408-3.812-8.165-1.27-2.757-2.329-4.666-6.351-4.56-2.118.106-4.447-3.923-6.67-6.044 1.588-1.485 3.07-3.818 4.976-4.348 7.304-2.015 14.715-5.62 21.596.636 4.235-7.21 3.917-6.892-2.223-11.24-3.07-2.227-5.187-6.044-7.41-9.225-1.694-2.44-2.647-5.408-4.447-7.741-2.752-3.712-2.435-6.257 1.165-7.953 21.808 27.676 43.51 55.141 65.423 82.923-.529.743-.952 1.909-1.693 2.333-4.764 2.333-4.87 6.469-4.976 11.135-.212 5.726 1.059 9.331 6.246 13.043 3.599 2.651 4.764 8.907 6.352 13.785 2.54 8.059 4.34 16.33 6.775 24.389.635 2.015 2.117 4.03 3.811 5.302 3.705 2.651 7.622 4.984 11.857 6.893 1.588.742 4.128.212 5.822-.53 4.552-1.909 8.681-4.666 13.339-6.363 1.694-.636 5.082-.212 6.14.955 4.235 4.877 7.305 10.816 11.857 15.163 6.775 6.575 9.21 15.164 12.704 23.329 11.645 27.465 23.184 55.035 35.04 82.394 3.917 8.907 8.893 17.391 12.704 27.146-4.34-1.802-8.787-3.499-13.127-5.408-13.233-5.726-26.36-11.452-39.487-17.072-3.917-1.697-6.14-3.606-5.611-8.484 1.376-10.604 2.858-21.314 2.858-32.024 0-8.801-1.693-17.709-3.176-26.51a465.16 465.16 0 00-6.034-29.373c-.635-2.757-2.646-5.62-4.869-7.529-5.611-4.984-11.54-9.332-17.468-13.998-.423.319-.741.531-1.164.849.423.848.635 1.909 1.27 2.545 1.482 1.484 3.07 2.969 4.87 4.029 11.221 6.151 15.667 16.012 16.832 28.313.635 7.423 2.541 14.846 4.552 22.163 2.435 9.225 2.541 18.345 1.059 27.676-.741 4.666-.741 9.438-1.271 14.21-.529 4.453-1.482 9.013-2.223 13.255-11.962-4.242-23.713-8.483-35.57-12.725-6.458-2.227-12.915-4.348-19.373-6.575-.953-.318-2.223-.424-2.858-1.06-6.776-6.044-14.08-4.56-21.702-2.015-4.447 1.485-9.105 2.651-13.657 3.924-5.928 1.696-10.269 4.984-11.433 11.452-.53 3.075-.741 3.075-9.104 4.03-.424 3.499-.953 7.104-1.482 10.816-4.764-.849-7.623-2.651-6.987-7.953.317-2.863 1.694-6.469-2.33-8.271-.317-.106-.529-1.485-.317-1.909 4.235-6.469-.847-10.816-3.388-15.8-1.376-2.757-2.964-5.514-4.658-8.59 2.965-2.014 5.505-4.029 8.47-5.62 3.599-1.908 2.117-4.559.846-6.68-.529-.955-3.175-1.167-4.658-.955-2.646.531-5.293 1.697-9.316 3.076 1.694-7.847 3.706-14.528 4.553-21.315 1.058-8.483 6.563-12.512 13.127-16.86 10.374-6.893 21.066-11.664 34.723-10.816-.635 6.574-.953 13.149-1.8 19.617-1.164 8.908-.635 9.438 8.681 8.802 5.61-.424 9.316-2.227 11.857-7.529 3.917-7.847 8.786-15.164 12.915-22.905.741-1.272.424-3.605-.317-4.984-2.859-5.408-6.987-9.225-13.869-8.059-1.482.212-3.175-.53-4.764-.212-8.892 1.803-13.762-4.242-18.843-9.65-.847-.848-1.059-2.545-1.165-3.817-.106-4.454-.317-8.802.106-13.255.106-1.803 1.165-3.924 2.54-5.196 2.224-2.121 2.753-3.712 1.165-6.681-1.693-3.181-3.705-3.605-6.351-2.439-3.282 1.379-4.764.212-5.823-2.863-1.482-4.666-3.282-8.907-5.187-13.785zm210.033 139.124c-6.987 5.727-7.94 13.043-9.951 20.042-1.8 6.469-5.505 12.407-8.893 18.345-2.117 3.712-20.643 2.333-22.655-1.59-5.293-10.286-10.692-20.572-15.562-31.07-5.61-12.089-10.48-24.496-15.985-36.69-1.588-3.5-.318-5.09 2.329-7.317 8.787-7.423 19.479-9.968 30.171-12.725 1.165-.318 3.282.742 4.129 1.803 4.764 6.044 10.057 11.876 13.762 18.557 2.117 3.817 2.117 9.119 2.117 13.785.106 5.408 1.059 9.332 7.199 10.922 4.235 1.273 8.046 3.606 13.339 5.938zm-153.29-182.281c-11.645.106-11.645.106-13.869 8.166-20.22-25.556-40.016-50.37-59.707-75.29.424-.53.741-1.06 1.165-1.59 9.951 0 19.902-.212 29.853.212 1.377 0 3.176 2.44 4.023 4.136 1.376 2.757 2.223 5.832 3.388 9.225 3.07-2.12 5.716-4.03 8.469-5.938 1.694.954 3.388 2.015 5.081 2.97 3.176 1.696 7.199 5.513 9.528 4.665 5.505-1.909 11.116-5.302 14.821-9.544 2.117-2.439 1.27-7.953.847-11.982-.424-3.394-2.012-6.68-3.705-9.756-.53-1.06-2.964-1.803-4.341-1.697-12.174 1.379-24.348 3.076-36.523 4.666-3.81-9.013-3.81-9.12 2.753-15.588 3.387-3.287 6.88-6.574 10.48-9.65 3.07-2.65 5.188-5.408 4.87-9.861-.106-1.273 2.117-3.394 3.705-4.03 7.728-3.287 15.562-6.468 23.396-9.332 3.388-1.272 5.399-3.18 5.293-6.786-.106-3.075 1.588-4.03 4.341-3.818.317 0 .741.107 1.058 0 7.834-1.484 12.916 1.273 15.774 9.014 1.376 3.817 4.446 6.256 8.787 7.529 9.21 2.65 18.208 6.362 27.418 9.225 5.611 1.803 3.811 6.15 3.494 9.438-.106 1.166-3.6 2.545-5.611 2.651-3.07.106-4.446.954-4.87 4.03-.529 3.817-2.435 6.256-6.669 6.998-3.811.636-7.411 2.015-11.01 3.288-1.27.424-3.07 1.908-3.07 2.863.318 4.241-2.435 4.665-5.505 5.514-6.14 1.59-12.174 3.393-18.208 5.302-1.165.318-2.753 1.696-2.753 2.65 0 4.56-2.117 9.438 3.07 13.256 4.552 3.393 3.176 9.649-1.905 12.407-6.776 3.605-13.445 7.316-13.657 16.33-.106 3.181-.317 6.786 1.059 9.543 3.493 7.105 1.8 13.786-1.27 20.784zM85.772 76.617c7.728-1.06 15.456-2.227 23.29-2.969 2.752-.318 4.87 4.348 3.811 7.635-1.059 3.287-7.093 6.044-10.269 4.454-2.646-1.379-4.975-3.287-7.728-4.348-2.117-.954-4.658-.954-6.987-1.59-.847-.213-1.482-1.06-2.223-1.697 0-.424.106-.954.106-1.485zm18.63 186.42c-4.552 7.847-8.892 15.376-13.338 23.011-.53-.106-1.06-.319-1.588-.425.423-4.877.952-9.755 1.376-14.633.106-1.061.423-2.121.53-3.075 1.164-8.484 4.657-9.968 13.02-4.878zm176.264 7.633c-9.316-9.332-20.22-14.634-25.301-26.086-2.753-6.257-6.352-12.089-9.528-18.133-2.117-4.03-4.446-5.302-7.728-1.167-.635.743-1.694 1.167-3.07 2.227-2.541-3.605-4.764-6.999-7.411-10.286-.635-.848-2.117-1.06-3.281-1.484.106 1.272-.106 2.757.529 3.711 2.011 3.075 4.552 5.832 6.352 9.014 2.223 4.029 4.446 3.605 7.199.742.952-.955 2.117-1.803 3.493-2.863 2.329 4.241 4.87 8.059 6.669 12.194 4.658 11.135 12.492 19.406 21.597 27.147 9.316 7.953 18.208 16.542 26.042 25.874 3.705 4.453 4.658 11.452 6.458 17.39.317.955-1.271 3.076-2.541 3.818-8.575 5.514-16.726 12.088-26.148 15.482-4.658 1.696-11.645-2.651-17.362-4.772-1.27-.53-1.8-3.605-2.223-5.62-.424-2.015-.529-4.242-.424-6.363.424-6.786-2.54-12.088-6.775-17.072-4.023-4.666-7.728-9.544-11.962-14.846 3.281-2.863 6.563-5.62 9.739-8.589.847-.849 1.165-2.227 1.694-3.287-1.27.106-2.753-.107-3.599.53-3.6 2.651-6.987 7.529-10.587 7.741-3.387.212-7.093-4.454-10.692-6.999a6.61 6.61 0 00-2.329-1.06c-2.647-.637-6.775-.319-7.622-1.909-1.906-3.393-2.541-7.635-2.753-11.665-.635-8.059-.635-16.224-1.058-24.283 0-.954-.741-1.909-1.059-2.863-.529.106-.953.106-1.482.212 0 2.333-.212 4.666 0 6.893.953 11.028 2.011 21.95 3.07 32.978.318 3.5 1.906 5.09 5.611 3.818 6.563-2.227 9.316 4.347 15.562 6.892-7.093 2.333-12.916 3.712-18.315 6.363-5.293 2.545-9.845 6.468-15.456 10.18-1.058-2.121-2.011-3.712-2.646-5.408-3.176-7.953-5.611-16.331-9.634-23.965-3.282-6.257-8.257-11.559-12.598-17.179-1.058-1.379-2.329-2.439-3.493-3.817-6.246-7.635-6.14-8.484 3.07-11.241 3.705-1.06 7.622-1.59 11.433-1.802 14.609-.849 25.937-8.484 37.158-16.861 12.598-9.438 25.831-18.027 39.064-26.722 3.282-2.227 7.304-3.287 11.645-5.09-6.458-23.753-12.81-47.188-19.267-70.835 8.681-2.015 16.832-3.818 26.36-6.045 1.482 7.423 2.646 14.952 4.446 22.375 2.223 9.226 1.165 18.027-2.011 26.722-.636 1.591-.953 3.394-.953 5.196-.847 21.314-1.376 42.523-2.541 63.837-.318 6.68.318 12.937 3.599 18.769 5.294 8.801 1.271 17.603 1.059 28.207zm28.264 164.998c2.541-2.757 4.446-6.15 7.411-7.528 3.281-1.697 4.022-3.394 3.917-6.787-.212-8.695.952-17.603-3.6-25.768-.741-1.484.635-4.135 1.059-6.256.635 0 1.27-.106 1.905-.106.741 1.378 1.8 2.757 2.012 4.135.635 4.666 1.27 9.438 1.27 14.21.106 13.255 9.104 22.48 14.503 33.296 2.859 5.833 6.564 11.241 9.528 16.967.741 1.378.741 4.242 0 4.878-1.905 1.378-3.917 4.241-7.199 1.272-7.833-7.316-15.773-14.421-23.713-21.632-2.117-2.227-4.34-4.242-7.093-6.681zm9.424-50.368c-1.588 1.061-3.07 2.015-4.87 3.288-7.41-15.058-14.821-29.692-21.702-44.644-2.858-6.15-6.034-11.452-13.868-13.467 8.681-5.302 17.256-10.604 26.784-16.436 2.752 8.589 6.246 16.542 6.563 25.45.318 8.483.106 16.966 1.27 25.343 1.059 6.787 3.706 13.362 5.823 20.466z" stroke="#fff" stroke-opacity=".9" stroke-miterlimit="10"/><path d="M563.957 512.656c13.974-4.136 26.89-13.467 42.24-4.454-.106 1.273-.318 3.288-.318 5.302-.106 5.196 0 10.498-.212 15.694-.105 2.439-.529 5.09-1.376 7.423-4.023 10.498-11.327 18.557-20.114 25.132-4.87 3.605-10.586 6.256-16.091 8.801-1.165.53-3.494-1.06-5.082-1.909-12.809-6.786-25.407-13.997-38.534-20.253-4.34-2.015-9.845-1.485-14.927-2.227-.741-7.847-.635-8.059-8.998-10.816-3.705-1.273-5.081-3.075-5.187-7.211-.106-4.984-1.165-10.074-2.435-14.952-.847-3.181-.106-4.347 2.858-5.302 17.785-5.938 35.57-11.982 53.249-18.345 3.812-1.378 5.294-.424 6.67 3.075 2.435 6.681 5.399 13.043 8.257 20.042zm9.529 58.957c18.103-6.681 29.324-19.936 35.676-37.327 13.445 4.56 12.386 4.348 12.916 15.058.211 5.196-.106 10.074-3.07 14.634-.741 1.166-.953 4.241-.318 4.559 4.658 2.969 9.634 5.514 14.609 8.165.53-.848.953-1.59 1.482-2.438-2.329-1.379-4.552-2.864-6.881-4.03-8.469-4.242-6.987-3.287-3.811-10.074 1.059-2.227 1.27-4.984 1.27-7.529 0-3.711-.635-7.423-.635-11.028 0-2.863-.847-4.454-3.705-5.514-3.176-1.167-6.14-3.181-9.104-4.772 3.599-8.271 6.457-9.119 14.503-7.741 5.928 1.061 12.174.742 18.209.424 12.491-.636 24.454-2.969 35.993-8.589 13.974-6.787 16.409-5.09 19.691 12.513-2.117-.424-4.341-.318-5.929-1.273-4.022-2.439-6.881-.848-9.739 1.803-2.435 2.227-4.87 4.666-7.728 6.256-4.552 2.545-5.187 5.621-2.541 9.756 3.07 4.878 1.377 9.756.53 14.74-.318 1.696.635 4.347 2.011 5.514 3.705 3.181 7.94 5.726 12.81 9.225 1.482-3.711 2.646-6.68 3.493-8.801 7.093-1.166 14.292-2.121 21.384-3.605 6.882-1.485 14.292-2.545 15.668-11.983 4.658 0 9.316-.106 14.08.106 1.376.106 2.964.954 4.023 1.909 6.246 5.726 12.28 11.558 19.055 17.921-6.14 5.408-10.586 11.346-18.526 11.346-4.023 0-6.246 1.273-6.987 5.196-1.482 8.059-5.611 12.195-14.503 12.301-8.152 0-16.409 1.59-24.455 3.287-3.811.848-7.833 2.969-10.692 5.62-5.081 4.878-9.633 10.286-13.656 16.012-3.07 4.454-5.187 3.075-8.258.53-8.786-7.635-17.255-15.694-26.571-22.374-6.564-4.666-14.186-7.953-21.702-11.028-11.751-4.878-23.82-9.226-35.782-13.574-3.917-1.484-8.046-2.332-11.963-3.499-.635-.742-.741-1.272-.847-1.696zm43.403-104.766c4.975-2.015 9.21-3.605 13.339-5.514 4.128-1.803 8.045-3.923 13.021-6.362v63.836h11.327c0 .742 0 1.591-.106 2.333-9.422-.318-18.949.106-28.265-1.378-5.293-.849-9.422-1.273-13.127 3.075-.953 1.166-2.329 2.014-3.6 3.075-3.705-6.893.106-13.043 1.588-18.981 3.282-13.362 7.834-26.192 5.823-40.084zm-51.344 42.84c-2.647-7.635-5.188-14.74-7.94-22.481 18.209-6.363 36.099-12.725 54.096-18.981 3.494 8.907.847 16.86-.953 24.813-.211 1.061-.529 2.015-.846 3.075-2.329 8.165-2.753 9.226-10.481 6.045-12.492-5.09-21.702 2.651-31.971 6.574-.423.106-.847.424-1.905.955zm1.059 92.891c2.329-6.575-1.059-12.725-4.764-18.769-.529-.849.318-3.076 1.164-3.924 1.165-1.06 3.282-2.333 4.659-1.909 22.125 5.408 43.615 13.043 64.576 22.057 4.129 1.802 7.622 5.514 11.116 8.589 8.257 7.105 16.515 14.209 24.56 21.526.953.848 1.906 2.757 1.588 3.818-2.223 7.847-4.87 15.694-7.304 23.541-.212.848-.636 1.59-1.271 3.075-1.27-.636-2.541-.955-3.493-1.697-8.258-6.15-16.409-12.619-24.878-18.557-15.456-10.71-30.912-21.42-46.792-31.282-5.399-3.287-12.28-4.242-19.161-6.468zm-3.599-27.04c-7.622 4.029-4.975 8.377-2.329 12.831 2.435 4.029 5.082 8.271 1.165 13.679a7047.235 7047.235 0 00-33.241-5.726c-4.341-.742-8.575-1.697-12.916-2.227-15.985-2.015-27.101-12.937-39.593-21.526-7.41-5.196-15.244-9.65-22.866-14.634-5.823-3.817-11.645-7.741-17.15-11.982-1.059-.849-1.376-3.818-.847-5.302.423-1.273 2.858-2.758 4.235-2.651 11.327.848 22.337 1.166 33.241 6.15 12.915 5.938 26.677 10.498 41.604 9.65 5.505-.319 11.539 1.272 16.621 3.711 10.586 5.196 20.537 11.452 32.076 18.027zm-123.332-43.476c1.059-8.907 3.07-11.24 10.481-11.452 11.962-.212 22.76-5.09 33.876-8.696 3.917-1.272 5.823-.318 6.458 3.394.741 5.302 1.588 10.71 1.482 16.012 0 4.029 1.164 5.832 5.081 6.468 2.859.424 5.717 1.591 8.575 2.439v6.893c-6.246-1.485-12.174-2.545-17.997-4.242-5.822-1.802-11.644-3.923-17.149-6.574-8.046-3.924-16.727-3.181-25.196-4.242-1.8-.212-3.705 0-5.611 0zm-21.384-13.787c7.198 1.167 13.55 2.121 20.537 3.288-.423 1.696-.847 3.393-1.376 5.196-1.059 3.711-2.964 4.984-6.987 3.393-4.552-1.803-9.316-2.757-14.398-4.242.847-2.757 1.694-5.514 2.224-7.635z" fill="#fff" fill-opacity=".9" stroke="#fff" stroke-opacity=".9" stroke-miterlimit="10"/></svg>