<svg width="227" height="13" viewBox="0 0 227 13" fill="none" xmlns="http://www.w3.org/2000/svg">
<path d="M0.578613 6.05793C0.578613 2.75753 3.25412 0.0820312 6.55451 0.0820312H220.691C223.991 0.0820312 226.667 2.75753 226.667 6.05793C226.667 9.35833 223.991 12.0338 220.691 12.0338H6.55452C3.25412 12.0338 0.578613 9.35833 0.578613 6.05793Z" fill="url(#paint0_linear)"/>
<path d="M0.578613 6.05793C0.578613 2.75753 3.25412 0.0820312 6.55451 0.0820312H220.691C223.991 0.0820312 226.667 2.75753 226.667 6.05793C226.667 9.35833 223.991 12.0338 220.691 12.0338H6.55452C3.25412 12.0338 0.578613 9.35833 0.578613 6.05793Z" fill="url(#paint1_linear)"/>
<path fill-rule="evenodd" clip-rule="evenodd" d="M220.691 1.07801H6.55451C3.80418 1.07801 1.5746 3.3076 1.5746 6.05793C1.5746 8.80826 3.80419 11.0379 6.55452 11.0379H220.691C223.441 11.0379 225.671 8.80827 225.671 6.05793C225.671 3.3076 223.441 1.07801 220.691 1.07801ZM6.55451 0.0820312C3.25412 0.0820312 0.578613 2.75753 0.578613 6.05793C0.578613 9.35833 3.25412 12.0338 6.55452 12.0338H220.691C223.991 12.0338 226.667 9.35833 226.667 6.05793C226.667 2.75753 223.991 0.0820312 220.691 0.0820312H6.55451Z" fill="white"/>
<defs>
<linearGradient id="paint0_linear" x1="0.578613" y1="0.0820312" x2="138.522" y2="0.0820309" gradientUnits="userSpaceOnUse">
<stop stop-color="#E48035"/>
<stop offset="0.407354" stop-color="#D1AD65"/>
<stop offset="0.686068" stop-color="#EFE457"/>
<stop offset="0.836486" stop-color="#97DB6E" stop-opacity="0"/>
</linearGradient>
<linearGradient id="paint1_linear" x1="0.578613" y1="0.0820312" x2="138.522" y2="0.0820309" gradientUnits="userSpaceOnUse">
<stop stop-color="#CB4735"/>
<stop offset="0.203125" stop-color="#E1873D"/>
<stop offset="0.407354" stop-color="#D1AD65"/>
<stop offset="0.686068" stop-color="#EFE457"/>
<stop offset="0.836486" stop-color="#97DB6E" stop-opacity="0"/>
</linearGradient>
</defs>
</svg>
