<svg width="227" height="13" viewBox="0 0 227 13" fill="none" xmlns="http://www.w3.org/2000/svg">
<path d="M0.578613 6.95637C0.578613 3.65597 3.25412 0.980469 6.55451 0.980469H220.691C223.991 0.980469 226.667 3.65597 226.667 6.95637C226.667 10.2568 223.991 12.9323 220.691 12.9323H6.55452C3.25412 12.9323 0.578613 10.2568 0.578613 6.95637Z" fill="url(#paint0_linear)"/>
<path fill-rule="evenodd" clip-rule="evenodd" d="M220.691 1.97645H6.55451C3.80418 1.97645 1.5746 4.20604 1.5746 6.95637C1.5746 9.7067 3.80419 11.9363 6.55452 11.9363H220.691C223.441 11.9363 225.671 9.7067 225.671 6.95637C225.671 4.20604 223.441 1.97645 220.691 1.97645ZM6.55451 0.980469C3.25412 0.980469 0.578613 3.65597 0.578613 6.95637C0.578613 10.2568 3.25412 12.9323 6.55452 12.9323H220.691C223.991 12.9323 226.667 10.2568 226.667 6.95637C226.667 3.65597 223.991 0.980469 220.691 0.980469H6.55451Z" fill="white"/>
<defs>
<linearGradient id="paint0_linear" x1="0.578613" y1="0.980469" x2="226.667" y2="0.980469" gradientUnits="userSpaceOnUse">
<stop stop-color="#C84034"/>
<stop offset="0.102095" stop-color="#E48035"/>
<stop offset="0.212696" stop-color="#D1AD65"/>
<stop offset="0.327721" stop-color="#EFE457"/>
<stop offset="0.442746" stop-color="#BEDB6E"/>
<stop offset="1" stop-color="#89D456"/>
</linearGradient>
</defs>
</svg>
