<svg width="227" height="13" viewBox="0 0 227 13" fill="none" xmlns="http://www.w3.org/2000/svg">
<path d="M0.57959 6.25325C0.57959 2.95285 3.25509 0.277344 6.55549 0.277344H220.692C223.992 0.277344 226.668 2.95285 226.668 6.25325C226.668 9.55364 223.992 12.2291 220.692 12.2291H6.5555C3.2551 12.2291 0.57959 9.55364 0.57959 6.25325Z" fill="url(#paint0_linear)"/>
<path fill-rule="evenodd" clip-rule="evenodd" d="M220.692 1.27333H6.55549C3.80516 1.27333 1.57557 3.50291 1.57557 6.25325C1.57557 9.00358 3.80516 11.2332 6.5555 11.2332H220.692C223.442 11.2332 225.672 9.00358 225.672 6.25325C225.672 3.50291 223.442 1.27333 220.692 1.27333ZM6.55549 0.277344C3.25509 0.277344 0.57959 2.95285 0.57959 6.25325C0.57959 9.55364 3.2551 12.2291 6.5555 12.2291H220.692C223.992 12.2291 226.668 9.55364 226.668 6.25325C226.668 2.95285 223.992 0.277344 220.692 0.277344H6.55549Z" fill="white"/>
<defs>
<linearGradient id="paint0_linear" x1="0.57959" y1="0.277344" x2="167.407" y2="0.277344" gradientUnits="userSpaceOnUse">
<stop stop-color="#C84034"/>
<stop offset="0.242494" stop-color="#E48035"/>
<stop offset="0.578134" stop-color="#D1AD65"/>
<stop offset="1" stop-color="#EFE457" stop-opacity="0"/>
</linearGradient>
</defs>
</svg>
