<svg width="227" height="13" viewBox="0 0 227 13" fill="none" xmlns="http://www.w3.org/2000/svg">
<path d="M0.578613 6.15559C0.578613 2.85519 3.25412 0.179688 6.55451 0.179688H220.691C223.991 0.179688 226.667 2.85519 226.667 6.15559C226.667 9.45599 223.991 12.1315 220.691 12.1315H6.55452C3.25412 12.1315 0.578613 9.45599 0.578613 6.15559Z" fill="url(#paint0_linear)"/>
<path fill-rule="evenodd" clip-rule="evenodd" d="M220.691 1.17567H6.55451C3.80418 1.17567 1.5746 3.40526 1.5746 6.15559C1.5746 8.90592 3.80419 11.1355 6.55452 11.1355H220.691C223.441 11.1355 225.671 8.90592 225.671 6.15559C225.671 3.40526 223.441 1.17567 220.691 1.17567ZM6.55451 0.179688C3.25412 0.179688 0.578613 2.85519 0.578613 6.15559C0.578613 9.45599 3.25412 12.1315 6.55452 12.1315H220.691C223.991 12.1315 226.667 9.45599 226.667 6.15559C226.667 2.85519 223.991 0.179688 220.691 0.179688H6.55451Z" fill="white"/>
<defs>
<linearGradient id="paint0_linear" x1="0.578613" y1="0.179688" x2="226.667" y2="0.179688" gradientUnits="userSpaceOnUse">
<stop stop-color="#CC4935"/>
<stop offset="0.428149" stop-color="#EFE457"/>
<stop offset="0.75475" stop-color="#BEDB6E"/>
<stop offset="1" stop-color="#89D456"/>
</linearGradient>
</defs>
</svg>
