<svg width="169" height="66" fill="none" xmlns="http://www.w3.org/2000/svg"><path d="M.142 65.457h3.705c2.913 0 4.877-1.835 4.877-4.46 0-2.626-1.964-4.462-4.877-4.462H.142v8.922zm.962-.816v-7.29h2.691c2.419 0 3.98 1.504 3.98 3.645 0 2.142-1.561 3.645-3.98 3.645H1.104zm17.582.816h.962v-8.921h-.962v8.921zm18.526 0h1.015l-4.161-8.921h-.95l-4.16 8.921h1l1.093-2.383h5.071l1.092 2.383zM31.4 62.31l2.184-4.792 2.185 4.792H31.4zm22.418 1.694c-.703.497-1.509.688-2.38.688-2.236 0-3.888-1.58-3.888-3.696 0-2.128 1.652-3.696 3.901-3.696 1.066 0 1.977.306 2.744 1.045l.598-.599c-.806-.854-2.003-1.287-3.38-1.287-2.784 0-4.812 1.924-4.812 4.537s2.028 4.538 4.798 4.538c1.261 0 2.484-.383 3.342-1.135v-3.403h-.923v3.008zm18.106-7.469v7.24l-5.865-7.24h-.793v8.922h.962v-7.24l5.852 7.24h.793v-8.921h-.95zm15.7 8.999c2.731 0 4.773-1.925 4.773-4.538 0-2.613-2.042-4.537-4.773-4.537-2.756 0-4.785 1.937-4.785 4.537 0 2.6 2.029 4.538 4.785 4.538zm0-.842c-2.197 0-3.835-1.567-3.835-3.696 0-2.128 1.638-3.696 3.835-3.696 2.185 0 3.81 1.568 3.81 3.696 0 2.129-1.625 3.696-3.81 3.696zm17.241.842c2.327 0 3.393-1.122 3.393-2.435 0-3.25-5.604-1.771-5.604-4.218 0-.893.741-1.62 2.406-1.62.806 0 1.716.243 2.496.74l.325-.752c-.728-.497-1.794-.79-2.821-.79-2.315 0-3.355 1.134-3.355 2.447 0 3.301 5.604 1.797 5.604 4.244 0 .88-.741 1.58-2.444 1.58-1.197 0-2.354-.458-3.004-1.083l-.377.727c.676.688 2.015 1.16 3.381 1.16zm14.933-.077h.962v-8.106h3.199v-.816H116.6v.816h3.198v8.106zm13.5 0h.962v-8.921h-.962v8.921zm15.679.077c1.339 0 2.535-.446 3.342-1.313l-.612-.6c-.741.753-1.651 1.071-2.691 1.071-2.198 0-3.849-1.58-3.849-3.696 0-2.115 1.651-3.696 3.849-3.696 1.04 0 1.95.319 2.691 1.058l.612-.599c-.807-.867-2.003-1.3-3.329-1.3-2.744 0-4.772 1.924-4.772 4.537s2.028 4.538 4.759 4.538zm15.653 0c2.328 0 3.394-1.122 3.394-2.435 0-3.25-5.604-1.771-5.604-4.218 0-.893.741-1.62 2.405-1.62.807 0 1.717.243 2.497.74l.325-.752c-.728-.497-1.794-.79-2.822-.79-2.314 0-3.354 1.134-3.354 2.447 0 3.301 5.604 1.797 5.604 4.244 0 .88-.741 1.58-2.445 1.58-1.196 0-2.353-.458-3.003-1.083l-.377.727c.676.688 2.015 1.16 3.38 1.16z" fill="#fff"/><path fill-rule="evenodd" clip-rule="evenodd" d="M94.883 12.379l.265-.014v-.263l-.265-.01v.287zM23.736 23.787c3.444-1.4 5.759-4.255 5.759-8.564 0-6.14-4.844-9.695-13.24-9.695H0V43.23h17.33c9.42 0 14.156-3.662 14.156-10.072 0-5.116-2.906-8.294-7.75-9.371zm-7.75-14.973c6.027 0 9.526 2.316 9.526 6.84s-3.499 6.84-9.527 6.84H3.983V8.814h12.002zm1.29 31.13H3.984V25.78h13.294c6.62 0 10.226 2.154 10.226 7.055 0 4.955-3.606 7.11-10.226 7.11zM71.58 43.23H46.497V5.528h3.983v34.255h21.1v3.447zm39.859 0h3.983V8.975h13.241V5.528H98.198v3.447h13.24V43.23zM167.48 8.275l-24.92 31.508h25.566v3.447h-30.894v-2.747l24.974-31.508h-24.597V5.528h29.871v2.747z" fill="#fff"/><path fill-rule="evenodd" clip-rule="evenodd" d="M88.373 1.038a1.038 1.038 0 11-2.075 0 1.038 1.038 0 012.075 0zm-2.248 5.718a1.764 1.764 0 11-3.529 0 1.764 1.764 0 013.529 0zm-6.249 41.982a1.038 1.038 0 100-2.075 1.038 1.038 0 000 2.075zm4.584-6.748a1.765 1.765 0 11-3.53 0 1.765 1.765 0 013.53 0zm-5.165-30.151h8.539v-.932H81.58l-1.154-.666c-.296-.18-1.013-.495-1.392-.495-1.038 0-1.88.782-1.88 1.746 0 .965.842 1.746 1.879 1.746.38 0 1.097-.316 1.393-.495l.54-.312-1.672-.592zm9.646 5.402h-9.03l-1.56-.9c-.352-.215-1.205-.59-1.656-.59-1.235 0-2.236.932-2.236 2.08 0 1.15 1 2.08 2.235 2.08.452 0 1.305-.377 1.657-.59l1.148-.663-2.125-.557h11.538v.31h.012l.454.262c.199.121.682.333.938.333.7 0 1.266-.526 1.266-1.175 0-.65-.567-1.175-1.266-1.175-.256 0-.74.213-.938.334l-.437.251zm4.578 9.73a2.624 2.624 0 10-2.489-3.457l1.96.338h-17.5v-.091h-.008a1.765 1.765 0 10-.03 1.25l-.976-.179H90.96v.099a2.625 2.625 0 002.56 2.04zm-8.852 9.11l1.3.461H78.07v.75h6.525l1.156.666c.295.18 1.012.495 1.392.495 1.038 0 1.88-.782 1.88-1.746 0-.965-.842-1.746-1.88-1.746-.38 0-1.097.316-1.392.496l-1.083.624zm2.65-4.67H77.156v-.033l-.494.284c-.199.121-.682.334-.938.334-.7 0-1.266-.525-1.266-1.175 0-.648.567-1.175 1.266-1.175.256 0 .74.212.938.333l.476.274v.17h12.57l-1.92-.461 1.09-.63c.351-.214 1.204-.59 1.657-.59 1.234 0 2.235.93 2.235 2.08 0 1.148-1.001 2.08-2.236 2.08-.452 0-1.305-.376-1.656-.59l-1.56-.9z" fill="url(#a)"/><linearGradient id="a" x1="84.098" y1="0" x2="84.094" y2="59.513" gradientUnits="userSpaceOnUse"><stop stop-color="#1E64D7"/><stop offset="1" stop-color="#3BBA69"/></linearGradient></svg>