<svg width="18" height="35" fill="none" xmlns="http://www.w3.org/2000/svg"><path fill-rule="evenodd" clip-rule="evenodd" d="M11.755 1.222a.724.724 0 11-1.447 0 .724.724 0 011.447 0zM10.188 5.21a1.23 1.23 0 11-2.461 0 1.23 1.23 0 012.46 0zM5.83 34.487a.724.724 0 100-1.447.724.724 0 000 1.447zm3.196-4.705a1.23 1.23 0 11-2.46 0 1.23 1.23 0 012.46 0zM5.425 8.755h5.954v-.65H7.02l-.805-.465c-.206-.125-.706-.345-.97-.345-.724 0-1.311.546-1.311 1.218 0 .673.587 1.218 1.31 1.218.265 0 .765-.22.971-.346l.377-.217-1.166-.413zm6.727 3.767H5.854l-1.088-.628c-.245-.15-.84-.41-1.155-.41-.861 0-1.56.649-1.56 1.45 0 .801.699 1.45 1.56 1.45.315 0 .91-.263 1.155-.412l.8-.462-1.48-.388h8.045v.216h.008l.317.183c.139.084.476.232.654.232.488 0 .883-.367.883-.82 0-.452-.395-.818-.883-.818-.178 0-.515.148-.654.232l-.304.175zm3.193 6.784a1.83 1.83 0 10-1.736-2.41l1.366.237H2.772v-.064h-.005a1.231 1.231 0 10-.021.87l-.682-.124H13.56v.07a1.83 1.83 0 001.785 1.421zM9.17 25.66l.907.321H4.57v.524h4.55l.805.464c.206.126.706.345.97.345.724 0 1.311-.545 1.311-1.218 0-.673-.587-1.217-1.31-1.217-.265 0-.765.22-.971.345l-.755.436zm1.848-3.256H3.932v-.023l-.344.198c-.14.085-.476.233-.655.233-.487 0-.883-.367-.883-.82 0-.452.396-.819.884-.819.178 0 .515.148.654.233l.331.19v.12h8.767l-1.34-.323.76-.439c.246-.149.84-.412 1.156-.412.86 0 1.56.65 1.56 1.451 0 .8-.7 1.45-1.56 1.45-.315 0-.91-.261-1.155-.41l-1.088-.629z" fill="url(#a)"/><linearGradient id="a" x1="8.775" y1=".498" x2="8.772" y2="42.001" gradientUnits="userSpaceOnUse"><stop stop-color="#1E64D7"/><stop offset="1" stop-color="#3BBA69"/></linearGradient></svg>