<svg width="230" height="90" fill="none" xmlns="http://www.w3.org/2000/svg"><path d="M0 89.567h5.076c3.99 0 6.68-2.548 6.68-6.192s-2.69-6.191-6.68-6.191H0v12.383zm1.318-1.132v-10.12h3.687c3.313 0 5.45 2.088 5.45 5.06 0 2.972-2.137 5.06-5.45 5.06H1.318zm24.084 1.132h1.319V77.184h-1.319v12.383zm25.378 0h1.389l-5.7-12.383h-1.3l-5.7 12.383h1.372l1.496-3.308h6.946l1.497 3.308zm-7.962-4.37l2.992-6.651 2.993 6.651h-5.985zm30.708 2.353c-.962.69-2.066.955-3.26.955-3.063 0-5.326-2.193-5.326-5.13 0-2.954 2.263-5.13 5.344-5.13 1.46 0 2.707.425 3.758 1.45l.82-.83c-1.105-1.186-2.743-1.787-4.631-1.787-3.812 0-6.59 2.67-6.59 6.297s2.778 6.298 6.572 6.298c1.728 0 3.402-.53 4.577-1.575v-4.723h-1.264v4.175zm24.801-10.366v10.048l-8.033-10.048h-1.086v12.383h1.318V79.519l8.015 10.048h1.087V77.184h-1.3zm21.507 12.489c3.741 0 6.537-2.671 6.537-6.298 0-3.626-2.796-6.297-6.537-6.297-3.776 0-6.554 2.688-6.554 6.297 0 3.609 2.778 6.298 6.554 6.298zm0-1.168c-3.01 0-5.254-2.176-5.254-5.13 0-2.954 2.244-5.13 5.254-5.13 2.993 0 5.219 2.176 5.219 5.13 0 2.954-2.226 5.13-5.219 5.13zm23.616 1.168c3.189 0 4.649-1.557 4.649-3.379 0-4.51-7.677-2.459-7.677-5.855 0-1.239 1.016-2.247 3.295-2.247 1.105 0 2.352.336 3.42 1.026l.446-1.044c-.998-.69-2.458-1.096-3.866-1.096-3.17 0-4.595 1.574-4.595 3.396 0 4.582 7.677 2.494 7.677 5.89 0 1.221-1.015 2.194-3.349 2.194-1.638 0-3.224-.637-4.114-1.503l-.517 1.008c.926.955 2.761 1.61 4.631 1.61zm20.456-.106h1.318V78.316h4.382v-1.132h-10.081v1.132h4.381v11.25zm18.493 0h1.318V77.184h-1.318v12.383zm21.476.106c1.835 0 3.474-.62 4.578-1.822l-.837-.832c-1.016 1.044-2.262 1.486-3.687 1.486-3.01 0-5.273-2.193-5.273-5.13 0-2.936 2.263-5.13 5.273-5.13 1.425 0 2.671.442 3.687 1.468l.837-.831c-1.104-1.203-2.743-1.804-4.56-1.804-3.758 0-6.537 2.67-6.537 6.297s2.779 6.298 6.519 6.298zm21.443 0c3.188 0 4.649-1.557 4.649-3.379 0-4.51-7.677-2.459-7.677-5.855 0-1.239 1.015-2.247 3.295-2.247 1.104 0 2.351.336 3.42 1.026l.445-1.044c-.997-.69-2.458-1.096-3.865-1.096-3.171 0-4.596 1.574-4.596 3.396 0 4.582 7.677 2.494 7.677 5.89 0 1.221-1.015 2.194-3.348 2.194-1.639 0-3.224-.637-4.115-1.503l-.516 1.008c.926.955 2.76 1.61 4.631 1.61zm-95.515-72.737l.362-.019v-.36a20.971 20.971 0 01-.362-.014v.393z" fill="#000"/><path fill-rule="evenodd" clip-rule="evenodd" d="M32.471 32.543c4.712-1.916 7.878-5.821 7.878-11.716 0-8.4-6.626-13.263-18.113-13.263H0v51.578h23.709c12.885 0 19.365-5.01 19.365-13.779 0-7-3.976-11.347-10.603-12.82zM21.868 12.059c8.247 0 13.033 3.168 13.033 9.358 0 6.189-4.786 9.357-13.033 9.357H5.448V12.06h16.42zm1.767 42.588H5.45V35.27h18.186c9.057 0 13.99 2.947 13.99 9.652 0 6.779-4.933 9.726-13.99 9.726z" fill="#000"/><path d="M97.921 59.142H63.61V7.564h5.448v46.862h28.863v4.716zm54.53 0h5.449V12.28h18.113V7.564h-41.675v4.716h18.113v46.862zm76.665-47.82l-34.09 43.104H230v4.716h-42.264v-3.758l34.165-43.104h-33.649V7.564h40.864v3.758z" fill="#000"/><path d="M120.899 1.42a1.42 1.42 0 11-2.84-.001 1.42 1.42 0 012.84 0z" fill="url(#paint0_linear_0:32)"/><path d="M117.822 9.243a2.414 2.414 0 11-4.828 0 2.414 2.414 0 014.828 0z" fill="url(#paint1_linear_0:32)"/><path d="M109.274 66.675a1.419 1.419 0 100-2.838 1.419 1.419 0 000 2.838z" fill="url(#paint2_linear_0:32)"/><path d="M115.545 57.445a2.414 2.414 0 11-4.828 0 2.414 2.414 0 014.828 0z" fill="url(#paint3_linear_0:32)"/><path d="M108.479 16.197h11.679v-1.274h-8.553l-1.58-.912c-.404-.246-1.385-.677-1.904-.677-1.42 0-2.571 1.07-2.571 2.39s1.151 2.388 2.57 2.388c.52 0 1.501-.432 1.905-.678l.74-.427-2.286-.81z" fill="url(#paint4_linear_0:32)"/><path d="M121.676 23.586h-12.355l-2.134-1.233c-.481-.293-1.649-.806-2.266-.806-1.69 0-3.059 1.274-3.059 2.845 0 1.573 1.369 2.846 3.057 2.846.619 0 1.787-.515 2.268-.808l1.571-.907-2.908-.763h15.784v.427h.017l.621.358c.273.166.934.456 1.284.456.957 0 1.732-.72 1.732-1.607 0-.889-.775-1.607-1.731-1.607-.351 0-1.012.29-1.285.456l-.596.343z" fill="url(#paint5_linear_0:32)"/><path d="M127.937 36.894a3.59 3.59 0 10-3.405-4.729l2.682.464h-23.938v-.125h-.011a2.414 2.414 0 10-.041 1.71l-1.337-.246h22.55v.137a3.591 3.591 0 003.5 2.789z" fill="url(#paint6_linear_0:32)"/><path d="M115.827 49.361l1.779.63h-10.805v1.026h8.928l1.581.912c.404.246 1.385.677 1.904.677 1.42 0 2.571-1.07 2.571-2.389 0-1.32-1.151-2.389-2.57-2.389-.52 0-1.501.433-1.905.679l-1.483.855z" fill="url(#paint7_linear_0:32)"/><path d="M119.453 42.974H105.55v-.042l-.674.387c-.272.166-.933.457-1.284.457-.956 0-1.732-.719-1.732-1.607s.776-1.607 1.733-1.607c.35 0 1.011.29 1.283.455l.649.374v.233h17.197l-2.628-.632 1.493-.861c.481-.293 1.648-.808 2.267-.808 1.688 0 3.058 1.273 3.058 2.845 0 1.571-1.37 2.845-3.059 2.845-.618 0-1.785-.513-2.266-.806l-2.134-1.233z" fill="url(#paint8_linear_0:32)"/><defs><linearGradient id="paint0_linear_0:32" x1="115.05" y1="0" x2="115.044" y2="81.415" gradientUnits="userSpaceOnUse"><stop stop-color="#1E64D7"/><stop offset="1" stop-color="#3BBA69"/></linearGradient><linearGradient id="paint1_linear_0:32" x1="115.05" y1="0" x2="115.044" y2="81.415" gradientUnits="userSpaceOnUse"><stop stop-color="#1E64D7"/><stop offset="1" stop-color="#3BBA69"/></linearGradient><linearGradient id="paint2_linear_0:32" x1="115.05" y1="0" x2="115.044" y2="81.415" gradientUnits="userSpaceOnUse"><stop stop-color="#1E64D7"/><stop offset="1" stop-color="#3BBA69"/></linearGradient><linearGradient id="paint3_linear_0:32" x1="115.05" y1="0" x2="115.044" y2="81.415" gradientUnits="userSpaceOnUse"><stop stop-color="#1E64D7"/><stop offset="1" stop-color="#3BBA69"/></linearGradient><linearGradient id="paint4_linear_0:32" x1="115.05" y1="0" x2="115.044" y2="81.415" gradientUnits="userSpaceOnUse"><stop stop-color="#1E64D7"/><stop offset="1" stop-color="#3BBA69"/></linearGradient><linearGradient id="paint5_linear_0:32" x1="115.05" y1="0" x2="115.044" y2="81.415" gradientUnits="userSpaceOnUse"><stop stop-color="#1E64D7"/><stop offset="1" stop-color="#3BBA69"/></linearGradient><linearGradient id="paint6_linear_0:32" x1="115.05" y1="0" x2="115.044" y2="81.415" gradientUnits="userSpaceOnUse"><stop stop-color="#1E64D7"/><stop offset="1" stop-color="#3BBA69"/></linearGradient><linearGradient id="paint7_linear_0:32" x1="115.05" y1="0" x2="115.044" y2="81.415" gradientUnits="userSpaceOnUse"><stop stop-color="#1E64D7"/><stop offset="1" stop-color="#3BBA69"/></linearGradient><linearGradient id="paint8_linear_0:32" x1="115.05" y1="0" x2="115.044" y2="81.415" gradientUnits="userSpaceOnUse"><stop stop-color="#1E64D7"/><stop offset="1" stop-color="#3BBA69"/></linearGradient></defs></svg>