<svg width="169" height="67" fill="none" xmlns="http://www.w3.org/2000/svg"><path d="M.142 66.685h3.706c2.912 0 4.876-1.836 4.876-4.461 0-2.626-1.964-4.461-4.876-4.461H.142v8.922zm.962-.816v-7.29h2.692c2.418 0 3.979 1.504 3.979 3.645s-1.56 3.645-3.98 3.645h-2.69zm17.582.816h.963v-8.922h-.963v8.922zm18.527 0h1.014l-4.161-8.922h-.95l-4.16 8.922h1L31.05 64.3h5.071l1.093 2.384zM31.4 63.537l2.185-4.793 2.184 4.793H31.4zm22.418 1.695c-.702.497-1.508.688-2.38.688-2.236 0-3.888-1.58-3.888-3.696 0-2.129 1.652-3.696 3.901-3.696 1.067 0 1.977.306 2.744 1.045l.598-.6c-.806-.853-2.002-1.286-3.38-1.286-2.783 0-4.812 1.924-4.812 4.537S48.63 66.76 51.4 66.76c1.262 0 2.484-.382 3.342-1.134v-3.403h-.923v3.008zm18.106-7.469v7.24l-5.865-7.24h-.793v8.922h.962v-7.24l5.852 7.24h.793v-8.922h-.95zm15.701 8.998c2.73 0 4.772-1.924 4.772-4.537s-2.042-4.537-4.772-4.537c-2.757 0-4.785 1.937-4.785 4.537 0 2.6 2.028 4.537 4.785 4.537zm0-.84c-2.198 0-3.836-1.569-3.836-3.697 0-2.129 1.638-3.696 3.836-3.696 2.184 0 3.81 1.567 3.81 3.696 0 2.128-1.626 3.696-3.81 3.696zm17.24.84c2.327 0 3.394-1.121 3.394-2.434 0-3.25-5.605-1.772-5.605-4.219 0-.892.742-1.618 2.406-1.618.806 0 1.716.242 2.497.739l.325-.752c-.729-.497-1.795-.79-2.822-.79-2.315 0-3.355 1.134-3.355 2.447 0 3.3 5.604 1.797 5.604 4.244 0 .88-.741 1.58-2.444 1.58-1.196 0-2.354-.459-3.004-1.083l-.377.726c.676.689 2.016 1.16 3.381 1.16zm14.934-.076h.962v-8.106h3.198v-.816H116.6v.816h3.199v8.106zm13.499 0h.963v-8.922h-.963v8.922zm15.679.076c1.339 0 2.536-.446 3.342-1.313l-.611-.599c-.742.752-1.652 1.071-2.692 1.071-2.198 0-3.849-1.58-3.849-3.696s1.651-3.696 3.849-3.696c1.04 0 1.95.318 2.692 1.058l.611-.6c-.806-.866-2.003-1.3-3.329-1.3-2.744 0-4.772 1.925-4.772 4.538 0 2.613 2.028 4.537 4.759 4.537zm15.654 0c2.327 0 3.393-1.121 3.393-2.434 0-3.25-5.604-1.772-5.604-4.219 0-.892.741-1.618 2.406-1.618.806 0 1.716.242 2.496.739l.325-.752c-.728-.497-1.794-.79-2.821-.79-2.315 0-3.355 1.134-3.355 2.447 0 3.3 5.604 1.797 5.604 4.244 0 .88-.741 1.58-2.444 1.58-1.197 0-2.354-.459-3.004-1.083l-.377.726c.676.689 2.015 1.16 3.381 1.16z" fill="#222"/><path d="M23.736 23.259c3.444-1.4 5.759-4.256 5.759-8.564C29.495 8.555 24.65 5 16.255 5H0v37.702h17.33c9.42 0 14.156-3.663 14.156-10.072 0-5.117-2.906-8.294-7.75-9.372zm-7.75-14.974c6.027 0 9.526 2.316 9.526 6.84 0 4.525-3.499 6.84-9.527 6.84H3.983V8.286h12.002zm1.29 31.131H3.984V25.251h13.294c6.62 0 10.226 2.155 10.226 7.056 0 4.955-3.606 7.11-10.226 7.11zm29.221 3.286H71.58v-3.447h-21.1V5h-3.983v37.702zm64.941 0h3.983V8.447h13.241V5H98.198v3.447h13.24v34.255zm31.121-3.447l24.92-31.508V5h-29.871v3.447h24.597l-24.974 31.508v2.747h30.894v-3.447h-25.566z" fill="#000"/><path d="M88.258 1.034a1.034 1.034 0 11-2.068 0 1.034 1.034 0 012.068 0z" fill="url(#a)"/><path d="M86.019 6.731a1.758 1.758 0 11-3.516 0 1.758 1.758 0 013.516 0z" fill="url(#b)"/><path d="M79.793 48.556a1.034 1.034 0 100-2.067 1.034 1.034 0 000 2.067z" fill="url(#c)"/><path d="M84.36 41.835a1.758 1.758 0 11-3.516 0 1.758 1.758 0 013.516 0z" fill="url(#d)"/><path d="M79.215 11.795h8.506v-.93h-6.23l-1.15-.663c-.294-.179-1.008-.493-1.386-.493-1.034 0-1.872.78-1.872 1.74 0 .962.838 1.74 1.871 1.74.379 0 1.093-.315 1.388-.494l.537-.31-1.664-.59z" fill="url(#e)"/><path d="M88.825 17.178h-8.999l-1.553-.897c-.35-.213-1.2-.587-1.65-.587-1.23 0-2.228.928-2.228 2.072 0 1.145.997 2.072 2.227 2.072.45 0 1.3-.375 1.65-.588l1.144-.66-2.116-.555h11.495v.309h.01l.454.261c.198.121.68.332.934.332.697 0 1.262-.524 1.262-1.17 0-.647-.565-1.17-1.261-1.17-.255 0-.737.211-.935.332l-.434.25z" fill="url(#f)"/><path d="M93.386 26.87a2.614 2.614 0 10-2.48-3.444l1.951.337H75.424v-.09h-.008a1.759 1.759 0 10-.029 1.244l-.974-.178h16.423v.1h.001a2.615 2.615 0 002.55 2.03z" fill="url(#g)"/><path d="M84.567 35.947l1.295.458h-7.87v.748h6.501l1.152.664c.294.18 1.009.493 1.387.493 1.034 0 1.872-.779 1.872-1.74s-.838-1.74-1.871-1.74c-.38 0-1.094.316-1.388.495l-1.078.621z" fill="url(#h)"/><path d="M87.206 31.294H77.082v-.032l-.492.283c-.199.12-.68.333-.936.333-.696 0-1.26-.524-1.26-1.17 0-.647.564-1.171 1.261-1.171.255 0 .736.21.935.332l.474.273v.17h12.523l-1.914-.461 1.087-.628c.35-.213 1.2-.588 1.651-.588 1.23 0 2.227.927 2.227 2.072 0 1.144-.998 2.072-2.228 2.072-.45 0-1.3-.374-1.65-.587l-1.554-.898z" fill="url(#i)"/><linearGradient id="a" x1="84" y1="0" x2="83.996" y2="59.291" gradientUnits="userSpaceOnUse"><stop stop-color="#1E64D7"/><stop offset="1" stop-color="#3BBA69"/></linearGradient><linearGradient id="b" x1="84" y1="0" x2="83.996" y2="59.291" gradientUnits="userSpaceOnUse"><stop stop-color="#1E64D7"/><stop offset="1" stop-color="#3BBA69"/></linearGradient><linearGradient id="c" x1="84" y1="0" x2="83.996" y2="59.291" gradientUnits="userSpaceOnUse"><stop stop-color="#1E64D7"/><stop offset="1" stop-color="#3BBA69"/></linearGradient><linearGradient id="d" x1="84" y1="0" x2="83.996" y2="59.291" gradientUnits="userSpaceOnUse"><stop stop-color="#1E64D7"/><stop offset="1" stop-color="#3BBA69"/></linearGradient><linearGradient id="e" x1="84" y1="0" x2="83.996" y2="59.291" gradientUnits="userSpaceOnUse"><stop stop-color="#1E64D7"/><stop offset="1" stop-color="#3BBA69"/></linearGradient><linearGradient id="f" x1="84" y1="0" x2="83.996" y2="59.291" gradientUnits="userSpaceOnUse"><stop stop-color="#1E64D7"/><stop offset="1" stop-color="#3BBA69"/></linearGradient><linearGradient id="g" x1="84" y1="0" x2="83.996" y2="59.291" gradientUnits="userSpaceOnUse"><stop stop-color="#1E64D7"/><stop offset="1" stop-color="#3BBA69"/></linearGradient><linearGradient id="h" x1="84" y1="0" x2="83.996" y2="59.291" gradientUnits="userSpaceOnUse"><stop stop-color="#1E64D7"/><stop offset="1" stop-color="#3BBA69"/></linearGradient><linearGradient id="i" x1="84" y1="0" x2="83.996" y2="59.291" gradientUnits="userSpaceOnUse"><stop stop-color="#1E64D7"/><stop offset="1" stop-color="#3BBA69"/></linearGradient></svg>