<svg width="591" height="230" fill="none" xmlns="http://www.w3.org/2000/svg"><path d="M.81 229.708h13.019c10.232 0 17.13-6.533 17.13-15.879s-6.898-15.879-17.13-15.879H.809v31.758zm3.38-2.903v-25.951h9.456c8.496 0 13.978 5.353 13.978 12.975s-5.482 12.976-13.978 12.976H4.19zm61.768 2.903h3.38V197.95h-3.38v31.758zm65.084 0h3.564l-14.618-31.758h-3.335l-14.618 31.758h3.518l3.837-8.484h17.815l3.837 8.484zm-20.419-11.206l7.674-17.059 7.675 17.059h-15.349zm78.755 6.034c-2.467 1.77-5.299 2.45-8.359 2.45-7.857 0-13.659-5.626-13.659-13.157 0-7.577 5.802-13.157 13.704-13.157 3.746 0 6.944 1.089 9.639 3.72l2.101-2.132c-2.832-3.04-7.035-4.582-11.877-4.582-9.775 0-16.902 6.85-16.902 16.151s7.127 16.151 16.857 16.151c4.431 0 8.725-1.361 11.74-4.037v-12.114h-3.244v10.707zm63.608-26.586v25.769l-20.602-25.769h-2.787v31.758h3.381v-25.769l20.556 25.769h2.787V197.95h-3.335zm55.158 32.03c9.593 0 16.765-6.85 16.765-16.151s-7.172-16.151-16.765-16.151c-9.684 0-16.81 6.896-16.81 16.151 0 9.255 7.126 16.151 16.81 16.151zm0-2.994c-7.72 0-13.475-5.58-13.475-13.157s5.755-13.157 13.475-13.157c7.675 0 13.385 5.58 13.385 13.157s-5.71 13.157-13.385 13.157zm60.567 2.994c8.177 0 11.923-3.992 11.923-8.665 0-11.569-19.689-6.306-19.689-15.017 0-3.176 2.604-5.762 8.451-5.762 2.833 0 6.03.862 8.771 2.631l1.142-2.676c-2.558-1.77-6.304-2.813-9.913-2.813-8.131 0-11.785 4.038-11.785 8.711 0 11.75 19.688 6.397 19.688 15.107 0 3.131-2.604 5.626-8.588 5.626-4.202 0-8.268-1.633-10.552-3.856l-1.325 2.586c2.376 2.45 7.081 4.128 11.877 4.128zm52.463-.272h3.381v-28.854h11.237v-2.904h-25.855v2.904h11.237v28.854zm47.427 0h3.38V197.95h-3.38v31.758zm55.08.272c4.705 0 8.908-1.588 11.74-4.673l-2.147-2.132c-2.604 2.677-5.802 3.811-9.456 3.811-7.72 0-13.522-5.626-13.522-13.157s5.802-13.157 13.522-13.157c3.654 0 6.852 1.134 9.456 3.766l2.147-2.133c-2.832-3.085-7.035-4.627-11.694-4.627-9.639 0-16.765 6.85-16.765 16.151s7.126 16.151 16.719 16.151zm54.993 0c8.176 0 11.922-3.992 11.922-8.665 0-11.569-19.688-6.306-19.688-15.017 0-3.176 2.604-5.762 8.451-5.762 2.832 0 6.03.862 8.77 2.631l1.142-2.676c-2.558-1.77-6.303-2.813-9.912-2.813-8.131 0-11.786 4.038-11.786 8.711 0 11.75 19.689 6.397 19.689 15.107 0 3.131-2.604 5.626-8.588 5.626-4.203 0-8.269-1.633-10.553-3.856l-1.324 2.586c2.375 2.45 7.08 4.128 11.877 4.128z" fill="#fff"/><path fill-rule="evenodd" clip-rule="evenodd" d="M333.711 43.432c.476-.025.792-.042.929-.048v-.922a507.14 507.14 0 00-.929-.038v1.008zM84.087 83.457c12.085-4.913 20.205-14.929 20.205-30.046 0-21.543-16.995-34.014-46.454-34.014H.81v132.278h60.805c33.047 0 49.664-12.85 49.664-35.337 0-17.953-10.197-29.102-27.192-32.881zM56.894 30.924c21.15 0 33.424 8.125 33.424 23.999 0 15.873-12.274 23.999-33.424 23.999h-42.11V30.924h42.11zm4.532 109.224H14.784v-49.7h46.642c23.227 0 35.88 7.56 35.88 24.756 0 17.385-12.653 24.944-35.88 24.944zm190.519 11.527h-87.998V19.396h13.974v120.185h74.024v12.094zm139.85 0h13.974V31.49h46.454V19.397H345.341V31.49h46.454v120.184zM588.416 29.034L500.985 139.58h89.697v12.094H482.29v-9.638L569.91 31.49h-86.298V19.397h104.804v9.637z" fill="#fff"/><path fill-rule="evenodd" clip-rule="evenodd" d="M310.87 3.64a3.64 3.64 0 11-7.281 0 3.64 3.64 0 017.281 0zm-7.888 20.065a6.19 6.19 0 11-12.382 0 6.19 6.19 0 0112.382 0zm-21.925 147.293a3.64 3.64 0 10-.001-7.281 3.64 3.64 0 00.001 7.281zm16.083-23.672a6.19 6.19 0 01-6.191 6.19 6.19 6.19 0 110-12.381 6.191 6.191 0 016.191 6.191zm-18.12-105.79h29.955V38.27h-21.933l-4.053-2.339c-1.037-.63-3.553-1.736-4.883-1.736-3.642 0-6.595 2.744-6.595 6.127 0 3.386 2.953 6.126 6.591 6.126 1.334 0 3.85-1.109 4.887-1.74l1.897-1.094-5.866-2.078zm33.84 18.957h-31.683l-5.471-3.16c-1.233-.752-4.227-2.068-5.81-2.068-4.334 0-7.847 3.268-7.847 7.297 0 4.033 3.513 7.297 7.842 7.297 1.588 0 4.582-1.32 5.815-2.072l4.03-2.326-7.458-1.955h40.479v1.093h.043l1.592.917c.699.424 2.395 1.168 3.291 1.168 2.455 0 4.445-1.846 4.445-4.122 0-2.278-1.99-4.122-4.442-4.122-.899 0-2.595.746-3.294 1.17l-1.532.883zm16.065 34.128a9.205 9.205 0 009.205-9.205 9.205 9.205 0 00-9.205-9.206 9.21 9.21 0 00-8.733 6.285l6.876 1.189h-61.393v-.321h-.029a6.193 6.193 0 00-12.033 2.054 6.19 6.19 0 0011.928 2.329l-3.427-.63h57.833v.353h.002c.933 4.096 4.597 7.153 8.976 7.153zm-31.058 31.972l4.563 1.616h-27.712v2.632h22.898l4.051 2.338c1.037.631 3.553 1.736 4.884 1.736 3.641 0 6.594-2.744 6.594-6.127 0-3.386-2.953-6.126-6.591-6.126-1.334 0-3.85 1.108-4.887 1.739l-3.8 2.192zm9.3-16.382h-35.654v-.115l-1.733.997c-.698.425-2.394 1.171-3.294 1.171-2.451 0-4.441-1.844-4.441-4.122 0-2.275 1.99-4.122 4.444-4.122.897 0 2.593.744 3.291 1.168l1.669.962v.599h44.104l-6.742-1.622 3.828-2.21c1.233-.751 4.227-2.072 5.815-2.072 4.329 0 7.842 3.264 7.842 7.297 0 4.029-3.513 7.298-7.846 7.298-1.584 0-4.578-1.317-5.811-2.068l-5.472-3.161z" fill="url(#a)"/><linearGradient id="a" x1="295.872" y1="0" x2="295.856" y2="208.799" gradientUnits="userSpaceOnUse"><stop stop-color="#1E64D7"/><stop offset="1" stop-color="#3BBA69"/></linearGradient></svg>