<svg width="127" height="20" fill="none" xmlns="http://www.w3.org/2000/svg"><path d="M12.684 19.168L5.796 3.992l-.812 12.432c-.019.467.103.821.364 1.064.261.224.644.383 1.148.476l2.044.42V19H.84v-.616l1.624-.364a3.15 3.15 0 00.812-.28c.224-.13.392-.299.504-.504.112-.205.177-.476.196-.812l.84-13.692c.037-.597-.047-.99-.252-1.176-.187-.187-.607-.345-1.26-.476L1.876.772V.156l6.58.028 5.908 12.964L19.6.156h6.776v.616l-1.428.308c-.635.13-1.055.29-1.26.476-.187.187-.27.579-.252 1.176l.56 13.692c.019.392.065.69.14.896a.871.871 0 00.42.476c.205.093.523.187.952.28l1.428.308V19h-9.8v-.616l1.428-.308c.653-.15 1.073-.317 1.26-.504.205-.187.29-.57.252-1.148L19.46 3.348l-6.356 15.82h-.42zM46.75 19v-.616l1.428-.308c.654-.15 1.064-.317 1.232-.504.187-.187.28-.57.28-1.148V2.732c0-.392-.037-.69-.112-.896a.758.758 0 00-.448-.448c-.205-.112-.523-.215-.952-.308L46.75.772V.156h8.736c1.718 0 3.183.243 4.396.728 1.214.485 2.138 1.167 2.772 2.044.653.859.98 1.857.98 2.996 0 .915-.196 1.717-.588 2.408a5.366 5.366 0 01-1.568 1.736 7.938 7.938 0 01-2.156 1.036 9.025 9.025 0 01-2.296.42c-.765.037-1.456-.028-2.072-.196l-.028-.196a6.663 6.663 0 002.38-.588c.728-.336 1.307-.868 1.736-1.596.448-.747.672-1.727.672-2.94 0-1.773-.457-3.033-1.372-3.78-.896-.765-2.137-1.148-3.724-1.148H53.61v15.344c0 .579.093.97.28 1.176.187.205.597.364 1.232.476l1.68.308V19H46.75z" fill="#000"/><path d="M28.621 19v-.616l1.428-.308c.654-.15 1.064-.317 1.232-.504.187-.187.28-.57.28-1.148V2.732c0-.597-.093-.99-.28-1.176-.168-.187-.578-.345-1.232-.476L28.621.772V.156h16.016a5.654 5.654 0 00-.112.784 10.364 10.364 0 00.112 2.464c.094.541.187 1.11.28 1.708h-.616a7.897 7.897 0 00-.84-1.568 6.198 6.198 0 00-1.148-1.26 4.443 4.443 0 00-1.428-.868 4.29 4.29 0 00-1.708-.336h-3.696v8.064h3.584c.635 0 1.139-.084 1.512-.252.374-.168.654-.41.84-.728.206-.317.346-.7.42-1.148l.224-1.288h.616v7.756h-.616l-.252-1.344c-.074-.448-.214-.821-.42-1.12a1.65 1.65 0 00-.84-.7c-.354-.168-.83-.252-1.428-.252h-3.64v6.356c0 .579.094.97.28 1.176.187.187.598.345 1.232.476l1.624.308V19h-9.996z" fill="#F862D7"/><path d="M71.648 8.072l-1.96-4.712-.184 3.928c-.005.165.024.275.088.328.064.053.205.101.424.144l.496.096V8H68.28v-.144l.488-.096c.15-.032.259-.061.328-.088a.248.248 0 00.136-.128.724.724 0 00.048-.256l.168-3.92c.01-.17-.019-.293-.088-.368-.07-.075-.21-.133-.424-.176L68.6 2.76v-.144h1.536l1.784 4.168 1.744-4.168h1.632v.144l-.48.08c-.213.037-.355.09-.424.16-.064.07-.093.195-.088.376l.104 3.92a.916.916 0 00.04.256c.021.059.07.104.144.136.075.027.184.053.328.08l.488.088V8h-2.56v-.144l.56-.104c.107-.021.176-.05.208-.088.032-.037.048-.099.048-.184l-.08-3.968-1.88 4.56h-.056zm7.248.024c-.411 0-.79-.07-1.136-.208a2.899 2.899 0 01-.904-.584 2.766 2.766 0 01-.6-.864 2.702 2.702 0 01-.209-1.056c0-.41.07-.787.209-1.128.144-.347.344-.648.6-.904a2.61 2.61 0 01.904-.6 2.932 2.932 0 011.135-.216c.416 0 .798.072 1.145.216.351.139.655.336.911.592.257.25.454.541.593.872.144.33.216.685.216 1.064 0 .4-.073.773-.217 1.12a2.68 2.68 0 01-.592.896c-.255.25-.56.448-.911.592a3.054 3.054 0 01-1.145.208zm0-.216a1.78 1.78 0 001.072-.336c.309-.23.551-.539.727-.928a3.21 3.21 0 00.265-1.328c0-.464-.088-.885-.264-1.264a2.262 2.262 0 00-.728-.912 1.752 1.752 0 00-1.073-.344c-.394 0-.746.115-1.055.344-.31.224-.553.533-.728.928a3.267 3.267 0 00-.264 1.344c0 .341.05.664.151.968.102.299.243.563.425.792.186.23.405.41.655.544.251.128.523.192.817.192zm8.965.224c-.272 0-.507-.059-.704-.176a2.223 2.223 0 01-.528-.456 76.19 76.19 0 01-.472-.592c-.16-.213-.314-.419-.464-.616a1.868 1.868 0 00-.504-.48c-.192-.128-.44-.192-.744-.192h-.288v1.704c0 .165.03.275.088.328.064.053.206.101.424.144l.488.088V8h-2.72v-.144l.488-.088c.219-.043.358-.09.416-.144.064-.053.096-.163.096-.328V3.32c0-.17-.032-.283-.096-.336-.058-.053-.197-.099-.416-.136l-.488-.088v-.144h2.24c.72 0 1.275.136 1.664.408.39.267.584.627.584 1.08 0 .245-.066.464-.2.656a1.5 1.5 0 01-.536.456 2.135 2.135 0 01-.72.216v.024c.246 0 .454.064.624.192.17.123.323.28.456.472.139.192.28.395.424.608.139.197.278.387.416.568.139.176.28.32.424.432.15.112.302.168.456.168v.144a1.282 1.282 0 01-.408.064zm-3.704-2.736h.52c.315 0 .579-.05.792-.152.219-.101.384-.243.496-.424a1.21 1.21 0 00.176-.656c0-.437-.141-.768-.424-.992-.277-.23-.659-.344-1.144-.344h-.416v2.568zM88.632 8v-.144l.489-.088c.218-.043.357-.09.416-.144.063-.053.095-.163.095-.328V3.32c0-.17-.032-.283-.096-.336-.058-.053-.197-.099-.415-.136l-.489-.088v-.144h4.552c-.016.075-.029.15-.04.224a3.163 3.163 0 00.04.776c.038.165.065.304.08.416h-.16a3.378 3.378 0 00-.28-.624 1.16 1.16 0 00-.407-.44c-.171-.107-.392-.16-.665-.16h-1.391v2.24h1.271c.278 0 .462-.048.552-.144.097-.096.166-.256.209-.48l.072-.376h.144v2.224h-.144l-.073-.376c-.042-.224-.111-.384-.207-.48-.091-.096-.275-.144-.553-.144H90.36V7.28a.83.83 0 00.049.312.293.293 0 00.183.16c.091.032.222.048.392.048h.737c.218 0 .42-.043.608-.128a1.714 1.714 0 00.784-.704l.207-.408h.153a5.08 5.08 0 00-.153.752c-.031.25-.05.48-.055.688h-4.633zM68.32 17v-.144l.488-.088c.219-.043.357-.09.416-.144.064-.053.096-.163.096-.328V12.32c0-.17-.032-.283-.096-.336-.059-.053-.197-.099-.416-.136l-.488-.088v-.144h4.552c-.016.075-.03.15-.04.224a3.163 3.163 0 00.04.776c.037.165.064.304.08.416h-.16a2.118 2.118 0 00-.152-.384 1.984 1.984 0 00-.248-.4 1.22 1.22 0 00-.368-.312.898.898 0 00-.48-.128h-1.496v2.4h1.072c.165 0 .312-.008.44-.024a.62.62 0 00.336-.16c.09-.085.152-.232.184-.44l.064-.376h.144v2.208l-.144.008-.064-.352c-.037-.213-.104-.363-.2-.448a.59.59 0 00-.344-.16 2.592 2.592 0 00-.424-.032H70.04v1.864c0 .165.03.277.088.336.064.053.205.099.424.136l.528.088V17h-2.76zm4.51 0v-.144l.375-.064c.181-.032.32-.083.416-.152a.726.726 0 00.224-.312l1.624-3.968-.168-.44a.477.477 0 00.28-.096.674.674 0 00.168-.208.498.498 0 00.056-.2h.072l1.952 4.728c.096.235.195.395.296.48a.98.98 0 00.408.168l.32.064V17h-2.632v-.144l.432-.072a1.14 1.14 0 00.352-.096c.064-.037.096-.088.096-.152a.457.457 0 00-.032-.152 28.484 28.484 0 01-.072-.2l-1.464-3.696h.184l-1.592 3.856a.928.928 0 00-.04.112.28.28 0 00-.016.088c0 .064.024.112.072.144a.65.65 0 00.224.072l.52.096V17H72.83zm1.775-1.832l-.056-.256h2.344v.256h-2.288zm6.59 1.896c-.438 0-.814-.056-1.128-.168a6.736 6.736 0 01-.736-.32c.042-.235.061-.472.056-.712a3 3 0 00-.096-.744h.232c.042.33.133.63.272.896.144.261.336.47.576.624.24.155.53.232.872.232.229 0 .432-.043.608-.128a1.06 1.06 0 00.424-.368.92.92 0 00.16-.536.934.934 0 00-.128-.512c-.08-.139-.224-.264-.432-.376a5.586 5.586 0 00-.896-.376c-.475-.165-.843-.357-1.104-.576-.256-.224-.384-.541-.384-.952 0-.272.064-.523.192-.752a1.39 1.39 0 01.576-.56c.256-.144.573-.216.952-.216.165 0 .306.021.424.064.117.043.226.088.328.136.08.037.157.072.232.104a.561.561 0 00.224.048l.2-.04.032.024-.016.2a2.326 2.326 0 00-.008.192 3.331 3.331 0 00.064.656c.021.107.045.213.072.32h-.176a6.19 6.19 0 00-.344-.752 1.591 1.591 0 00-.456-.544c-.176-.139-.403-.208-.68-.208a1.12 1.12 0 00-.496.112.932.932 0 00-.376.328.93.93 0 00-.144.528c0 .203.034.37.104.504.069.128.2.245.392.352.197.101.485.219.864.352.394.133.706.275.936.424.229.144.392.31.488.496.101.187.152.413.152.68 0 .293-.078.56-.232.8a1.632 1.632 0 01-.648.56c-.272.139-.59.208-.952.208zM87.078 17v-.144l.488-.088c.218-.043.357-.09.416-.144.064-.053.096-.163.096-.328V12.32c0-.17-.032-.283-.096-.336-.059-.053-.198-.099-.416-.136l-.488-.088v-.144h2.72v.144l-.488.088c-.219.037-.36.083-.424.136-.059.053-.088.165-.088.336v3.976c0 .165.029.275.088.328.064.053.205.101.424.144l.488.088V17h-2.72zm-3.328 0v-.144l.488-.088c.218-.043.357-.09.416-.144.064-.053.096-.163.096-.328V12.32c0-.17-.032-.283-.096-.336-.059-.053-.198-.099-.416-.136l-.488-.088v-.144h2.72v.144l-.488.088c-.219.037-.36.083-.424.136-.059.053-.088.165-.088.336v3.976c0 .165.029.275.088.328.064.053.205.101.424.144l.488.088V17h-2.72zm1.52-2.728l-.032-.224h3.08l.024.224H85.27zM90.437 17v-.144l.488-.088c.219-.043.358-.09.416-.144.064-.053.096-.163.096-.328V12.32c0-.17-.032-.283-.096-.336-.058-.053-.197-.099-.416-.136l-.488-.088v-.144h2.72v.144l-.488.088c-.218.037-.36.083-.424.136-.059.053-.088.165-.088.336v3.976c0 .165.03.275.088.328.064.053.206.101.424.144l.488.088V17h-2.72zm6.248.096c-.411 0-.79-.07-1.136-.208a2.9 2.9 0 01-.904-.584 2.767 2.767 0 01-.6-.864 2.702 2.702 0 01-.208-1.056c0-.41.069-.787.208-1.128.144-.347.344-.648.6-.904a2.61 2.61 0 01.904-.6 2.932 2.932 0 011.136-.216c.416 0 .797.072 1.144.216.352.139.656.336.912.592.256.25.453.541.592.872.144.33.216.685.216 1.064 0 .4-.072.773-.216 1.12a2.68 2.68 0 01-.592.896c-.256.25-.56.448-.912.592a3.053 3.053 0 01-1.144.208zm0-.216a1.78 1.78 0 001.072-.336c.309-.23.552-.539.728-.928.176-.395.264-.837.264-1.328 0-.464-.088-.885-.264-1.264a2.262 2.262 0 00-.728-.912 1.752 1.752 0 00-1.072-.344c-.395 0-.747.115-1.056.344-.31.224-.552.533-.728.928a3.267 3.267 0 00-.264 1.344c0 .341.05.664.152.968.1.299.242.563.424.792.186.23.405.41.656.544.25.128.522.192.816.192zm8.789.248l-4.008-4.576v3.688c0 .165.03.285.088.36.064.07.206.125.424.168l.488.088V17h-2.232v-.144l.488-.088c.219-.043.358-.096.416-.16.064-.064.096-.179.096-.344v-3.888a.913.913 0 00-.032-.28c-.021-.07-.077-.123-.168-.16a2.165 2.165 0 00-.432-.112l-.376-.072v-.136h1.368l3.736 4.16-.008-3.4c0-.17-.032-.29-.096-.36-.058-.075-.197-.13-.416-.168l-.488-.088v-.144h2.232v.144l-.488.088c-.218.037-.36.088-.424.152-.058.064-.088.181-.088.352v4.776h-.08zm3.729-.128v-.144l.488-.088c.219-.043.357-.09.416-.144.064-.053.096-.163.096-.328v-3.872c0-.16-.013-.275-.04-.344-.027-.075-.085-.128-.176-.16a2.756 2.756 0 00-.432-.096l-.36-.064v-.144h2.544c.437 0 .819.064 1.144.192.325.123.579.296.76.52.181.224.272.485.272.784 0 .24-.051.45-.152.632a1.46 1.46 0 01-.4.448 2 2 0 01-.544.272 2.32 2.32 0 01-.592.112 1.807 1.807 0 01-.528-.056l.008-.056c.251-.016.48-.067.688-.152a1.14 1.14 0 00.504-.424c.128-.197.192-.456.192-.776 0-.47-.133-.803-.4-1-.261-.203-.621-.304-1.08-.304h-.688v4.488c0 .165.029.275.088.328.064.053.205.101.424.144l.488.088V17h-2.72zm5.195 0v-.144l.488-.088c.219-.043.357-.09.416-.144.064-.053.096-.163.096-.328V12.32c0-.17-.032-.283-.096-.336-.059-.053-.197-.099-.416-.136l-.488-.088v-.144h2.72v.144l-.488.088c-.219.037-.36.083-.424.136-.059.053-.088.165-.088.336v3.96c0 .197.04.333.12.408.085.075.256.112.512.112h1.128c.219 0 .421-.043.608-.128s.347-.192.48-.32a1.53 1.53 0 00.304-.384l.208-.408h.152a5.11 5.11 0 00-.152.752c-.032.25-.051.48-.056.688h-5.024zm7.617.064c-.437 0-.813-.056-1.128-.168a6.727 6.727 0 01-.736-.32c.043-.235.061-.472.056-.712a3 3 0 00-.096-.744h.232c.043.33.133.63.272.896.144.261.336.47.576.624.24.155.531.232.872.232.229 0 .432-.043.608-.128a1.06 1.06 0 00.424-.368.919.919 0 00.16-.536.937.937 0 00-.128-.512c-.08-.139-.224-.264-.432-.376a5.602 5.602 0 00-.896-.376c-.475-.165-.843-.357-1.104-.576-.256-.224-.384-.541-.384-.952 0-.272.064-.523.192-.752a1.39 1.39 0 01.576-.56c.256-.144.573-.216.952-.216.165 0 .307.021.424.064.117.043.227.088.328.136.08.037.157.072.232.104a.565.565 0 00.224.048l.2-.04.032.024-.016.2a3.435 3.435 0 00.056.848c.021.107.045.213.072.32h-.176a6.205 6.205 0 00-.344-.752 1.6 1.6 0 00-.456-.544c-.176-.139-.403-.208-.68-.208-.176 0-.341.037-.496.112a.929.929 0 00-.376.328.93.93 0 00-.144.528c0 .203.035.37.104.504.069.128.2.245.392.352.197.101.485.219.864.352.395.133.707.275.936.424.229.144.392.31.488.496.101.187.152.413.152.68 0 .293-.077.56-.232.8a1.632 1.632 0 01-.648.56 2.068 2.068 0 01-.952.208z" fill="#17181A" fill-opacity=".42"/></svg>