<svg width="24" height="49" fill="none" xmlns="http://www.w3.org/2000/svg"><path d="M16.258 1.034a1.034 1.034 0 11-2.068 0 1.034 1.034 0 012.068 0z" fill="url(#paint0_linear_213:197)"/><path d="M14.019 6.731a1.758 1.758 0 11-3.516 0 1.758 1.758 0 013.516 0z" fill="url(#paint1_linear_213:197)"/><path d="M7.793 48.556a1.034 1.034 0 100-2.067 1.034 1.034 0 000 2.067z" fill="url(#paint2_linear_213:197)"/><path d="M12.36 41.835a1.758 1.758 0 11-3.516 0 1.758 1.758 0 013.516 0z" fill="url(#paint3_linear_213:197)"/><path d="M7.215 11.795h8.506v-.93h-6.23l-1.15-.663c-.294-.179-1.008-.493-1.386-.493-1.034 0-1.872.78-1.872 1.74 0 .962.838 1.74 1.871 1.74.379 0 1.093-.315 1.388-.494l.537-.31-1.664-.59z" fill="url(#paint4_linear_213:197)"/><path d="M16.825 17.178H7.826l-1.553-.897c-.35-.213-1.2-.587-1.65-.587-1.23 0-2.228.928-2.228 2.072 0 1.145.997 2.072 2.227 2.072.45 0 1.3-.375 1.65-.588l1.144-.66-2.116-.555h11.495v.309h.01l.454.261c.198.121.68.332.934.332.697 0 1.262-.524 1.262-1.17 0-.647-.565-1.17-1.261-1.17-.255 0-.737.211-.935.332l-.434.25z" fill="url(#paint5_linear_213:197)"/><path d="M21.386 26.87a2.614 2.614 0 10-2.48-3.444l1.951.337H3.424v-.09h-.007a1.759 1.759 0 10-.03 1.244l-.974-.178h16.423v.1h.001a2.615 2.615 0 002.55 2.03z" fill="url(#paint6_linear_213:197)"/><path d="M12.567 35.947l1.295.458h-7.87v.748h6.501l1.152.664c.294.18 1.009.493 1.387.493 1.034 0 1.872-.779 1.872-1.74s-.838-1.74-1.871-1.74c-.38 0-1.094.316-1.388.495l-1.078.621z" fill="url(#paint7_linear_213:197)"/><path d="M15.206 31.294H5.082v-.032l-.492.283c-.199.12-.68.333-.936.333-.696 0-1.26-.524-1.26-1.17 0-.647.564-1.171 1.261-1.171.255 0 .736.21.935.332l.474.273v.17h12.523l-1.914-.461 1.087-.628c.35-.213 1.2-.588 1.651-.588 1.23 0 2.227.927 2.227 2.072 0 1.144-.998 2.072-2.228 2.072-.45 0-1.3-.374-1.65-.587l-1.554-.898z" fill="url(#paint8_linear_213:197)"/><defs><linearGradient id="paint0_linear_213:197" x1="12" y1="0" x2="11.995" y2="59.291" gradientUnits="userSpaceOnUse"><stop stop-color="#1E64D7"/><stop offset="1" stop-color="#3BBA69"/></linearGradient><linearGradient id="paint1_linear_213:197" x1="12" y1="0" x2="11.995" y2="59.291" gradientUnits="userSpaceOnUse"><stop stop-color="#1E64D7"/><stop offset="1" stop-color="#3BBA69"/></linearGradient><linearGradient id="paint2_linear_213:197" x1="12" y1="0" x2="11.995" y2="59.291" gradientUnits="userSpaceOnUse"><stop stop-color="#1E64D7"/><stop offset="1" stop-color="#3BBA69"/></linearGradient><linearGradient id="paint3_linear_213:197" x1="12" y1="0" x2="11.995" y2="59.291" gradientUnits="userSpaceOnUse"><stop stop-color="#1E64D7"/><stop offset="1" stop-color="#3BBA69"/></linearGradient><linearGradient id="paint4_linear_213:197" x1="12" y1="0" x2="11.995" y2="59.291" gradientUnits="userSpaceOnUse"><stop stop-color="#1E64D7"/><stop offset="1" stop-color="#3BBA69"/></linearGradient><linearGradient id="paint5_linear_213:197" x1="12" y1="0" x2="11.995" y2="59.291" gradientUnits="userSpaceOnUse"><stop stop-color="#1E64D7"/><stop offset="1" stop-color="#3BBA69"/></linearGradient><linearGradient id="paint6_linear_213:197" x1="12" y1="0" x2="11.995" y2="59.291" gradientUnits="userSpaceOnUse"><stop stop-color="#1E64D7"/><stop offset="1" stop-color="#3BBA69"/></linearGradient><linearGradient id="paint7_linear_213:197" x1="12" y1="0" x2="11.995" y2="59.291" gradientUnits="userSpaceOnUse"><stop stop-color="#1E64D7"/><stop offset="1" stop-color="#3BBA69"/></linearGradient><linearGradient id="paint8_linear_213:197" x1="12" y1="0" x2="11.995" y2="59.291" gradientUnits="userSpaceOnUse"><stop stop-color="#1E64D7"/><stop offset="1" stop-color="#3BBA69"/></linearGradient></defs></svg>