<svg width="23" height="32" viewBox="0 0 23 32" fill="none" xmlns="http://www.w3.org/2000/svg">
<path d="M22.8578 25.3842V31.0223H1.34988V26.5374L12.3275 15.6455C13.493 14.478 14.279 13.4813 14.6856 12.6555C15.0922 11.8013 15.2955 10.9612 15.2955 10.1355C15.2955 8.93947 14.9025 8.02825 14.1164 7.40179C13.3575 6.74685 12.2326 6.41938 10.7418 6.41938C9.49498 6.41938 8.37011 6.67566 7.36722 7.18822C6.36433 7.67231 5.52407 8.41268 4.84644 9.40932L0.0488281 6.1631C1.16014 4.42609 2.69158 3.07349 4.64315 2.10532C6.59472 1.10867 8.8309 0.610352 11.3517 0.610352C13.4659 0.610352 15.309 0.980533 16.8811 1.7209C18.4803 2.43279 19.7136 3.45791 20.581 4.79627C21.4755 6.10615 21.9227 7.65807 21.9227 9.45204C21.9227 11.0751 21.5974 12.5986 20.9469 14.0224C20.2964 15.4462 19.036 17.0693 17.1657 18.8917L10.6198 25.3842H22.8578Z" fill="#DFDFDF"/>
</svg>
