<svg width="665" height="150" viewBox="0 0 665 150" fill="none" xmlns="http://www.w3.org/2000/svg">
<path fill-rule="evenodd" clip-rule="evenodd" d="M348.419 32.8838H368.454L329.185 145.408H309.15L348.419 32.8838ZM351.136 36.7295L314.552 141.562H326.468L363.052 36.7295H351.136Z" fill="#02FFCD"/>
<path fill-rule="evenodd" clip-rule="evenodd" d="M479.207 115.847V147.808H387.659V123.127L429.172 84.1705C429.175 84.1676 429.178 84.1648 429.181 84.1619C432.965 80.5637 435.2 77.7904 436.238 75.7996C437.327 73.6056 437.818 71.5259 437.818 69.5249C437.818 66.9959 437.021 65.4322 435.676 64.3175C434.268 63.15 431.848 62.2679 427.817 62.2679C424.435 62.2679 421.379 63.0441 418.581 64.5759L418.562 64.586L418.544 64.596C415.895 66.0082 413.656 68.0997 411.83 70.9797L409.881 74.0531L380.618 57.6722L382.673 54.2529C387.26 46.6182 393.691 40.6339 401.867 36.3098C410.114 31.9481 419.73 29.8428 430.587 29.8428C439.202 29.8428 446.96 31.2472 453.78 34.1621C460.706 37.0789 466.234 41.3596 470.187 47.0601C474.277 52.7055 476.284 59.2686 476.284 66.5912C476.284 73.0401 474.871 79.1753 472.052 84.9517C469.277 90.7459 464.043 97.0009 456.731 103.711C456.728 103.713 456.726 103.716 456.723 103.718L443.647 115.847H479.207ZM433.818 119.707H475.361V143.948H391.506V124.802L431.818 86.9727C435.716 83.267 438.331 80.1274 439.665 77.554C440.998 74.8777 441.665 72.2013 441.665 69.5249C441.665 66.0251 440.485 63.2973 438.126 61.3415C435.767 59.3857 432.331 58.4078 427.817 58.4078C423.817 58.4078 420.124 59.3342 416.739 61.1871C413.457 62.937 410.739 65.5104 408.584 68.9073L385.967 56.2461C386.635 55.1332 387.347 54.0581 388.101 53.0207C392.09 47.533 397.277 43.101 403.661 39.7247C411.251 35.7102 420.227 33.7029 430.587 33.7029C438.793 33.7029 446.024 35.0411 452.281 37.7174C458.641 40.3938 463.565 44.2539 467.052 49.2978C470.642 54.2388 472.437 60.0033 472.437 66.5912C472.437 72.4586 471.155 78.0172 468.591 83.267C466.129 88.4139 461.308 94.2813 454.128 100.869L433.818 119.707ZM486.609 121.837L486.597 121.811C482.307 112.649 480.232 101.977 480.232 89.9064C480.232 77.8377 482.307 67.209 486.605 58.1395L486.614 58.1215C490.996 48.9951 497.108 41.9124 504.99 37.0532C512.833 32.2183 521.749 29.8428 531.622 29.8428C541.4 29.8428 550.263 32.2225 558.099 37.0532C565.984 41.9138 572.046 49 576.326 58.1305C580.731 67.2035 582.858 77.8362 582.858 89.9064C582.858 101.986 580.728 112.667 576.326 121.837C572.042 130.874 565.976 137.904 558.099 142.76C550.263 147.59 541.4 149.97 531.622 149.97C521.749 149.97 512.833 147.595 504.99 142.76C497.12 137.908 491.008 130.887 486.622 121.862L486.609 121.837ZM572.857 120.17C576.96 111.626 579.011 101.538 579.011 89.9064C579.011 78.2746 576.96 68.2382 572.857 59.7974C568.856 51.2536 563.266 44.7686 556.086 40.3423C548.906 35.9161 540.751 33.7029 531.622 33.7029C522.39 33.7029 514.184 35.9161 507.004 40.3423C499.823 44.7686 494.182 51.2536 490.079 59.7974C486.078 68.2382 484.078 78.2746 484.078 89.9064C484.078 101.538 486.078 111.626 490.079 120.17C494.182 128.611 499.823 135.044 507.004 139.471C514.184 143.897 522.39 146.11 531.622 146.11C540.751 146.11 548.906 143.897 556.086 139.471C563.266 135.044 568.856 128.611 572.857 120.17ZM540.49 68.2887L540.467 68.2485C538.069 64.184 535.18 62.5767 531.622 62.5767C527.922 62.5767 524.927 64.2248 522.445 68.2885C520.033 72.3016 518.543 79.2916 518.543 89.9064C518.543 100.485 520.023 107.542 522.446 111.679C524.907 115.61 527.894 117.236 531.622 117.236C535.219 117.236 538.105 115.641 540.484 111.689L540.496 111.669C543.008 107.552 544.546 100.507 544.546 89.9064C544.546 79.2949 543.004 72.3253 540.515 68.3283L540.49 68.2887ZM543.777 113.685C540.802 118.626 536.75 121.096 531.622 121.096C526.39 121.096 522.236 118.626 519.159 113.685C516.184 108.641 514.697 100.715 514.697 89.9064C514.697 79.0981 516.184 71.2234 519.159 66.2824C522.236 61.2385 526.39 58.7166 531.622 58.7166C536.75 58.7166 540.802 61.2385 543.777 66.2824C546.854 71.2234 548.393 79.0981 548.393 89.9064C548.393 100.715 546.854 108.641 543.777 113.685Z" fill="#02FFCD"/>
<path d="M650.078 28.3362C648.082 29.4958 646.556 31.3165 645.766 33.4818C644.976 35.6471 644.971 38.0201 645.753 40.1885L627.236 51.1271C626.558 49.8277 625.812 48.5649 625 47.3439C622.029 42.8526 618.194 38.9935 613.718 35.9895C609.242 32.9856 604.213 30.8964 598.923 29.8428C598.384 29.734 597.845 29.6394 597.307 29.5524L599.452 21.0312C601.078 21.0197 602.651 20.4517 603.908 19.4221C605.164 18.3925 606.028 16.9638 606.355 15.3749C606.54 14.4654 606.544 13.5285 606.365 12.6177C606.187 11.7069 605.831 10.84 605.316 10.0667C604.802 9.29339 604.14 8.62875 603.368 8.11077C602.596 7.5928 601.73 7.23164 600.818 7.04795C598.977 6.67781 597.064 7.05038 595.498 8.08411C593.931 9.11784 592.839 10.7285 592.461 12.5635C592.163 14.0279 592.338 15.5489 592.962 16.9075C593.586 18.266 594.626 19.3919 595.933 20.1229L593.667 29.1251C584.366 28.4671 575.116 30.987 567.441 36.2703L556.715 18.2666C558.458 16.7608 559.618 14.694 559.995 12.4244C560.371 10.1548 559.939 7.8254 558.775 5.83987C557.786 4.15468 556.318 2.79961 554.558 1.94578C552.797 1.09194 550.822 0.77762 548.883 1.04251C546.943 1.30739 545.126 2.13961 543.66 3.43407C542.195 4.72853 541.146 6.42719 540.648 8.31556C540.193 10.0547 540.224 11.8846 540.735 13.6079C541.247 15.3312 542.22 16.8825 543.55 18.0945C544.881 19.3066 546.517 20.1334 548.284 20.4858C550.051 20.8381 551.881 20.7027 553.576 20.0942L564.522 38.4692C557.621 44.1446 552.78 51.9243 550.744 60.6119L542.353 58.5158C542.341 56.8937 541.77 55.3251 540.736 54.0734C539.702 52.8216 538.267 51.963 536.674 51.6417C534.833 51.2708 532.919 51.643 531.353 52.6767C529.786 53.7104 528.694 55.3214 528.316 57.1566C528.131 58.0661 528.128 59.003 528.306 59.9138C528.484 60.8247 528.841 61.6915 529.355 62.4649C529.869 63.2382 530.531 63.9029 531.303 64.4209C532.075 64.9389 532.942 65.3001 533.853 65.4838C535.322 65.7821 536.847 65.6079 538.209 64.9862C539.572 64.3646 540.701 63.3276 541.435 62.0246L550.07 64.1803C548.98 71.6512 550.005 79.2776 553.031 86.1976L533.619 96.4594C532.188 94.6553 530.171 93.4048 527.916 92.9228C525.66 92.4407 523.307 92.7572 521.26 93.8178C518.936 95.03 517.189 97.1138 516.404 99.6108C516.016 100.847 515.875 102.148 515.991 103.438C516.106 104.729 516.475 105.984 517.077 107.132C517.679 108.28 518.501 109.299 519.498 110.13C520.494 110.961 521.645 111.589 522.884 111.976C525.387 112.759 528.1 112.517 530.424 111.305C532.473 110.241 534.084 108.495 534.976 106.37C535.868 104.244 535.986 101.874 535.309 99.6714L554.633 89.4581C555.206 90.5056 555.827 91.534 556.495 92.5432C561.78 100.533 569.722 106.408 578.921 109.132L576.82 117.479C575.194 117.491 573.621 118.059 572.364 119.089C571.108 120.118 570.244 121.547 569.916 123.136C569.732 124.045 569.729 124.981 569.907 125.892C570.085 126.802 570.442 127.669 570.956 128.442C571.47 129.215 572.132 129.879 572.904 130.397C573.675 130.915 574.542 131.276 575.453 131.46C577.295 131.834 579.21 131.463 580.777 130.428C582.344 129.394 583.435 127.781 583.811 125.945C584.109 124.48 583.934 122.959 583.31 121.6C582.686 120.242 581.646 119.116 580.339 118.385L582.447 110.015C582.489 110.023 582.53 110.033 582.573 110.042C591.073 111.771 599.905 110.76 607.792 107.156L617.978 126.265C616.503 127.426 615.39 128.982 614.769 130.75C614.147 132.519 614.043 134.427 614.469 136.253C614.895 138.078 615.833 139.744 617.173 141.058C618.513 142.371 620.2 143.277 622.037 143.669C623.874 144.061 625.785 143.924 627.547 143.272C629.309 142.621 630.848 141.483 631.985 139.992C633.123 138.5 633.811 136.717 633.969 134.849C634.128 132.982 633.751 131.108 632.881 129.447C631.806 127.407 630.051 125.805 627.918 124.918C625.786 124.03 623.41 123.913 621.2 124.587L611.028 105.504C616 102.702 620.33 98.8938 623.739 94.3236C627.148 89.7533 629.561 84.5222 630.823 78.9664L639.209 81.0604C639.221 82.6828 639.793 84.2516 640.827 85.5034C641.862 86.7552 643.297 87.6139 644.891 87.9351C646.732 88.309 648.647 87.938 650.214 86.9038C651.781 85.8695 652.873 84.2566 653.248 82.4199C653.433 81.5105 653.436 80.5736 653.258 79.6628C653.079 78.7521 652.723 77.8853 652.209 77.112C651.695 76.3387 651.033 75.674 650.261 75.156C649.489 74.638 648.623 74.2768 647.711 74.093C646.242 73.7979 644.717 73.9736 643.354 74.5949C641.991 75.2163 640.86 76.2514 640.123 77.5525L631.469 75.392C632.45 68.2905 631.522 61.0566 628.78 54.4301L647.595 43.316C649.109 45.0524 651.183 46.2077 653.459 46.5827C655.735 46.9578 658.071 46.5292 660.065 45.3708C661.187 44.7173 662.17 43.8495 662.956 42.8171C663.742 41.7846 664.316 40.6078 664.646 39.3538C664.976 38.0997 665.055 36.7932 664.879 35.5087C664.702 34.2242 664.274 32.9871 663.617 31.8679C662.961 30.7488 662.09 29.7696 661.055 28.9864C660.019 28.2031 658.839 27.6312 657.581 27.3032C656.324 26.9752 655.014 26.8977 653.727 27.075C652.439 27.2523 651.199 27.6809 650.078 28.3365V28.3362ZM556.287 12.397C556.081 13.191 555.718 13.9361 555.22 14.5892C554.722 15.2422 554.1 15.7902 553.388 16.2013C551.953 17.0343 550.245 17.2664 548.638 16.8468C547.032 16.4271 545.657 15.3899 544.815 13.9619C544.261 13.014 543.968 11.9371 543.964 10.8398C543.96 9.74257 544.247 8.66376 544.795 7.71225C545.343 6.76075 546.132 5.97021 547.084 5.4204C548.036 4.87059 549.117 4.58096 550.217 4.58073C551.312 4.57867 552.39 4.86293 553.341 5.40522C554.292 5.94751 555.084 6.72891 555.639 7.67163C556.055 8.37725 556.327 9.15828 556.438 9.96944C556.55 10.7806 556.498 11.6057 556.287 12.397ZM538.649 59.247C538.511 59.9138 538.178 60.5251 537.693 61.0037C537.208 61.4824 536.591 61.8071 535.921 61.9368C535.251 62.0666 534.558 61.9957 533.928 61.7329C533.299 61.4702 532.761 61.0275 532.383 60.4606C532.132 60.0852 531.958 59.6639 531.872 59.221C531.785 58.7782 531.788 58.3225 531.879 57.8806C532.063 56.9863 532.595 56.2012 533.358 55.698C534.122 55.1948 535.055 55.0145 535.951 55.1967C536.395 55.2859 536.817 55.4614 537.192 55.7131C537.568 55.9649 537.89 56.288 538.14 56.664C538.391 57.0401 538.564 57.4616 538.651 57.9046C538.738 58.3476 538.737 58.8034 538.647 59.2458L538.649 59.247ZM531.822 104.425C531.578 105.209 531.18 105.936 530.651 106.565C530.123 107.194 529.475 107.712 528.744 108.089C527.271 108.854 525.554 109.005 523.969 108.51C522.384 108.015 521.06 106.914 520.287 105.447C519.79 104.496 519.548 103.434 519.583 102.362C519.618 101.291 519.929 100.246 520.486 99.3293C521.043 98.4125 521.828 97.6544 522.764 97.1281C523.701 96.6018 524.757 96.3251 525.832 96.3246C526.978 96.3228 528.103 96.6341 529.084 97.2247C530.065 97.8153 530.865 98.6626 531.397 99.6748C531.78 100.399 532.014 101.192 532.087 102.007C532.16 102.823 532.07 103.645 531.822 104.425ZM621.203 128.486C622.676 127.722 624.393 127.57 625.978 128.065C627.563 128.56 628.887 129.662 629.66 131.128C630.041 131.854 630.274 132.648 630.346 133.464C630.419 134.28 630.329 135.103 630.083 135.884C629.837 136.666 629.438 137.391 628.91 138.019C628.382 138.646 627.736 139.164 627.007 139.542C625.533 140.307 623.816 140.458 622.231 139.963C620.646 139.468 619.323 138.367 618.549 136.9C618.169 136.174 617.936 135.381 617.863 134.564C617.79 133.748 617.88 132.926 618.126 132.144C618.373 131.363 618.771 130.637 619.299 130.01C619.827 129.382 620.474 128.864 621.203 128.486ZM642.915 80.3325C643.052 79.6658 643.385 79.0546 643.87 78.576C644.355 78.0974 644.972 77.7728 645.642 77.6431C646.312 77.5133 647.005 77.5842 647.635 77.8469C648.264 78.1095 648.802 78.5521 649.18 79.119C649.431 79.4942 649.605 79.9154 649.691 80.3583C649.778 80.8011 649.776 81.2567 649.684 81.6986C649.5 82.5926 648.967 83.3772 648.204 83.8804C647.441 84.3836 646.508 84.5644 645.611 84.3831C645.168 84.2939 644.746 84.1184 644.37 83.8665C643.995 83.6146 643.672 83.2914 643.422 82.9152C643.172 82.539 642.998 82.1173 642.911 81.6741C642.824 81.231 642.826 80.7751 642.916 80.3325H642.915ZM596.023 13.2863C596.161 12.6194 596.493 12.0081 596.978 11.5294C597.464 11.0506 598.08 10.7259 598.75 10.5961C599.42 10.4662 600.114 10.5371 600.743 10.7998C601.373 11.0625 601.911 11.5052 602.289 12.0721C602.54 12.4474 602.714 12.8686 602.8 13.3115C602.887 13.7543 602.884 14.2099 602.793 14.6518C602.655 15.3186 602.323 15.9298 601.838 16.4084C601.352 16.887 600.736 17.2116 600.066 17.3414C599.396 17.4711 598.702 17.4001 598.073 17.1374C597.443 16.8747 596.906 16.4319 596.528 15.865C596.277 15.49 596.103 15.0689 596.016 14.6262C595.929 14.1835 595.932 13.728 596.023 13.2863ZM580.248 125.222C580.111 125.889 579.778 126.5 579.293 126.979C578.808 127.457 578.191 127.782 577.521 127.912C576.851 128.042 576.158 127.971 575.528 127.708C574.899 127.445 574.361 127.002 573.983 126.435C573.732 126.06 573.558 125.639 573.471 125.196C573.385 124.753 573.387 124.298 573.479 123.856C573.616 123.189 573.949 122.578 574.434 122.099C574.919 121.62 575.536 121.296 576.206 121.166C576.876 121.036 577.569 121.107 578.199 121.37C578.829 121.633 579.366 122.075 579.744 122.642C579.995 123.018 580.169 123.439 580.255 123.882C580.342 124.325 580.34 124.78 580.248 125.222ZM627.452 77.3622C623.342 97.5145 603.536 110.581 583.295 106.489C578.479 105.52 573.902 103.614 569.825 100.88C565.748 98.1452 562.252 94.6361 559.535 90.5529C556.819 86.4698 554.935 81.8926 553.993 77.083C553.051 72.2734 553.068 67.3258 554.044 62.5229C557.645 44.8637 573.299 32.6463 590.736 32.6463C596.919 32.648 603.006 34.1735 608.455 37.0875C613.904 40.0014 618.547 44.2133 621.971 49.3488C624.699 53.4235 626.588 57.9981 627.529 62.8071C628.47 67.616 628.443 72.5634 627.452 77.3622ZM661.133 38.4335C660.927 39.2276 660.564 39.9728 660.066 40.6258C659.568 41.2789 658.946 41.8269 658.234 42.2378C656.798 43.0709 655.091 43.303 653.484 42.8833C651.877 42.4636 650.503 41.4262 649.661 39.9982C649.107 39.0503 648.814 37.9734 648.81 36.8762C648.806 35.7789 649.093 34.7002 649.641 33.7487C650.189 32.7973 650.978 32.0068 651.93 31.457C652.882 30.9072 653.963 30.6175 655.062 30.6173C656.158 30.6151 657.235 30.8994 658.187 31.4417C659.138 31.984 659.93 32.7654 660.485 33.7082C660.901 34.4138 661.173 35.1948 661.284 36.006C661.395 36.8171 661.344 37.6423 661.133 38.4335Z" fill="black"/>
<path d="M548.555 48.9427C548.874 49.2616 549.28 49.4788 549.722 49.5668C550.164 49.6548 550.623 49.6096 551.039 49.437C551.456 49.2643 551.811 48.972 552.062 48.5969C552.312 48.2218 552.446 47.7808 552.446 47.3297C552.446 46.8786 552.312 46.4376 552.062 46.0626C551.811 45.6875 551.456 45.3951 551.039 45.2225C550.623 45.0498 550.164 45.0046 549.722 45.0926C549.28 45.1806 548.874 45.3978 548.555 45.7168C548.342 45.9281 548.174 46.1794 548.059 46.4562C547.944 46.733 547.884 47.0299 547.884 47.3297C547.884 47.6295 547.944 47.9264 548.059 48.2032C548.174 48.48 548.342 48.7313 548.555 48.9427Z" fill="black"/>
<path d="M536.231 36.2901L544.83 45.9635C544.994 46.1536 545.19 46.305 545.407 46.4089C545.624 46.5129 545.857 46.5674 546.093 46.5691C546.329 46.5709 546.562 46.52 546.78 46.4193C546.999 46.3187 547.197 46.1702 547.363 45.9827C547.53 45.7952 547.662 45.5723 547.751 45.3269C547.841 45.0815 547.886 44.8186 547.884 44.5534C547.883 44.2883 547.834 44.0261 547.742 43.7821C547.65 43.5382 547.515 43.3173 547.346 43.1323L538.747 33.4585C538.413 33.0882 537.961 32.8816 537.492 32.8838C537.022 32.886 536.573 33.0968 536.241 33.4703C535.909 33.8438 535.722 34.3498 535.72 34.8779C535.718 35.406 535.902 35.9136 536.231 36.2901Z" fill="black"/>
<path d="M532.552 24.7519C532.904 25.094 533.376 25.284 533.866 25.2806C534.357 25.2772 534.826 25.0809 535.173 24.734C535.52 24.3871 535.716 23.9177 535.72 23.4271C535.723 22.9366 535.533 22.4646 535.191 22.1131L532.823 19.7447C532.473 19.3948 531.998 19.1982 531.503 19.1982C531.008 19.1983 530.534 19.3949 530.184 19.7449C529.834 20.0949 529.637 20.5695 529.637 21.0644C529.637 21.5594 529.834 22.034 530.184 22.3839L532.552 24.7519Z" fill="black"/>
<path d="M547.669 38.417C548.029 38.7712 548.514 38.9687 549.019 38.9666C549.524 38.9645 550.008 38.7629 550.365 38.4057C550.722 38.0485 550.924 37.5647 550.926 37.0596C550.928 36.5546 550.73 36.0692 550.376 35.7092L540.497 25.8309C540.137 25.4767 539.652 25.2792 539.147 25.2813C538.642 25.2834 538.158 25.485 537.801 25.8422C537.444 26.1994 537.242 26.6832 537.24 27.1883C537.238 27.6933 537.436 28.1787 537.79 28.5387L547.669 38.417Z" fill="black"/>
<path d="M534.961 124.12H534.958C534.353 124.12 533.773 124.36 533.346 124.788C532.918 125.216 532.678 125.796 532.678 126.401C532.678 127.006 532.918 127.586 533.346 128.014C533.773 128.442 534.353 128.682 534.958 128.682H534.961C535.565 128.682 536.145 128.442 536.572 128.014C537 127.586 537.24 127.006 537.24 126.401C537.24 125.796 537 125.216 536.572 124.788C536.145 124.36 535.565 124.12 534.961 124.12Z" fill="black"/>
<path d="M548.883 112.477C548.549 112.143 548.097 111.955 547.624 111.955C547.152 111.955 546.699 112.143 546.365 112.477L537.762 121.08C537.428 121.414 537.24 121.867 537.24 122.339C537.24 122.811 537.428 123.264 537.762 123.598C538.096 123.932 538.549 124.12 539.021 124.12C539.493 124.12 539.946 123.932 540.28 123.598L548.883 114.995C549.049 114.83 549.18 114.633 549.269 114.417C549.359 114.201 549.405 113.97 549.405 113.736C549.405 113.502 549.359 113.27 549.269 113.054C549.18 112.838 549.049 112.642 548.883 112.477Z" fill="black"/>
<path d="M561.45 107.794L559.091 109.563C558.915 109.691 558.774 109.845 558.678 110.015C558.581 110.185 558.531 110.367 558.529 110.552C558.527 110.737 558.574 110.92 558.668 111.09C558.761 111.261 558.899 111.417 559.073 111.547C559.247 111.678 559.454 111.781 559.682 111.851C559.91 111.921 560.154 111.957 560.4 111.955C560.646 111.954 560.889 111.916 561.116 111.844C561.342 111.771 561.547 111.666 561.719 111.534L564.077 109.765C564.421 109.503 564.613 109.15 564.611 108.782C564.609 108.414 564.414 108.062 564.067 107.802C563.72 107.542 563.251 107.395 562.761 107.394C562.27 107.392 561.799 107.536 561.45 107.794Z" fill="black"/>
<path d="M553.764 114.017L543.901 123.88C543.72 124.056 543.575 124.267 543.476 124.5C543.377 124.733 543.325 124.983 543.323 125.236C543.321 125.49 543.37 125.741 543.466 125.975C543.562 126.209 543.704 126.422 543.883 126.601C544.062 126.78 544.274 126.922 544.509 127.018C544.743 127.114 544.994 127.163 545.247 127.161C545.5 127.159 545.751 127.107 545.984 127.008C546.217 126.909 546.427 126.764 546.604 126.583L556.466 116.72C556.817 116.36 557.011 115.877 557.008 115.374C557.005 114.872 556.804 114.391 556.448 114.036C556.093 113.68 555.612 113.479 555.11 113.476C554.607 113.472 554.124 113.667 553.764 114.017Z" fill="black"/>
<path d="M631.516 95.2734C631.527 94.8705 631.379 94.4794 631.102 94.186C630.826 93.8926 630.445 93.7209 630.042 93.7087C629.741 93.6998 629.445 93.7801 629.19 93.9395C628.936 94.0989 628.734 94.3302 628.61 94.6043C628.487 94.8784 628.447 95.1829 628.497 95.4794C628.546 95.7759 628.683 96.0511 628.888 96.2702L628.89 96.2716C629.026 96.4176 629.191 96.535 629.373 96.617C629.555 96.6989 629.752 96.7439 629.952 96.7492C629.967 96.7492 629.982 96.7492 629.999 96.7492C630.394 96.7489 630.774 96.5945 631.057 96.3189C631.341 96.0433 631.506 95.668 631.517 95.2727L631.516 95.2734Z" fill="black"/>
<path d="M634.662 97.3658C634.498 97.1782 634.301 97.0272 634.083 96.9215C633.865 96.8158 633.63 96.7575 633.391 96.7499C633.152 96.7423 632.914 96.7855 632.691 96.8771C632.468 96.9687 632.263 97.1068 632.089 97.2837C631.915 97.4605 631.775 97.6726 631.677 97.9078C631.579 98.143 631.525 98.3968 631.518 98.6545C631.511 98.9123 631.551 99.169 631.636 99.41C631.721 99.6511 631.849 99.8717 632.013 100.059L640.543 109.823C640.874 110.199 641.33 110.419 641.812 110.434C642.293 110.448 642.76 110.256 643.111 109.9C643.461 109.544 643.666 109.052 643.681 108.533C643.697 108.013 643.52 107.509 643.191 107.129L634.662 97.3658Z" fill="black"/>
<path d="M646.925 120.13C646.582 119.777 646.111 119.572 645.614 119.558C645.117 119.545 644.634 119.724 644.273 120.058C643.911 120.391 643.699 120.851 643.683 121.336C643.667 121.822 643.849 122.294 644.189 122.649L646.503 125.048C646.671 125.226 646.874 125.371 647.1 125.472C647.326 125.574 647.57 125.63 647.819 125.639C648.067 125.647 648.315 125.608 648.548 125.522C648.78 125.437 648.993 125.307 649.174 125.14C649.355 124.973 649.5 124.773 649.602 124.551C649.703 124.329 649.758 124.09 649.764 123.847C649.77 123.604 649.726 123.363 649.636 123.136C649.546 122.91 649.41 122.703 649.238 122.528L646.925 120.13Z" fill="black"/>
<path d="M633.375 104.946C633.2 104.766 632.989 104.621 632.754 104.519C632.52 104.418 632.268 104.361 632.011 104.353C631.754 104.346 631.498 104.387 631.257 104.474C631.017 104.561 630.797 104.693 630.61 104.862C630.423 105.031 630.272 105.234 630.167 105.458C630.062 105.683 630.004 105.926 629.997 106.172C629.99 106.418 630.034 106.663 630.126 106.893C630.218 107.123 630.357 107.333 630.534 107.512L640.304 117.444C640.479 117.624 640.69 117.769 640.924 117.871C641.158 117.973 641.411 118.029 641.668 118.037C641.925 118.045 642.181 118.004 642.421 117.917C642.662 117.829 642.882 117.698 643.069 117.529C643.256 117.36 643.406 117.157 643.511 116.932C643.617 116.707 643.674 116.465 643.681 116.219C643.688 115.972 643.644 115.727 643.552 115.497C643.46 115.267 643.322 115.057 643.144 114.878L633.375 104.946Z" fill="black"/>
<path d="M640.641 19.1984C640.993 19.1983 641.334 19.0761 641.606 18.8528C641.878 18.6295 642.064 18.3188 642.132 17.9737C642.201 17.6286 642.147 17.2705 641.981 16.9603C641.815 16.6501 641.547 16.4071 641.222 16.2726C640.897 16.1382 640.535 16.1206 640.198 16.223C639.862 16.3254 639.571 16.5413 639.376 16.8339C639.181 17.1266 639.093 17.4779 639.128 17.828C639.162 18.1781 639.317 18.5054 639.566 18.7539C639.707 18.8951 639.875 19.0071 640.06 19.0834C640.244 19.1596 640.442 19.1987 640.641 19.1984Z" fill="black"/>
<path d="M626.021 30.842C626.397 31.1756 626.906 31.363 627.436 31.363C627.967 31.363 628.476 31.1756 628.852 30.842L638.522 22.2457C638.711 22.081 638.861 21.8848 638.963 21.6684C639.066 21.452 639.119 21.2196 639.12 20.9848C639.122 20.7499 639.07 20.5172 638.97 20.3C638.869 20.0829 638.721 19.8856 638.534 19.7195C638.348 19.5534 638.126 19.4218 637.881 19.3324C637.637 19.2429 637.375 19.1973 637.111 19.1983C636.847 19.1992 636.585 19.2466 636.342 19.3378C636.098 19.4289 635.878 19.5621 635.692 19.7295L626.021 28.3261C625.646 28.6597 625.435 29.1122 625.435 29.584C625.435 30.0558 625.646 30.5083 626.021 30.842Z" fill="black"/>
<path d="M617.074 34.4046C617.602 34.4039 618.113 34.2204 618.52 33.8852C618.928 33.55 619.207 33.0839 619.309 32.5662C619.411 32.0486 619.331 31.5115 619.082 31.0464C618.833 30.5813 618.43 30.217 617.942 30.0155C617.454 29.8141 616.912 29.788 616.407 29.9416C615.902 30.0953 615.467 30.4192 615.174 30.8582C614.881 31.2972 614.75 31.8241 614.802 32.3492C614.854 32.8743 615.087 33.365 615.46 33.7378C615.672 33.9499 615.923 34.1179 616.2 34.2323C616.477 34.3467 616.774 34.4053 617.074 34.4046Z" fill="black"/>
<path d="M619.741 29.8425C619.991 29.8428 620.24 29.799 620.471 29.7138C620.703 29.6285 620.913 29.5034 621.09 29.3456L630.94 20.5907C631.121 20.4339 631.265 20.2467 631.365 20.04C631.464 19.8332 631.516 19.611 631.517 19.3862C631.519 19.1614 631.471 18.9386 631.375 18.7306C631.279 18.5227 631.137 18.3337 630.958 18.1748C630.78 18.0159 630.567 17.8901 630.333 17.8047C630.099 17.7194 629.848 17.6763 629.596 17.6778C629.343 17.6793 629.093 17.7254 628.86 17.8136C628.627 17.9017 628.417 18.03 628.24 18.1911L618.391 26.946C618.124 27.1833 617.942 27.4856 617.869 27.8147C617.795 28.1438 617.833 28.485 617.977 28.795C618.122 29.105 618.366 29.37 618.68 29.5564C618.994 29.7429 619.363 29.8425 619.741 29.8425Z" fill="black"/>
<path d="M575.255 59.5028C575.257 58.1491 574.857 56.8252 574.106 55.6988C573.355 54.5724 572.287 53.694 571.037 53.1747C569.787 52.6555 568.411 52.5187 567.083 52.7818C565.755 53.0449 564.535 53.6959 563.577 54.6526C562.619 55.6092 561.967 56.8285 561.702 58.1561C561.437 59.4837 561.572 60.86 562.09 62.1108C562.608 63.3617 563.485 64.4309 564.61 65.1831C565.736 65.9353 567.059 66.3368 568.413 66.3368C570.226 66.3359 571.964 65.6158 573.247 64.3347C574.53 63.0535 575.252 61.3158 575.255 59.5028ZM565.316 59.5028C565.314 58.8899 565.494 58.2903 565.834 57.7799C566.173 57.2695 566.656 56.8712 567.222 56.6355C567.787 56.3997 568.41 56.3371 569.012 56.4556C569.613 56.5741 570.166 56.8684 570.6 57.3012C571.034 57.7339 571.329 58.2857 571.45 58.8867C571.57 59.4876 571.509 60.1108 571.275 60.6772C571.041 61.2435 570.644 61.7277 570.134 62.0684C569.625 62.4091 569.026 62.5909 568.413 62.5909C567.593 62.5912 566.806 62.2662 566.226 61.6872C565.645 61.1083 565.318 60.3227 565.316 59.5028Z" fill="black"/>
<path d="M575.242 81.543C573.438 81.5455 571.675 82.0828 570.177 83.0868C568.678 84.0909 567.511 85.5167 566.822 87.184C566.134 88.8513 565.955 90.6854 566.308 92.4544C566.662 94.2233 567.532 95.8478 568.808 97.1224C570.085 98.3971 571.71 99.2648 573.48 99.6158C575.249 99.9668 577.083 99.7854 578.749 99.0944C580.416 98.4035 581.84 97.2341 582.842 95.734C583.844 94.2339 584.379 92.4705 584.379 90.6666C584.374 88.246 583.41 85.926 581.697 84.2156C579.984 82.5051 577.663 81.544 575.242 81.543ZM575.242 96.2059C574.147 96.2034 573.077 95.8763 572.168 95.2661C571.258 94.6558 570.55 93.7897 570.133 92.7771C569.716 91.7646 569.608 90.6511 569.823 89.5773C570.038 88.5035 570.567 87.5176 571.342 86.7441C572.117 85.9706 573.105 85.4442 574.179 85.2315C575.253 85.0188 576.366 85.1293 577.378 85.5489C578.39 85.9686 579.254 86.6787 579.862 87.5895C580.47 88.5002 580.795 89.5708 580.795 90.666C580.792 92.1366 580.205 93.5459 579.164 94.5846C578.123 95.6233 576.713 96.2066 575.242 96.2065V96.2059Z" fill="black"/>
<path d="M614.776 51.1309C612.972 51.1338 611.21 51.6713 609.711 52.6756C608.213 53.6798 607.046 55.1058 606.357 56.7731C605.669 58.4405 605.49 60.2745 605.844 62.0433C606.198 63.8122 607.068 65.4365 608.344 66.711C609.621 67.9855 611.247 68.853 613.016 69.2038C614.785 69.5547 616.619 69.3731 618.285 68.6822C619.952 67.9912 621.376 66.8218 622.378 65.3217C623.379 63.8217 623.914 62.0583 623.914 60.2545C623.91 57.8336 622.945 55.5133 621.232 53.8028C619.519 52.0924 617.197 51.1314 614.776 51.1309ZM614.776 65.7938C613.681 65.7909 612.611 65.4636 611.702 64.853C610.793 64.2425 610.085 63.3762 609.668 62.3637C609.251 61.3511 609.143 60.2376 609.359 59.1639C609.574 58.0902 610.103 57.1044 610.879 56.3311C611.654 55.5579 612.641 55.0317 613.716 54.8192C614.79 54.6067 615.903 54.7173 616.914 55.1372C617.926 55.557 618.79 56.2672 619.398 57.178C620.006 58.0888 620.331 59.1594 620.331 60.2545C620.327 61.7253 619.74 63.1347 618.699 64.1733C617.658 65.212 616.247 65.795 614.776 65.7944V65.7938Z" fill="black"/>
<path d="M589.718 57.2075C589.814 57.2112 589.909 57.2131 590.004 57.2131C591.824 57.2139 593.572 56.5472 594.877 55.3548C595.832 54.4797 596.523 53.3812 596.877 52.1722C597.232 50.9632 597.237 49.6873 596.894 48.4756C596.78 48.1175 596.745 47.7417 596.789 47.3704C596.833 46.9992 596.957 46.6401 597.151 46.3144C597.908 45.1425 598.208 43.7596 598 42.4026C597.791 41.0456 597.087 39.7989 596.009 38.8762C595.393 38.3495 594.664 37.9525 593.872 37.7118C593.08 37.4711 592.242 37.3921 591.414 37.4803C590.066 37.6415 588.813 38.2197 587.853 39.1238C586.893 40.0279 586.28 41.2065 586.111 42.474C586.075 42.7367 586.058 43.0013 586.059 43.2662C586.022 44.0507 585.659 44.7902 585.047 45.3251C584.322 46.0069 583.754 46.8216 583.378 47.7185C583.003 48.6155 582.827 49.5755 582.863 50.539C582.987 54.1368 585.999 57.0662 589.718 57.2075ZM587.701 47.8441C588.364 47.2511 588.894 46.5391 589.259 45.7503C589.625 44.9615 589.819 44.1118 589.829 43.2514C589.829 43.1422 589.836 43.033 589.851 42.9246C589.911 42.4463 590.136 41.9996 590.492 41.6528C590.848 41.306 591.314 41.0781 591.82 41.004C591.899 40.996 591.978 40.9919 592.056 40.9918C592.586 40.9925 593.097 41.1788 593.488 41.5143C593.743 41.7334 593.947 42.0006 594.085 42.2984C594.223 42.5961 594.293 42.9179 594.291 43.2428C594.292 43.6739 594.168 44.0971 593.93 44.4659C593.47 45.201 593.172 46.0158 593.055 46.8617C592.938 47.7075 593.003 48.5668 593.247 49.3884C593.331 49.6856 593.373 49.9918 593.373 50.2993C593.375 50.7644 593.278 51.2251 593.087 51.6542C592.896 52.0832 592.615 52.4717 592.261 52.7968C591.946 53.0864 591.571 53.3126 591.16 53.4616C590.748 53.6106 590.309 53.6792 589.868 53.6634C588.144 53.5984 586.691 52.144 586.631 50.4211C586.611 49.9453 586.696 49.4709 586.88 49.0274C587.064 48.5839 587.344 48.1807 587.701 47.843V47.8441Z" fill="black"/>
<path d="M609.957 89.0888C609.707 88.966 609.449 88.8588 609.185 88.768C608.415 88.4648 607.801 87.8867 607.476 87.1583C607.044 86.279 606.426 85.4934 605.661 84.8501C604.896 84.2069 603.999 83.7199 603.027 83.4192C599.398 82.2863 595.446 83.9439 594.031 87.1925C593.67 88.0199 593.49 88.9087 593.503 89.8043C593.516 90.7 593.722 91.5837 594.107 92.4013C594.653 93.554 595.512 94.5482 596.596 95.282C597.68 96.0157 598.95 96.4626 600.276 96.5768C600.673 96.6003 601.061 96.699 601.416 96.867C601.772 97.0351 602.089 97.269 602.348 97.5552C602.939 98.2526 603.688 98.8153 604.538 99.2021C605.389 99.5889 606.32 99.7898 607.263 99.7901C608.272 99.7914 609.266 99.5577 610.158 99.1093C610.892 98.7451 611.536 98.2366 612.046 97.6177C612.556 96.9988 612.922 96.2838 613.118 95.5203C613.419 94.2674 613.271 92.9551 612.699 91.7905C612.127 90.6259 611.162 89.6754 609.957 89.0888ZM609.469 94.6624C609.397 94.9387 609.264 95.1974 609.079 95.4211C608.893 95.6448 608.66 95.8284 608.393 95.9597C608.086 96.1112 607.748 96.1997 607.402 96.2195C607.057 96.2393 606.71 96.19 606.386 96.0747C605.955 95.9271 605.574 95.6701 605.287 95.3316C604.711 94.6695 604.001 94.1241 603.198 93.7279C602.396 93.3317 601.517 93.0928 600.615 93.0253C600.29 92.997 599.969 92.9285 599.662 92.8217C599.197 92.6627 598.77 92.4166 598.407 92.0979C598.044 91.7793 597.752 91.3946 597.548 90.9667C597.369 90.5887 597.272 90.1799 597.265 89.7654C597.258 89.3509 597.34 88.9393 597.506 88.5558C597.784 87.973 598.236 87.4806 598.807 87.1395C599.377 86.7983 600.041 86.6235 600.715 86.6366C601.101 86.6364 601.486 86.6946 601.853 86.809C602.334 86.956 602.779 87.1952 603.158 87.5119C603.538 87.8286 603.845 88.216 604.06 88.65C604.425 89.4432 604.953 90.1592 605.613 90.7558C606.274 91.3524 607.054 91.8176 607.907 92.124C608.017 92.1618 608.124 92.2065 608.228 92.2577C608.683 92.475 609.051 92.8277 609.275 93.2619C609.499 93.6961 609.567 94.188 609.469 94.6624Z" fill="black"/>
<path d="M594.795 70.5626C595.024 70.9457 595.403 71.2265 595.848 71.344C596.294 71.4614 596.77 71.4059 597.172 71.1895C597.575 70.9731 597.872 70.6134 597.998 70.1889C598.124 69.7644 598.069 69.3096 597.845 68.9238C597.301 68.0031 596.471 67.2671 595.469 66.8182C594.467 66.3693 593.343 66.2298 592.254 66.4192C591.165 66.6085 590.165 67.1173 589.393 67.8747C588.621 68.6321 588.115 69.6004 587.947 70.6448C587.89 70.9976 587.72 71.325 587.46 71.5824C587.201 71.8399 586.865 72.0149 586.498 72.0838C586.131 72.1526 585.751 72.1119 585.409 71.9673C585.067 71.8226 584.78 71.5809 584.587 71.2751C584.347 70.8956 583.96 70.6224 583.509 70.5156C583.059 70.4089 582.582 70.4774 582.185 70.706C581.787 70.9346 581.501 71.3047 581.389 71.7347C581.277 72.1648 581.349 72.6196 581.588 72.9992C582.054 73.7498 582.717 74.3716 583.511 74.8032C584.306 75.2348 585.204 75.4614 586.118 75.4605C586.475 75.4602 586.831 75.4268 587.181 75.3605C588.257 75.1655 589.242 74.6551 590 73.9002C590.758 73.1454 591.25 72.1838 591.408 71.1493C591.467 70.7922 591.64 70.4612 591.904 70.2025C592.169 69.9438 592.511 69.7701 592.883 69.7056C593.256 69.6411 593.64 69.6889 593.983 69.8425C594.326 69.9961 594.61 70.2478 594.796 70.5626H594.795Z" fill="black"/>
<path fill-rule="evenodd" clip-rule="evenodd" d="M98.4357 118.246V104.599L148.639 35.0293H189.535L158.433 79.473H192.784V97.7103H208.791V129.434H192.784V149.97H155.383V129.434H99.0898V149.97H7.51198V125.472L49.0385 86.8064C49.0415 86.8036 49.0445 86.8008 49.0475 86.7979C52.8324 83.2266 55.0678 80.474 56.1068 78.4979C57.1956 76.3203 57.6874 74.2561 57.6874 72.2701C57.6874 69.76 56.8898 68.2079 55.5446 67.1015C54.1359 65.9427 51.7147 65.0672 47.6831 65.0672C44.3001 65.0672 41.2432 65.8376 38.444 67.3579L38.4253 67.368L38.4066 67.3779C35.7569 68.7795 33.5172 70.8554 31.6903 73.714L29.7408 76.7645L0.46875 60.5057L2.52376 57.1119C7.11233 49.5342 13.5463 43.5945 21.7249 39.3026C29.9745 34.9734 39.5935 32.8838 50.4535 32.8838C59.0718 32.8838 66.8324 34.2777 73.6538 37.1709C80.5824 40.066 86.1124 44.3148 90.0664 49.9728C94.1577 55.576 96.1655 62.0902 96.1655 69.3583C96.1655 75.7591 94.7518 81.8485 91.9319 87.5818C89.1559 93.3328 83.9209 99.5412 76.6061 106.201C76.6035 106.204 76.601 106.206 76.5985 106.208L63.5179 118.246H98.4357ZM53.6857 122.078H95.242V146.139H11.3598V127.135L51.6848 89.5878C55.5839 85.9097 58.2004 82.7935 59.5344 80.2393C60.8683 77.5829 61.5352 74.9265 61.5352 72.2701C61.5352 68.7963 60.3552 66.0888 57.9952 64.1476C55.6352 62.2064 52.1979 61.2358 47.6831 61.2358C43.6814 61.2358 39.9875 62.1553 36.6014 63.9944C33.318 65.7313 30.5988 68.2855 28.4441 71.6571L5.81895 59.0902C6.48779 57.9857 7.19943 56.9186 7.95386 55.8889C11.9447 50.4421 17.133 46.0432 23.5189 42.6921C31.1119 38.7074 40.0901 36.7151 50.4535 36.7151C58.6622 36.7151 65.8961 38.0433 72.1552 40.6998C78.5169 43.3562 83.4421 47.1875 86.9307 52.1938C90.522 57.0979 92.3177 62.8194 92.3177 69.3583C92.3177 75.1819 91.0351 80.6991 88.4699 85.9097C86.0073 91.0182 81.1847 96.8418 74.0021 103.381L53.6857 122.078ZM159.231 125.603V146.139H188.936V125.603H204.943V101.542H188.936V83.3044H160.155V101.542H138.299L182.164 38.8607H150.612L102.284 105.833V125.603H159.231ZM145.67 97.7103H156.307V82.511L145.67 97.7103Z" fill="#02FFCD"/>
<path fill-rule="evenodd" clip-rule="evenodd" d="M195.558 125C190.288 125 186 121.102 186 116.313C186 115.588 186.647 115 187.445 115C188.242 115 188.889 115.588 188.889 116.313C188.889 119.655 191.88 122.374 195.556 122.374C196.354 122.374 197 122.962 197 123.687C197.004 124.412 196.356 125 195.558 125L195.558 125Z" fill="black"/>
<path fill-rule="evenodd" clip-rule="evenodd" d="M195.636 135C185.36 135 177 126.642 177 116.366C177 115.612 177.612 115 178.367 115C179.121 115 179.733 115.612 179.733 116.366C179.733 125.134 186.866 132.267 195.634 132.267C196.389 132.267 197 132.879 197 133.633C197.004 134.388 196.392 135 195.636 135L195.636 135Z" fill="black"/>
<path fill-rule="evenodd" clip-rule="evenodd" d="M195.616 145C179.837 145 167 132.162 167 116.385C167 115.62 167.621 115 168.386 115C169.151 115 169.771 115.621 169.771 116.385C169.771 130.636 181.364 142.229 195.616 142.229C196.38 142.229 197 142.85 197 143.615C197.002 144.38 196.382 145 195.616 145H195.616Z" fill="black"/>
<path fill-rule="evenodd" clip-rule="evenodd" d="M268.243 147C267.557 147 267 146.398 267 145.657V118.52C267 112.575 267.867 106.656 269.575 100.93C269.784 100.225 270.484 99.8377 271.138 100.065C271.793 100.292 272.15 101.049 271.941 101.754C270.313 107.213 269.487 112.855 269.487 118.52V145.657C269.486 146.4 268.93 147 268.243 147L268.243 147Z" fill="black"/>
<path fill-rule="evenodd" clip-rule="evenodd" d="M277.534 147H228.215C227.849 147 227.5 146.856 227.242 146.6C226.984 146.344 226.841 145.998 226.842 145.638L226.952 128.036H216.695C210.702 128.036 205.302 124.523 202.938 119.089C202.756 118.67 202.799 118.189 203.054 117.809C203.308 117.428 203.738 117.199 204.199 117.199H216.145C218.795 117.199 220.951 115.072 220.951 112.458C220.951 109.844 218.795 107.717 216.145 107.717L203.102 107.717C202.344 107.717 201.729 107.11 201.729 106.362V100.944H189.374C188.929 100.944 188.512 100.732 188.255 100.374C187.997 100.017 187.931 99.5593 188.076 99.1445L197.018 73.7017C196.669 71.4655 196.493 69.0862 196.493 66.6236C196.493 53.7224 201.636 41.6415 210.975 32.6081C220.303 23.5853 232.636 18.7572 245.702 19.0094C272.04 19.5202 293.256 41.094 292.998 67.0993C292.916 75.2599 290.698 83.2971 286.578 90.3409C281.559 98.924 278.905 108.584 278.905 118.271V145.644C278.907 146.395 278.292 147 277.534 147L277.534 147ZM229.597 144.291H276.161V118.272C276.161 108.11 278.942 97.9831 284.202 88.9893C288.085 82.3474 290.179 74.7691 290.255 67.0739C290.499 42.5482 270.49 22.2013 245.65 21.7209C233.325 21.4852 221.695 26.0354 212.9 34.5453C204.092 43.0664 199.24 54.4602 199.24 66.6268C199.24 69.0699 199.424 71.42 199.784 73.611C199.821 73.8327 199.801 74.0595 199.727 74.2721L191.303 98.2373L203.103 98.2367C203.861 98.2367 204.476 98.8432 204.476 99.5909V105.009H216.147C220.31 105.009 223.698 108.352 223.698 112.46C223.698 116.567 220.31 119.909 216.147 119.909H206.493C208.727 123.255 212.538 125.327 216.695 125.327H228.333C228.699 125.327 229.05 125.472 229.308 125.727C229.566 125.983 229.709 126.329 229.706 126.69L229.597 144.291L229.597 144.291Z" fill="black"/>
<path fill-rule="evenodd" clip-rule="evenodd" d="M275.677 89C275.439 89 275.196 88.942 274.975 88.8186C274.302 88.4436 274.07 87.6133 274.458 86.9643C277.488 81.9062 279.12 76.1332 279.179 70.2686C279.371 51.5828 263.759 36.083 244.381 35.7164C243.603 35.7013 242.985 35.081 243.001 34.3314C243.015 33.5907 243.644 33 244.408 33C244.418 33 244.428 33 244.437 33C265.354 33.3963 282.205 50.1271 281.999 70.2952C281.934 76.6244 280.171 82.8573 276.899 88.3211C276.639 88.7559 276.165 89 275.677 89H275.677Z" fill="black"/>
<path fill-rule="evenodd" clip-rule="evenodd" d="M183.5 52C176.607 52 171 46.8416 171 40.5C171 34.1584 176.607 29 183.5 29C190.392 29 196 34.1584 196 40.5C196 46.8416 190.394 52 183.5 52ZM183.5 31.5573C178.139 31.5573 173.778 35.5697 173.778 40.5016C173.778 45.4333 178.139 49.446 183.5 49.446C188.862 49.446 193.223 45.4333 193.223 40.5016C193.223 35.5697 188.861 31.5573 183.5 31.5573Z" fill="black"/>
<path fill-rule="evenodd" clip-rule="evenodd" d="M174.5 92C169.814 92 166 88.4114 166 84C166 79.5886 169.813 76 174.5 76C179.187 76 183 79.5886 183 84C183 88.4114 179.187 92 174.5 92ZM174.5 78.6673C171.375 78.6673 168.833 81.0601 168.833 84.0006C168.833 86.9411 171.375 89.3339 174.5 89.3339C177.625 89.3339 180.167 86.9411 180.167 84.0006C180.168 81.0601 177.625 78.6673 174.5 78.6673Z" fill="black"/>
</svg>
