<svg width="205" height="263" viewBox="0 0 205 263" fill="none" xmlns="http://www.w3.org/2000/svg">
<path d="M59.4001 262.473C56.6528 262.473 54.0112 262.14 51.4752 261.472C48.9392 260.765 46.9527 259.882 45.5156 258.822L48.0516 254.346C49.5309 255.328 51.3272 256.113 53.4406 256.702C55.5539 257.291 57.6883 257.585 59.8439 257.585C65.1695 257.585 67.8322 256.172 67.8322 253.345C67.8322 252.403 67.473 251.657 66.7544 251.107C66.0359 250.557 65.1272 250.165 64.0283 249.929C62.9716 249.654 61.45 249.36 59.4635 249.046C56.7585 248.653 54.5395 248.202 52.8066 247.691C51.1159 247.181 49.6577 246.317 48.432 245.1C47.2063 243.883 46.5934 242.175 46.5934 239.976C46.5934 237.149 47.8614 234.892 50.3974 233.204C52.9334 231.476 56.3358 230.612 60.6047 230.612C62.8448 230.612 65.0849 230.868 67.325 231.378C69.5652 231.888 71.4037 232.575 72.8408 233.439L70.2414 237.915C67.4941 236.266 64.2607 235.442 60.5413 235.442C57.9631 235.442 55.9977 235.834 54.6451 236.619C53.2926 237.405 52.6164 238.445 52.6164 239.741C52.6164 240.761 52.9968 241.566 53.7576 242.155C54.5183 242.744 55.4482 243.176 56.5471 243.451C57.6883 243.726 59.2733 244.04 61.3021 244.393C64.0071 244.825 66.1838 245.296 67.8322 245.807C69.5229 246.278 70.9599 247.102 72.1434 248.28C73.3269 249.458 73.9186 251.107 73.9186 253.227C73.9186 256.054 72.6083 258.311 69.9878 260C67.4096 261.649 63.8803 262.473 59.4001 262.473Z" fill="#F2F2F2"/>
<path d="M111.893 246.69C111.893 247.122 111.851 247.691 111.767 248.398H84.5048C84.8852 251.146 86.1743 253.365 88.3722 255.053C90.6123 256.702 93.3807 257.526 96.6775 257.526C100.693 257.526 103.926 256.27 106.378 253.757L109.738 257.408C108.216 259.057 106.314 260.314 104.032 261.178C101.792 262.041 99.2769 262.473 96.4873 262.473C92.9369 262.473 89.7881 261.806 87.0408 260.471C84.2935 259.097 82.159 257.193 80.6374 254.758C79.1581 252.324 78.4185 249.576 78.4185 246.513C78.4185 243.49 79.137 240.761 80.574 238.327C82.0534 235.893 84.061 234.008 86.597 232.674C89.1752 231.299 92.0705 230.612 95.2827 230.612C98.495 230.612 101.348 231.299 103.842 232.674C106.378 234.008 108.343 235.893 109.738 238.327C111.175 240.761 111.893 243.549 111.893 246.69ZM95.2827 235.383C92.3663 235.383 89.9149 236.207 87.9284 237.856C85.9841 239.505 84.8429 241.664 84.5048 244.334H106.061C105.722 241.704 104.56 239.564 102.574 237.915C100.629 236.227 98.1991 235.383 95.2827 235.383Z" fill="#F2F2F2"/>
<path d="M134.99 262.473C131.567 262.473 128.502 261.786 125.797 260.412C123.134 259.038 121.042 257.153 119.521 254.758C117.999 252.324 117.238 249.576 117.238 246.513C117.238 243.451 117.999 240.722 119.521 238.327C121.042 235.893 123.134 234.008 125.797 232.674C128.502 231.299 131.567 230.612 134.99 230.612C138.033 230.612 140.738 231.182 143.105 232.32C145.514 233.459 147.374 235.108 148.684 237.267L144.056 240.035C143 238.543 141.689 237.424 140.125 236.678C138.562 235.932 136.829 235.559 134.927 235.559C132.729 235.559 130.742 236.011 128.967 236.914C127.234 237.817 125.861 239.112 124.846 240.801C123.874 242.45 123.388 244.354 123.388 246.513C123.388 248.712 123.874 250.655 124.846 252.344C125.861 253.993 127.234 255.269 128.967 256.172C130.742 257.075 132.729 257.526 134.927 257.526C136.829 257.526 138.562 257.153 140.125 256.407C141.689 255.661 143 254.542 144.056 253.05L148.684 255.759C147.374 257.919 145.514 259.588 143.105 260.765C140.738 261.904 138.033 262.473 134.99 262.473Z" fill="#F2F2F2"/>
<path fill-rule="evenodd" clip-rule="evenodd" d="M102.5 192.32C152.106 192.32 192.32 152.106 192.32 102.5C192.32 63.6991 167.717 30.6446 133.26 18.0857L98.285 110.265L97.0872 12.8408C50.0014 15.6396 12.6804 54.7114 12.6804 102.5C12.6804 152.106 52.894 192.32 102.5 192.32ZM102.5 205C159.109 205 205 159.109 205 102.5C205 45.8908 159.109 0 102.5 0C45.8908 0 0 45.8908 0 102.5C0 159.109 45.8908 205 102.5 205Z" fill="#02FFCD"/>
<g filter="url(#filter0_d)">
<path d="M99.8163 94.7119H95.7138L96.5055 84.9593H117.522V75.4268H86.7892L84.1982 104.318H97.0813C106.222 104.318 108.813 106.958 108.813 110.991C108.813 115.17 105.214 117.663 99.3844 117.663C94.1304 117.663 88.8764 115.977 85.0618 113.044L80.4556 122.136C85.3497 125.656 92.6909 127.636 99.6723 127.636C114.067 127.636 120.616 119.717 120.616 110.624C120.616 101.531 114.715 94.7119 99.8163 94.7119Z" fill="white"/>
</g>
<defs>
<filter id="filter0_d" x="76.4556" y="75.4268" width="48.1606" height="60.209" filterUnits="userSpaceOnUse" color-interpolation-filters="sRGB">
<feFlood flood-opacity="0" result="BackgroundImageFix"/>
<feColorMatrix in="SourceAlpha" type="matrix" values="0 0 0 0 0 0 0 0 0 0 0 0 0 0 0 0 0 0 127 0" result="hardAlpha"/>
<feOffset dy="4"/>
<feGaussianBlur stdDeviation="2"/>
<feComposite in2="hardAlpha" operator="out"/>
<feColorMatrix type="matrix" values="0 0 0 0 0 0 0 0 0 0 0 0 0 0 0 0 0 0 0.25 0"/>
<feBlend mode="normal" in2="BackgroundImageFix" result="effect1_dropShadow"/>
<feBlend mode="normal" in="SourceGraphic" in2="effect1_dropShadow" result="shape"/>
</filter>
</defs>
</svg>
