<svg width="25" height="32" viewBox="0 0 25 32" fill="none" xmlns="http://www.w3.org/2000/svg">
<path d="M16.0461 12.7837C18.7251 13.2108 20.778 14.1932 22.2049 15.7309C23.6318 17.2401 24.3452 19.1195 24.3452 21.3691C24.3452 23.1061 23.8793 24.715 22.9475 26.1957C22.0156 27.648 20.5888 28.8155 18.6669 29.6982C16.7741 30.581 14.4445 31.0223 11.6781 31.0223C9.52324 31.0223 7.39749 30.7518 5.30087 30.2108C3.23336 29.6413 1.47161 28.8439 0.015625 27.8188L2.76745 22.5224C3.93224 23.3766 5.27175 24.0458 6.78598 24.5299C8.32933 24.9855 9.90179 25.2133 11.5034 25.2133C13.2797 25.2133 14.6774 24.8858 15.6966 24.2309C16.7158 23.5475 17.2254 22.5935 17.2254 21.3691C17.2254 18.9202 15.3181 17.6957 11.5034 17.6957H8.27109V13.1254L14.561 6.1631H1.54441V0.610352H22.9475V5.09527L16.0461 12.7837Z" fill="#DFDFDF"/>
</svg>
