<svg width="81" height="104" viewBox="0 0 81 104" fill="none" xmlns="http://www.w3.org/2000/svg">
<path d="M23.2154 103.141C22.1438 103.141 21.1134 103.011 20.1242 102.75C19.1351 102.475 18.3602 102.13 17.7997 101.717L18.7889 99.9708C19.3659 100.354 20.0665 100.66 20.8908 100.89C21.7152 101.119 22.5477 101.234 23.3885 101.234C25.4658 101.234 26.5044 100.683 26.5044 99.5803C26.5044 99.2128 26.3643 98.9219 26.084 98.7075C25.8037 98.4931 25.4493 98.3399 25.0206 98.2481C24.6085 98.1409 24.015 98.026 23.2401 97.9035C22.185 97.7504 21.3195 97.5743 20.6436 97.3752C19.9841 97.1761 19.4153 96.8392 18.9372 96.3645C18.4591 95.8898 18.2201 95.2236 18.2201 94.3661C18.2201 93.2635 18.7147 92.383 19.7038 91.7245C20.693 91.0507 22.0202 90.7138 23.6853 90.7138C24.559 90.7138 25.4328 90.8133 26.3066 91.0124C27.1803 91.2115 27.8975 91.4795 28.458 91.8164L27.4441 93.5621C26.3725 92.919 25.1113 92.5974 23.6605 92.5974C22.6549 92.5974 21.8883 92.7505 21.3607 93.0568C20.8331 93.363 20.5694 93.7689 20.5694 94.2742C20.5694 94.6724 20.7177 94.9863 21.0145 95.216C21.3112 95.4457 21.6739 95.6141 22.1026 95.7213C22.5477 95.8285 23.1659 95.951 23.9573 96.0889C25.0124 96.2573 25.8614 96.4411 26.5044 96.6401C27.1639 96.8239 27.7244 97.1455 28.186 97.6049C28.6476 98.0643 28.8784 98.7075 28.8784 99.5344C28.8784 100.637 28.3673 101.518 27.3452 102.176C26.3395 102.819 24.9629 103.141 23.2154 103.141Z" fill="#333333"/>
<path d="M43.6907 96.9847C43.6907 97.1531 43.6742 97.3752 43.6412 97.6508H38.3244H33.0076C33.156 98.7228 33.6588 99.588 34.5161 100.246C35.3899 100.89 36.4697 101.211 37.7557 101.211C39.3219 101.211 40.583 100.721 41.5392 99.7411L42.8499 101.165C42.2564 101.808 41.5145 102.298 40.6243 102.635C39.7505 102.972 38.7696 103.141 37.6815 103.141C36.2966 103.141 35.0684 102.88 33.9968 102.36C32.9252 101.824 32.0926 101.081 31.4991 100.132C30.9221 99.1822 30.6336 98.1102 30.6336 96.9158C30.6336 95.7366 30.9139 94.6724 31.4744 93.7229C32.0514 92.7735 32.8345 92.0384 33.8237 91.5178C34.8294 90.9818 35.9587 90.7138 37.2116 90.7138C38.4646 90.7138 39.5774 90.9818 40.5501 91.5178C41.5393 92.0384 42.3059 92.7735 42.8499 93.7229C43.4104 94.6724 43.6907 95.7596 43.6907 96.9847ZM37.2116 92.5744C36.0741 92.5744 35.1179 92.896 34.343 93.5392C33.5847 94.1823 33.1395 95.0246 33.0076 96.0659H41.4156C41.2837 95.0399 40.8303 94.2053 40.0555 93.5621C39.2971 92.9036 38.3492 92.5744 37.2116 92.5744Z" fill="#333333"/>
<path d="M52.6997 103.141C51.3643 103.141 50.1691 102.873 49.114 102.337C48.0753 101.801 47.2593 101.066 46.6658 100.132C46.0722 99.1822 45.7755 98.1102 45.7755 96.9158C45.7755 95.7213 46.0722 94.657 46.6658 93.7229C47.2593 92.7735 48.0753 92.0384 49.114 91.5178C50.1691 90.9818 51.3643 90.7138 52.6997 90.7138C53.8867 90.7138 54.9418 90.9359 55.8651 91.3799C56.8048 91.824 57.5302 92.4672 58.0412 93.3095L56.236 94.3891C55.8238 93.8071 55.3128 93.3707 54.7028 93.0797C54.0928 92.7888 53.4169 92.6433 52.675 92.6433C51.8177 92.6433 51.0428 92.8194 50.3504 93.1716C49.6745 93.5238 49.1387 94.0292 48.743 94.6877C48.3638 95.3308 48.1742 96.0735 48.1742 96.9158C48.1742 97.7733 48.3638 98.5314 48.743 99.1898C49.1387 99.833 49.6745 100.331 50.3504 100.683C51.0428 101.035 51.8177 101.211 52.675 101.211C53.4169 101.211 54.0928 101.066 54.7028 100.775C55.3128 100.484 55.8238 100.047 56.236 99.4655L58.0412 100.522C57.5302 101.364 56.8048 102.015 55.8651 102.475C54.9418 102.919 53.8867 103.141 52.6997 103.141Z" fill="#333333"/>
<path fill-rule="evenodd" clip-rule="evenodd" d="M40.0267 75.7771C59.3758 75.7771 75.0614 60.0915 75.0614 40.7424C75.0614 25.6079 65.4648 12.7147 52.0247 7.81611L38.3826 43.7712L37.9154 5.77036C19.5493 6.86205 4.99209 22.1022 4.99209 40.7424C4.99209 60.0915 20.6776 75.7771 40.0267 75.7771ZM40.0267 80.7231C62.1075 80.7231 80.0074 62.8232 80.0074 40.7424C80.0074 18.6617 62.1075 0.761719 40.0267 0.761719C17.946 0.761719 0.0460205 18.6617 0.0460205 40.7424C0.0460205 62.8232 17.946 80.7231 40.0267 80.7231Z" fill="#02FFCD"/>
<path d="M38.98 37.7045H37.3798L37.6886 33.9003H45.886V30.1819H33.8987L32.888 41.4514H37.9132C41.4785 41.4514 42.4891 42.4811 42.4891 44.0543C42.4891 45.6846 41.0855 46.6571 38.8115 46.6571C36.7622 46.6571 34.7128 45.9993 33.2249 44.8552L31.4282 48.4019C33.3372 49.7748 36.2007 50.5471 38.9238 50.5471C44.5385 50.5471 47.0932 47.458 47.0932 43.9113C47.0932 40.3645 44.7912 37.7045 38.98 37.7045Z" fill="black"/>
</svg>
