<svg width="249" height="109" viewBox="0 0 249 109" fill="none" xmlns="http://www.w3.org/2000/svg">
<circle cx="40.8958" cy="57.1282" r="38.9426" stroke="#02FFCD" stroke-width="3"/>
<path fill-rule="evenodd" clip-rule="evenodd" d="M49.244 72.1712C53.0219 74.1068 57.5233 75.0745 62.7483 75.0745C69.0272 75.0745 74.0922 73.353 77.9433 69.91C80.9369 67.2267 82.9855 63.6441 84.0893 59.1623C84.4363 57.7532 84.6899 56.2553 84.8501 54.6684C83.7457 55.6101 82.5663 56.4482 81.3121 57.1828C76.8621 59.7893 71.4695 61.0925 65.1343 61.0925C59.6089 61.0925 54.5439 59.9589 49.9393 57.6915C45.3348 55.3402 41.6512 52.0651 38.8884 47.8663C36.2094 43.5835 34.8699 38.7129 34.8699 33.2545C34.8699 27.2922 36.3769 22.0437 39.3907 17.509C42.4883 12.8903 46.6324 9.36333 51.823 6.92802C57.0973 4.40874 62.9158 3.1491 69.2784 3.1491C81.92 3.1491 91.8825 6.88603 99.166 14.3599C106.45 21.8338 110.091 32.5827 110.091 46.6067C110.091 56.6838 108.124 65.3753 104.189 72.6812C100.338 79.9032 94.8545 85.4036 87.7384 89.1825C80.706 92.9614 72.5434 94.8509 63.2506 94.8509C58.3112 94.8509 53.5811 94.2631 49.0603 93.0874C44.5395 91.9957 40.6884 90.4422 37.5071 88.4267L46.5487 70.5398C47.402 71.144 48.3004 71.6878 49.244 72.1712ZM48.2988 96.1426C43.5311 94.9888 39.3546 93.3217 35.8306 91.0893L33.4148 89.5588L45.3914 65.8658L48.3592 67.9671C51.98 70.5308 56.7035 71.9254 62.7483 71.9254C68.4314 71.9254 72.6959 70.3824 75.8532 67.5602C77.6529 65.9465 79.0891 63.8943 80.1113 61.3334C75.7209 63.2957 70.7025 64.2416 65.1343 64.2416C59.167 64.2416 53.6236 63.0138 48.5559 60.5184L48.5354 60.5083L48.515 60.4979C43.4413 57.907 39.3397 54.269 36.2682 49.601L36.2483 49.5707L36.2291 49.54C33.2114 44.7158 31.7305 39.256 31.7305 33.2545C31.7305 26.7315 33.3886 20.8627 36.7786 15.7622L36.7858 15.7512C40.2102 10.6453 44.7987 6.74911 50.4832 4.08007C56.213 1.34512 62.495 0 69.2784 0C82.5721 0 93.4144 3.95297 101.411 12.1586C109.442 20.3993 113.231 32.0488 113.231 46.6067C113.231 57.0931 111.182 66.3193 106.954 74.1722C102.814 81.9335 96.8855 87.8866 89.2141 91.9621C81.6574 96.0211 72.9722 98 63.2506 98C58.0702 98 53.0833 97.3843 48.2988 96.1426ZM77.6953 26.3718L77.651 26.3291C76.1954 24.9252 74.078 24.0591 70.9109 24.0591C68.0442 24.0591 65.9451 24.8584 64.3541 26.267C62.9384 27.5884 62.1204 29.4174 62.1204 32.1208C62.1204 34.7146 62.9218 36.5121 64.3539 37.8486C65.9318 39.2453 68.0651 40.0566 71.0365 40.0566C74.0068 40.0566 76.1397 39.2458 77.7174 37.85C79.2612 36.4053 80.0781 34.549 80.0781 31.9949C80.0781 29.5387 79.2736 27.7791 77.7412 26.4128L77.6953 26.3718ZM79.827 40.1825C77.5666 42.1979 74.6364 43.2057 71.0365 43.2057C67.4366 43.2057 64.5064 42.1979 62.246 40.1825C60.0693 38.1671 58.981 35.4799 58.981 32.1208C58.981 28.6778 60.0693 25.9486 62.246 23.9332C64.5064 21.9177 67.3947 20.91 70.9109 20.91C74.6783 20.91 77.6503 21.9597 79.827 24.0591C82.0874 26.0745 83.2176 28.7198 83.2176 31.9949C83.2176 35.3539 82.0874 38.0831 79.827 40.1825ZM179.53 25.8287C175.752 23.8932 171.251 22.9254 166.026 22.9254C159.663 22.9254 154.514 24.6889 150.58 28.2159C147.586 30.8995 145.561 34.4823 144.506 38.9646C144.174 40.3734 143.939 41.8711 143.798 43.4576C144.892 42.5073 146.06 41.6604 147.304 40.9169C151.775 38.2439 157.221 36.9075 163.64 36.9075C169.165 36.9075 174.23 38.0831 178.835 40.4345C183.439 42.7018 187.081 45.9769 189.76 50.2596C192.523 54.4584 193.904 59.2871 193.904 64.7455C193.904 70.7078 192.355 75.9983 189.258 80.617C186.244 85.1517 182.1 88.6787 176.825 91.1979C171.635 93.6332 165.816 94.8509 159.37 94.8509C146.812 94.8509 136.892 91.114 129.608 83.6401C122.324 76.1662 118.683 65.4173 118.683 51.3933C118.683 41.3162 120.608 32.6667 124.459 25.4447C128.394 18.1388 133.878 12.5964 140.91 8.81748C147.942 5.03856 156.105 3.1491 165.398 3.1491C170.421 3.1491 175.193 3.69495 179.714 4.78663C184.235 5.87832 188.086 7.47387 191.267 9.57326L182.225 27.4602C181.372 26.856 180.474 26.3122 179.53 25.8287ZM191.866 82.3702C195.335 77.1955 197.044 71.2853 197.044 64.7455C197.044 58.7379 195.517 53.3055 192.4 48.5553C189.411 43.7888 185.337 40.1325 180.239 37.6176C175.168 35.0325 169.617 33.7584 163.64 33.7584C157.983 33.7584 152.897 34.7338 148.464 36.7586C149.461 34.2102 150.881 32.1694 152.672 30.5641C155.918 27.6545 160.268 26.0746 166.026 26.0746C172.071 26.0746 176.794 27.4692 180.415 30.0329L183.383 32.1342L195.335 8.4885L192.992 6.94245C189.45 4.60446 185.247 2.88363 180.449 1.725C175.669 0.570763 170.649 0 165.398 0C155.673 0 146.986 1.9801 139.428 6.04161C131.832 10.1233 125.913 16.1207 121.697 23.9479L121.691 23.9595C117.546 31.732 115.543 40.9158 115.543 51.3933C115.543 65.9512 119.332 77.6007 127.363 85.8414C135.356 94.043 146.153 98 159.37 98C166.218 98 172.499 96.7042 178.156 94.0505L178.175 94.0411C183.919 91.2976 188.514 87.4104 191.866 82.3702ZM164.295 71.7328L164.317 71.7132C165.813 70.3794 166.654 68.5574 166.654 65.8792C166.654 63.3118 165.831 61.5209 164.317 60.1711L164.295 60.1515L164.273 60.1315C162.796 58.7634 160.727 57.9434 157.738 57.9434C154.786 57.9434 152.664 58.7834 151.08 60.2541L151.057 60.2759L151.033 60.2971C149.519 61.6468 148.696 63.4377 148.696 66.0051C148.696 68.4763 149.474 70.3064 150.953 71.7538C152.505 73.1154 154.7 73.9409 157.863 73.9409C160.747 73.9409 162.782 73.1335 164.273 71.7529L164.295 71.7328ZM166.402 74.0668C164.226 76.0823 161.379 77.09 157.863 77.09C154.096 77.09 151.082 76.0823 148.822 74.0668C146.645 71.9674 145.556 69.2802 145.556 66.0051C145.556 62.6461 146.687 59.9589 148.947 57.9434C151.207 55.844 154.138 54.7943 157.738 54.7943C161.337 54.7943 164.226 55.8021 166.402 57.8175C168.663 59.8329 169.793 62.5201 169.793 65.8792C169.793 69.3222 168.663 72.0514 166.402 74.0668Z" fill="black"/>
<path d="M243.54 61.72V94H234.18V82C231.46 83.36 228.46 84.04 225.18 84.04C220.82 84.04 217.52 83.06 215.28 81.1C213.08 79.1 211.98 76.02 211.98 71.86V61.72H221.34V71.26C221.34 73.22 221.84 74.64 222.84 75.52C223.88 76.4 225.36 76.84 227.28 76.84C229.72 76.84 232.02 76.32 234.18 75.28V61.72H243.54Z" fill="#02FFCD"/>
</svg>
