<svg width="105" height="148" viewBox="0 0 105 148" fill="none" xmlns="http://www.w3.org/2000/svg">
<path d="M53.6335 147.528L104.528 96.5371C104.987 96.0767 105.128 95.3844 104.876 94.7841C104.628 94.1839 104.042 93.7909 103.392 93.7909L80.3568 93.7909L80.3568 1.60827C80.3568 0.720266 79.6395 -1.10854e-06 78.7516 -1.14735e-06L26.2456 -3.44246e-06C25.3577 -3.48128e-06 24.6404 0.720263 24.6404 1.60826L24.6404 93.7909L1.60516 93.7909C0.955219 93.7909 0.369281 94.1823 0.121448 94.7841C0.0377461 94.9831 3.46842e-06 95.192 3.45937e-06 95.3992C3.44104e-06 95.8185 0.162494 96.228 0.47105 96.5371L51.3637 147.53C51.664 147.831 52.071 148 52.4978 148C52.9245 148 53.3315 147.831 53.6335 147.528ZM5.48021 97.0074L26.2456 97.0074C27.1335 97.0074 27.8508 96.2872 27.8508 95.3992L27.8508 3.21817L77.1464 3.21818L77.1464 95.4008C77.1464 96.2888 77.8653 97.0091 78.7516 97.0091L99.517 97.0091L52.4978 144.117L5.48021 97.0074Z" fill="url(#paint0_linear)"/>
<defs>
<linearGradient id="paint0_linear" x1="51.7717" y1="148.142" x2="51.7717" y2="11.1106" gradientUnits="userSpaceOnUse">
<stop/>
<stop offset="1" stop-opacity="0"/>
</linearGradient>
</defs>
</svg>
