<svg width="136" height="246" viewBox="0 0 136 246" fill="none" xmlns="http://www.w3.org/2000/svg">
<path fill-rule="evenodd" clip-rule="evenodd" d="M123.206 1.31608L135.437 15.1433C136.188 15.9918 136.188 17.3675 135.437 18.2161L123.206 32.0433C122.455 32.8918 121.238 32.8918 120.487 32.0433C119.737 31.1948 121.068 29.9009 121.819 29.0524L130.769 18.2161L-1.13746e-06 16.6797L-1.14444e-06 13.7706L130.769 15.1433L121.819 4.307C121.068 3.45849 119.737 2.16459 120.487 1.31608C121.238 0.467571 122.455 0.467571 123.206 1.31608Z" fill="#02FFCD"/>
<path fill-rule="evenodd" clip-rule="evenodd" d="M3 17L2.99999 246L0 246L1.00099e-05 17L3 17Z" fill="#02FFCD"/>
</svg>
