<svg width="22" height="12" viewBox="0 0 22 12" fill="none" xmlns="http://www.w3.org/2000/svg">
<path d="M11.0142 11.1215C11.2446 11.0882 11.4587 10.9832 11.626 10.8214L20.8615 1.95533C20.9769 1.85792 21.0711 1.73795 21.1385 1.6028C21.2059 1.46765 21.2449 1.32017 21.2532 1.16939C21.2615 1.01861 21.2389 0.867705 21.1868 0.72597C21.1347 0.584234 21.0542 0.454644 20.9502 0.345143C20.8462 0.235642 20.721 0.148555 20.5821 0.0892066C20.4433 0.0298576 20.2937 -0.000506485 20.1427 8.48584e-06C19.9917 0.000522503 19.8424 0.0318888 19.704 0.092183C19.5655 0.152476 19.4409 0.240437 19.3376 0.350644L10.8641 8.48941L2.39057 0.350642C2.28734 0.240435 2.16267 0.152476 2.02422 0.0921814C1.88577 0.0318863 1.73646 0.000521861 1.58545 6.86351e-06C1.43445 -0.000508134 1.28492 0.0298559 1.14607 0.0892049C1.00721 0.148553 0.881946 0.23564 0.777959 0.345142C0.673974 0.454642 0.593463 0.584231 0.541364 0.725968C0.489264 0.867704 0.466678 1.01861 0.474988 1.16939C0.4833 1.32017 0.522336 1.46764 0.5897 1.60279C0.657061 1.73795 0.751332 1.85792 0.866723 1.95533L10.1022 10.8214C10.222 10.9366 10.3661 11.0233 10.524 11.0753C10.6818 11.1272 10.8494 11.1431 11.0142 11.1215Z" fill="black"/>
</svg>
