<svg width="131" height="120" viewBox="0 0 131 120" fill="none" xmlns="http://www.w3.org/2000/svg">
<path d="M125.144 0.863281H6.46722C5.05087 0.864849 3.69298 1.41628 2.69147 2.39659C1.68996 3.37691 1.1266 4.70605 1.125 6.09242V94.5939C1.12615 95.9806 1.6893 97.3102 2.69085 98.291C3.6924 99.2717 5.05054 99.8235 6.46722 99.8252H43.9248L40.3834 114.194C40.2472 114.748 40.241 115.324 40.3653 115.881C40.4896 116.437 40.7411 116.958 41.101 117.405C41.4609 117.853 41.9197 118.214 42.443 118.463C42.9662 118.711 43.5403 118.841 44.1219 118.841H87.4893C88.0709 118.841 88.645 118.711 89.1683 118.463C89.6915 118.214 90.1504 117.853 90.5103 117.405C90.8701 116.958 91.1217 116.437 91.246 115.881C91.3702 115.324 91.364 114.748 91.2278 114.194L87.6864 99.8251H125.144C126.561 99.8235 127.919 99.2717 128.92 98.291C129.922 97.3102 130.485 95.9806 130.486 94.5939V6.09242C130.485 4.70605 129.921 3.37691 128.92 2.39659C127.918 1.41628 126.56 0.864849 125.144 0.863281ZM88.789 116.077C88.6344 116.27 88.4371 116.426 88.2119 116.533C87.9867 116.64 87.7396 116.695 87.4893 116.695H44.1219C43.8718 116.695 43.6249 116.64 43.3999 116.533C43.1748 116.426 42.9775 116.271 42.8228 116.078C42.6682 115.886 42.5602 115.662 42.507 115.422C42.4539 115.183 42.457 114.935 42.5161 114.697L46.1796 99.8251H85.4316L89.0952 114.697C89.1548 114.935 89.1582 115.183 89.1051 115.422C89.0521 115.661 88.944 115.885 88.789 116.077ZM128.294 94.5939C128.293 95.4115 127.961 96.1955 127.37 96.7738C126.78 97.3522 125.979 97.6777 125.144 97.679H6.46722C5.63192 97.6777 4.83124 97.3522 4.24079 96.7738C3.65034 96.1955 3.31832 95.4115 3.31756 94.5939V6.09242C3.31859 5.27507 3.65076 4.49148 4.24121 3.91353C4.83167 3.33557 5.6322 3.01044 6.46722 3.00943H125.144C125.979 3.01046 126.78 3.33561 127.37 3.91356C127.96 4.49151 128.293 5.27508 128.294 6.09242V94.5939Z" fill="#02FFCD" stroke="#02FFCD"/>
<path d="M114.36 84.8174H18.0566C17.7643 84.8174 17.484 84.9353 17.2774 85.1452C17.0707 85.3552 16.9546 85.6399 16.9546 85.9368C16.9546 86.2337 17.0707 86.5184 17.2774 86.7283C17.484 86.9382 17.7643 87.0562 18.0566 87.0562H114.36C114.652 87.0562 114.932 86.9382 115.139 86.7283C115.346 86.5184 115.462 86.2337 115.462 85.9368C115.462 85.6399 115.346 85.3552 115.139 85.1452C114.932 84.9353 114.652 84.8174 114.36 84.8174Z" fill="#02FFCD"/>
<path d="M25.4831 14.7054C25.0082 14.7109 24.6275 15.1094 24.6329 15.5955L25.2591 72.7439C25.2644 73.2301 25.6538 73.6197 26.1288 73.6142L106.788 72.6804C107.263 72.6749 107.644 72.2764 107.638 71.7903L107.093 22.0054C107.088 21.5193 106.698 21.1296 106.223 21.1351L70.394 21.5499C70.1978 21.5522 70.0068 21.4858 69.8526 21.3617L61.564 14.6904L61.2913 14.4774C61.1388 14.3582 60.9517 14.2947 60.7598 14.2969L25.4831 14.7054ZM27.7094 19.2358C27.7041 18.7497 28.6303 17.412 29.1052 17.4065L59.5619 17.0539C59.7581 17.0516 60.7533 18.0572 60.9075 18.1813L69.1961 24.8526C69.0042 24.8549 69.3486 24.9718 69.1961 24.8526L103.551 24.4649C104.026 24.4594 104.416 25.2426 104.421 25.7287L104.755 36.4363V47.6303L104.576 68.1499C104.581 68.636 103.641 69.8855 103.166 69.891L29.6702 70.7419C29.1952 70.7474 28.2602 69.5068 28.2549 69.0206L27.7094 19.2358ZM59.6707 29.0386C59.1958 29.0441 58.8151 29.4426 58.8205 29.9287L58.9222 39.2139C58.9275 39.7 58.5469 40.0985 58.0719 40.104L49.0466 40.2085C48.5717 40.214 48.191 40.6124 48.1964 41.0986L48.3384 54.0653C48.3438 54.5515 48.7332 54.9412 49.2082 54.9357L58.2331 54.8312C58.7081 54.8257 59.0975 55.2154 59.1029 55.7015L59.2046 64.9863C59.2099 65.4725 59.5993 65.8622 60.0743 65.8567L72.6812 65.7107C73.1561 65.7052 73.5368 65.3067 73.5314 64.8206L73.4297 55.5355C73.4244 55.0494 73.805 54.6509 74.28 54.6454L83.3053 54.5409C83.7802 54.5354 84.1609 54.1369 84.1555 53.6508L84.0135 40.684C84.0081 40.1979 83.6187 39.8082 83.1437 39.8137L74.1188 39.9182C73.6438 39.9237 73.2544 39.534 73.249 39.0478L73.1473 29.763C73.142 29.2768 72.7526 28.8872 72.2776 28.8927L59.6707 29.0386ZM62.4425 33.5691C62.4372 33.083 62.8179 32.6845 63.2928 32.679L68.7362 32.6159C69.2112 32.6104 70.4757 32.4528 70.4757 33.4863L70.5774 42.7711L79.6024 42.6666C80.0774 42.6611 81.2475 43.1527 81.2475 44.2721L81.3089 49.8752C81.3089 50.9885 80.1581 51.4382 79.6832 51.4437L70.6579 51.5482C70.183 51.5537 70.3686 51.4918 70.3739 51.9779L70.4757 61.263C70.6579 63.2388 69.8152 63.2333 69.3402 63.2388L63.8968 63.3019C63.4218 63.3074 61.694 63.8616 61.7957 60.833L61.694 51.9779H52.6687C52.1937 51.9834 51.0237 51.9779 51.0237 50.4288V44.8318C51.0184 44.3457 51.0237 43.1527 52.6687 42.9587L62.5443 42.8542L62.4425 33.5691Z" fill="black"/>
</svg>
