<svg width="142" height="123" viewBox="0 0 142 123" fill="none" xmlns="http://www.w3.org/2000/svg">
<circle cx="92.2467" cy="45.7579" r="44.2579" stroke="#02FFCD" stroke-width="3"/>
<path d="M10.9295 12.6143C5.30715 12.6143 0.730469 17.201 0.730469 22.8236V95.8855C0.730469 101.508 5.30715 106.098 10.9295 106.098H55.2842L50.62 119.193H47.1028C44.6475 119.193 44.6475 122.876 47.1028 122.876H94.7881C97.2434 122.876 97.2434 119.193 94.7881 119.193H91.2709L86.6068 106.098H113.562L119.118 115.721C119.982 117.217 121.612 117.93 123.205 118.032C124.798 118.134 126.48 117.711 128.049 116.805C129.618 115.9 130.827 114.657 131.535 113.226C132.243 111.796 132.437 110.024 131.573 108.527L130.17 106.098H131.328C136.744 106.098 141.16 101.646 141.16 96.0826V22.8236C141.16 17.201 136.584 12.6143 130.961 12.6143H10.9295ZM10.9295 16.2834H130.961C134.61 16.2834 137.488 19.1744 137.488 22.8236V87.7354H126.18C123.724 87.7354 123.724 91.4184 126.18 91.4184H137.488V96.0826C137.488 99.7516 134.77 102.415 131.328 102.415H128.298C128.216 102.416 128.134 102.422 128.052 102.433L116.388 82.2316C125.757 73.1137 128.174 58.4835 121.343 46.6524C113.271 32.6715 95.3433 27.86 81.3621 35.9317C77.2395 38.3118 73.9374 41.5634 71.5052 45.305L61.2509 42.2577C61.0509 37.5299 57.1392 33.7171 52.3647 33.7171C47.4633 33.7171 43.444 37.7329 43.444 42.6344C43.444 43.7292 43.6724 44.7663 44.0383 45.7369L34.6408 53.7109C33.2873 52.8805 31.7156 52.3774 30.0215 52.3774C25.1201 52.3774 21.1043 56.3931 21.1043 61.2946C21.1043 66.1961 25.1201 70.2118 30.0215 70.2118C34.923 70.2118 38.9388 66.1961 38.9388 61.2946C38.9388 59.418 38.3445 57.6779 37.3426 56.2364L46.0214 48.8739C47.6422 50.5161 49.8895 51.5412 52.3647 51.5412C56.1082 51.5412 59.313 49.197 60.6255 45.9097L69.636 48.5907C65.593 57.0185 65.628 67.2339 70.6449 75.9229C73.7427 81.2882 78.2999 85.2837 83.5215 87.7354H79.3168H4.40308V22.8236C4.40308 19.1744 7.28099 16.2834 10.9295 16.2834ZM95.3167 35.6865C104.391 35.4463 113.298 40.0584 118.164 48.4871C125.243 60.747 121.058 76.3695 108.798 83.4476C96.5378 90.5258 80.9123 86.3412 73.8338 74.0813C66.7553 61.8215 70.9435 46.1989 83.2036 39.1207C87.0349 36.9088 91.1918 35.7957 95.3167 35.6865ZM52.3647 37.3967C55.2789 37.3967 57.599 39.7202 57.599 42.6344C57.599 45.5486 55.2789 47.8721 52.3647 47.8721C49.4505 47.8721 47.127 45.5486 47.127 42.6344C47.127 39.7202 49.4505 37.3967 52.3647 37.3967ZM30.0215 56.0569C32.9357 56.0569 35.2593 58.3804 35.2593 61.2946C35.2593 64.2088 32.9357 66.5323 30.0215 66.5323C27.1074 66.5323 24.7838 64.2088 24.7838 61.2946C24.7838 58.3804 27.1074 56.0569 30.0215 56.0569ZM113.562 84.6674L128.387 110.365C128.511 110.579 128.569 110.942 128.246 111.595C127.922 112.249 127.207 113.043 126.207 113.62C125.208 114.197 124.168 114.409 123.44 114.363C122.712 114.316 122.427 114.093 122.303 113.879L107.464 88.1879C108.537 87.73 109.598 87.2236 110.632 86.6263C111.666 86.0298 112.631 85.3658 113.562 84.6674ZM4.40308 91.4184H105.087L111.437 102.415H10.9295C7.28099 102.415 4.40308 99.5348 4.40308 95.8855V91.4184ZM59.1952 106.098H82.6957L87.3668 119.193H54.5241L59.1952 106.098Z" fill="black"/>
<path d="M94.9963 46.1443C94.4052 46.1486 93.8057 46.2132 93.2066 46.3414C90.6046 46.8979 88.5415 48.5755 87.3332 50.7428L80.3093 48.3519C80.0746 48.2681 79.8255 48.233 79.5768 48.2485C77.5653 48.3847 77.2077 51.1915 79.1208 51.8278L86.2449 54.2601C86.1636 55.1345 86.1696 56.0262 86.3623 56.9272C87.3876 61.7203 92.1449 64.8106 96.9379 63.7853C101.3 62.8523 104.24 58.8155 103.962 54.4845L111.739 51.8278C113.788 51.1464 113.189 48.1022 111.034 48.2485C110.869 48.2611 110.706 48.2957 110.55 48.3519L102.936 50.9431C101.393 48.0177 98.3328 46.1199 94.9963 46.1443ZM95.0377 49.8238C97.4827 49.7961 99.6592 51.4762 100.193 53.9697C100.802 56.8195 99.0172 59.5756 96.1675 60.1852C93.3178 60.7947 90.5616 59.01 89.952 56.1602C89.3425 53.3106 91.1273 50.5543 93.977 49.9448C94.3333 49.8686 94.6884 49.8278 95.0377 49.8238Z" fill="black"/>
</svg>
