<svg width="16" height="17" viewBox="0 0 16 17" fill="none" xmlns="http://www.w3.org/2000/svg">
<path d="M15.2147 12C15.0064 12 14.8067 12.0808 14.6595 12.2245C14.5123 12.3683 14.4295 12.5633 14.4295 12.7666V15.4668H1.57045V12.7666C1.57045 12.5633 1.48773 12.3683 1.34049 12.2245C1.19325 12.0808 0.993555 12 0.785327 12C0.577098 12 0.377399 12.0808 0.230159 12.2245C0.0829193 12.3683 0.000200272 12.5633 0.000200272 12.7666V16.2196C-0.00216389 16.3216 0.0164239 16.4229 0.0548648 16.5177C0.0933056 16.6126 0.15082 16.6989 0.22401 16.7716C0.297201 16.8444 0.384582 16.9021 0.480992 16.9413C0.577402 16.9805 0.680885 17.0005 0.785327 17H15.2147C15.3179 17.0004 15.4202 16.9809 15.5157 16.9426C15.6111 16.9042 15.6979 16.8478 15.7709 16.7765C15.8439 16.7052 15.9017 16.6205 15.941 16.5273C15.9803 16.4341 16.0003 16.3342 15.9998 16.2334V12.7804C16.0022 12.6784 15.9836 12.5771 15.9451 12.4822C15.9067 12.3874 15.8492 12.3011 15.776 12.2284C15.7028 12.1556 15.6154 12.0979 15.519 12.0587C15.4226 12.0195 15.3191 11.9995 15.2147 12Z" fill="white"/>
<path d="M7.40845 11.7811C7.49055 11.8505 7.58802 11.9055 7.69531 11.9431C7.80259 11.9807 7.91757 12 8.0337 12C8.14982 12 8.26481 11.9807 8.37209 11.9431C8.47937 11.9055 8.57685 11.8505 8.65895 11.7811L12.7728 8.3107C12.9243 8.1686 13.0054 7.98286 12.9997 7.7917C12.994 7.60054 12.9018 7.41851 12.742 7.28308C12.5823 7.14765 12.3673 7.06912 12.1411 7.06367C11.9149 7.05822 11.6949 7.12625 11.5263 7.25377L8.91781 9.45851V0.747256C8.91781 0.549071 8.82466 0.359004 8.65886 0.218866C8.49306 0.0787285 8.26818 0 8.0337 0C7.79922 0 7.57434 0.0787285 7.40854 0.218866C7.24274 0.359004 7.14959 0.549071 7.14959 0.747256V9.45851L4.54107 7.25377C4.46069 7.17833 4.36296 7.11753 4.25386 7.07507C4.14476 7.03262 4.02657 7.00939 3.9065 7.00682C3.78643 7.00425 3.667 7.02239 3.55549 7.06012C3.44399 7.09785 3.34275 7.1544 3.25795 7.22629C3.17316 7.29819 3.10659 7.38394 3.0623 7.4783C3.01801 7.57267 2.99693 7.67367 3.00036 7.77515C3.00378 7.87662 3.03164 7.97644 3.08222 8.06852C3.1328 8.1606 3.20504 8.243 3.29455 8.3107L7.40845 11.7811Z" fill="white"/>
</svg>
