<svg width="186" height="125" viewBox="0 0 186 125" fill="none" xmlns="http://www.w3.org/2000/svg">
<circle cx="51.1293" cy="68.6371" r="49.1606" stroke="#02FFCD" stroke-width="3"/>
<path d="M123.754 124.201C107.372 124.201 91.7772 117.724 79.8398 105.939C68.1564 94.2808 61.7305 78.6606 61.7305 61.999C61.7305 58.4685 62.0353 54.8873 62.6448 51.3823C62.7718 50.6965 63.4322 50.2393 64.118 50.3409C64.8037 50.4679 65.2609 51.1283 65.1593 51.814C64.5751 55.1921 64.2957 58.5955 64.2957 61.999C64.2703 77.9748 70.4423 92.9601 81.6431 104.136C93.098 115.438 108.058 121.661 123.78 121.661C136.886 121.661 149.331 117.445 159.795 109.495C160.354 109.063 161.141 109.19 161.573 109.749C162.005 110.307 161.878 111.095 161.319 111.527C150.398 119.807 137.419 124.201 123.754 124.201ZM166.805 106.294C166.475 106.294 166.145 106.167 165.916 105.913C165.408 105.406 165.408 104.618 165.916 104.11C177.219 92.8331 183.442 77.8732 183.442 61.9736C183.442 46.2771 177.219 31.2918 165.916 19.8369C154.715 8.68687 139.756 2.54036 123.754 2.54036C107.931 2.54036 92.971 8.71227 81.6177 19.8877C74.6331 26.974 69.4517 35.7366 66.6832 45.2103C66.48 45.8707 65.7943 46.2771 65.1085 46.0739C64.4227 45.8707 64.0418 45.1595 64.2449 44.4992C67.1404 34.619 72.525 25.5009 79.8398 18.1098C91.6757 6.42638 107.271 0.0258789 123.78 0.0258789C140.467 0.0258789 156.062 6.45178 167.72 18.1098C179.505 30.0473 185.981 45.6421 185.981 62.0244C185.981 78.5844 179.505 94.1792 167.72 105.964C167.44 106.167 167.11 106.294 166.805 106.294Z" fill="black"/>
<path d="M123.756 124.2C115.781 124.2 108.263 118.765 102.574 108.885C97.1893 99.7919 93.5065 87.2449 92.2366 73.5803C92.1604 72.8946 92.6938 72.2596 93.3795 72.2088C94.0907 72.1326 94.7003 72.666 94.7511 73.3517C95.9956 86.6607 99.5514 98.8267 104.758 107.615C109.965 116.682 116.721 121.686 123.756 121.686C127.262 121.686 130.716 120.441 134.297 117.901C137.319 115.463 140.19 112.06 142.628 108.021C142.983 107.412 143.771 107.234 144.38 107.589C144.99 107.945 145.168 108.732 144.812 109.342C142.221 113.634 139.123 117.292 135.872 119.908C135.846 119.933 135.821 119.933 135.821 119.959C131.783 122.803 127.82 124.2 123.756 124.2ZM151.924 88.464C151.822 88.464 151.721 88.464 151.619 88.4386C150.933 88.2862 150.527 87.6005 150.679 86.9147C151.594 83.1303 152.254 79.2951 152.711 75.5614C153.168 71.65 153.371 67.2306 153.371 62.0239C153.371 56.9695 153.143 52.6009 152.711 48.6641C152.305 45.0067 151.67 41.3239 150.679 37.0823C150.527 36.3965 150.959 35.7107 151.619 35.5583C152.305 35.4059 152.991 35.8377 153.143 36.4981C154.159 40.8413 154.819 44.6003 155.226 48.3593C155.683 52.3723 155.911 56.8425 155.911 61.9985C155.911 67.2814 155.683 71.8024 155.226 75.8154C154.768 79.676 154.083 83.5875 153.143 87.4735C153.016 88.0576 152.508 88.464 151.924 88.464ZM93.5065 51.8136C93.4557 51.8136 93.4049 51.8136 93.3541 51.8136C92.6684 51.7374 92.1604 51.1024 92.2366 50.3912C92.4652 48.5879 92.6938 46.7338 92.9731 44.9305C93.0747 44.2447 93.7351 43.7621 94.4209 43.8637C95.1066 43.9653 95.5892 44.6257 95.4876 45.3115C95.2082 47.0894 94.9542 48.9181 94.7511 50.696C94.7003 51.331 94.1415 51.8136 93.5065 51.8136ZM95.4622 39.8253C95.3606 39.8253 95.2844 39.8253 95.1828 39.7999C94.4971 39.6475 94.0653 38.9618 94.2177 38.276L94.4971 36.9807C94.6495 36.2949 95.3352 35.8631 96.021 36.0155C96.7068 36.1679 97.1385 36.8537 96.9862 37.5394L96.7068 38.8348C96.5544 39.4189 96.0464 39.8253 95.4622 39.8253ZM97.7481 31.0627C97.6211 31.0627 97.4941 31.0373 97.3671 31.0119C96.7068 30.8088 96.3258 30.0976 96.529 29.4118C98.2053 24.0019 100.237 19.2269 102.599 15.2647C108.263 5.43534 115.781 0 123.756 0C128.074 0 132.087 1.44773 135.669 4.2924C138.996 6.67988 142.069 10.2103 144.812 14.7567C145.168 15.3663 144.99 16.1282 144.38 16.5092C143.771 16.8648 143.009 16.687 142.628 16.0774C140.063 11.8104 137.218 8.5594 134.145 6.3497C134.119 6.3497 134.119 6.3243 134.094 6.2989C130.97 3.80982 127.49 2.53988 123.731 2.53988C116.696 2.53988 109.965 7.51805 104.758 16.56C102.498 20.3698 100.542 24.9416 98.9165 30.1738C98.7895 30.7072 98.2815 31.0627 97.7481 31.0627Z" fill="black"/>
<path d="M172.952 27.5072H159.059C158.348 27.5072 157.789 26.9484 157.789 26.2372C157.789 25.5261 158.348 24.9673 159.059 24.9673H172.952C173.663 24.9673 174.222 25.5261 174.222 26.2372C174.222 26.9484 173.663 27.5072 172.952 27.5072ZM135.921 27.5072H74.6078C73.8967 27.5072 73.3379 26.9484 73.3379 26.2372C73.3379 25.5261 73.8967 24.9673 74.6078 24.9673H135.921C136.632 24.9673 137.19 25.5261 137.19 26.2372C137.19 26.923 136.606 27.5072 135.921 27.5072Z" fill="black"/>
<path d="M184.535 63.4462L146.081 63.3954C145.37 63.3954 144.811 62.8366 144.811 62.1254C144.811 61.4143 145.37 60.8555 146.081 60.8555L184.535 60.8809C185.246 60.8809 185.804 61.4397 185.804 62.1508C185.804 62.862 185.246 63.4462 184.535 63.4462ZM140.188 63.3954H136.582C135.87 63.3954 135.312 62.8112 135.312 62.1254C135.312 61.4143 135.87 60.8555 136.582 60.8555H140.188C140.899 60.8555 141.458 61.4397 141.458 62.1254C141.458 62.8366 140.899 63.3954 140.188 63.3954ZM130.13 63.3954L105.798 63.37C105.087 63.37 104.528 62.8112 104.528 62.1C104.528 61.3889 105.087 60.8301 105.798 60.8301L130.13 60.8555C130.841 60.8555 131.4 61.4143 131.4 62.1254C131.4 62.8112 130.816 63.3954 130.13 63.3954Z" fill="black"/>
<path d="M82.9131 63.2938H63.0004C62.2892 63.2938 61.7305 62.735 61.7305 62.0239C61.7305 61.3127 62.2892 60.7539 63.0004 60.7539H82.9131C83.6242 60.7539 84.183 61.3127 84.183 62.0239C84.183 62.735 83.6242 63.2938 82.9131 63.2938Z" fill="black"/>
<path d="M173.003 99.0555H158.881C158.17 99.0555 157.611 98.4967 157.611 97.7856C157.611 97.0744 158.17 96.5156 158.881 96.5156H173.003C173.714 96.5156 174.273 97.0744 174.273 97.7856C174.273 98.4967 173.689 99.0555 173.003 99.0555Z" fill="black"/>
<path d="M74.4047 99.1063C73.6935 99.1063 73.1348 98.5475 73.1348 97.8364C73.1348 97.1252 73.6935 96.5664 74.4047 96.5664H94.5206C95.2317 96.5664 95.7905 97.1252 95.7905 97.8364C95.7905 98.5475 95.2317 99.1063 94.5206 99.1063H74.4047ZM103.563 99.0809C102.851 99.0809 102.293 98.5221 102.293 97.811C102.293 97.0998 102.851 96.541 103.563 96.541L135.921 96.5156C136.632 96.5156 137.191 97.0744 137.191 97.7856C137.191 98.4967 136.632 99.0555 135.921 99.0555L103.563 99.0809Z" fill="black"/>
<path d="M94.4191 74.7484C94.089 74.7484 93.7588 74.7231 93.454 74.7231C93.4286 74.7231 93.4286 74.7231 93.4032 74.7231C90.2537 74.4945 87.3837 73.1737 85.3772 70.964C84.8946 70.4561 84.9454 69.6433 85.4534 69.1607C85.9613 68.6781 86.7741 68.7289 87.2567 69.2369C88.8568 70.964 91.0411 71.98 93.581 72.1832C93.835 72.1832 94.1398 72.2086 94.4191 72.2086C97.1368 72.2086 99.6767 71.1418 101.607 69.2115C103.537 67.2558 104.604 64.7159 104.604 61.9983C104.604 59.306 103.537 56.7661 101.632 54.8104C99.5243 52.8547 96.959 51.7879 94.4191 51.7879C91.7523 51.7879 89.1108 52.8801 87.2059 54.785L87.1805 54.8104C85.2502 56.5883 84.2088 59.1282 84.2088 61.9729C84.2088 62.684 83.6501 63.2428 82.9389 63.2428C82.2277 63.2428 81.6689 62.684 81.6689 61.9729C81.6689 58.417 83.0151 55.2168 85.4534 52.9563C87.8155 50.5942 91.0919 49.2227 94.4445 49.2227C97.6448 49.2227 100.82 50.5434 103.41 52.9309C103.436 52.9309 103.436 52.9563 103.461 52.9563C105.874 55.3946 107.195 58.5694 107.195 61.9475C107.195 65.3255 105.874 68.5257 103.461 70.9386C100.997 73.4023 97.7972 74.7484 94.4191 74.7484Z" fill="black"/>
<path d="M147.401 38.9618C146.69 38.9618 146.131 38.4031 146.131 37.6919C146.131 36.9807 146.69 36.4219 147.401 36.4219C150.043 36.4219 152.608 35.406 154.614 33.5773C156.545 31.4692 157.611 28.8531 157.611 26.2116C157.611 23.6718 156.545 21.1065 154.589 18.9984C152.684 17.0935 150.068 16.0013 147.401 16.0013C144.734 16.0013 142.093 17.0935 140.188 18.9984C138.258 20.9287 137.191 23.494 137.191 26.1862C137.191 29.0309 138.232 31.5962 140.188 33.5519C140.696 34.0599 140.696 34.8472 140.188 35.3552C139.68 35.8632 138.892 35.8632 138.385 35.3552C135.946 32.9169 134.651 29.7421 134.651 26.1862C134.651 22.8082 135.972 19.6079 138.385 17.1951C140.772 14.8076 144.048 13.436 147.401 13.436C150.728 13.436 154.03 14.8076 156.418 17.1951L156.443 17.2205C158.831 19.8111 160.151 22.986 160.151 26.1862C160.151 29.4881 158.831 32.7137 156.443 35.3044C156.418 35.3298 156.392 35.3552 156.367 35.3806C153.878 37.7173 150.703 38.9618 147.401 38.9618Z" fill="black"/>
<path d="M147.401 110.536C144.074 110.536 140.772 109.164 138.385 106.777L138.359 106.751C135.972 104.135 134.651 100.96 134.651 97.7853C134.651 94.4581 136.022 91.1817 138.385 88.7942C138.892 88.2862 139.68 88.2862 140.188 88.7942C140.696 89.3022 140.696 90.0895 140.188 90.5975C138.283 92.5024 137.191 95.1185 137.191 97.7853C137.191 100.325 138.258 102.865 140.213 104.999C142.118 106.904 144.734 107.996 147.401 107.996C150.068 107.996 152.684 106.904 154.589 104.999C156.545 102.865 157.611 100.3 157.611 97.7853C157.611 95.1185 156.519 92.5024 154.614 90.5975L154.589 90.5721C152.811 88.6418 150.271 87.6004 147.426 87.6004C146.715 87.6004 146.157 87.0417 146.157 86.3305C146.157 85.6193 146.715 85.0605 147.426 85.0605C150.982 85.0605 154.183 86.4067 156.443 88.845C158.805 91.2325 160.177 94.4835 160.177 97.8107C160.177 100.986 158.856 104.16 156.468 106.751C156.468 106.777 156.443 106.777 156.443 106.777C154.005 109.164 150.728 110.536 147.401 110.536Z" fill="black"/>
</svg>
