<svg width="14" height="8" viewBox="0 0 14 8" fill="none" xmlns="http://www.w3.org/2000/svg">
<path fill-rule="evenodd" clip-rule="evenodd" d="M7.38054 0.419922C11.2537 0.419922 13.7039 3.89446 13.8058 4.04227C13.8754 4.1426 13.8684 4.27692 13.7902 4.37025C13.6656 4.51751 10.704 7.97209 7.38054 7.97209C4.05705 7.97209 1.09552 4.51751 0.970906 4.37025C0.885674 4.26937 0.885674 4.1221 0.970906 4.02177C1.09552 3.8745 4.05705 0.419922 7.38054 0.419922ZM5.22263 4.19568C5.22263 5.38569 6.19039 6.35344 7.38039 6.35344C8.5704 6.35344 9.53815 5.38569 9.53815 4.19568C9.53815 3.00568 8.5704 2.03792 7.38039 2.03792C6.19039 2.03792 5.22263 3.00568 5.22263 4.19568Z" fill="#757575"/>
</svg>
