<svg width="22" height="14" viewBox="0 0 22 14" fill="none" xmlns="http://www.w3.org/2000/svg">
<path fill-rule="evenodd" clip-rule="evenodd" d="M10.8101 0.556641C17.2779 0.556641 21.3693 6.35871 21.5396 6.60553C21.6558 6.77308 21.644 6.99738 21.5134 7.15322C21.3053 7.39914 16.3599 13.1679 10.8101 13.1679C5.26024 13.1679 0.314831 7.39914 0.106745 7.15322C-0.0355817 6.98477 -0.0355817 6.73885 0.106745 6.5713C0.314831 6.32539 5.26024 0.556641 10.8101 0.556641ZM7.20797 6.86227C7.20797 8.84945 8.82401 10.4655 10.8112 10.4655C12.7984 10.4655 14.4144 8.84945 14.4144 6.86227C14.4144 4.8751 12.7984 3.25906 10.8112 3.25906C8.82401 3.25906 7.20797 4.8751 7.20797 6.86227Z" fill="white"/>
</svg>
