<svg width="91" height="93" viewBox="0 0 91 93" fill="none" xmlns="http://www.w3.org/2000/svg">
<path d="M55.3007 24.3882L53.3171 26.7924C52.9115 27.2841 52.8927 28.1049 53.274 28.627C53.656 29.1491 54.2936 29.1733 54.6993 28.6824L56.6829 26.2783C57.0885 25.7866 57.1073 24.9658 56.726 24.4437C56.3447 23.9215 55.7064 23.8965 55.3007 24.3882Z" fill="#02FFCD"/>
<path d="M81.8151 16.6534C79.2903 16.6524 76.989 17.6736 75.3288 19.3255C73.6665 20.9744 72.6291 23.2764 72.6301 25.8074C72.6301 28.8087 73.5098 31.7435 75.1599 34.252L80.3479 42.1415V78.7647C80.3469 81.6064 79.1943 84.1692 77.3136 86.0408C75.4309 87.9095 72.8384 89.0666 69.9578 89.0676H33.5659C30.6852 89.0666 28.0917 87.9105 26.21 86.0408C24.7864 84.624 23.7823 82.8106 23.3769 80.7805L23.4456 80.7835H39.7478C43.4161 80.7846 46.7528 79.3024 49.1623 76.9052C51.2431 74.8393 52.6415 72.0732 52.9863 68.9963H64.3137C67.0872 68.9953 69.3329 66.7249 69.3339 63.921V5.11049C69.3319 2.30756 67.0862 0.0361785 64.3127 0.0351562H5.02017C2.2477 0.0361785 0.00101111 2.30756 0 5.11049V63.922C0.00101111 66.726 2.24669 68.9963 5.02017 68.9973H10.2082C10.553 72.0732 11.9503 74.8393 14.0322 76.9063C15.742 78.6072 17.923 79.8329 20.3537 80.4094C20.7288 83.4199 22.1079 86.1277 24.1524 88.1568C26.5619 90.554 29.8986 92.0352 33.5669 92.0352H69.9578C73.6261 92.0362 76.9617 90.554 79.3722 88.1568C81.7837 85.7628 83.2852 82.4314 83.2842 78.7647V42.1415L88.4722 34.252C90.1203 31.7445 91 28.8087 91 25.8074C91.001 23.2764 89.9626 20.9744 88.3013 19.3255C86.6411 17.6736 84.3398 16.6524 81.8151 16.6534ZM47.1036 74.7903C45.2209 76.6589 42.6284 77.816 39.7478 77.8171H23.4456C23.3546 77.8171 23.2657 77.8058 23.1747 77.8038V68.9984H50.0176C49.6921 71.2421 48.6496 73.2508 47.1036 74.7903ZM57.8042 34.4299C56.2178 36.0051 54.0328 36.9803 51.6021 36.9813C49.1713 36.9803 46.9873 36.0051 45.3999 34.4299C43.8145 32.8516 42.8448 30.6947 42.8438 28.3006C42.8448 25.9066 43.8155 23.7497 45.3999 22.1714C46.9863 20.5961 49.1713 19.6209 51.6021 19.6199C54.0328 19.6209 56.2168 20.5961 57.8042 22.1714C59.3896 23.7497 60.3593 25.9066 60.3603 28.3006C60.3593 30.6957 59.3886 32.8516 57.8042 34.4299ZM47.0976 39.0513C48.4858 39.6289 50.0085 39.9499 51.6021 39.9499C53.1956 39.9499 54.7163 39.6299 56.1045 39.0524V40.4937C56.1025 41.657 55.1703 42.5995 54.0196 42.6015H51.6071H49.1835C48.0328 42.5995 47.1006 41.657 47.0986 40.4937L47.0976 39.0513ZM2.93526 63.922V5.11049C2.93728 3.9472 3.86952 3.00471 5.02017 3.00267H64.3127C65.4634 3.00471 66.3956 3.9472 66.3976 5.11049V63.922C66.3956 65.0853 65.4634 66.0278 64.3127 66.0298H53.0742V45.569H54.0196C56.7931 45.568 59.0388 43.2976 59.0398 40.4937V37.29C59.3259 37.0549 59.5999 36.8076 59.8618 36.5469C61.9781 34.4462 63.2966 31.5206 63.2956 28.3016C63.2966 25.0827 61.9781 22.1571 59.8618 20.0564C57.7476 17.9527 54.8194 16.6534 51.6021 16.6534C48.3847 16.6524 45.4565 17.9527 43.3423 20.0564C41.226 22.1571 39.9075 25.0827 39.9086 28.3016C39.9075 31.5206 41.226 34.4462 43.3423 36.5469C43.6032 36.8065 43.8772 37.0539 44.1623 37.288V40.4937C44.1633 43.2976 46.409 45.568 49.1825 45.569H50.139V66.0298H5.02017C3.86952 66.0278 2.93728 65.0853 2.93526 63.922ZM13.1748 68.9973H20.2394V77.3111C18.656 76.802 17.2394 75.9311 16.0888 74.7892C14.5438 73.2508 13.5024 71.2421 13.1748 68.9973ZM81.8151 39.0135L77.6038 32.6093C76.2721 30.5843 75.5654 28.2219 75.5654 25.8074C75.5664 24.1013 76.256 22.569 77.3874 21.4415C78.5199 20.3171 80.078 19.6209 81.8151 19.6209C83.5532 19.622 85.1103 20.3181 86.2427 21.4415C87.3742 22.569 88.0637 24.1013 88.0647 25.8074C88.0647 28.2219 87.357 30.5843 86.0263 32.6093L81.8151 39.0135Z" fill="#02FFCD"/>
<path d="M18.4153 47.0352C17.5297 47.0361 16.7015 47.3119 16 47.7786C15.2975 47.3109 14.4666 47.0361 13.5774 47.0352C11.0491 47.0371 9.00182 49.2086 9 51.8882C8.99909 53.056 9.39815 54.1407 10.0523 54.9748L10.0933 55.025C10.1352 55.0722 10.22 55.1763 10.3421 55.3036L10.3411 55.3046L15.0197 60.5926C15.2684 60.8732 15.6201 61.0352 15.9836 61.0352C16.3471 61.0352 16.6997 60.8741 16.9485 60.5945L21.6415 55.3142L21.883 55.0423L21.9395 54.9748C22.5891 54.1465 23.0009 53.0656 23 51.8873C22.9973 49.2038 20.9418 47.038 18.4153 47.0352ZM15.9872 57.5908L12.2718 53.3915L12.1971 53.3134L12.0868 53.1852C11.8062 52.8197 11.6468 52.3839 11.6449 51.8892C11.6458 51.3184 11.86 50.8131 12.2135 50.4361C12.5688 50.0619 13.0435 49.8363 13.5783 49.8353C14.1468 49.8344 14.6616 50.1015 15.0115 50.518C15.262 50.817 15.6237 50.9896 16.0009 50.9896C16.379 50.9896 16.7398 50.8179 16.9904 50.518C17.3393 50.1005 17.8577 49.8344 18.4153 49.8353C18.9492 49.8353 19.4285 50.0629 19.7847 50.438C20.1391 50.815 20.3542 51.3203 20.3551 51.8892C20.3542 52.3713 20.1938 52.8062 19.9123 53.1755L19.7155 53.3963L15.9872 57.5908Z" fill="black"/>
<path d="M27 55.0352H24V61.0352H27V55.0352Z" fill="black"/>
<path d="M32 54.0352H29V61.0352H32V54.0352Z" fill="black"/>
<path d="M37 48.0352H33V61.0352H37V48.0352Z" fill="black"/>
</svg>
