<svg width="104" height="208" viewBox="0 0 104 208" fill="none" xmlns="http://www.w3.org/2000/svg">
<path fill-rule="evenodd" clip-rule="evenodd" d="M70.1015 5.06844C70.1015 7.50604 68.1254 9.4821 65.6878 9.4821C63.2502 9.4821 61.2742 7.50604 61.2742 5.06844C61.2742 2.63085 63.2502 0.654785 65.6878 0.654785C68.1254 0.654785 70.1015 2.63085 70.1015 5.06844ZM60.5396 29.3921C60.5396 33.5371 57.1795 36.8973 53.0345 36.8973C48.8895 36.8973 45.5293 33.5371 45.5293 29.3921C45.5293 25.2472 48.8895 21.887 53.0345 21.887C57.1795 21.887 60.5396 25.2472 60.5396 29.3921ZM33.957 207.962C36.3946 207.962 38.3706 205.986 38.3706 203.548C38.3706 201.111 36.3946 199.134 33.957 199.134C31.5194 199.134 29.5433 201.111 29.5433 203.548C29.5433 205.986 31.5194 207.962 33.957 207.962ZM53.4568 179.264C53.4568 183.409 50.0966 186.769 45.9516 186.769C41.8066 186.769 38.4464 183.409 38.4464 179.264C38.4464 175.119 41.8066 171.758 45.9516 171.758C50.0966 171.758 53.4568 175.119 53.4568 179.264ZM31.4868 51.0127H67.8048V47.05H41.2107L36.2998 44.216C35.0435 43.4511 31.9931 42.1113 30.3798 42.1113C25.9647 42.1113 22.3855 45.438 22.3855 49.5387C22.3855 53.6439 25.9647 56.9661 30.3753 56.9661C31.9931 56.9661 35.0435 55.6218 36.2998 54.8569L38.598 53.5318L31.4868 51.0127ZM72.5123 73.9918H34.1041L27.4702 70.1596C25.9753 69.2485 22.3456 67.6527 20.4259 67.6527C15.1722 67.6527 10.9134 71.6152 10.9134 76.4995C10.9134 81.3892 15.1722 85.3462 20.4205 85.3462C22.3456 85.3462 25.9753 83.7451 27.4702 82.834L32.3546 80.0148L23.3183 77.6458H72.3935V78.9693H72.4475L74.374 80.0791C75.2207 80.5937 77.2765 81.4951 78.3638 81.4951C81.3394 81.4951 83.7515 79.257 83.7515 76.4981C83.7515 73.7363 81.3394 71.5012 78.3669 71.5012C77.2765 71.5012 75.2207 72.4056 74.374 72.9202L72.5123 73.9918ZM91.9961 115.369C98.1599 115.369 103.157 110.372 103.157 104.208C103.157 98.0443 98.1599 93.0475 91.9961 93.0475C87.0689 93.0475 82.8875 96.2404 81.408 100.67L89.7387 102.11H15.3092V101.717H15.2776C14.2508 98.796 11.4675 96.7016 8.1951 96.7016C4.05012 96.7016 0.689941 100.062 0.689941 104.207C0.689941 108.352 4.05012 111.712 8.1951 111.712C11.3403 111.712 14.0337 109.777 15.15 107.033L10.994 106.27H81.107V106.695H81.1136C82.2439 111.662 86.6871 115.369 91.9961 115.369ZM54.3359 154.127L59.8693 156.087H26.2717V159.278H54.0315L58.9419 162.112C60.1982 162.877 63.2486 164.217 64.8619 164.217C69.277 164.217 72.8561 160.89 72.8561 156.789C72.8561 152.684 69.277 149.362 64.8664 149.362C63.2486 149.362 60.1982 150.706 58.9419 151.471L54.3359 154.127ZM65.606 134.266H22.3814V134.128L20.279 135.338C19.4323 135.852 17.3765 136.757 16.2862 136.757C13.3136 136.757 10.9015 134.522 10.9015 131.76C10.9015 129.001 13.3136 126.763 16.2892 126.763C17.3765 126.763 19.4323 127.664 20.279 128.179L22.3046 129.346V130.07H75.774L67.5987 128.102L72.2395 125.424C73.7344 124.513 77.3641 122.912 79.2892 122.912C84.5375 122.912 88.7963 126.869 88.7963 131.758C88.7963 136.643 84.5375 140.605 79.2838 140.605C77.3641 140.605 73.7344 139.009 72.2395 138.098L65.606 134.266Z" fill="black"/>
<path fill-rule="evenodd" clip-rule="evenodd" d="M70.1015 5.06844C70.1015 7.50604 68.1254 9.4821 65.6878 9.4821C63.2502 9.4821 61.2742 7.50604 61.2742 5.06844C61.2742 2.63085 63.2502 0.654785 65.6878 0.654785C68.1254 0.654785 70.1015 2.63085 70.1015 5.06844ZM60.5396 29.3921C60.5396 33.5371 57.1795 36.8973 53.0345 36.8973C48.8895 36.8973 45.5293 33.5371 45.5293 29.3921C45.5293 25.2472 48.8895 21.887 53.0345 21.887C57.1795 21.887 60.5396 25.2472 60.5396 29.3921ZM33.957 207.962C36.3946 207.962 38.3706 205.986 38.3706 203.548C38.3706 201.111 36.3946 199.134 33.957 199.134C31.5194 199.134 29.5433 201.111 29.5433 203.548C29.5433 205.986 31.5194 207.962 33.957 207.962ZM53.4568 179.264C53.4568 183.409 50.0966 186.769 45.9516 186.769C41.8066 186.769 38.4464 183.409 38.4464 179.264C38.4464 175.119 41.8066 171.758 45.9516 171.758C50.0966 171.758 53.4568 175.119 53.4568 179.264ZM31.4868 51.0127H67.8048V47.05H41.2107L36.2998 44.216C35.0435 43.4511 31.9931 42.1113 30.3798 42.1113C25.9647 42.1113 22.3855 45.438 22.3855 49.5387C22.3855 53.6439 25.9647 56.9661 30.3753 56.9661C31.9931 56.9661 35.0435 55.6218 36.2998 54.8569L38.598 53.5318L31.4868 51.0127ZM72.5123 73.9918H34.1041L27.4702 70.1596C25.9753 69.2485 22.3456 67.6527 20.4259 67.6527C15.1722 67.6527 10.9134 71.6152 10.9134 76.4995C10.9134 81.3892 15.1722 85.3462 20.4205 85.3462C22.3456 85.3462 25.9753 83.7451 27.4702 82.834L32.3546 80.0148L23.3183 77.6458H72.3935V78.9693H72.4475L74.374 80.0791C75.2207 80.5937 77.2765 81.4951 78.3638 81.4951C81.3394 81.4951 83.7515 79.257 83.7515 76.4981C83.7515 73.7363 81.3394 71.5012 78.3669 71.5012C77.2765 71.5012 75.2207 72.4056 74.374 72.9202L72.5123 73.9918ZM91.9961 115.369C98.1599 115.369 103.157 110.372 103.157 104.208C103.157 98.0443 98.1599 93.0475 91.9961 93.0475C87.0689 93.0475 82.8875 96.2404 81.408 100.67L89.7387 102.11H15.3092V101.717H15.2776C14.2508 98.796 11.4675 96.7016 8.1951 96.7016C4.05012 96.7016 0.689941 100.062 0.689941 104.207C0.689941 108.352 4.05012 111.712 8.1951 111.712C11.3403 111.712 14.0337 109.777 15.15 107.033L10.994 106.27H81.107V106.695H81.1136C82.2439 111.662 86.6871 115.369 91.9961 115.369ZM54.3359 154.127L59.8693 156.087H26.2717V159.278H54.0315L58.9419 162.112C60.1982 162.877 63.2486 164.217 64.8619 164.217C69.277 164.217 72.8561 160.89 72.8561 156.789C72.8561 152.684 69.277 149.362 64.8664 149.362C63.2486 149.362 60.1982 150.706 58.9419 151.471L54.3359 154.127ZM65.606 134.266H22.3814V134.128L20.279 135.338C19.4323 135.852 17.3765 136.757 16.2862 136.757C13.3136 136.757 10.9015 134.522 10.9015 131.76C10.9015 129.001 13.3136 126.763 16.2892 126.763C17.3765 126.763 19.4323 127.664 20.279 128.179L22.3046 129.346V130.07H75.774L67.5987 128.102L72.2395 125.424C73.7344 124.513 77.3641 122.912 79.2892 122.912C84.5375 122.912 88.7963 126.869 88.7963 131.758C88.7963 136.643 84.5375 140.605 79.2838 140.605C77.3641 140.605 73.7344 139.009 72.2395 138.098L65.606 134.266Z" fill="black"/>
<path fill-rule="evenodd" clip-rule="evenodd" d="M70.1015 5.06844C70.1015 7.50604 68.1254 9.4821 65.6878 9.4821C63.2502 9.4821 61.2742 7.50604 61.2742 5.06844C61.2742 2.63085 63.2502 0.654785 65.6878 0.654785C68.1254 0.654785 70.1015 2.63085 70.1015 5.06844ZM60.5396 29.3921C60.5396 33.5371 57.1795 36.8973 53.0345 36.8973C48.8895 36.8973 45.5293 33.5371 45.5293 29.3921C45.5293 25.2472 48.8895 21.887 53.0345 21.887C57.1795 21.887 60.5396 25.2472 60.5396 29.3921ZM33.957 207.962C36.3946 207.962 38.3706 205.986 38.3706 203.548C38.3706 201.111 36.3946 199.134 33.957 199.134C31.5194 199.134 29.5433 201.111 29.5433 203.548C29.5433 205.986 31.5194 207.962 33.957 207.962ZM53.4568 179.264C53.4568 183.409 50.0966 186.769 45.9516 186.769C41.8066 186.769 38.4464 183.409 38.4464 179.264C38.4464 175.119 41.8066 171.758 45.9516 171.758C50.0966 171.758 53.4568 175.119 53.4568 179.264ZM31.4868 51.0127H67.8048V47.05H41.2107L36.2998 44.216C35.0435 43.4511 31.9931 42.1113 30.3798 42.1113C25.9647 42.1113 22.3855 45.438 22.3855 49.5387C22.3855 53.6439 25.9647 56.9661 30.3753 56.9661C31.9931 56.9661 35.0435 55.6218 36.2998 54.8569L38.598 53.5318L31.4868 51.0127ZM72.5123 73.9918H34.1041L27.4702 70.1596C25.9753 69.2485 22.3456 67.6527 20.4259 67.6527C15.1722 67.6527 10.9134 71.6152 10.9134 76.4995C10.9134 81.3892 15.1722 85.3462 20.4205 85.3462C22.3456 85.3462 25.9753 83.7451 27.4702 82.834L32.3546 80.0148L23.3183 77.6458H72.3935V78.9693H72.4475L74.374 80.0791C75.2207 80.5937 77.2765 81.4951 78.3638 81.4951C81.3394 81.4951 83.7515 79.257 83.7515 76.4981C83.7515 73.7363 81.3394 71.5012 78.3669 71.5012C77.2765 71.5012 75.2207 72.4056 74.374 72.9202L72.5123 73.9918ZM91.9961 115.369C98.1599 115.369 103.157 110.372 103.157 104.208C103.157 98.0443 98.1599 93.0475 91.9961 93.0475C87.0689 93.0475 82.8875 96.2404 81.408 100.67L89.7387 102.11H15.3092V101.717H15.2776C14.2508 98.796 11.4675 96.7016 8.1951 96.7016C4.05012 96.7016 0.689941 100.062 0.689941 104.207C0.689941 108.352 4.05012 111.712 8.1951 111.712C11.3403 111.712 14.0337 109.777 15.15 107.033L10.994 106.27H81.107V106.695H81.1136C82.2439 111.662 86.6871 115.369 91.9961 115.369ZM54.3359 154.127L59.8693 156.087H26.2717V159.278H54.0315L58.9419 162.112C60.1982 162.877 63.2486 164.217 64.8619 164.217C69.277 164.217 72.8561 160.89 72.8561 156.789C72.8561 152.684 69.277 149.362 64.8664 149.362C63.2486 149.362 60.1982 150.706 58.9419 151.471L54.3359 154.127ZM65.606 134.266H22.3814V134.128L20.279 135.338C19.4323 135.852 17.3765 136.757 16.2862 136.757C13.3136 136.757 10.9015 134.522 10.9015 131.76C10.9015 129.001 13.3136 126.763 16.2892 126.763C17.3765 126.763 19.4323 127.664 20.279 128.179L22.3046 129.346V130.07H75.774L67.5987 128.102L72.2395 125.424C73.7344 124.513 77.3641 122.912 79.2892 122.912C84.5375 122.912 88.7963 126.869 88.7963 131.758C88.7963 136.643 84.5375 140.605 79.2838 140.605C77.3641 140.605 73.7344 139.009 72.2395 138.098L65.606 134.266Z" fill="black"/>
</svg>
