<svg width="466" height="90" viewBox="0 0 466 90" fill="none" xmlns="http://www.w3.org/2000/svg">
<path fill-rule="evenodd" clip-rule="evenodd" d="M457.052 50.0973L465.606 59.1714C466.131 59.7283 466.131 60.6311 465.606 61.1879L457.052 70.2621C456.527 70.8189 455.676 70.8189 455.151 70.2621C454.626 69.7052 454.626 68.8024 455.151 68.2456L461.411 61.6056H334V58.7538H461.411L455.151 52.1138C454.626 51.557 454.626 50.6541 455.151 50.0973C455.676 49.5405 456.527 49.5405 457.052 50.0973Z" fill="#02FFCD"/>
<path fill-rule="evenodd" clip-rule="evenodd" d="M7.97894 67.0669L0.382002 58.5483C-0.0841929 58.0255 -0.0868079 57.1757 0.376161 56.6501L7.92054 48.0848C8.38349 47.5592 9.13671 47.5569 9.6029 48.0796C10.0691 48.6024 10.0717 49.4522 9.60874 49.9778L4.08811 56.2455L132.074 55.8517L132.082 58.5362L4.09637 58.93L9.65547 65.1635C10.1217 65.6863 10.1243 66.5361 9.66131 67.0617C9.19835 67.5874 8.44512 67.5897 7.97894 67.0669Z" fill="#02FFCD"/>
<path d="M251.458 55.6797C251.458 57.962 251.458 60.2209 251.458 62.5503C251.149 62.5503 250.866 62.5503 250.583 62.5503C245.978 62.5503 241.373 62.5738 236.768 62.5267C236.099 62.5267 235.945 62.715 235.97 63.2797C236.022 65.162 236.047 67.0444 236.047 68.9267C236.047 69.4209 236.202 69.562 236.742 69.562C240.035 69.562 243.354 69.6091 246.647 69.6326C246.93 69.6326 247.187 69.6326 247.496 69.6326C247.496 71.962 247.496 74.1973 247.496 76.5267C247.264 76.5503 247.007 76.5503 246.75 76.5503C243.38 76.5503 240.009 76.5503 236.665 76.5503C236.15 76.5503 235.945 76.6444 235.97 77.162C235.996 79.115 235.97 81.0679 235.996 83.0444C235.996 83.2091 236.022 83.3973 236.022 83.6326C241.167 83.6326 246.287 83.6326 251.458 83.6326C251.458 85.6797 251.458 87.6562 251.458 89.6797C243.791 89.6797 236.15 89.6797 228.458 89.6797C228.458 78.3385 228.458 67.0444 228.458 55.6797C236.099 55.6797 243.74 55.6797 251.458 55.6797Z" fill="black"/>
<path d="M208.458 7.9633C208.458 5.53171 208.458 3.12519 208.458 0.693594C231.265 0.0919635 251.998 19.0935 251.447 41.6797C248.928 41.6797 246.408 41.6797 243.862 41.6797C243.6 32.4547 240.267 24.458 233.391 17.9153C226.515 11.3475 218.142 8.23905 208.458 7.9633Z" fill="#02FFCD"/>
<path d="M205.395 62.5969C203.067 62.5969 200.81 62.5969 198.505 62.5969C198.482 62.3624 198.458 62.2218 198.458 62.0811C198.458 60.1349 198.458 58.1887 198.458 56.219C198.458 55.8204 198.576 55.6797 198.999 55.6797C205.63 55.6797 212.286 55.6797 218.917 55.6797C219.223 55.6797 219.458 55.6797 219.458 56.1018C219.434 58.1418 219.458 60.2052 219.458 62.2452C219.458 62.339 219.411 62.4328 219.387 62.5969C219.176 62.5969 218.964 62.5969 218.753 62.5969C216.895 62.5969 215.037 62.5969 213.179 62.5969C212.38 62.5969 212.38 62.5969 212.38 63.3707C212.38 71.859 212.38 80.3473 212.38 88.8121C212.38 89.07 212.38 89.3045 212.38 89.6562C212.121 89.6562 211.909 89.6562 211.698 89.6562C209.84 89.6562 207.982 89.6328 206.124 89.6797C205.583 89.6797 205.442 89.539 205.442 88.9997C205.466 80.488 205.442 71.9528 205.442 63.4411C205.395 63.1597 205.395 62.9252 205.395 62.5969Z" fill="black"/>
<path d="M183.725 83.6326C188.661 83.6326 193.522 83.6326 198.458 83.6326C198.458 85.6797 198.458 87.6562 198.458 89.6797C191.141 89.6797 183.824 89.6797 176.458 89.6797C176.458 78.3385 176.458 67.0444 176.458 55.6797C178.864 55.6797 181.27 55.6797 183.725 55.6797C183.725 64.9973 183.725 74.2915 183.725 83.6326Z" fill="black"/>
<path d="M232.458 41.5915C232.274 41.6135 232.182 41.6576 232.067 41.6576C230.09 41.6576 228.113 41.6576 226.159 41.6797C225.699 41.6797 225.676 41.4151 225.653 41.1284C225.492 39.3201 225.217 37.556 224.504 35.8801C221.929 29.7938 217.194 26.3096 210.458 25.3173C209.814 25.2291 209.171 25.185 208.458 25.1409C208.458 23.0239 208.458 20.8849 208.458 18.6797C214.849 18.7679 220.389 20.8849 225.01 25.1188C229.906 29.5512 232.251 35.1303 232.458 41.5915Z" fill="#02FFCD"/>
<path d="M218.458 41.6797C215.132 41.6797 211.806 41.6797 208.458 41.6797C208.458 39.0074 208.458 36.335 208.458 33.6808C213.627 33.6085 218.458 37.1476 218.458 41.6797Z" fill="#02FFCD"/>
</svg>
