<svg width="132" height="163" viewBox="0 0 132 163" fill="none" xmlns="http://www.w3.org/2000/svg">
<path d="M41.134 140.062L41.1447 140.07L41.1559 140.078C54.8142 149.92 62.9328 153.934 77.5162 160.469C77.5216 160.473 77.5277 160.478 77.5345 160.484C77.5671 160.51 77.6083 160.548 77.6456 160.594C77.7252 160.691 77.7444 160.766 77.7324 160.829C77.7188 160.9 77.6365 161.111 77.1553 161.412C76.6796 161.708 75.879 162.049 74.5751 162.4C74.3693 162.456 73.917 162.445 73.1634 162.287C72.4372 162.136 71.5066 161.866 70.3951 161.481C68.1739 160.712 65.2691 159.495 61.9036 157.887C55.1742 154.673 46.6324 149.912 38.0799 144.089C29.5258 138.266 20.9753 131.389 14.2178 123.947C7.45618 116.5 2.52618 108.526 1.141 100.507C-3.27791 71.1893 15.8676 52.6089 36.5976 50.7995C46.996 49.8919 56.9622 52.6223 63.8996 56.7229C67.3695 58.774 70.0552 61.1521 71.6645 63.5608C73.2727 65.9679 73.7776 68.3547 73.0104 70.4907C72.2019 72.7417 71.0254 74.2294 69.7135 75.175C68.3995 76.122 66.9209 76.5458 65.4785 76.6213C64.033 76.6969 62.6337 76.4219 61.5001 75.982C60.348 75.5349 59.5405 74.9459 59.206 74.4513C58.9541 74.079 58.3913 73.5214 57.6129 72.88C56.8205 72.227 55.7675 71.457 54.4993 70.6611C51.9639 69.07 48.5513 67.3653 44.619 66.2888C36.7377 64.1314 26.7575 64.5016 17.6382 73.353L17.627 73.3639L17.6164 73.3755C13.6367 77.7544 11.041 81.881 9.99588 86.807C8.95226 91.726 9.46799 97.3805 11.5893 104.794L11.598 104.825L11.6105 104.854C15.4806 113.868 19.4175 119.895 24.1238 125.066C28.4862 129.858 33.5037 133.906 39.6953 138.9C40.1679 139.282 40.6474 139.669 41.134 140.062Z" stroke="black"/>
<mask id="path-2-inside-1" fill="white">
<path fill-rule="evenodd" clip-rule="evenodd" d="M17.9864 73.7118C35.9154 56.3095 57.1238 72.2656 58.7918 74.7314C60.4598 77.1972 70.1282 79.994 73.4809 70.6598C76.8336 61.3255 57.5654 48.4675 36.5541 50.3014C15.5428 52.1354 -3.8187 70.9737 0.647384 100.586C6.27556 133.208 69.4029 164.31 74.705 162.883C80.0071 161.456 77.7653 160.033 77.7653 160.033C63.1705 153.494 55.0827 149.497 41.4482 139.673C40.9644 139.282 40.4878 138.897 40.0181 138.518C27.1459 128.134 19.5017 121.967 12.07 104.656C7.84968 89.9072 10.0915 82.3987 17.9864 73.7118ZM77.563 160.389C77.571 160.394 77.581 160.402 77.5924 160.412C77.6284 160.441 77.6743 160.483 77.7165 160.535C77.8049 160.643 77.842 160.745 77.8226 160.846C77.8021 160.954 77.6947 161.184 77.2037 161.49C76.717 161.794 75.9066 162.138 74.5988 162.49C74.3701 162.551 73.8987 162.535 73.1448 162.378C72.4134 162.226 71.4787 161.955 70.3652 161.569C68.1398 160.798 65.2317 159.58 61.8643 157.971C55.1307 154.755 46.5849 149.992 38.0284 144.166C29.4707 138.34 20.914 131.459 14.15 124.01C7.3827 116.557 2.43949 108.567 1.05023 100.522C-3.37758 71.1485 15.8087 52.5209 36.5897 50.707C47.0076 49.7977 56.9927 52.5327 63.9461 56.6428C67.4237 58.6984 70.1215 61.0852 71.7408 63.5088C73.3592 65.9312 73.8773 68.3494 73.0968 70.5224C72.2828 72.7888 71.0958 74.2927 69.767 75.2505C68.4364 76.2095 66.9402 76.6377 65.4832 76.714C64.0238 76.7904 62.6116 76.5128 61.4671 76.0686C60.3076 75.6186 59.4799 75.0208 59.13 74.5036C58.8862 74.1432 58.3324 73.5928 57.5547 72.9519C56.7656 72.3016 55.7159 71.5339 54.4508 70.74C51.9213 69.1526 48.517 67.452 44.5949 66.3784C36.7372 64.2274 26.7928 64.5961 17.7019 73.4199L17.6928 73.4288L17.6842 73.4382C13.7104 77.8106 11.1262 81.9228 10.0858 86.8264C9.04666 91.7243 9.55843 97.362 11.6776 104.768L11.6847 104.793L11.6949 104.817C15.5615 113.823 19.4931 119.841 24.1916 125.003C28.5489 129.79 33.5609 133.833 39.7543 138.829C40.2264 139.21 40.7054 139.597 41.1915 139.989L41.2002 139.996L41.2093 140.003C54.8637 149.842 62.9767 153.853 77.563 160.389Z"/>
</mask>
<path fill-rule="evenodd" clip-rule="evenodd" d="M17.9864 73.7118C35.9154 56.3095 57.1238 72.2656 58.7918 74.7314C60.4598 77.1972 70.1282 79.994 73.4809 70.6598C76.8336 61.3255 57.5654 48.4675 36.5541 50.3014C15.5428 52.1354 -3.8187 70.9737 0.647384 100.586C6.27556 133.208 69.4029 164.31 74.705 162.883C80.0071 161.456 77.7653 160.033 77.7653 160.033C63.1705 153.494 55.0827 149.497 41.4482 139.673C40.9644 139.282 40.4878 138.897 40.0181 138.518C27.1459 128.134 19.5017 121.967 12.07 104.656C7.84968 89.9072 10.0915 82.3987 17.9864 73.7118ZM77.563 160.389C77.571 160.394 77.581 160.402 77.5924 160.412C77.6284 160.441 77.6743 160.483 77.7165 160.535C77.8049 160.643 77.842 160.745 77.8226 160.846C77.8021 160.954 77.6947 161.184 77.2037 161.49C76.717 161.794 75.9066 162.138 74.5988 162.49C74.3701 162.551 73.8987 162.535 73.1448 162.378C72.4134 162.226 71.4787 161.955 70.3652 161.569C68.1398 160.798 65.2317 159.58 61.8643 157.971C55.1307 154.755 46.5849 149.992 38.0284 144.166C29.4707 138.34 20.914 131.459 14.15 124.01C7.3827 116.557 2.43949 108.567 1.05023 100.522C-3.37758 71.1485 15.8087 52.5209 36.5897 50.707C47.0076 49.7977 56.9927 52.5327 63.9461 56.6428C67.4237 58.6984 70.1215 61.0852 71.7408 63.5088C73.3592 65.9312 73.8773 68.3494 73.0968 70.5224C72.2828 72.7888 71.0958 74.2927 69.767 75.2505C68.4364 76.2095 66.9402 76.6377 65.4832 76.714C64.0238 76.7904 62.6116 76.5128 61.4671 76.0686C60.3076 75.6186 59.4799 75.0208 59.13 74.5036C58.8862 74.1432 58.3324 73.5928 57.5547 72.9519C56.7656 72.3016 55.7159 71.5339 54.4508 70.74C51.9213 69.1526 48.517 67.452 44.5949 66.3784C36.7372 64.2274 26.7928 64.5961 17.7019 73.4199L17.6928 73.4288L17.6842 73.4382C13.7104 77.8106 11.1262 81.9228 10.0858 86.8264C9.04666 91.7243 9.55843 97.362 11.6776 104.768L11.6847 104.793L11.6949 104.817C15.5615 113.823 19.4931 119.841 24.1916 125.003C28.5489 129.79 33.5609 133.833 39.7543 138.829C40.2264 139.21 40.7054 139.597 41.1915 139.989L41.2002 139.996L41.2093 140.003C54.8637 149.842 62.9767 153.853 77.563 160.389Z" fill="#02FFCD"/>
<path d="M17.9864 73.7118L17.2899 72.9942L17.2675 73.016L17.2464 73.0392L17.9864 73.7118ZM73.4809 70.6598L74.4221 70.9978L73.4809 70.6598ZM0.647384 100.586L-0.341434 100.736L-0.339856 100.746L-0.338057 100.757L0.647384 100.586ZM77.7653 160.033L78.3012 159.189L78.2402 159.15L78.1741 159.12L77.7653 160.033ZM41.4482 139.673L40.8198 140.451L40.8412 140.468L40.8636 140.484L41.4482 139.673ZM40.0181 138.518L40.646 137.74L40.646 137.74L40.0181 138.518ZM12.07 104.656L11.1086 104.932L11.126 104.993L11.1511 105.051L12.07 104.656ZM77.563 160.389L78.1604 159.587L78.0722 159.521L77.9719 159.476L77.563 160.389ZM77.5924 160.412L76.9588 161.185L76.959 161.185L77.5924 160.412ZM77.7165 160.535L76.9423 161.168L76.9424 161.168L77.7165 160.535ZM77.8226 160.846L76.8405 160.658L76.8405 160.658L77.8226 160.846ZM77.2037 161.49L76.6743 160.642L77.2037 161.49ZM74.5988 162.49L74.3389 161.524L74.3389 161.524L74.5988 162.49ZM73.1448 162.378L72.9407 163.357H72.9408L73.1448 162.378ZM70.3652 161.569L70.6926 160.624L70.6926 160.624L70.3652 161.569ZM61.8643 157.971L61.4333 158.874H61.4333L61.8643 157.971ZM38.0284 144.166L38.5912 143.34V143.34L38.0284 144.166ZM14.15 124.01L14.8904 123.337L14.15 124.01ZM1.05023 100.522L0.0613985 100.671L0.0629921 100.681L0.0648114 100.692L1.05023 100.522ZM36.5897 50.707L36.6766 51.7032L36.5897 50.707ZM63.9461 56.6428L63.4372 57.5037L63.9461 56.6428ZM71.7408 63.5088L70.9093 64.0644L71.7408 63.5088ZM73.0968 70.5224L72.1557 70.1843L73.0968 70.5224ZM69.767 75.2505L70.3517 76.0618V76.0618L69.767 75.2505ZM65.4832 76.714L65.431 75.7153L65.4832 76.714ZM61.4671 76.0686L61.8289 75.1364L61.4671 76.0686ZM59.13 74.5036L59.9583 73.9433L59.9583 73.9433L59.13 74.5036ZM57.5547 72.9519L56.9188 73.7237V73.7237L57.5547 72.9519ZM54.4508 70.74L53.9192 71.587V71.587L54.4508 70.74ZM44.5949 66.3784L44.3309 67.3429L44.5949 66.3784ZM17.7019 73.4199L18.3984 74.1375L18.3984 74.1375L17.7019 73.4199ZM17.6928 73.4288L16.9963 72.7112L16.9738 72.733L16.9527 72.7562L17.6928 73.4288ZM17.6842 73.4382L16.9442 72.7656L16.9442 72.7657L17.6842 73.4382ZM10.0858 86.8264L11.064 87.0339L10.0858 86.8264ZM11.6776 104.768L10.7162 105.043L10.7162 105.043L11.6776 104.768ZM11.6847 104.793L10.7233 105.068L10.7408 105.129L10.7658 105.188L11.6847 104.793ZM11.6949 104.817L12.6138 104.422L12.6138 104.422L11.6949 104.817ZM24.1916 125.003L23.4521 125.676L24.1916 125.003ZM39.7543 138.829L39.1265 139.608H39.1265L39.7543 138.829ZM41.1915 139.989L40.563 140.767L40.5633 140.767L41.1915 139.989ZM41.2002 139.996L40.5721 140.774L40.5933 140.792L40.6155 140.807L41.2002 139.996ZM41.2093 140.003L40.6246 140.814L40.6247 140.814L41.2093 140.003ZM18.6829 74.4293C27.3378 66.0287 36.7304 65.6845 44.223 67.7356C47.9859 68.7656 51.264 70.4017 53.702 71.9317C54.9201 72.6961 55.9201 73.4288 56.659 74.0376C57.4259 74.6697 57.8417 75.1116 57.9635 75.2917L59.6201 74.1711C59.3249 73.7348 58.713 73.1387 57.9309 72.4942C57.1206 71.8264 56.05 71.044 54.7651 70.2376C52.1972 68.6261 48.7398 66.8985 44.751 65.8065C36.7402 63.6136 26.5641 63.9925 17.2899 72.9942L18.6829 74.4293ZM57.9635 75.2917C58.5453 76.1518 59.6814 76.8852 60.9574 77.3804C62.2702 77.8898 63.8807 78.2069 65.5569 78.1192C67.2391 78.0312 69.0068 77.5333 70.5906 76.3918C72.1787 75.2472 73.5245 73.4965 74.4221 70.9978L72.5398 70.3217C71.7609 72.4901 70.641 73.8901 69.4212 74.7693C68.1971 75.6516 66.8148 76.0506 65.4523 76.122C64.0838 76.1936 62.7549 75.9326 61.681 75.5158C60.5702 75.0848 59.8723 74.5439 59.6201 74.1711L57.9635 75.2917ZM74.4221 70.9978C75.4021 68.2691 74.6849 65.3815 72.9117 62.7275C71.1406 60.0765 68.2596 57.5577 64.6629 55.4317C57.4647 51.1769 47.1873 48.3695 36.4672 49.3052L36.6411 51.2976C46.9323 50.3994 56.7946 53.1041 63.6452 57.1534C67.0728 59.1794 69.6935 61.5106 71.2488 63.8385C72.802 66.1633 73.2361 68.3832 72.5398 70.3217L74.4221 70.9978ZM36.4672 49.3052C14.8956 51.188 -4.8957 70.5381 -0.341434 100.736L1.6362 100.437C-2.74169 71.4094 16.19 53.0827 36.6411 51.2976L36.4672 49.3052ZM-0.338057 100.757C1.11518 109.18 6.25607 117.41 13.1073 124.955C19.9698 132.513 28.6216 139.465 37.2357 145.329C45.8528 151.196 54.4609 155.995 61.2571 159.241C64.6537 160.863 67.6128 162.105 69.9041 162.899C71.0479 163.295 72.0448 163.586 72.8573 163.756C73.615 163.914 74.3823 164.005 74.9649 163.849L74.4452 161.917C74.4458 161.917 74.4391 161.919 74.4233 161.921C74.4077 161.924 74.3854 161.926 74.3557 161.928C74.2952 161.931 74.2134 161.931 74.1073 161.925C73.8935 161.911 73.6142 161.871 73.2655 161.798C72.568 161.653 71.6595 161.39 70.5588 161.009C68.3609 160.247 65.4743 159.039 62.1191 157.436C55.4119 154.232 46.8922 149.484 38.3612 143.676C29.8272 137.866 21.3105 131.015 14.588 123.611C7.85427 116.195 2.99368 108.304 1.63282 100.416L-0.338057 100.757ZM74.9649 163.849C76.3336 163.48 77.2945 163.093 77.9494 162.684C78.5934 162.282 79.0792 161.771 79.2056 161.111C79.335 160.435 79.0298 159.917 78.8069 159.645C78.6905 159.502 78.5723 159.395 78.4847 159.323C78.4399 159.286 78.4004 159.257 78.3693 159.235C78.3537 159.224 78.34 159.214 78.3286 159.206C78.3229 159.203 78.3177 159.199 78.3131 159.196C78.3109 159.195 78.3087 159.193 78.3067 159.192C78.3057 159.191 78.3048 159.191 78.3039 159.19C78.3034 159.19 78.3028 159.19 78.3025 159.189C78.3019 159.189 78.3012 159.189 77.7653 160.033C77.2293 160.877 77.2286 160.877 77.228 160.876C77.2278 160.876 77.2272 160.876 77.2268 160.875C77.2261 160.875 77.2253 160.875 77.2246 160.874C77.2231 160.873 77.2218 160.872 77.2206 160.871C77.2181 160.87 77.2161 160.869 77.2145 160.867C77.2112 160.865 77.2095 160.864 77.209 160.864C77.2082 160.863 77.2116 160.866 77.2178 160.871C77.2321 160.882 77.2476 160.897 77.2585 160.91C77.2903 160.949 77.2142 160.876 77.2413 160.735C77.2653 160.609 77.3175 160.721 76.8907 160.987C76.4746 161.247 75.7275 161.572 74.4452 161.917L74.9649 163.849ZM78.1741 159.12C63.6127 152.596 55.5917 148.631 42.0328 138.861L40.8636 140.484C54.5737 150.363 62.7282 154.391 77.3564 160.945L78.1741 159.12ZM42.0766 138.895C41.5925 138.504 41.1156 138.119 40.646 137.74L39.3902 139.297C39.8599 139.676 40.3363 140.06 40.8198 140.451L42.0766 138.895ZM40.646 137.74C34.1958 132.536 29.1352 128.451 24.7512 123.52C20.3842 118.609 16.6693 112.835 12.9889 104.262L11.1511 105.051C14.9024 113.789 18.7255 119.753 23.2566 124.849C27.7706 129.926 32.9682 134.116 39.3902 139.297L40.646 137.74ZM13.0314 104.381C10.9435 97.0845 10.4911 91.7002 11.4632 87.1183C12.4324 82.5502 14.8435 78.6568 18.7265 74.3843L17.2464 73.0392C13.2344 77.4536 10.5772 81.6579 9.50677 86.7032C8.43931 91.7345 8.97616 97.4791 11.1086 104.932L13.0314 104.381ZM76.9656 161.19C76.962 161.188 76.9599 161.186 76.9588 161.185L78.226 159.638C78.2021 159.618 78.18 159.601 78.1604 159.587L76.9656 161.19ZM76.959 161.185C76.9573 161.184 76.956 161.183 76.9544 161.181C76.9529 161.18 76.9486 161.176 76.9423 161.168L78.4908 159.902C78.3958 159.786 78.2985 159.697 78.2258 159.638L76.959 161.185ZM76.9424 161.168C76.935 161.159 76.8959 161.11 76.865 161.02C76.831 160.922 76.8143 160.795 76.8405 160.658L78.8048 161.034C78.9013 160.531 78.6803 160.134 78.4907 159.902L76.9424 161.168ZM76.8405 160.658C76.867 160.52 76.9219 160.453 76.9204 160.455C76.9154 160.461 76.8559 160.529 76.6743 160.642L77.733 162.339C78.3347 161.963 78.7094 161.533 78.8048 161.034L76.8405 160.658ZM76.6743 160.642C76.3071 160.871 75.6036 161.184 74.3389 161.524L74.8586 163.456C76.2096 163.092 77.1269 162.717 77.733 162.339L76.6743 160.642ZM74.3389 161.524C74.3815 161.513 74.3348 161.532 74.1348 161.518C73.9532 161.506 73.6948 161.471 73.3489 161.399L72.9408 163.357C73.3487 163.442 73.7029 163.494 74.0027 163.514C74.284 163.533 74.5874 163.529 74.8587 163.455L74.3389 161.524ZM73.3489 161.399C72.675 161.259 71.7845 161.003 70.6926 160.624L70.0379 162.514C71.1729 162.907 72.1517 163.193 72.9407 163.357L73.3489 161.399ZM70.6926 160.624C68.5138 159.869 65.642 158.667 62.2953 157.069L61.4333 158.874C64.8214 160.492 67.7657 161.727 70.0379 162.514L70.6926 160.624ZM62.2953 157.069C55.6063 153.874 47.1046 149.136 38.5912 143.34L37.4657 144.993C46.0652 150.848 54.6552 155.636 61.4333 158.874L62.2953 157.069ZM38.5912 143.34C30.0735 137.541 21.5843 130.71 14.8904 123.337L13.4097 124.682C20.2437 132.208 28.8679 139.14 37.4657 144.993L38.5912 143.34ZM14.8904 123.337C8.1818 115.949 3.37869 108.129 2.03564 100.351L0.0648114 100.692C1.5003 109.005 6.5836 117.164 13.4097 124.682L14.8904 123.337ZM2.03905 100.373C-2.30061 71.5841 16.4559 53.4682 36.6766 51.7032L36.5027 49.7108C15.1616 51.5735 -4.45455 70.7129 0.0613985 100.671L2.03905 100.373ZM36.6766 51.7032C46.8801 50.8126 56.6577 53.4963 63.4372 57.5037L64.4549 55.782C57.3277 51.5691 47.1351 48.7828 36.5027 49.7108L36.6766 51.7032ZM63.4372 57.5037C66.8303 59.5093 69.3979 61.8023 70.9093 64.0644L72.5722 62.9533C70.8451 60.3682 68.0171 57.8876 64.4549 55.782L63.4372 57.5037ZM70.9093 64.0644C72.4175 66.3218 72.7944 68.4061 72.1557 70.1843L74.0379 70.8604C74.9603 68.2926 74.3009 65.5407 72.5722 62.9533L70.9093 64.0644ZM72.1557 70.1843C71.401 72.2855 70.327 73.6142 69.1823 74.4393L70.3517 76.0618C71.8646 74.9713 73.1645 73.2921 74.0379 70.8604L72.1557 70.1843ZM69.1823 74.4393C68.0315 75.2687 66.7279 75.6475 65.431 75.7153L65.5355 77.7126C67.1524 77.628 68.8413 77.1503 70.3517 76.0618L69.1823 74.4393ZM65.431 75.7153C64.1253 75.7837 62.854 75.5342 61.8289 75.1364L61.1053 77.0009C62.3693 77.4914 63.9223 77.7971 65.5355 77.7126L65.431 75.7153ZM61.8289 75.1364C60.752 74.7185 60.1433 74.2169 59.9583 73.9433L58.3017 75.0639C58.8164 75.8247 59.8631 76.5188 61.1053 77.0009L61.8289 75.1364ZM59.9583 73.9433C59.6279 73.4549 58.9762 72.8275 58.1907 72.1802L56.9188 73.7237C57.6886 74.3581 58.1445 74.8315 58.3017 75.0639L59.9583 73.9433ZM58.1907 72.1802C57.3658 71.5005 56.2809 70.7079 54.9823 69.8929L53.9192 71.587C55.1509 72.3599 56.1654 73.1028 56.9188 73.7237L58.1907 72.1802ZM54.9823 69.8929C52.3879 68.2648 48.8939 66.5184 44.859 65.4139L44.3309 67.3429C48.14 68.3856 51.4547 70.0404 53.9192 71.587L54.9823 69.8929ZM44.859 65.4139C36.7422 63.192 26.406 63.5779 17.0054 72.7023L18.3984 74.1375C27.1795 65.6143 36.7322 65.2628 44.3309 67.3429L44.859 65.4139ZM17.0055 72.7023L16.9963 72.7112L18.3892 74.1464L18.3984 74.1375L17.0055 72.7023ZM16.9527 72.7562L16.9442 72.7656L18.4242 74.1108L18.4328 74.1014L16.9527 72.7562ZM16.9442 72.7657C12.9059 77.209 10.1986 81.4766 9.10758 86.6189L11.064 87.0339C12.0538 82.3689 14.5149 78.4122 18.4242 74.1108L16.9442 72.7657ZM9.10758 86.6189C8.02076 91.7415 8.57476 97.5593 10.7162 105.043L12.6391 104.493C10.5421 97.1647 10.0726 91.7072 11.064 87.0339L9.10758 86.6189ZM10.7162 105.043L10.7233 105.068L12.6462 104.518L12.639 104.493L10.7162 105.043ZM10.7658 105.188L10.776 105.211L12.6138 104.422L12.6036 104.399L10.7658 105.188ZM10.776 105.211C14.6799 114.304 18.6682 120.42 23.4521 125.676L24.9311 124.33C20.318 119.262 16.4432 113.342 12.6138 104.422L10.776 105.211ZM23.4521 125.676C27.8707 130.53 32.9463 134.622 39.1265 139.608L40.3822 138.051C34.1755 133.044 29.2272 129.049 24.9311 124.33L23.4521 125.676ZM39.1265 139.608C39.5986 139.988 40.0773 140.375 40.563 140.767L41.8199 139.211C41.3335 138.818 40.8543 138.432 40.3822 138.051L39.1265 139.608ZM40.5633 140.767L40.5721 140.774L41.8283 139.218L41.8196 139.211L40.5633 140.767ZM40.6155 140.807L40.6246 140.814L41.7941 139.192L41.785 139.185L40.6155 140.807ZM40.6247 140.814C54.3546 150.707 62.5343 154.75 77.1541 161.301L77.9719 159.476C63.4191 152.955 55.3728 148.976 41.7939 139.192L40.6247 140.814Z" fill="black" mask="url(#path-2-inside-1)"/>
<path d="M72.7232 60.281C70.6577 58.7733 70.5854 57.9432 72.7232 56.4348C82.7069 55.3254 87.7397 55.2756 95.491 56.4348C105.181 59.0254 111.08 61.8595 120.72 72.6295C130.361 83.3996 131.953 103.643 130.566 111.902C129.179 120.161 125.282 129.27 111.08 140.85C104.405 146.292 86.0578 157.247 72.7232 152.794C59.3887 148.34 67.6445 136.963 72.7232 135.991C96.2012 135.64 111.08 125.626 117.645 111.902C122 98.7025 120.154 84.1272 110.466 72.8318C100.668 63.2765 91.593 59.4966 72.7232 60.281Z" stroke="#02FFCD" stroke-width="2"/>
<path fill-rule="evenodd" clip-rule="evenodd" d="M72.8593 56.4326C82.7924 55.3264 87.8127 55.2757 95.5387 56.4336L95.5502 56.4353L95.5614 56.4383C100.384 57.7305 104.279 59.0872 108.17 61.4709C112.06 63.8539 115.935 67.2566 120.733 72.6277C125.558 78.0295 128.358 85.7919 129.782 93.217C131.206 100.643 131.26 107.764 130.566 111.905C129.178 120.184 125.276 129.298 111.13 140.857C107.799 143.578 101.565 147.672 94.5002 150.531C87.4417 153.388 79.513 155.028 72.8167 152.787C69.4747 151.669 67.4545 150.105 66.4063 148.349C65.3565 146.59 65.2994 144.669 65.8243 142.873C66.3482 141.081 67.4535 139.407 68.7446 138.12C70.0328 136.836 71.5268 135.917 72.8433 135.665L72.861 135.662L72.879 135.661C96.1427 135.313 110.847 125.377 117.335 111.798C121.637 98.7161 119.808 84.2843 110.241 73.0997C105.388 68.3585 100.725 65.0608 94.9489 63.0416C89.167 61.0205 82.2531 60.2747 72.8907 60.6648L72.8187 60.6678L72.7609 60.6255C72.2434 60.2469 71.8385 59.9023 71.5605 59.5715C71.2821 59.24 71.1173 58.9058 71.1118 58.5515C71.1063 58.1959 71.2618 57.8597 71.5398 57.5258C71.8165 57.1934 72.2273 56.8481 72.7635 56.4689L72.8066 56.4384L72.8593 56.4326ZM72.9577 56.8274C72.4541 57.1864 72.091 57.4981 71.8545 57.7822C71.6125 58.0728 71.5159 58.3187 71.5194 58.5453C71.5229 58.7732 71.6282 59.021 71.8741 59.3138C72.1112 59.5961 72.4661 59.9046 72.9457 60.2589C82.2991 59.8746 89.25 60.6218 95.0847 62.6614C100.937 64.7072 105.651 68.0477 110.534 72.8192L110.54 72.8255L110.546 72.8324C120.225 84.1415 122.065 98.7319 117.719 111.935L117.715 111.947L117.709 111.958C111.146 125.706 96.2864 135.709 72.9034 136.064C71.7001 136.301 70.2836 137.159 69.034 138.404C67.7815 139.652 66.7175 141.269 66.2159 142.985C65.7152 144.698 65.7763 146.501 66.7574 148.144C67.7401 149.79 69.6636 151.306 72.9474 152.405C79.5027 154.599 87.3165 153.003 94.3458 150.158C101.369 147.316 107.568 143.244 110.87 140.546C124.951 129.041 128.794 120.01 130.163 111.839C130.848 107.755 130.799 100.684 129.382 93.2922C127.964 85.8995 125.183 78.2187 120.427 72.8947C115.645 67.5399 111.799 64.1684 107.955 61.8137C104.116 59.4615 100.267 58.1174 95.4661 56.8305C87.8061 55.6834 82.8276 55.7301 72.9577 56.8274Z" fill="#02FFCD"/>
<path d="M83.3312 45.6438C81.0337 52.8706 67.4576 55.1419 65.1601 45.6438C62.8626 36.1458 64.9513 33.8746 56.3879 24.7896C47.8245 15.7047 40.9545 15.1183 32.9952 13.8463C35.2333 26.7025 38.1734 32.2478 46.7802 38.8301C52.1223 41.532 55.1252 43.0264 61.1917 43.5791V47.5021C46.3868 47.6318 40.3899 43.7641 31.3243 34.0811C23.4728 24.1559 21.3249 17.8558 20.0457 5.79369C19.8329 2.78882 20.6681 1.83044 23.3875 1.04471C39.1236 0.74818 47.335 1.78518 59.5208 8.4779C76.9526 20.4776 85.6287 38.4171 83.3312 45.6438Z" stroke="black"/>
<path d="M41.2823 100.776C40.5438 101.811 40.8889 102.114 41.6844 102.59C50.6695 101 55.5568 100.257 61.1867 101.986C58.2054 108.115 57.3963 111.505 49.3245 117.907C45.8014 120.103 41.5898 120.822 29.8222 121.132C28.9008 121.963 28.8483 122.409 29.8222 123.147C31.7465 124.038 32.9753 124.495 37.0602 124.76H48.3192C50.9209 124.755 52.3607 124.393 54.954 123.147C58.3293 121.046 59.9931 119.716 62.5941 117.101C64.8814 120.26 66.0035 122.12 69.2289 124.76C70.6107 127.985 71.3458 129.86 73.25 132.217C73.5016 134.36 73.7309 135.501 74.2552 137.457L77.8742 136.852C77.868 131.819 78.6783 129.193 77.4721 123.953C74.7203 117.552 73.4783 113.693 69.2289 108.636C69.2289 108.636 70.2459 108.043 70.4352 107.427C73.2083 109.626 79.6309 110.876 81.4931 110.652C86.5194 110.047 87.6642 109.467 92.5511 106.822C93.1542 105.613 92.5511 105.008 91.5459 104.807C83.3396 104.752 79.7089 103.428 74.6574 99.164C73.1729 93.6693 71.4324 91.9799 65.6099 93.1178C57.4546 91.1988 52.774 90.5177 41.2823 100.776Z" fill="#02FFCD"/>
<path fill-rule="evenodd" clip-rule="evenodd" d="M54.7831 98.3386C54.4305 98.8356 41.1663 101.773 41.2222 101.931C41.2521 102.015 41.317 102.101 41.4346 102.2C41.5399 102.288 41.6761 102.377 41.8442 102.479C50.7184 100.913 55.6115 100.174 61.2437 101.898L61.4672 101.967L61.3648 102.177C60.9765 102.973 60.6244 103.724 60.2874 104.443C59.3454 106.454 58.5214 108.212 57.3552 109.984C55.7663 112.398 53.5435 114.838 49.5214 118.018L49.5125 118.025L49.5029 118.031C45.9566 120.234 41.727 120.946 30.0971 121.254C29.9002 121.435 29.7557 121.589 29.6587 121.728C29.5534 121.877 29.5131 121.994 29.511 122.093C29.5069 122.286 29.649 122.521 30.121 122.881C31.0645 123.316 31.8304 123.64 32.856 123.89C33.8902 124.142 35.1955 124.32 37.2166 124.45H48.3981C49.6812 124.448 50.6683 124.358 51.6508 124.119C52.632 123.879 53.6173 123.489 54.8955 122.877C58.2308 120.807 59.8712 119.499 62.4422 116.922L62.6077 116.756L62.7454 116.946C63.0491 117.364 63.3319 117.759 63.6015 118.135C65.3531 120.58 66.5465 122.246 69.3032 124.495L69.3412 124.526L69.3605 124.571C69.4529 124.786 69.5424 124.995 69.6295 125.199C70.8379 128.02 71.5821 129.757 73.328 131.911L73.3644 131.956L73.3712 132.014C73.6124 134.062 73.8322 135.178 74.3178 137.001L77.5683 136.46C77.5717 134.987 77.6434 133.727 77.7105 132.548C77.8672 129.794 77.9989 127.479 77.1778 123.914C76.7681 122.963 76.3923 122.071 76.0354 121.222C74.0097 116.409 72.5911 113.038 69.0241 108.806L71.5763 106.747M76.4168 101.974L69.0782 108.504L69.0856 108.5C69.0924 108.496 69.1025 108.49 69.1157 108.481C69.1421 108.465 69.1805 108.441 69.2274 108.41C69.3214 108.348 69.4482 108.259 69.5801 108.152C69.7125 108.045 69.8467 107.923 69.9575 107.794C70.0696 107.664 70.149 107.537 70.1847 107.421L70.2707 107.142L70.4996 107.323C71.8433 108.385 74.0938 109.231 76.2588 109.784C77.3373 110.059 78.3869 110.259 79.2802 110.377C80.178 110.496 80.9035 110.528 81.3403 110.476C83.8327 110.177 85.3482 109.886 86.8426 109.348C88.3299 108.812 89.8029 108.029 92.2013 106.736C92.4556 106.201 92.4267 105.847 92.2824 105.613C92.1279 105.362 91.8018 105.18 91.3331 105.084C87.257 105.056 84.2971 104.713 81.7229 103.842C79.1419 102.969 76.9632 101.568 74.4426 99.4469L74.3948 99.4067L74.3784 99.3464C73.6409 96.6248 72.8534 94.9109 71.5763 93.9979C70.307 93.0906 68.5007 92.9392 65.6189 93.5006L65.5767 93.5088L65.535 93.499C61.481 92.5481 58.335 91.9167 54.7831 92.7684C51.2316 93.6199 60.4759 93.2748 54.7831 98.3386M69.4763 108.724C69.5743 108.658 69.7001 108.569 69.8314 108.463C69.9752 108.346 70.1289 108.207 70.2605 108.054C70.3309 107.973 70.3976 107.884 70.4532 107.79C71.8777 108.832 74.0828 109.64 76.1599 110.171C77.2527 110.449 78.3179 110.653 79.2279 110.773C80.1332 110.892 80.8995 110.931 81.3879 110.873C83.8903 110.572 85.441 110.277 86.9781 109.723C88.5108 109.171 90.0232 108.364 92.4476 107.056L92.5032 107.026L92.5314 106.97C92.8473 106.339 92.8731 105.81 92.6228 105.404C92.3798 105.009 91.9133 104.793 91.393 104.689L91.3743 104.685L91.3552 104.685C87.2865 104.658 84.3704 104.317 81.8511 103.464C79.3504 102.618 77.2264 101.262 74.7477 99.1816C74.0145 96.4931 73.2013 94.6685 71.8088 93.6731C70.4048 92.6696 68.4654 92.5441 65.5846 93.1005C61.554 92.1557 58.3319 91.5068 54.6899 92.3801C51.0383 93.2557 46.9906 95.6539 41.2729 100.742L41.2562 100.757L41.2433 100.775C40.8739 101.291 40.7164 101.699 40.8455 102.064C40.9085 102.242 41.0317 102.383 41.1778 102.506C41.3231 102.627 41.5052 102.742 41.7029 102.86L41.7668 102.898L41.8401 102.885C50.656 101.329 55.4549 100.604 60.9029 102.213C60.5482 102.945 60.2246 103.635 59.9153 104.295C58.9777 106.296 58.1705 108.019 57.0214 109.765C55.4635 112.132 53.2758 114.54 49.2824 117.698C45.8362 119.835 41.7028 120.55 30.0123 120.857L29.9387 120.859L29.8839 120.908C29.6509 121.117 29.463 121.311 29.3317 121.498C29.1998 121.686 29.1159 121.879 29.1115 122.085C29.1026 122.499 29.415 122.848 29.8971 123.212L29.9143 123.225L29.9338 123.234C30.8935 123.677 31.6907 124.017 32.7614 124.278C33.8294 124.538 35.1627 124.718 37.1972 124.849L37.2036 124.85H48.3985C49.7008 124.847 50.7221 124.756 51.7455 124.506C52.7678 124.257 53.7839 123.852 55.078 123.233L55.0878 123.228L55.097 123.222C58.3915 121.178 60.057 119.864 62.5594 117.37C62.8099 117.716 63.0468 118.047 63.2747 118.365C65.0207 120.803 66.2398 122.505 69.0126 124.774C69.0996 124.976 69.184 125.173 69.2664 125.366C70.4629 128.159 71.2252 129.939 72.9811 132.118C73.2297 134.214 73.46 135.351 73.9788 137.28L74.0258 137.455L77.968 136.798L77.9678 136.629C77.9659 135.127 78.0391 133.836 78.1081 132.62C78.2661 129.834 78.4019 127.439 77.5631 123.806L77.559 123.789L77.5519 123.772C77.1418 122.821 76.7653 121.926 76.407 121.075C74.4081 116.323 72.9776 112.923 69.4763 108.724Z" fill="#02FFCD"/>
<path d="M83.6937 84.6938C83.6937 88.7132 80.4353 91.9715 76.4159 91.9715C72.3965 91.9715 69.1382 88.7132 69.1382 84.6938C69.1382 80.6744 72.3965 77.416 76.4159 77.416C80.4353 77.416 83.6937 80.6744 83.6937 84.6938Z" fill="#02FFCD"/>
</svg>
