<svg width="123" height="151" viewBox="0 0 123 151" fill="none" xmlns="http://www.w3.org/2000/svg">
<path d="M61.6496 148.508C65.3416 146.367 69.0382 144.239 72.7332 142.113C82.3566 136.573 91.9688 131.04 101.458 125.294C110.139 120.038 115.96 112.259 119.127 102.538C119.717 100.721 120.232 98.8923 120.753 97.041C120.982 96.2249 121.213 95.4044 121.452 94.5787C121.452 63.3862 121.452 32.1993 121.47 1.02984C116.18 1.02843 110.891 1.02866 105.602 1.02889C91.5452 1.02951 77.4895 1.03012 63.4343 1C61.9291 1.00014 60.9178 1.29497 59.9006 2.3192L59.9002 2.31959C44.1403 18.1705 28.3457 33.9946 12.5541 49.8155C8.87852 53.498 5.20306 57.1803 1.52826 60.8627C1.53731 60.8631 1.54653 60.8634 1.55593 60.8637C1.75821 60.8692 1.98305 60.8451 2.28522 60.8084C2.30232 60.8063 2.31977 60.8042 2.33753 60.802C2.60345 60.7694 2.94168 60.728 3.27391 60.7315C3.27437 60.7315 3.27483 60.7316 3.27529 60.7316L3.26434 61.7315C11.4349 61.7978 19.6092 61.8231 27.7814 61.8485C30.0115 61.8554 32.2414 61.8623 34.471 61.8701L61.6496 148.508ZM61.6496 148.508L61.6339 138.522L61.6158 127.112C61.6308 125.737 61.6536 124.356 61.6766 122.972C61.7362 119.368 61.7963 115.74 61.7178 112.122C61.6993 111.249 61.8451 110.695 62.0968 110.279C62.3529 109.855 62.7862 109.462 63.5511 109.034C66.7344 107.251 69.8845 105.414 73.0255 103.58L73.2763 103.434C76.3355 101.648 79.3865 99.8661 82.465 98.135C84.3763 97.0617 85.8457 95.7263 86.83 94.0629C87.815 92.3983 88.2749 90.4718 88.2717 88.2793V88.2783C88.2296 71.4115 88.2236 54.5456 88.2897 37.6802V37.6795C88.2928 36.7134 88.165 35.7362 87.4678 35.0759C86.7832 34.4275 85.8104 34.3388 84.8957 34.351C77.6059 34.4472 70.3168 34.4532 63.0285 34.351L63.0277 34.351C62.1206 34.339 61.1402 34.4172 60.4583 35.0665C59.761 35.7304 59.6548 36.7166 59.6701 37.6741M61.6496 148.508L34.4719 60.8701C36.6335 60.8684 38.7977 60.8604 40.9635 60.8524C46.6974 60.8312 52.4424 60.81 58.1797 60.9063C59.2352 60.9239 59.4818 60.7386 59.5471 60.6664C59.6398 60.5638 59.7785 60.261 59.7603 59.231L59.7603 59.2301C59.7 55.6288 59.706 52.0276 59.7128 48.4361L59.713 48.3162C59.7197 44.7619 59.7264 41.2173 59.6701 37.6741M59.6701 37.6741L60.67 37.6582M59.6701 37.6741C59.6701 37.6741 59.6701 37.6742 59.6701 37.6742L60.67 37.6582M60.67 37.6582C60.6399 35.7786 61.193 35.3268 63.0145 35.3509L58.1631 61.9062C60.3333 61.9423 60.7962 61.2495 60.7601 59.2133C60.6993 55.5816 60.7062 51.9483 60.713 48.3143C60.7197 44.7627 60.7264 41.2105 60.67 37.6582Z" stroke="black" stroke-width="2"/>
<path d="M61.6496 148.508C65.3416 146.367 69.0382 144.239 72.7332 142.113C82.3566 136.573 91.9688 131.04 101.458 125.294C110.139 120.038 115.96 112.259 119.127 102.538C119.717 100.721 120.232 98.8923 120.753 97.041C120.982 96.2249 121.213 95.4044 121.452 94.5787C121.452 63.3862 121.452 32.1993 121.47 1.02984C116.18 1.02843 110.891 1.02866 105.602 1.02889C91.5452 1.02951 77.4895 1.03012 63.4343 1C61.9291 1.00014 60.9178 1.29497 59.9006 2.3192L59.9002 2.31959C44.1403 18.1705 28.3457 33.9946 12.5541 49.8155C8.87852 53.498 5.20306 57.1803 1.52826 60.8627C1.53731 60.8631 1.54653 60.8634 1.55593 60.8637C1.75821 60.8692 1.98305 60.8451 2.28522 60.8084C2.30232 60.8063 2.31977 60.8042 2.33753 60.802C2.60345 60.7694 2.94168 60.728 3.27391 60.7315C3.27437 60.7315 3.27483 60.7316 3.27529 60.7316L3.26434 61.7315C11.4349 61.7978 19.6092 61.8231 27.7814 61.8485C30.0115 61.8554 32.2414 61.8623 34.471 61.8701L61.6496 148.508ZM61.6496 148.508L61.6339 138.522L61.6158 127.112C61.6308 125.737 61.6536 124.356 61.6766 122.972C61.7362 119.368 61.7963 115.74 61.7178 112.122C61.6993 111.249 61.8451 110.695 62.0968 110.279C62.3529 109.855 62.7862 109.462 63.5511 109.034C66.7344 107.251 69.8845 105.414 73.0255 103.58L73.2763 103.434C76.3355 101.648 79.3865 99.8661 82.465 98.135C84.3763 97.0617 85.8457 95.7263 86.83 94.0629C87.815 92.3983 88.2749 90.4718 88.2717 88.2793V88.2783C88.2296 71.4115 88.2236 54.5456 88.2897 37.6802V37.6795C88.2928 36.7134 88.165 35.7362 87.4678 35.0759C86.7832 34.4275 85.8104 34.3388 84.8957 34.351C77.6059 34.4472 70.3168 34.4532 63.0285 34.351L63.0277 34.351C62.1206 34.339 61.1402 34.4172 60.4583 35.0665C59.761 35.7304 59.6548 36.7166 59.6701 37.6741M61.6496 148.508L34.4719 60.8701C36.6335 60.8684 38.7977 60.8604 40.9635 60.8524C46.6974 60.8312 52.4424 60.81 58.1797 60.9063C59.2352 60.9239 59.4818 60.7386 59.5471 60.6664C59.6398 60.5638 59.7785 60.261 59.7603 59.231L59.7603 59.2301C59.7 55.6288 59.706 52.0276 59.7128 48.4361L59.713 48.3162C59.7197 44.7619 59.7264 41.2173 59.6701 37.6741M59.6701 37.6741L60.67 37.6582M59.6701 37.6741C59.6701 37.6741 59.6701 37.6742 59.6701 37.6742L60.67 37.6582M60.67 37.6582C60.6399 35.7786 61.193 35.3268 63.0145 35.3509L58.1631 61.9062C60.3333 61.9423 60.7962 61.2495 60.7601 59.2133C60.6993 55.5816 60.7062 51.9483 60.713 48.3143C60.7197 44.7627 60.7264 41.2105 60.67 37.6582Z" stroke="#02FFCD" stroke-width="2"/>
<path d="M1.00041 45.2256C1.43292 45.4472 1.87179 45.5153 2.25554 45.5258C2.63026 45.5361 2.99947 45.4912 3.28492 45.4565C3.59933 45.4182 3.81766 45.3918 4.01227 45.3939L4.01517 45.394C12.22 45.4605 20.429 45.4859 28.633 45.5113C30.4997 45.5171 32.3662 45.5229 34.2323 45.5292C34.171 46.0696 34.1153 46.6458 34.1153 47.1969C34.1111 51.9585 34.1141 56.7177 34.1171 61.4758C34.1229 70.5152 34.1286 79.5507 34.0851 88.5913V88.5917C34.0754 90.7959 34.5316 92.7474 35.4991 94.4358C36.4667 96.1243 37.9115 97.4897 39.7866 98.5741L39.787 98.5744C44.7299 101.43 49.6763 104.273 54.6225 107.117C56.6183 108.264 58.614 109.412 60.6096 110.56L60.6449 132.881C60.6449 132.882 60.6448 132.883 60.6448 132.883C60.6431 134.129 60.6458 135.373 60.6484 136.614C60.655 139.775 60.6616 142.924 60.5968 146.078L60.5968 146.08C60.5892 146.497 60.6433 146.931 60.6915 147.296C60.6974 147.341 60.7033 147.385 60.709 147.429C60.7536 147.763 60.7914 148.047 60.8036 148.314C60.8321 148.941 60.7011 149.032 60.6068 149.084L60.6066 149.084C60.6062 149.084 60.6059 149.084 60.6056 149.084C60.6009 149.085 60.5764 149.086 60.5247 149.074C60.4057 149.045 60.2279 148.966 59.9727 148.804C59.744 148.658 59.5101 148.484 59.2424 148.285L59.1587 148.223C58.8736 148.011 58.5426 147.768 58.2082 147.576M58.2082 147.576C58.2085 147.576 58.2088 147.576 58.2091 147.576L57.7101 148.443L58.2082 147.576Z" stroke="black" stroke-width="2"/>
<path d="M1.00041 45.2256C1.43292 45.4472 1.87179 45.5153 2.25554 45.5258C2.63026 45.5361 2.99947 45.4912 3.28492 45.4565C3.59933 45.4182 3.81766 45.3918 4.01227 45.3939L4.01517 45.394C12.22 45.4605 20.429 45.4859 28.633 45.5113C30.4997 45.5171 32.3662 45.5229 34.2323 45.5292C34.171 46.0696 34.1153 46.6458 34.1153 47.1969C34.1111 51.9585 34.1141 56.7177 34.1171 61.4758C34.1229 70.5152 34.1286 79.5507 34.0851 88.5913V88.5917C34.0754 90.7959 34.5316 92.7474 35.4991 94.4358C36.4667 96.1243 37.9115 97.4897 39.7866 98.5741L39.787 98.5744C44.7299 101.43 49.6763 104.273 54.6225 107.117C56.6183 108.264 58.614 109.412 60.6096 110.56L60.6449 132.881C60.6449 132.882 60.6448 132.883 60.6448 132.883C60.6431 134.129 60.6458 135.373 60.6484 136.614C60.655 139.775 60.6616 142.924 60.5968 146.078L60.5968 146.08C60.5892 146.497 60.6433 146.931 60.6915 147.296C60.6974 147.341 60.7033 147.385 60.709 147.429C60.7536 147.763 60.7914 148.047 60.8036 148.314C60.8321 148.941 60.7011 149.032 60.6068 149.084L60.6066 149.084C60.6062 149.084 60.6059 149.084 60.6056 149.084C60.6009 149.085 60.5764 149.086 60.5247 149.074C60.4057 149.045 60.2279 148.966 59.9727 148.804C59.744 148.658 59.5101 148.484 59.2424 148.285L59.1587 148.223C58.8736 148.011 58.5426 147.768 58.2082 147.576M58.2082 147.576C58.2085 147.576 58.2088 147.576 58.2091 147.576L57.7101 148.443L58.2082 147.576Z" stroke="black" stroke-opacity="0.2" stroke-width="2"/>
</svg>
