<svg width="123" height="151" viewBox="0 0 123 151" fill="none" xmlns="http://www.w3.org/2000/svg">
<g clip-path="url(#clip0_240:14)">
<path d="M72.7332 142.113C69.0382 144.239 65.3416 146.367 61.6496 148.508L61.6339 138.522L61.6158 127.112C61.6308 125.737 61.6536 124.356 61.6766 122.973L61.6768 122.964C61.7363 119.362 61.7962 115.737 61.7178 112.122C61.6993 111.249 61.8451 110.695 62.0968 110.279C62.3529 109.855 62.7862 109.462 63.5511 109.034C66.7344 107.251 69.8845 105.414 73.0255 103.58L73.2773 103.433C76.3361 101.647 79.3869 99.8659 82.465 98.135C84.3763 97.0617 85.8457 95.7263 86.83 94.0629C87.815 92.3983 88.2749 90.4718 88.2717 88.2793C88.2296 71.4125 88.2236 54.5456 88.2897 37.6802C88.2928 36.7141 88.165 35.7362 87.4678 35.0759C86.7832 34.4275 85.8104 34.3388 84.8957 34.351C77.6059 34.4472 70.3168 34.4533 63.0285 34.351C62.1214 34.339 61.1402 34.4172 60.4583 35.0665C59.761 35.7304 59.6548 36.7166 59.6701 37.6741C59.7264 41.2161 59.7197 44.7594 59.713 48.3125L59.713 48.3162L59.7128 48.4361C59.706 52.0276 59.7 55.6297 59.7603 59.231C59.7785 60.261 59.6398 60.5638 59.5471 60.6664C59.4818 60.7386 59.2352 60.9239 58.1797 60.9063C52.4424 60.81 46.6975 60.8312 40.9636 60.8524L40.9614 60.8524C38.7963 60.8604 36.6329 60.8684 34.4719 60.8701C32.2425 60.8623 29.7299 60.9132 27.5 60.9063C19.5 60.6664 14.1708 60.9187 6 60.8524L3.27529 60.7316L3.27391 60.7315C2.94169 60.728 2.60345 60.7694 2.33753 60.802L2.28522 60.8084C1.98305 60.8451 1.75821 60.8692 1.55593 60.8637L1.52826 60.8627C4.87494 57.5091 8.22218 54.1556 11.5695 50.8019L12.5571 49.8125C28.3477 33.9926 44.1417 18.1691 59.9006 2.3192C60.9178 1.29497 61.9291 1.00014 63.4343 1C77.4895 1.03012 91.5452 1.02951 105.602 1.02889L105.602 1.02889C110.891 1.02866 116.18 1.02843 121.47 1.02984C121.452 32.1993 121.452 63.3862 121.452 94.5787C121.213 95.4044 120.982 96.2248 120.753 97.0409C120.232 98.8923 119.717 100.721 119.127 102.538C115.96 112.259 110.139 120.038 101.458 125.294C91.9865 131.029 82.3924 136.552 72.787 142.082L72.7332 142.113Z" stroke="#02FFCD" stroke-width="2"/>
<path d="M2.2599 45.3946C1.86552 45.2627 1.49998 45.4997 0.358183 45.3946L1 46.5C0.999095 48.737 1.00131 50.7629 1 53C0.992564 65.6823 1.04592 78.4649 1.11261 91.1473C1.15961 99.8832 4.09904 107.735 9.15971 114.865C13.3643 120.792 19.0154 125.061 25.4022 128.671C32.5742 132.727 39.7074 136.863 46.8347 140.996L47.7867 141.548C51.2604 143.562 54.7324 145.575 58.2082 147.576C58.5426 147.768 58.8736 148.011 59.1587 148.223C59.187 148.244 59.2148 148.265 59.2423 148.285L59.2485 148.29C59.5137 148.487 59.7457 148.66 59.9727 148.804C60.2279 148.966 60.4057 149.045 60.5247 149.074C60.5764 149.086 60.6009 149.085 60.6056 149.084H60.6068C60.7011 149.032 60.8321 148.941 60.8036 148.314C60.7914 148.047 60.7536 147.763 60.7091 147.429C60.7034 147.387 60.6977 147.343 60.6919 147.3L60.6915 147.296C60.6433 146.931 60.5892 146.497 60.5968 146.08V146.078C60.6616 142.926 60.655 139.778 60.6484 136.618L60.6484 136.614L60.6482 136.538C60.6457 135.322 60.6431 134.104 60.6448 132.883L60.6449 132.881L60.6267 121.434L60.6096 110.56C58.6142 109.412 56.6186 108.265 54.623 107.117C49.6766 104.274 44.7297 101.43 39.7866 98.5745C37.9115 97.4901 36.4667 96.1247 35.4991 94.4362C34.5316 92.7478 34.0754 90.7959 34.0851 88.5917C34.1286 79.5511 34.1229 70.5156 34.1171 61.4762V61.47C34.1141 56.714 34.1111 51.9569 34.1153 47.1973C34.1153 46.6462 34.171 46.07 34.2323 45.5296C32.3662 45.5233 30.4997 45.5175 28.633 45.5117L28.6226 45.5117C20.4221 45.4863 12.2165 45.4609 4.01516 45.3944L4.01226 45.3943C3.81765 45.3922 3.59932 45.4186 3.28491 45.4569C2.99998 45.3946 2.63462 45.4049 2.2599 45.3946Z" stroke="black" stroke-width="2"/>
</g>
<defs>
<clipPath id="clip0_240:14">
<rect width="123" height="151" fill="white"/>
</clipPath>
</defs>
</svg>
