<svg width="123" height="151" viewBox="0 0 123 151" fill="none" xmlns="http://www.w3.org/2000/svg">
<path d="M61.7178 112.122C61.7963 115.74 61.7362 119.368 61.6766 122.973C61.6536 124.356 61.6308 125.737 61.6158 127.112L61.6339 138.522L61.6496 148.508C65.3416 146.367 69.0382 144.239 72.7332 142.113C82.3566 136.573 91.9688 131.04 101.458 125.294C110.139 120.038 115.96 112.259 119.126 102.538C119.717 100.722 120.232 98.8925 120.753 97.041C120.982 96.225 121.213 95.4045 121.452 94.5788L61.7178 112.122ZM61.7178 112.122C61.7178 112.122 61.7178 112.122 61.7178 112.122L60.7181 112.143L61.7178 112.122ZM82.465 98.135C84.3763 97.0617 85.8457 95.7263 86.83 94.0629C87.815 92.3983 88.2749 90.4718 88.2717 88.2793V88.2783C88.2296 71.4115 88.2236 54.5456 88.2897 37.6802V37.6795C88.2928 36.7134 88.165 35.7362 87.4678 35.0759C86.7832 34.4275 85.8104 34.3388 84.8957 34.351C77.6059 34.4472 70.3168 34.4532 63.0285 34.351L63.0277 34.351C62.1206 34.339 61.1402 34.4172 60.4583 35.0665C59.761 35.7305 59.6548 36.7167 59.6701 37.6742M82.465 98.135L59.6701 37.6742M82.465 98.135L81.9754 97.2631L82.4655 98.1348C82.4654 98.1348 82.4652 98.1349 82.465 98.135ZM59.6701 37.6742C59.6701 37.6742 59.6701 37.6741 59.6701 37.6741L60.6697 37.6582L59.6701 37.6742ZM58.1798 60.9063C52.4425 60.81 46.6975 60.8312 40.9635 60.8524C38.7977 60.8604 36.6335 60.8684 34.4719 60.8701M58.1798 60.9063L3.27391 60.7315C11.4408 60.7978 19.6109 60.8231 27.7817 60.8485C30.0118 60.8554 32.2418 60.8623 34.4719 60.8701M58.1798 60.9063L58.1633 61.8919L58.1797 60.9063C58.1798 60.9063 58.1798 60.9063 58.1798 60.9063ZM34.4719 60.8701C34.4728 60.8701 34.4736 60.8701 34.4745 60.8701L34.471 61.8701L34.4703 60.8701C34.4708 60.8701 34.4714 60.8701 34.4719 60.8701ZM73.2218 142.985C69.3623 145.207 65.5028 147.428 61.6515 149.663L122.452 94.7208C122.204 95.575 121.963 96.4315 121.722 97.2879C121.198 99.1498 120.674 101.011 120.077 102.848C116.843 112.776 110.88 120.758 101.976 126.15C92.4766 131.902 82.8493 137.444 73.2218 142.985ZM121.47 0.029836C121.47 0.363167 121.47 0.696501 121.47 1.02984C121.803 1.02992 122.136 1.03002 122.47 1.03012C122.47 0.696786 122.47 0.363453 122.47 0.0301217C122.137 0.0300197 121.803 0.0299247 121.47 0.029836ZM63.4332 0.999998C63.4335 0.999998 63.4339 0.999999 63.4343 1C63.4346 1 63.435 1 63.4353 1V0.00089047L63.4332 0.999998ZM0.715045 61.6776C0.986114 61.406 1.25718 61.1343 1.52826 60.8627C1.35313 60.8552 1.2421 60.8244 1.1621 60.7831C1.08661 60.744 0.97867 60.6652 0.856639 60.4625L0 60.9784L0.684953 61.662C0.694953 61.6673 0.704983 61.6725 0.715045 61.6776Z" stroke="#02FFCD" stroke-width="2"/>
<path d="M1.00041 45.2256C1.43292 45.4472 1.87179 45.5153 2.25554 45.5258C2.63026 45.5361 2.99947 45.4912 3.28492 45.4565C3.59933 45.4182 3.81766 45.3918 4.01227 45.3939L4.01517 45.394C12.22 45.4605 20.429 45.4859 28.633 45.5113C30.4997 45.5171 32.3662 45.5229 34.2323 45.5292C34.171 46.0696 34.1153 46.6458 34.1153 47.1969C34.1111 51.9588 34.1141 56.7183 34.1171 61.4767C34.1229 70.5158 34.1286 79.551 34.0851 88.5913L34.0851 88.5917C34.0754 90.7959 34.5316 92.7474 35.4991 94.4358C36.4667 96.1243 37.9115 97.4897 39.7866 98.5741L39.787 98.5744C44.73 101.43 49.6765 104.273 54.6228 107.117C56.6185 108.265 58.6142 109.412 60.6096 110.56L60.6267 121.434L60.6449 132.881C60.6449 132.882 60.6448 132.883 60.6448 132.883C60.6431 134.129 60.6458 135.373 60.6484 136.614C60.655 139.775 60.6616 142.924 60.5968 146.078L60.5968 146.08C60.5892 146.497 60.6433 146.931 60.6915 147.296C60.6974 147.341 60.7033 147.385 60.7091 147.429C60.7536 147.763 60.7914 148.047 60.8036 148.314C60.8321 148.941 60.7011 149.032 60.6068 149.084L60.6067 149.084C60.6037 149.085 60.6063 149.084 60.6059 149.084C60.6019 149.085 60.5774 149.086 60.5247 149.074C60.4057 149.045 60.2279 148.966 59.9727 148.804C59.744 148.658 59.5102 148.484 59.2424 148.285C59.2149 148.265 59.187 148.244 59.1587 148.223C58.8738 148.011 58.5432 147.768 58.2091 147.576C54.4157 145.392 50.6258 143.194 46.8344 140.996C39.7072 136.863 32.5744 132.727 25.4025 128.671L25.4022 128.671C19.0154 125.061 13.3645 120.792 9.15988 114.865L9.15972 114.865C4.09905 107.735 1.15963 99.8828 1.11263 91.1469C1.04595 78.4678 1.05339 65.7887 1.06082 53.1063C1.06213 50.8692 1.06345 48.6319 1.06435 46.3945V46.3941C1.06435 46.1556 1.04459 45.9059 1.02853 45.7029C1.02534 45.6626 1.0223 45.6241 1.01959 45.588C1.0092 45.4495 1.0022 45.331 1.00041 45.2256Z" stroke="black" stroke-width="2"/>
</svg>
