<svg width="132" height="139" viewBox="0 0 132 139" fill="none" xmlns="http://www.w3.org/2000/svg">
<path d="M17.0016 128.492C17.0016 128.938 16.6414 129.3 16.1971 129.3C15.7528 129.3 15.3927 128.938 15.3927 128.492V124.78C11.2765 125.443 7.99285 126.187 5.73313 126.986C3.70998 127.702 3.32052 128.449 3.32052 129.002C3.32052 130.746 9.52411 132.39 20.7043 133.79C48.3314 137.249 83.6686 137.249 111.296 133.79C122.476 132.39 129.08 130.652 129.08 128.908C129.08 128.338 128.237 127.669 126.122 126.937C123.913 126.173 120.778 125.461 116.882 124.824C115.917 124.666 116.105 124.576 116.105 125.587V128.492C116.105 129.555 114.496 129.555 114.496 128.492V63.0673C114.496 61.8397 114.709 60.721 113.288 60.6613C112.478 60.6648 111.81 60.6582 110.999 60.6582H83.5658C83.1072 60.6582 83.0703 60.7074 83.0703 61.1696V127.684H104.922C105.981 127.684 105.981 129.3 104.922 129.3C94.45 129.3 83.9778 129.3 73.5056 129.3C72.4474 129.3 72.4474 127.684 73.5056 127.684H81.4614V97.6505C81.4593 77.3847 81.4088 57.105 81.4554 36.8443C81.4718 34.9715 81.4815 34.6046 79.1799 34.645C70.0457 34.7256 60.3295 34.9927 51.2337 34.6454C50.2976 34.6095 50.0444 34.8366 50.0411 35.8367L50.036 37.3961V78.4313V126.64C50.036 127.871 49.8291 127.684 51.0426 127.684H58.4358C59.494 127.684 59.494 129.3 58.4358 129.3C49.5812 129.3 40.7267 129.3 31.8721 129.3C30.8139 129.3 30.8139 127.684 31.8721 127.684H47.3723C48.6234 127.684 48.427 127.891 48.427 126.64V81.2029C48.427 80.0414 48.6651 80.0472 47.5782 80.0472H18.3347C16.8013 80.0472 16.9641 79.9426 17.0016 81.6538V128.492ZM32.1282 121.63C31.6794 122.081 30.9969 121.395 31.4457 120.944L41.4071 110.94C41.856 110.489 42.5385 111.175 42.0896 111.625L32.1282 121.63ZM37.7901 121.705C37.3412 122.156 36.6587 121.47 37.1076 121.019L41.7051 116.402C42.154 115.951 42.8365 116.637 42.3876 117.087L37.7901 121.705ZM64.0558 71.3511C63.6069 71.8019 62.9244 71.1164 63.3733 70.6656L73.3346 60.6612C73.7835 60.2103 74.466 60.8958 74.0172 61.3466L64.0558 71.3511ZM69.7176 71.4261C69.2687 71.8769 68.5862 71.1915 69.0351 70.7406L73.6327 66.1232C74.0815 65.6724 74.764 66.3579 74.3152 66.8087L69.7176 71.4261ZM99.5166 102.048C99.0677 102.499 98.3852 101.814 98.8341 101.363L108.795 91.3584C109.244 90.9076 109.927 91.5931 109.478 92.0439L99.5166 102.048ZM105.178 102.123C104.73 102.574 104.047 101.889 104.496 101.438L109.093 96.8205C109.542 96.3697 110.225 97.0552 109.776 97.506L105.178 102.123ZM97.9786 40.9666V35.4785C97.9786 34.4157 99.5875 34.4157 99.5875 35.4785V40.9853C99.5875 41.614 99.7115 41.5021 100.349 41.5021H105.017C105.992 41.5021 106.787 42.3004 106.787 43.2796V48.3105C106.787 48.7551 106.789 48.6848 107.277 48.6848H109.287C109.774 48.6848 110.217 48.8846 110.537 49.2063C110.858 49.5281 111.056 49.9727 111.056 50.4623V58.4971C111.056 59.1258 111.186 59.0421 111.822 59.0454C112.447 59.0486 112.631 59.0544 113.253 59.0518C116.203 59.0384 116.105 60.1471 116.105 63.0954V122.183C116.105 123.194 115.921 123.034 116.884 123.19C120.992 123.853 124.306 124.6 126.643 125.409C129.463 126.385 131 127.557 131 128.908C131 131.603 123.544 133.884 111.491 135.393C83.7326 138.869 48.2674 138.869 20.5095 135.393C8.45557 133.884 1 131.603 1 128.908C1 127.581 2.47977 126.427 5.19889 125.465C7.60123 124.615 11.0682 123.833 15.3927 123.145V81.6538C15.3927 81.1426 15.4086 80.8168 15.3986 80.5521C15.3892 78.6579 15.5713 78.3929 17.5658 78.4264C18.2778 78.4382 18.9925 78.4313 19.7048 78.4313C20.3734 78.4313 20.4409 78.5338 20.4409 77.907V69.8613C20.4409 68.882 21.2357 68.0838 22.2108 68.0838H24.1235C24.8607 68.0838 24.7107 68.2026 24.7107 67.5161V62.6785C24.7107 61.6993 25.5054 60.901 26.4805 60.901H31.3049C32.0259 60.901 31.9099 61.0181 31.9099 60.2943V54.1423C31.9099 53.0795 33.5188 53.0795 33.5188 54.1423V60.4118C33.5188 61.0083 33.5644 60.901 34.17 60.901H38.9482C39.9232 60.901 40.718 61.6993 40.718 62.6785V67.709C40.718 68.1511 40.6174 68.0838 41.0988 68.0838H43.2179C43.7054 68.0838 44.1481 68.2835 44.4684 68.6052C44.7888 68.927 44.9877 69.3716 44.9877 69.8613V77.9915C44.9877 78.5056 45.0775 78.4313 45.6213 78.4313H47.7842C48.3524 78.4313 48.427 78.4628 48.427 77.9116V37.3585L48.4807 35.2122C48.5287 33.2934 49.8723 33.0731 51.3836 33.0526C51.87 33.046 52.1324 33.046 52.62 33.0467C53.4496 33.048 53.4753 33.1532 53.4753 32.2807V24.4786C53.4753 23.4993 54.2701 22.7011 55.2451 22.7011H57.3789C57.7205 22.7011 57.745 22.7182 57.745 22.3742V17.2959C57.745 16.3167 58.5398 15.5184 59.5148 15.5184H64.9442V1.79706C64.9442 0.734312 66.5532 0.734312 66.5532 1.79706V15.5184H71.9825C72.9576 15.5184 73.7524 16.3167 73.7524 17.2959V22.4635C73.7524 22.7388 73.7798 22.7011 74.0802 22.7011H76.2522C77.2273 22.7011 78.0221 23.4993 78.0221 24.4786V32.6781C78.0221 33.0192 78.1042 33.0448 78.4246 33.042L79.1934 33.0402C82.4829 32.9828 83.0812 33.7603 83.058 36.8475C83.063 36.8475 83.0601 55.3798 83.0601 58.6777C83.0601 59.123 83.0816 59.0423 83.5377 59.0423H85.9721C86.4797 59.0423 86.5097 59.0733 86.5097 58.5366V50.4623C86.5097 49.4831 87.3044 48.6848 88.2795 48.6848H90.0261C90.6671 48.6848 90.7794 48.7725 90.7794 48.1458V43.2796C90.7794 42.3004 91.5742 41.5021 92.5492 41.5021H97.3057C97.9552 41.5021 97.9786 41.6125 97.9786 40.9666ZM38.9482 62.517H26.4805C26.3936 62.517 26.3196 62.5913 26.3196 62.6785V67.5631C26.3196 68.1853 26.2901 68.0838 26.9417 68.0838H38.7487C39.1343 68.0838 39.1091 68.0684 39.1091 67.6901V62.6785C39.1091 62.5914 39.035 62.517 38.9482 62.517ZM22.6352 78.4304H43.2179C43.2613 78.4304 43.3013 78.4119 43.3308 78.3823C43.3604 78.3526 43.3788 78.3123 43.3788 78.2688V69.8613C43.3788 69.8177 43.3604 69.7774 43.3308 69.7477C43.3013 69.7181 43.2613 69.6997 43.2179 69.6997H38.9482H22.2108C22.1239 69.6997 22.0499 69.774 22.0499 69.8613V77.954C22.0499 78.5238 22.0409 78.4304 22.6352 78.4304ZM105.017 43.118H92.5492C92.4624 43.118 92.3883 43.1924 92.3883 43.2796V48.1835C92.3883 48.7341 92.3418 48.6848 92.8912 48.6848H104.749C105.164 48.6848 105.178 48.7256 105.178 48.3011V43.2796C105.178 43.1924 105.104 43.118 105.017 43.118ZM88.2795 59.0314H108.723C109.473 59.0314 109.447 59.0557 109.447 58.4783V50.4623C109.447 50.3751 109.373 50.3007 109.287 50.3007H88.2795C88.1927 50.3007 88.1186 50.3751 88.1186 50.4623V58.8699C88.1186 58.957 88.1927 59.0314 88.2795 59.0314ZM71.9825 17.1343H59.5148C59.428 17.1343 59.354 17.2087 59.354 17.2959V22.3601C59.354 22.7019 59.3621 22.7011 59.7009 22.7011H71.9846C72.0706 22.7 72.1434 22.626 72.1434 22.5395V17.2959C72.1434 17.2087 72.0694 17.1343 71.9825 17.1343ZM76.1138 33.0477C76.1999 33.0466 76.4131 33.029 76.4131 32.6699V24.4786C76.4131 24.3914 76.3391 24.317 76.2522 24.317H59.5148H55.2451C55.1583 24.317 55.0842 24.3914 55.0842 24.4786V32.2431C55.0842 33.2425 54.9567 33.0477 56.0281 33.0477H76.1138Z" fill="#02FFCD" stroke="#02FFCD" stroke-width="2"/>
</svg>
