<svg width="172" height="338" viewBox="0 0 172 338" fill="none" xmlns="http://www.w3.org/2000/svg">
<path fill-rule="evenodd" clip-rule="evenodd" d="M26.1007 4.82751C14.3218 4.82751 4.69746 14.291 4.69746 25.873V311.906C4.69746 323.488 14.3218 332.951 26.1007 332.951H145.707C157.482 332.951 167.099 323.495 166.991 311.808L166.991 311.789V25.873C166.991 14.291 157.367 4.82751 145.588 4.82751H26.1007ZM0.562561 25.873C0.562561 12.0455 12.0382 0.761719 26.1007 0.761719H145.588C159.651 0.761719 171.126 12.0455 171.126 25.873V311.781C171.249 325.732 159.769 337.017 145.707 337.017H26.1007C12.0382 337.017 0.562561 325.733 0.562561 311.906V25.873Z" fill="black"/>
<path fill-rule="evenodd" clip-rule="evenodd" d="M26.7876 12.5205C20.1915 12.5205 14.759 17.952 14.759 24.547V309.99C14.759 317.046 20.5375 322.824 27.595 322.824H144.098C151.155 322.824 156.934 317.046 156.934 309.99V25.3544C156.934 18.298 151.155 12.5205 144.098 12.5205H26.7876ZM12.7472 24.547C12.7472 16.8411 19.0804 10.509 26.7876 10.509H144.098C152.266 10.509 158.945 17.1871 158.945 25.3544V309.99C158.945 318.157 152.266 324.835 144.098 324.835H27.595C19.4264 324.835 12.7472 318.157 12.7472 309.99V24.547Z" fill="#02FFCD" stroke="#02FFCD" stroke-miterlimit="10" stroke-linecap="round" stroke-linejoin="round"/>
<path d="M41.9981 10.0742C41.9981 10.0742 41.521 17.5759 47.3659 20.5507C54.2844 24.1723 116.312 22.1028 116.312 22.1028C116.312 22.1028 125.616 20.6801 124.781 10.8502C124.066 1.40842 124.424 1.14974 124.424 1.14974L42.4752 0.761719L41.9981 10.0742Z" fill="black"/>
<path d="M106.305 17.3159C108.185 17.3159 109.709 15.7921 109.709 13.9125C109.709 12.0328 108.185 10.509 106.305 10.509C104.426 10.509 102.902 12.0328 102.902 13.9125C102.902 15.7921 104.426 17.3159 106.305 17.3159Z" fill="#02FFCD"/>
<path fill-rule="evenodd" clip-rule="evenodd" d="M29.8017 118.645C29.8017 118.134 30.2639 117.721 30.834 117.721H75.0655C75.6356 117.721 76.0978 118.134 76.0978 118.645V158.22C76.0978 158.73 75.6356 159.144 75.0655 159.144H30.834C30.2639 159.144 29.8017 158.73 29.8017 158.22V118.645ZM31.8663 119.568V157.296H74.0332V119.568H31.8663Z" fill="black"/>
<path fill-rule="evenodd" clip-rule="evenodd" d="M82.3555 107.975C82.9367 107.975 83.4079 108.423 83.4079 108.976V167.668C83.4079 168.221 82.9367 168.669 82.3555 168.669H20.6611L20.3511 174.567L27.4188 177.67C27.7713 177.824 28.0056 178.151 28.0284 178.52L28.4239 184.916C28.4554 185.425 28.0792 185.875 27.5505 185.961L20.2554 187.146L19.7979 193.238L36.3206 193.945C36.8024 193.965 37.2078 194.295 37.3044 194.744L39.0844 203.021C39.1477 203.316 39.0685 203.622 38.8687 203.855C38.6688 204.088 38.3694 204.223 38.0533 204.223H19.8034L20.2554 210.099L27.5749 211.457C28.0691 211.549 28.4258 211.961 28.4258 212.439V219.776C28.4258 220.26 28.062 220.674 27.5616 220.761L19.7915 222.105L20.2409 227.805H36.8032V211.875C36.8032 211.322 37.2743 210.874 37.8556 210.874C38.4368 210.874 38.908 211.322 38.908 211.875V228.806C38.908 229.358 38.4368 229.807 37.8556 229.807H19.2645C18.7138 229.807 18.2562 229.403 18.215 228.88L17.6217 221.356C17.5814 220.845 17.953 220.388 18.4829 220.296L26.321 218.941V213.264L19.0629 211.917C18.5969 211.831 18.2495 211.458 18.2149 211.008L17.6216 203.295C17.6002 203.017 17.7012 202.744 17.9003 202.54C18.0994 202.337 18.3787 202.221 18.6712 202.221H36.7639L35.4067 195.91L18.6239 195.192C18.3403 195.18 18.0738 195.059 17.885 194.858C17.6963 194.656 17.6012 194.39 17.6214 194.121L18.2148 186.22C18.2493 185.76 18.6096 185.382 19.0874 185.305L26.2674 184.139L25.9643 179.236L18.8235 176.101C18.4334 175.93 18.1919 175.551 18.2134 175.143L18.609 167.618C18.637 167.085 19.0992 166.667 19.66 166.667H81.3031V108.976C81.3031 108.423 81.7743 107.975 82.3555 107.975Z" fill="#02FFCD" stroke="#02FFCD" stroke-miterlimit="10" stroke-linecap="round" stroke-linejoin="round"/>
<path fill-rule="evenodd" clip-rule="evenodd" d="M39.5493 126.017C39.5493 125.501 40.0098 125.082 40.578 125.082H65.3235C65.8917 125.082 66.3522 125.501 66.3522 126.017V148.514C66.3522 149.03 65.8917 149.449 65.3235 149.449H40.578C40.0098 149.449 39.5493 149.03 39.5493 148.514V126.017ZM41.6067 126.952V147.579H64.2948V126.952H41.6067Z" fill="#02FFCD" stroke="#02FFCD" stroke-miterlimit="10" stroke-linecap="round" stroke-linejoin="round"/>
<path fill-rule="evenodd" clip-rule="evenodd" d="M58.6166 177.108C58.6917 176.583 59.0815 176.198 59.5382 176.198H75.166C75.682 176.198 76.1003 176.685 76.1003 177.286V192.624C76.1003 193.225 75.682 193.712 75.166 193.712C74.6499 193.712 74.2316 193.225 74.2316 192.624V178.375H60.3297L59.2307 186.054C59.1666 186.502 58.8706 186.856 58.488 186.943L52.0844 188.399L52.3561 194.568L58.4741 195.847C58.8671 195.929 59.1719 196.293 59.2326 196.753L60.1825 203.944L67.2355 205.251C67.7169 205.34 68.0585 205.845 68.0202 206.411L67.4934 214.182C67.455 214.748 67.0494 215.184 66.5619 215.184H51.461C51.0071 215.184 50.6188 214.805 50.5406 214.284L49.3114 206.104C49.2225 205.512 49.5624 204.948 50.0707 204.844C50.5791 204.741 51.0632 205.137 51.1522 205.729L52.246 213.008H65.6984L66.0893 207.242L59.2158 205.968C58.8148 205.894 58.5009 205.527 58.4391 205.059L57.4871 197.852L51.2959 196.558C50.8683 196.469 50.5501 196.048 50.5278 195.543L50.1766 187.567C50.1528 187.026 50.4743 186.547 50.9308 186.443L57.494 184.952L58.6166 177.108Z" fill="black"/>
<path fill-rule="evenodd" clip-rule="evenodd" d="M76.0967 204.345C76.0967 203.604 76.4295 203.003 76.8401 203.003H88.5758C88.89 203.003 89.1702 203.359 89.2759 203.894L90.673 210.956C90.8111 211.654 90.6096 212.422 90.2229 212.672C89.8363 212.921 89.4109 212.557 89.2728 211.859L88.0519 205.687H76.8401C76.4295 205.687 76.0967 205.086 76.0967 204.345Z" fill="#02FFCD" stroke="#02FFCD" stroke-miterlimit="10" stroke-linecap="round" stroke-linejoin="round"/>
<path fill-rule="evenodd" clip-rule="evenodd" d="M76.3179 213.16C76.4649 212.897 76.6667 212.748 76.8774 212.748H89.9358C90.367 212.748 90.7165 213.357 90.7165 214.109C90.7165 214.86 90.367 215.47 89.9358 215.47H77.6795L77.7841 222.21H84.8005C85.2316 222.21 85.5812 222.819 85.5812 223.57C85.5812 224.322 85.2316 224.931 84.8005 224.931H77.0241C76.6012 224.931 76.2551 224.344 76.2437 223.607L76.097 214.146C76.0913 213.778 76.171 213.423 76.3179 213.16Z" fill="#02FFCD" stroke="#02FFCD" stroke-miterlimit="10" stroke-linecap="round" stroke-linejoin="round"/>
<path fill-rule="evenodd" clip-rule="evenodd" d="M54.1692 225.415C54.1692 225.148 54.6182 224.931 55.1721 224.931H64.9725C65.5048 224.931 65.9443 225.132 65.9739 225.388L66.3508 228.658C66.3783 228.897 66.0415 229.109 65.5576 229.158L59.338 229.794C58.7962 229.85 58.2638 229.683 58.1489 229.422C58.034 229.16 58.38 228.904 58.9218 228.848L64.3005 228.298L64.0238 225.898H55.1721C54.6182 225.898 54.1692 225.682 54.1692 225.415Z" fill="#02FFCD" stroke="#02FFCD" stroke-miterlimit="10" stroke-linecap="round" stroke-linejoin="round"/>
<path fill-rule="evenodd" clip-rule="evenodd" d="M76.0967 231.061C76.0967 230.367 76.5321 229.805 77.0693 229.805H101.927C102.464 229.805 102.9 230.367 102.9 231.061V240.733C102.9 241.426 102.464 241.988 101.927 241.988C101.39 241.988 100.955 241.426 100.955 240.733V232.316H78.0419V240.733C78.0419 241.426 77.6064 241.988 77.0693 241.988C76.5321 241.988 76.0967 241.426 76.0967 240.733V231.061Z" fill="black"/>
<path fill-rule="evenodd" clip-rule="evenodd" d="M91.5693 107.975C92.04 107.975 92.4215 108.392 92.4215 108.907V115.857H96.3226V113.461C96.3226 112.946 96.7041 112.529 97.1748 112.529C97.6455 112.529 98.027 112.946 98.027 113.461V116.789C98.027 117.304 97.6455 117.721 97.1748 117.721H91.5693C91.0987 117.721 90.7171 117.304 90.7171 116.789V108.907C90.7171 108.392 91.0987 107.975 91.5693 107.975Z" fill="black"/>
<path fill-rule="evenodd" clip-rule="evenodd" d="M109.19 107.975C109.753 107.975 110.21 108.426 110.21 108.983V132.846C110.21 133.359 109.819 133.791 109.302 133.847L101.58 134.695V149.133C101.58 149.592 101.266 149.993 100.817 150.108L92.7581 152.185V166.875H98.7186L99.7416 159.972C99.8149 159.477 100.245 159.11 100.751 159.11H106.313C106.877 159.11 107.333 159.561 107.333 160.118C107.333 160.674 106.877 161.126 106.313 161.126H101.633L100.61 168.029C100.537 168.524 100.107 168.891 99.6006 168.891H91.7376C91.174 168.891 90.7171 168.439 90.7171 167.883V151.406C90.7171 150.947 91.0306 150.547 91.48 150.431L99.5391 148.355V133.793C99.5391 133.279 99.93 132.848 100.447 132.791L108.169 131.944V108.983C108.169 108.426 108.626 107.975 109.19 107.975Z" fill="black"/>
<path fill-rule="evenodd" clip-rule="evenodd" d="M121.08 107.975C121.701 107.975 122.205 108.433 122.205 108.999V115.673H129.666L129.062 112.646C128.951 112.09 129.356 111.557 129.967 111.456C130.578 111.354 131.164 111.723 131.275 112.28L132.12 116.514C132.18 116.813 132.091 117.12 131.877 117.353C131.663 117.587 131.347 117.721 131.014 117.721H121.08C120.459 117.721 119.955 117.263 119.955 116.697V108.999C119.955 108.433 120.459 107.975 121.08 107.975Z" fill="#02FFCD" stroke="#02FFCD" stroke-miterlimit="10" stroke-linecap="round" stroke-linejoin="round"/>
<path fill-rule="evenodd" clip-rule="evenodd" d="M135.697 107.975C136.328 107.958 136.853 108.506 136.869 109.199L137.056 117.647H144.474V112.533C144.474 111.84 144.986 111.278 145.619 111.278C146.251 111.278 146.763 111.84 146.763 112.533V118.903C146.763 119.596 146.251 120.158 145.619 120.158H135.94C135.318 120.158 134.81 119.614 134.795 118.933L134.58 109.261C134.565 108.568 135.065 107.992 135.697 107.975Z" fill="black"/>
<path fill-rule="evenodd" clip-rule="evenodd" d="M118.779 133.282C118.802 132.755 119.229 132.34 119.748 132.34H135.605C136.14 132.34 136.574 132.781 136.574 133.326V140.493H143.624C144.16 140.493 144.594 140.935 144.594 141.479V157.171H153.101C153.637 157.171 154.071 157.612 154.071 158.157C154.071 158.701 153.637 159.143 153.101 159.143H143.624C143.088 159.143 142.654 158.701 142.654 158.157V142.465H135.605C135.069 142.465 134.635 142.024 134.635 141.479V134.312H120.676L119.988 150.232C119.966 150.741 119.565 151.15 119.064 151.173L111.227 151.544C110.692 151.569 110.238 151.149 110.213 150.605C110.188 150.061 110.602 149.599 111.137 149.574L118.089 149.245L118.779 133.282Z" fill="black"/>
<path fill-rule="evenodd" clip-rule="evenodd" d="M122.393 147.975C122.393 147.414 122.872 146.96 123.464 146.96H135.942C136.533 146.96 137.013 147.414 137.013 147.975C137.013 148.536 136.533 148.991 135.942 148.991H124.535V155.932H132.52C133.112 155.932 133.591 156.386 133.591 156.947V170.31C133.591 170.871 133.112 171.326 132.52 171.326C131.929 171.326 131.449 170.871 131.449 170.31V157.963H123.464C122.872 157.963 122.393 157.508 122.393 156.947V147.975Z" fill="#02FFCD" stroke="#02FFCD" stroke-miterlimit="10" stroke-linecap="round" stroke-linejoin="round"/>
<path fill-rule="evenodd" clip-rule="evenodd" d="M110.59 160.196C110.59 159.615 111.07 159.144 111.661 159.144H121.321C121.913 159.144 122.392 159.615 122.392 160.196V170.276C122.392 170.857 121.913 171.327 121.321 171.327H108.843C108.252 171.327 107.772 170.857 107.772 170.276C107.772 169.695 108.252 169.224 108.843 169.224H120.25V161.248H111.661C111.07 161.248 110.59 160.777 110.59 160.196Z" fill="#02FFCD" stroke="#02FFCD" stroke-miterlimit="10" stroke-linecap="round" stroke-linejoin="round"/>
<path fill-rule="evenodd" clip-rule="evenodd" d="M131.18 171.327C131.709 171.327 132.138 171.776 132.138 172.33V182.507C132.138 183.061 131.709 183.51 131.18 183.51H120.914C120.384 183.51 119.955 183.061 119.955 182.507V178.361C119.955 177.807 120.384 177.358 120.914 177.358C121.443 177.358 121.872 177.807 121.872 178.361V181.504H130.222V172.33C130.222 171.776 130.651 171.327 131.18 171.327Z" fill="#02FFCD" stroke="#02FFCD" stroke-miterlimit="10" stroke-linecap="round" stroke-linejoin="round"/>
<path fill-rule="evenodd" clip-rule="evenodd" d="M92.1789 179.747C92.1789 179.133 92.5869 178.636 93.0902 178.636H113.299C113.802 178.636 114.21 179.133 114.21 179.747V203.527L123.947 203.91C124.438 203.93 124.828 204.421 124.828 205.021V214.212C124.828 214.826 124.42 215.323 123.917 215.323H117.122V223.82C117.122 224.434 116.714 224.932 116.21 224.932H103.195C102.691 224.932 102.283 224.434 102.283 223.82V188.169H96.2279V195.204C96.2279 195.818 95.8199 196.316 95.3166 196.316H86.7535C86.2502 196.316 85.8422 195.818 85.8422 195.204C85.8422 194.59 86.2502 194.093 86.7535 194.093H94.4053V187.058C94.4053 186.444 94.8133 185.946 95.3166 185.946H103.195C103.698 185.946 104.106 186.444 104.106 187.058V222.709H115.299V214.212C115.299 213.598 115.707 213.1 116.21 213.1H123.006V206.098L113.27 205.714C112.778 205.695 112.388 205.203 112.388 204.604V180.859H93.0902C92.5869 180.859 92.1789 180.361 92.1789 179.747Z" fill="#02FFCD" stroke="#02FFCD" stroke-miterlimit="10" stroke-linecap="round" stroke-linejoin="round"/>
<path fill-rule="evenodd" clip-rule="evenodd" d="M134.58 177.407C134.58 176.739 134.989 176.198 135.493 176.198H138.923C139.427 176.198 139.836 176.739 139.836 177.407V185.964H153.16C153.664 185.964 154.073 186.505 154.073 187.173C154.073 187.84 153.664 188.381 153.16 188.381H138.923C138.419 188.381 138.011 187.84 138.011 187.173V178.615H135.493C134.989 178.615 134.58 178.074 134.58 177.407Z" fill="black"/>
<path fill-rule="evenodd" clip-rule="evenodd" d="M133.092 188.384C133.617 188.384 134.043 188.827 134.043 189.374V203.46H139.293V197.75C139.293 197.203 139.719 196.759 140.244 196.759H147.754C148.28 196.759 148.706 197.203 148.706 197.75V203.088H153.118C153.644 203.088 154.07 203.531 154.07 204.078C154.07 204.625 153.644 205.068 153.118 205.068H147.754C147.229 205.068 146.803 204.625 146.803 204.078V198.74H141.196V204.45C141.196 204.997 140.77 205.44 140.244 205.44H133.092C132.566 205.44 132.14 204.997 132.14 204.45V189.374C132.14 188.827 132.566 188.384 133.092 188.384Z" fill="black"/>
<path fill-rule="evenodd" clip-rule="evenodd" d="M108.991 227.37C109.664 227.37 110.209 227.85 110.209 228.441V240.919C110.209 241.51 109.664 241.99 108.991 241.99C108.318 241.99 107.772 241.51 107.772 240.919V228.441C107.772 227.85 108.318 227.37 108.991 227.37Z" fill="black"/>
<path fill-rule="evenodd" clip-rule="evenodd" d="M143.034 218.65C143.034 218.082 143.424 217.623 143.905 217.623H148.324C148.805 217.623 149.195 218.082 149.195 218.65C149.195 219.217 148.805 219.676 148.324 219.676H144.776V230.807C144.776 231.374 144.386 231.834 143.905 231.834H137.358C136.9 231.834 136.52 231.415 136.489 230.877L136.053 223.343H129.39V231.193C129.39 231.76 129 232.22 128.519 232.22H121.697V238.526C121.697 239.093 121.307 239.552 120.826 239.552C120.345 239.552 119.955 239.093 119.955 238.526V231.193C119.955 230.626 120.345 230.166 120.826 230.166H127.648V222.316C127.648 221.749 128.038 221.289 128.519 221.289H136.867C137.325 221.289 137.704 221.707 137.735 222.246L138.171 229.78H143.034V218.65Z" fill="black"/>
<path fill-rule="evenodd" clip-rule="evenodd" d="M12.7461 107.566C12.7461 106.446 13.6745 105.538 14.8198 105.538H156.871C158.016 105.538 158.944 106.446 158.944 107.566V239.963C158.944 241.082 158.016 241.99 156.871 241.99H14.8198C13.6745 241.99 12.7461 241.082 12.7461 239.963V107.566ZM16.8935 109.593V237.935H154.797V109.593H16.8935Z" fill="black"/>
<path fill-rule="evenodd" clip-rule="evenodd" d="M37.1118 177.155C37.1118 176.627 37.5437 176.198 38.0764 176.198H50.7669C51.0283 176.198 51.2785 176.304 51.4603 176.49C51.642 176.676 51.7398 176.928 51.731 177.187L51.5498 182.583C51.532 183.111 51.086 183.525 50.5535 183.508C50.021 183.49 49.6037 183.047 49.6215 182.519L49.7695 178.112H38.0764C37.5437 178.112 37.1118 177.684 37.1118 177.155Z" fill="black"/>
<path fill-rule="evenodd" clip-rule="evenodd" d="M145.541 168.891C146.214 168.891 146.759 169.244 146.759 169.681V177.847C146.759 178.283 146.214 178.637 145.541 178.637C144.868 178.637 144.323 178.283 144.323 177.847V169.681C144.323 169.244 144.868 168.891 145.541 168.891Z" fill="black"/>
</svg>
