<svg width="109" height="132" viewBox="0 0 109 132" fill="none" xmlns="http://www.w3.org/2000/svg">
<path d="M106.97 112.108L81.5987 13.7764C80.8619 10.9795 78.0225 9.30593 75.2259 10.011L26.823 22.497C24.0261 23.2338 22.3525 26.0731 23.0576 28.8698L48.46 127.233C49.1968 130.03 52.0362 131.704 54.8328 130.999L103.236 118.513C106.033 117.776 107.706 114.905 106.97 112.108ZM48.7372 22.2115L55.9516 20.3398C56.6509 20.1556 57.3766 20.5741 57.5608 21.2734C57.745 21.9726 57.3264 22.6983 56.6272 22.8825L49.4128 24.7542C48.7135 24.9384 47.9878 24.5198 47.8036 23.8206C47.6194 23.1214 48.038 22.3957 48.7372 22.2115ZM78.0987 121.117C75.6197 121.761 73.0643 120.248 72.4516 117.77C71.8389 115.291 73.3197 112.735 75.7984 112.123C78.2774 111.478 80.8328 112.991 81.4455 115.47C82.0899 117.949 80.5774 120.504 78.0987 121.117ZM52.4533 112.871L31.8989 33.1956L76.0114 21.814L96.5657 101.49L52.4533 112.871Z" fill="#02FFCD"/>
<path d="M63.4633 81.8505L54.342 84.213L51.9794 75.0917C51.795 74.4242 51.101 74.0059 50.4335 74.1904C49.7659 74.3749 49.3477 75.0688 49.5322 75.7364L52.201 86.097C52.3546 86.6692 52.8586 87.054 53.4294 87.059C53.5245 87.0598 53.6513 87.0609 53.7467 87.03L64.1074 84.3612C64.7749 84.1767 65.1932 83.4827 65.0087 82.8152C64.8248 82.0843 64.1308 81.666 63.4633 81.8505Z" fill="black"/>
<path d="M48.6815 66.5823L46.3189 57.461L55.4403 55.0985C56.1078 54.914 56.526 54.22 56.3416 53.5525C56.1571 52.885 55.4631 52.4667 54.7956 52.6512L44.4349 55.3201C43.7674 55.5045 43.3491 56.1985 43.5336 56.866L46.2025 67.2267C46.3561 67.7988 46.8601 68.1837 47.4308 68.1887C47.526 68.1895 47.6528 68.1906 47.7482 68.1597C48.4474 67.9755 48.8657 67.2815 48.6815 66.5823Z" fill="black"/>
<path d="M79.9153 67.5553L82.2778 76.6766L73.1565 79.0391C72.489 79.2236 72.0707 79.9176 72.2552 80.5851C72.4088 81.1572 72.9128 81.5421 73.4836 81.5471C73.5787 81.5479 73.7055 81.549 73.8009 81.5181L84.1616 78.8493C84.8291 78.6648 85.2474 77.9708 85.0629 77.3033L82.394 66.9426C82.2095 66.2751 81.5156 65.8568 80.848 66.0413C80.1491 66.1938 79.7308 66.8878 79.9153 67.5553Z" fill="black"/>
<path d="M75.1492 47.1404L64.7885 49.8092C64.121 49.9937 63.7028 50.6877 63.8872 51.3552C64.0717 52.0227 64.7657 52.441 65.4332 52.2565L74.5545 49.894L76.917 59.0153C77.0706 59.5874 77.5746 59.9723 78.1454 59.9773C78.2405 59.9781 78.3673 59.9792 78.4627 59.9483C79.1303 59.7638 79.5485 59.0698 79.364 58.4023L76.6949 48.0734C76.5107 47.3741 75.8164 46.9876 75.1492 47.1404Z" fill="black"/>
<path d="M62.1227 56.8698L59.8813 57.4482L60.4598 59.6896L62.7012 59.1112L62.1227 56.8698Z" fill="black"/>
<path d="M71.601 61.3748L73.8575 60.7919L73.2746 58.5354L72.6917 56.279L72.1087 54.0225L69.8523 54.6054L67.5958 55.1883L65.3393 55.7712L65.9222 58.0277L66.5051 60.2842L67.088 62.5406L69.3445 61.9577L71.601 61.3748ZM68.2104 57.4451L70.4669 56.8621L71.0498 59.1186L68.7933 59.7015L68.2104 57.4451Z" fill="black"/>
<path d="M55.4616 68.194L53.2202 68.7725L53.7987 71.0138L56.0401 70.4354L55.4616 68.194Z" fill="black"/>
<path d="M65.4459 65.3497L67.7024 64.7668L67.1192 62.542L64.8627 63.1249L62.6062 63.7078L63.1894 65.9326L65.4459 65.3497Z" fill="black"/>
<path d="M68.8377 69.2817L71.0941 68.6988L70.5112 66.4423L69.928 64.2175L67.7035 64.769L68.2547 67.0252L68.8377 69.2817Z" fill="black"/>
<path d="M72.2048 67.1179L74.4613 66.535L73.8781 64.3102L73.2952 62.0537L71.0387 62.6366L71.6219 64.8614L72.2048 67.1179Z" fill="black"/>
<path d="M57.586 72.1961L55.3295 72.779L55.9124 75.0355L56.4954 77.292L57.0783 79.5485L59.3347 78.9656L61.5912 78.3826L63.8477 77.7997L63.2648 75.5433L62.6819 73.2868L62.099 71.0303L59.8425 71.6132L57.586 72.1961ZM61.0086 76.0945L58.7521 76.6774L58.1692 74.4209L60.4257 73.838L61.0086 76.0945Z" fill="black"/>
<path d="M68.8376 69.2808L66.5811 69.8637L65.9982 67.6073L63.7417 68.1902L63.1588 65.9337L60.9024 66.5166L60.3194 64.2601L62.5759 63.6772L61.993 61.4207L59.7365 62.0036L59.1536 59.7472L58.5707 57.4907L56.3142 58.0736L54.0577 58.6565L51.8644 59.2717L52.4473 61.5282L53.0302 63.7846L53.6131 66.0411L55.8696 65.4582L58.1261 64.8753L58.709 67.1318L59.2919 69.3882L61.5484 68.8053L62.1313 71.0618L64.3878 70.4789L64.9707 72.7354L67.2272 72.1525L67.8101 74.4089L70.0666 73.826L69.4837 71.5696L68.8376 69.2808ZM55.2867 63.2017L54.7038 60.9452L56.9603 60.3623L57.5432 62.6188L55.2867 63.2017Z" fill="black"/>
<path d="M67.7565 74.3776L65.5151 74.9561L66.0936 77.1974L68.335 76.619L67.7565 74.3776Z" fill="black"/>
<path d="M75.0986 74.8844L74.5157 72.6279L72.2592 73.2108L70.0027 73.7938L70.5856 76.0502L72.8421 75.4673L75.0986 74.8844Z" fill="black"/>
<path d="M75.0197 68.7956L72.7783 69.374L73.3568 71.6154L75.5982 71.0369L75.0197 68.7956Z" fill="black"/>
<path d="M14.9102 18.1408C15.2061 17.6276 15.1219 16.9991 14.7218 16.592C14.6551 16.5242 14.5662 16.4337 14.477 16.3881L6.55746 11.7228C5.95502 11.3812 5.16855 11.5762 4.82698 12.1786C4.48541 12.7811 4.68039 13.5675 5.28283 13.9091L13.2023 18.5744C13.7821 18.9382 14.5686 18.7432 14.9102 18.1408Z" fill="#02FFCD"/>
<path d="M20.059 11.5677C20.2325 12.2419 20.9239 12.6739 21.6206 12.4781C22.3174 12.2824 22.7269 11.6133 22.5311 10.9165L20.1017 1.47794C20.0588 1.25334 19.9258 1.07281 19.7702 0.914504C19.4591 0.597888 19.0118 0.459473 18.54 0.567491C17.8658 0.74102 17.4338 1.43237 17.6296 2.12916L20.059 11.5677Z" fill="#02FFCD"/>
<path d="M14.4715 27.8673C14.4286 27.6427 14.2957 27.4622 14.1401 27.3039C13.8289 26.9873 13.3817 26.8489 12.9099 26.9569L2.37019 29.6682C1.69601 29.8418 1.26399 30.5331 1.45974 31.2299C1.63327 31.9041 2.32462 32.3361 3.02141 32.1404L13.5611 29.429C14.213 29.2329 14.6451 28.5415 14.4715 27.8673Z" fill="#02FFCD"/>
</svg>
