<svg width="141" height="175" viewBox="0 0 141 175" fill="none" xmlns="http://www.w3.org/2000/svg">
<path d="M70.3729 132.734C66.0047 132.734 62.4507 136.288 62.4507 140.657C62.4507 145.026 66.0047 148.58 70.3729 148.58C74.7419 148.58 78.2959 145.026 78.2959 140.657C78.2959 136.288 74.7419 132.734 70.3729 132.734ZM70.3729 145.69C67.5979 145.69 65.3407 143.432 65.3407 140.657C65.3407 137.882 67.5979 135.624 70.3729 135.624C73.148 135.624 75.4058 137.882 75.4058 140.657C75.4058 143.432 73.148 145.69 70.3729 145.69Z" fill="black"/>
<path d="M70.3736 132.734C66.0047 132.734 62.4507 136.288 62.4507 140.657C62.4507 145.026 66.0047 148.58 70.3736 148.58C74.7419 148.58 78.2959 145.026 78.2959 140.657C78.2959 136.288 74.7419 132.734 70.3736 132.734ZM70.3736 145.69C67.5986 145.69 65.3407 143.432 65.3407 140.657C65.3407 137.882 67.5986 135.624 70.3736 135.624C73.1487 135.624 75.4058 137.882 75.4058 140.657C75.4058 143.432 73.1487 145.69 70.3736 145.69Z" fill="black"/>
<path d="M70.3736 132.734C66.0047 132.734 62.4507 136.288 62.4507 140.657C62.4507 145.026 66.0047 148.58 70.3736 148.58C74.7419 148.58 78.2959 145.026 78.2959 140.657C78.2959 136.288 74.7419 132.734 70.3736 132.734ZM70.3736 145.69C67.5986 145.69 65.3407 143.432 65.3407 140.657C65.3407 137.882 67.5986 135.624 70.3736 135.624C73.1487 135.624 75.4058 137.882 75.4058 140.657C75.4058 143.432 73.1487 145.69 70.3736 145.69Z" fill="black"/>
<path d="M0 60.084V68.5164C0 69.0268 0.229213 69.5106 0.624524 69.8348C1.019 70.1573 1.53723 70.2803 2.03884 70.1856L41.5516 62.1738L41.5524 67.3044C41.5533 72.824 41.5533 77.3461 41.5632 83.9614C40.2328 84.9489 38.9073 85.9448 37.5811 86.939C35.9151 88.1909 34.2492 89.4411 32.5741 90.678C31.5833 91.4079 31.1149 92.3555 31.1431 93.5692C31.1739 94.9574 31.1681 96.3473 31.1622 97.7372L31.1581 100.389C31.1581 100.919 31.4047 101.42 31.8258 101.742C32.1256 101.972 32.4894 102.091 32.8589 102.091C33.0084 102.091 33.1579 102.071 33.3049 102.032L37.694 100.786C42.0275 99.5477 46.3618 98.3091 50.6961 97.0888C50.9518 97.0173 51.1445 97.0123 51.1869 97.0256C54.0495 97.8203 56.9048 98.6416 59.76 99.4629L68.7117 102.025C69.2109 102.165 69.744 102.075 70.1659 101.774C70.587 101.473 70.8486 100.997 70.8768 100.479L70.8951 100.181C70.9109 99.9417 70.9225 99.7389 70.9225 99.5394L70.9208 97.6158C70.9175 96.2193 70.9142 94.8244 70.9374 93.4279C70.9549 92.3023 70.5214 91.4278 69.6136 90.7562C68.2309 89.7304 66.8548 88.6996 65.4778 87.6672C63.8343 86.4352 62.1916 85.2016 60.5149 83.9481C60.5315 76.982 60.5306 72.3851 60.5298 66.4465L60.529 62.1671L100.053 70.1856C100.551 70.2803 101.072 70.1573 101.467 69.8348C101.862 69.5106 102.091 69.0268 102.091 68.5164V60.0723C102.091 59.4705 101.775 58.9152 101.258 58.6076L60.5099 34.421C60.5115 34.4127 60.5132 34.4027 60.5132 34.3894C60.5315 27.7974 60.5306 22.6369 60.5306 16.8064V10.1146C60.5306 7.9899 60.0556 6.16277 59.0798 4.52849C57.526 1.92994 54.8875 0.292341 51.8405 0.0346467C48.8001 -0.221385 45.9274 0.950707 43.9666 3.24834C42.3372 5.15694 41.5466 7.38973 41.5499 10.0747L41.5541 20.1032C41.5549 24.6652 41.5558 29.0543 41.5624 34.4293C36.9856 37.2523 14.1697 50.95 0.853737 58.6076C0.32555 58.9119 0 59.4738 0 60.084ZM3.40166 61.0682C16.9535 53.2509 39.2154 39.8824 43.4559 37.2606C44.4749 36.6305 44.9699 35.7327 44.9682 34.5108C44.9574 29.1424 44.9566 24.7117 44.9558 20.1032L44.9516 10.0714C44.9491 8.2077 45.4582 6.743 46.5528 5.45952C47.7927 4.00479 49.5998 3.25998 51.5556 3.42789C53.4973 3.59082 55.1757 4.62991 56.1606 6.27749C56.8209 7.38308 57.129 8.60172 57.129 10.1146V16.808C57.129 22.6352 57.1298 27.7924 57.1115 34.3778C57.1066 35.6862 57.6356 36.6521 58.7576 37.3487L98.6897 61.0416V66.4349L59.1662 58.4164C58.6629 58.3167 58.1472 58.443 57.7518 58.7672C57.3565 59.0914 57.1273 59.5752 57.1273 60.0856L57.1282 66.4465C57.129 72.3834 57.1298 76.9787 57.1132 83.9398C57.1099 85.1102 57.57 86.0196 58.5192 86.7212C60.1652 87.9365 61.8013 89.1651 63.439 90.3921C64.7869 91.4029 66.1364 92.4137 67.535 93.4561C67.5134 94.8444 67.5158 96.2342 67.5192 97.6225V98.1428L60.7001 96.191C57.8349 95.3664 54.9689 94.5418 52.0904 93.7421C51.7607 93.6523 51.4302 93.6174 51.1155 93.6174C50.6064 93.6174 50.138 93.7088 49.7792 93.8086C45.4366 95.0322 41.0982 96.2725 36.7597 97.5127L34.5631 98.1395L34.5639 97.7505C34.5697 96.3307 34.5755 94.9125 34.5921 93.4179C36.2755 92.176 37.949 90.9191 39.6224 89.6639C40.9686 88.6531 42.3148 87.6422 43.6627 86.6414C44.543 85.9913 44.9699 85.1501 44.9665 84.0694C44.9549 77.411 44.9549 72.8639 44.9541 67.3044L44.9533 60.9235C44.9533 60.7357 44.94 60.5495 44.92 60.3084L44.8951 59.9859C44.8619 59.4971 44.6194 59.0465 44.2299 58.7489C43.8404 58.453 43.3421 58.34 42.8604 58.4331L3.40166 66.4349V61.0682Z" fill="#02FFCD"/>
<path d="M49.3942 152.823C49.3942 157.434 53.1457 161.186 57.7568 161.186L65.2503 161.185L56.6387 172.667C56.1552 173.312 56.2855 174.226 56.93 174.709C57.1928 174.906 57.4997 175.001 57.8038 175.001C58.2474 175.001 58.6854 174.799 58.9717 174.418L62.2505 170.046H127.349L130.628 174.418C130.914 174.799 131.352 175.001 131.796 175.001C132.1 175.001 132.407 174.906 132.67 174.709C133.314 174.226 133.444 173.312 132.961 172.667L124.348 161.183L128.545 161.183C128.581 161.185 128.747 161.194 129.015 161.194C130.399 161.194 134.5 160.952 137.358 158.261C139.25 156.479 140.209 154.025 140.207 150.967L140.203 81.1389C140.22 80.911 140.577 75.4953 135.47 69.9769C128.333 62.2638 114.65 58.3535 94.8005 58.3535C74.8821 58.3535 61.1786 62.271 54.0693 69.9969C48.994 75.5131 49.3799 80.9196 49.3942 81.0257V152.823ZM137.29 121.633H52.3092L52.3073 89.3947H137.29V121.633ZM125.161 167.129H64.4382L68.8961 161.185L120.702 161.183L125.161 167.129ZM137.29 150.97C137.291 153.184 136.645 154.919 135.37 156.127C132.888 158.475 128.754 158.27 128.634 158.269H57.7568C54.7537 158.269 52.3111 155.826 52.3111 152.823L52.3094 124.55H137.29V150.97C137.29 150.971 137.29 150.969 137.29 150.97ZM56.3026 71.8783C60.8175 67.0394 71.162 61.2704 94.8005 61.2704C118.358 61.2704 128.707 67.0316 133.241 71.8641C137.528 76.4317 137.305 80.7416 137.29 81.0257V86.4778H52.3072L52.3068 80.9146C52.294 80.7337 52.049 76.4374 56.3026 71.8783Z" fill="black"/>
<path d="M85.7766 80.6682H103.821C107 80.6682 109.587 78.081 109.587 74.9014V74.4641C109.587 71.2844 107 68.6973 103.821 68.6973H85.7766C82.5969 68.6973 80.0098 71.2844 80.0098 74.4641V74.9014C80.0098 78.081 82.5969 80.6682 85.7766 80.6682ZM82.9267 74.4641C82.9267 72.8924 84.2049 71.6142 85.7766 71.6142H103.821C105.392 71.6142 106.671 72.8924 106.671 74.4641V74.9014C106.671 76.473 105.392 77.7513 103.821 77.7513H85.7766C84.2049 77.7513 82.9267 76.473 82.9267 74.9014V74.4641Z" fill="black"/>
</svg>
