<svg width="302" height="593" viewBox="0 0 302 593" fill="none" xmlns="http://www.w3.org/2000/svg">
<path fill-rule="evenodd" clip-rule="evenodd" d="M45.7605 7.1676C24.9954 7.1676 8.02868 23.8508 8.02868 44.2689V548.517C8.02868 568.935 24.9954 585.619 45.7605 585.619H256.614C277.373 585.619 294.327 568.948 294.137 548.344L294.137 548.312V44.2689C294.137 23.8508 277.17 7.1676 256.405 7.1676H45.7605ZM0.739258 44.2689C0.739258 19.8923 20.9696 0 45.7605 0H256.405C281.196 0 301.426 19.8923 301.426 44.2689V548.298C301.643 572.891 281.404 592.786 256.614 592.786H45.7605C20.9696 592.786 0.739258 572.894 0.739258 548.517V44.2689Z" fill="white"/>
<path fill-rule="evenodd" clip-rule="evenodd" d="M46.9715 20.7306C35.3432 20.7306 25.7664 30.3059 25.7664 41.9323V545.14C25.7664 557.579 35.9533 567.765 48.3949 567.765H253.778C266.219 567.765 276.406 557.579 276.406 545.14V43.3555C276.406 30.9159 266.219 20.7306 253.778 20.7306H46.9715ZM22.2197 41.9323C22.2197 28.3475 33.3845 17.1846 46.9715 17.1846H253.778C268.178 17.1846 279.953 28.9575 279.953 43.3555V545.14C279.953 559.538 268.178 571.311 253.778 571.311H48.3949C33.9945 571.311 22.2197 559.538 22.2197 545.14V41.9323Z" fill="#02FFCD" stroke="#02FFCD" stroke-miterlimit="10" stroke-linecap="round" stroke-linejoin="round"/>
<path d="M73.7861 16.417C73.7861 16.417 72.945 29.6418 83.249 34.8861C95.4456 41.2705 204.795 37.6223 204.795 37.6223C204.795 37.6223 221.197 35.1141 219.725 17.7851C218.463 1.14007 219.094 0.684041 219.094 0.684041L74.6272 0L73.7861 16.417Z" fill="white"/>
<path d="M187.153 29.1846C190.467 29.1846 193.153 26.4983 193.153 23.1846C193.153 19.8709 190.467 17.1846 187.153 17.1846C183.84 17.1846 181.153 19.8709 181.153 23.1846C181.153 26.4983 183.84 29.1846 187.153 29.1846Z" fill="#02FFCD"/>
<path fill-rule="evenodd" clip-rule="evenodd" d="M52.2852 207.815C52.2852 206.916 53.0999 206.187 54.105 206.187H132.081C133.086 206.187 133.901 206.916 133.901 207.815V277.583C133.901 278.482 133.086 279.211 132.081 279.211H54.105C53.0999 279.211 52.2852 278.482 52.2852 277.583V207.815ZM55.9248 209.443V275.954H130.261V209.443H55.9248Z" fill="white"/>
<path fill-rule="evenodd" clip-rule="evenodd" d="M144.933 189.006C145.957 189.006 146.788 189.796 146.788 190.771V294.239C146.788 295.214 145.957 296.004 144.933 296.004H36.1716L35.625 306.402L48.0847 311.871C48.7061 312.144 49.1192 312.72 49.1594 313.37L49.8567 324.645C49.9122 325.543 49.2489 326.337 48.3168 326.489L35.4563 328.577L34.6497 339.317L63.7777 340.563C64.627 340.599 65.3417 341.18 65.512 341.972L68.65 356.563C68.7617 357.083 68.622 357.622 68.2697 358.033C67.9173 358.444 67.3896 358.682 66.8324 358.682H34.6594L35.4563 369.04L48.3599 371.435C49.2311 371.597 49.8599 372.323 49.8599 373.167V386.101C49.8599 386.953 49.2186 387.684 48.3365 387.837L34.6384 390.206L35.4308 400.254H64.6284V372.172C64.6284 371.198 65.4591 370.407 66.4837 370.407C67.5083 370.407 68.339 371.198 68.339 372.172V402.019C68.339 402.993 67.5083 403.783 66.4837 403.783H33.7094C32.7386 403.783 31.932 403.072 31.8594 402.151L30.8134 388.886C30.7424 387.985 31.3975 387.179 32.3316 387.017L46.1493 384.628V374.621L33.3541 372.246C32.5326 372.093 31.9202 371.437 31.8591 370.643L30.8131 357.046C30.7755 356.557 30.9535 356.075 31.3045 355.716C31.6556 355.357 32.1479 355.152 32.6635 355.152H64.5592L62.1665 344.027L32.5802 342.762C32.0801 342.74 31.6104 342.528 31.2776 342.172C30.9448 341.816 30.7772 341.348 30.8129 340.873L31.8589 326.945C31.9197 326.134 32.5549 325.468 33.3972 325.331L46.055 323.275L45.5205 314.633L32.932 309.107C32.2444 308.805 31.8187 308.136 31.8565 307.416L32.5538 294.151C32.6032 293.212 33.4181 292.474 34.4068 292.474H143.077V190.771C143.077 189.796 143.908 189.006 144.933 189.006Z" fill="#02FFCD" stroke="#02FFCD" stroke-miterlimit="10" stroke-linecap="round" stroke-linejoin="round"/>
<path fill-rule="evenodd" clip-rule="evenodd" d="M69.4697 220.814C69.4697 219.903 70.2817 219.165 71.2832 219.165H114.907C115.909 219.165 116.721 219.903 116.721 220.814V260.472C116.721 261.382 115.909 262.121 114.907 262.121H71.2832C70.2817 262.121 69.4697 261.382 69.4697 260.472V220.814ZM73.0968 222.462V258.823H113.094V222.462H73.0968Z" fill="#02FFCD" stroke="#02FFCD" stroke-miterlimit="10" stroke-linecap="round" stroke-linejoin="round"/>
<path fill-rule="evenodd" clip-rule="evenodd" d="M103.083 310.88C103.216 309.955 103.903 309.277 104.708 309.277H132.258C133.168 309.277 133.905 310.136 133.905 311.196V338.234C133.905 339.294 133.168 340.152 132.258 340.152C131.348 340.152 130.611 339.294 130.611 338.234V313.114H106.103L104.166 326.653C104.053 327.442 103.531 328.067 102.857 328.22L91.5677 330.785L92.0467 341.662L102.832 343.917C103.525 344.062 104.062 344.703 104.169 345.513L105.844 358.19L118.278 360.494C119.126 360.651 119.728 361.542 119.661 362.539L118.732 376.239C118.665 377.237 117.95 378.006 117.09 378.006H90.4686C89.6684 378.006 88.984 377.336 88.8461 376.419L86.6792 361.998C86.5224 360.954 87.1217 359.96 88.0178 359.778C88.9139 359.595 89.7674 360.293 89.9243 361.337L91.8526 374.17H115.568L116.257 364.004L104.14 361.759C103.433 361.628 102.879 360.981 102.77 360.156L101.092 347.451L90.1776 345.169C89.4239 345.012 88.8628 344.27 88.8236 343.38L88.2045 329.32C88.1625 328.366 88.7292 327.521 89.5341 327.338L101.104 324.709L103.083 310.88Z" fill="white"/>
<path fill-rule="evenodd" clip-rule="evenodd" d="M133.899 358.897C133.899 357.591 134.486 356.531 135.21 356.531H155.898C156.452 356.531 156.946 357.16 157.133 358.101L159.596 370.551C159.839 371.782 159.484 373.135 158.802 373.575C158.12 374.014 157.371 373.373 157.127 372.143L154.975 361.263H135.21C134.486 361.263 133.899 360.204 133.899 358.897Z" fill="#02FFCD" stroke="#02FFCD" stroke-miterlimit="10" stroke-linecap="round" stroke-linejoin="round"/>
<path fill-rule="evenodd" clip-rule="evenodd" d="M134.289 374.438C134.548 373.974 134.904 373.712 135.275 373.712H158.296C159.056 373.712 159.672 374.786 159.672 376.111C159.672 377.436 159.056 378.51 158.296 378.51H136.689L136.874 390.392H149.243C150.003 390.392 150.619 391.466 150.619 392.791C150.619 394.116 150.003 395.19 149.243 395.19H135.534C134.788 395.19 134.178 394.155 134.158 392.856L133.899 376.176C133.889 375.528 134.03 374.902 134.289 374.438Z" fill="#02FFCD" stroke="#02FFCD" stroke-miterlimit="10" stroke-linecap="round" stroke-linejoin="round"/>
<path fill-rule="evenodd" clip-rule="evenodd" d="M95.2427 396.042C95.2427 395.571 96.0342 395.189 97.0107 395.189H114.288C115.226 395.189 116.001 395.543 116.053 395.994L116.718 401.76C116.766 402.18 116.172 402.554 115.319 402.641L104.355 403.762C103.4 403.859 102.461 403.565 102.259 403.105C102.056 402.645 102.666 402.192 103.621 402.095L113.103 401.125L112.615 396.894H97.0107C96.0342 396.894 95.2427 396.512 95.2427 396.042Z" fill="#02FFCD" stroke="#02FFCD" stroke-miterlimit="10" stroke-linecap="round" stroke-linejoin="round"/>
<path fill-rule="evenodd" clip-rule="evenodd" d="M133.899 405.994C133.899 404.772 134.667 403.781 135.614 403.781H179.435C180.382 403.781 181.15 404.772 181.15 405.994V423.046C181.15 424.268 180.382 425.259 179.435 425.259C178.488 425.259 177.721 424.268 177.721 423.046V408.207H137.328V423.046C137.328 424.268 136.56 425.259 135.614 425.259C134.667 425.259 133.899 424.268 133.899 423.046V405.994Z" fill="white"/>
<path fill-rule="evenodd" clip-rule="evenodd" d="M161.176 189.006C162.005 189.006 162.678 189.742 162.678 190.649V202.902H169.555V198.678C169.555 197.77 170.228 197.035 171.058 197.035C171.887 197.035 172.56 197.77 172.56 198.678V204.545C172.56 205.452 171.887 206.188 171.058 206.188H161.176C160.346 206.188 159.673 205.452 159.673 204.545V190.649C159.673 189.742 160.346 189.006 161.176 189.006Z" fill="white"/>
<path fill-rule="evenodd" clip-rule="evenodd" d="M192.239 189.006C193.232 189.006 194.038 189.801 194.038 190.782V232.851C194.038 233.756 193.348 234.517 192.437 234.617L178.824 236.11V261.564C178.824 262.373 178.271 263.079 177.479 263.283L163.271 266.943V292.841H173.779L175.583 280.672C175.712 279.799 176.47 279.153 177.363 279.153H187.167C188.161 279.153 188.966 279.948 188.966 280.929C188.966 281.91 188.161 282.706 187.167 282.706H178.918L177.114 294.875C176.985 295.748 176.227 296.395 175.334 296.395H161.472C160.479 296.395 159.673 295.599 159.673 294.618V265.571C159.673 264.762 160.226 264.056 161.018 263.852L175.226 260.192V234.52C175.226 233.615 175.915 232.855 176.826 232.755L190.44 231.261V190.782C190.44 189.801 191.245 189.006 192.239 189.006Z" fill="white"/>
<path fill-rule="evenodd" clip-rule="evenodd" d="M213.2 189.006C214.295 189.006 215.183 189.814 215.183 190.811V202.577H228.337L227.271 197.241C227.075 196.26 227.79 195.321 228.867 195.142C229.945 194.964 230.977 195.614 231.173 196.595L232.663 204.06C232.768 204.586 232.611 205.128 232.235 205.539C231.858 205.95 231.3 206.188 230.712 206.188H213.2C212.105 206.188 211.217 205.38 211.217 204.383V190.811C211.217 189.814 212.105 189.006 213.2 189.006Z" fill="#02FFCD" stroke="#02FFCD" stroke-miterlimit="10" stroke-linecap="round" stroke-linejoin="round"/>
<path fill-rule="evenodd" clip-rule="evenodd" d="M238.968 189.007C240.082 188.977 241.007 189.943 241.034 191.165L241.365 206.058H254.441V197.041C254.441 195.819 255.345 194.828 256.459 194.828C257.573 194.828 258.477 195.819 258.477 197.041V208.271C258.477 209.493 257.573 210.484 256.459 210.484H239.396C238.301 210.484 237.406 209.525 237.379 208.325L237 191.273C236.972 190.051 237.854 189.036 238.968 189.007Z" fill="white"/>
<path fill-rule="evenodd" clip-rule="evenodd" d="M209.144 233.622C209.184 232.692 209.937 231.96 210.852 231.96H238.805C239.75 231.96 240.515 232.738 240.515 233.698V246.334H252.943C253.887 246.334 254.653 247.112 254.653 248.072V275.734H269.651C270.595 275.734 271.36 276.513 271.36 277.473C271.36 278.433 270.595 279.211 269.651 279.211H252.943C251.999 279.211 251.233 278.433 251.233 277.473V249.81H238.805C237.861 249.81 237.096 249.032 237.096 248.072V235.437H212.488L211.275 263.502C211.236 264.4 210.529 265.12 209.646 265.162L195.83 265.815C194.886 265.86 194.086 265.119 194.042 264.16C193.999 263.201 194.728 262.387 195.671 262.343L207.927 261.763L209.144 233.622Z" fill="white"/>
<path fill-rule="evenodd" clip-rule="evenodd" d="M215.515 259.523C215.515 258.534 216.36 257.732 217.403 257.732H239.4C240.443 257.732 241.288 258.534 241.288 259.523C241.288 260.512 240.443 261.314 239.4 261.314H219.291V273.549H233.368C234.411 273.549 235.256 274.351 235.256 275.34V298.897C235.256 299.886 234.411 300.688 233.368 300.688C232.326 300.688 231.481 299.886 231.481 298.897V277.131H217.403C216.36 277.131 215.515 276.329 215.515 275.34V259.523Z" fill="#02FFCD" stroke="#02FFCD" stroke-miterlimit="10" stroke-linecap="round" stroke-linejoin="round"/>
<path fill-rule="evenodd" clip-rule="evenodd" d="M194.707 281.067C194.707 280.043 195.553 279.213 196.595 279.213H213.626C214.668 279.213 215.514 280.043 215.514 281.067V298.837C215.514 299.861 214.668 300.691 213.626 300.691H191.628C190.585 300.691 189.74 299.861 189.74 298.837C189.74 297.813 190.585 296.983 191.628 296.983H211.738V282.921H196.595C195.553 282.921 194.707 282.091 194.707 281.067Z" fill="#02FFCD" stroke="#02FFCD" stroke-miterlimit="10" stroke-linecap="round" stroke-linejoin="round"/>
<path fill-rule="evenodd" clip-rule="evenodd" d="M231.005 300.689C231.939 300.689 232.695 301.481 232.695 302.457V320.399C232.695 321.376 231.939 322.167 231.005 322.167H212.907C211.974 322.167 211.217 321.376 211.217 320.399V313.09C211.217 312.113 211.974 311.322 212.907 311.322C213.84 311.322 214.596 312.113 214.596 313.09V318.631H229.316V302.457C229.316 301.481 230.072 300.689 231.005 300.689Z" fill="#02FFCD" stroke="#02FFCD" stroke-miterlimit="10" stroke-linecap="round" stroke-linejoin="round"/>
<path fill-rule="evenodd" clip-rule="evenodd" d="M162.25 315.534C162.25 314.451 162.969 313.574 163.857 313.574H199.483C200.37 313.574 201.089 314.451 201.089 315.534V357.456L218.253 358.131C219.12 358.165 219.808 359.032 219.808 360.09V376.292C219.808 377.374 219.089 378.251 218.201 378.251H206.222V393.23C206.222 394.312 205.502 395.19 204.615 395.19H181.67C180.782 395.19 180.063 394.312 180.063 393.23V330.381H169.388V342.783C169.388 343.865 168.669 344.742 167.781 344.742H152.686C151.798 344.742 151.079 343.865 151.079 342.783C151.079 341.701 151.798 340.823 152.686 340.823H166.175V328.422C166.175 327.34 166.894 326.462 167.781 326.462H181.67C182.557 326.462 183.276 327.34 183.276 328.422V391.271H203.009V376.292C203.009 375.21 203.728 374.332 204.615 374.332H216.595V361.987L199.431 361.311C198.564 361.277 197.876 360.411 197.876 359.353V317.493H163.857C162.969 317.493 162.25 316.616 162.25 315.534Z" fill="#02FFCD" stroke="#02FFCD" stroke-miterlimit="10" stroke-linecap="round" stroke-linejoin="round"/>
<path fill-rule="evenodd" clip-rule="evenodd" d="M236.999 311.408C236.999 310.231 237.719 309.277 238.608 309.277H244.656C245.545 309.277 246.265 310.231 246.265 311.408V326.494H269.754C270.643 326.494 271.363 327.448 271.363 328.625C271.363 329.801 270.643 330.755 269.754 330.755H244.656C243.767 330.755 243.047 329.801 243.047 328.625V313.538H238.608C237.719 313.538 236.999 312.585 236.999 311.408Z" fill="white"/>
<path fill-rule="evenodd" clip-rule="evenodd" d="M234.376 330.76C235.302 330.76 236.053 331.541 236.053 332.506V357.337H245.308V347.271C245.308 346.306 246.059 345.525 246.985 345.525H260.225C261.151 345.525 261.902 346.306 261.902 347.271V356.681H269.681C270.608 356.681 271.359 357.462 271.359 358.426C271.359 359.391 270.608 360.172 269.681 360.172H260.225C259.298 360.172 258.547 359.391 258.547 358.426V349.017H248.662V359.083C248.662 360.047 247.911 360.829 246.985 360.829H234.376C233.45 360.829 232.699 360.047 232.699 359.083V332.506C232.699 331.541 233.45 330.76 234.376 330.76Z" fill="white"/>
<path fill-rule="evenodd" clip-rule="evenodd" d="M191.888 399.489C193.074 399.489 194.036 400.335 194.036 401.377V423.375C194.036 424.417 193.074 425.263 191.888 425.263C190.702 425.263 189.74 424.417 189.74 423.375V401.377C189.74 400.335 190.702 399.489 191.888 399.489Z" fill="white"/>
<path fill-rule="evenodd" clip-rule="evenodd" d="M251.902 384.115C251.902 383.115 252.59 382.305 253.438 382.305H261.229C262.076 382.305 262.764 383.115 262.764 384.115C262.764 385.115 262.076 385.925 261.229 385.925H254.973V405.547C254.973 406.547 254.286 407.357 253.438 407.357H241.896C241.088 407.357 240.419 406.62 240.364 405.67L239.596 392.389H227.85V406.227C227.85 407.227 227.162 408.037 226.314 408.037H214.288V419.154C214.288 420.154 213.601 420.965 212.753 420.965C211.905 420.965 211.217 420.154 211.217 419.154V406.227C211.217 405.228 211.905 404.417 212.753 404.417H224.779V390.578C224.779 389.579 225.466 388.768 226.314 388.768H241.03C241.838 388.768 242.507 389.506 242.562 390.455L243.33 403.737H251.902V384.115Z" fill="white"/>
<path fill-rule="evenodd" clip-rule="evenodd" d="M22.2183 188.284C22.2183 186.31 23.855 184.71 25.874 184.71H276.296C278.315 184.71 279.951 186.31 279.951 188.284V421.687C279.951 423.661 278.315 425.261 276.296 425.261H25.874C23.855 425.261 22.2183 423.661 22.2183 421.687V188.284ZM29.5298 191.858V418.113H272.64V191.858H29.5298Z" fill="white"/>
<path fill-rule="evenodd" clip-rule="evenodd" d="M65.1724 310.965C65.1724 310.033 65.9338 309.277 66.873 309.277H89.245C89.7059 309.277 90.147 309.463 90.4674 309.792C90.7878 310.12 90.9601 310.564 90.9447 311.021L90.6251 320.533C90.5938 321.464 89.8075 322.194 88.8688 322.163C87.9301 322.132 87.1945 321.352 87.2257 320.421L87.4868 312.652H66.873C65.9338 312.652 65.1724 311.896 65.1724 310.965Z" fill="white"/>
<path fill-rule="evenodd" clip-rule="evenodd" d="M256.323 296.394C257.509 296.394 258.47 297.017 258.47 297.786V312.183C258.47 312.952 257.509 313.576 256.323 313.576C255.136 313.576 254.175 312.952 254.175 312.183V297.786C254.175 297.017 255.136 296.394 256.323 296.394Z" fill="white"/>
</svg>
