<svg width="99" height="100" viewBox="0 0 99 100" fill="none" xmlns="http://www.w3.org/2000/svg">
<path d="M63.0969 86.4709C60.8965 86.8549 57.735 87.17 54.0693 86.8973C50.4034 86.6491 46.2625 85.7153 42.2206 83.9557C41.7223 83.7236 41.215 83.4952 40.7084 83.2598C40.1996 83.0304 39.6827 82.8052 39.2031 82.5055C38.7152 82.2235 38.2081 81.963 37.7147 81.6784C37.2214 81.3951 36.6888 81.1664 36.2297 80.8176C35.7605 80.4878 35.2266 80.2458 34.754 79.9148L34.0446 79.4182L33.6896 79.1696L33.4431 78.8191C32.9974 78.4375 32.5616 77.9719 32.1577 77.5822C31.7592 77.1863 31.3518 76.8152 30.9595 76.4075C27.7747 73.1007 25.5177 68.9044 24.0044 64.6806C22.4856 60.4466 21.6773 56.1842 21.2316 52.4767C20.9422 50.01 20.8138 47.7915 20.762 45.9263L25.3745 50.0984L25.5842 50.2875C26.3212 50.954 27.5239 50.7779 28.2721 49.8931C29.0202 49.0082 29.0355 47.7558 28.2985 47.0892L28.297 47.0869L28.2975 47.0861L20.4557 36.9974C19.9683 35.8803 18.7809 35.2925 17.4851 35.6546C16.7692 35.8546 16.1512 36.3245 15.7015 36.9135C15.6517 36.9756 15.6037 37.0365 15.5576 37.1024C15.5425 37.1255 15.5231 37.1442 15.508 37.1672L7.24677 50.2127L7.24748 50.2132L7.24645 50.2162C6.50558 51.1074 6.51383 52.3565 7.25801 53.0143C8.00219 53.6722 9.20566 53.4829 9.94595 52.5925L10.1561 52.3394L15.0502 46.7186C15.0497 46.7269 15.0535 46.7321 15.0537 46.7409C15.2534 48.8166 15.5763 51.3279 16.124 54.1297C16.8988 58.0317 18.1113 62.5 20.1133 66.9118C22.1059 71.3097 24.941 75.6547 28.7252 78.946C29.2014 79.3615 29.7126 79.7542 30.2038 80.1542C30.6992 80.5483 31.1866 80.846 31.6772 81.197L32.0781 81.474L32.4745 81.703L33.265 82.1596C33.7902 82.4627 34.3146 82.7652 34.8362 83.0658C35.3462 83.3844 35.8988 83.6284 36.4429 83.88C36.9858 84.1321 37.5251 84.3829 38.0616 84.6318C38.5885 84.8975 39.1445 85.1003 39.699 85.2946C40.25 85.4939 40.7963 85.6924 41.339 85.8884C45.7223 87.3562 50.0996 87.957 53.9014 87.9049C57.7048 87.8762 60.9064 87.3019 63.1144 86.7418C65.3262 86.1806 66.5527 85.6444 66.5527 85.6444C66.5527 85.6444 65.3025 86.0869 63.0969 86.4709Z" fill="#41F7D3"/>
<path d="M35.5928 12.5829C37.7932 12.1989 40.9547 11.8837 44.6204 12.1565C48.2863 12.4046 52.4272 13.3384 56.4691 15.0981C56.9674 15.3301 57.4747 15.5585 57.9813 15.7939C58.4901 16.0233 59.007 16.2485 59.4866 16.5483C59.9745 16.8302 60.4816 17.0908 60.975 17.3754C61.4683 17.6586 62.0009 17.8873 62.46 18.2361C62.9292 18.5659 63.4631 18.8079 63.9357 19.1389L64.6451 19.6356L65.0001 19.8842L65.2466 20.2346C65.6923 20.6163 66.1281 21.0818 66.532 21.4715C66.9305 21.8675 67.3379 22.2385 67.7302 22.6462C70.915 25.953 73.172 30.1493 74.6853 34.3731C76.2041 38.6071 77.0124 42.8695 77.4581 46.5771C77.7474 49.0438 77.8759 51.2623 77.9277 53.1274L73.3152 48.9554L73.1055 48.7663C72.3692 48.1002 71.1658 48.2758 70.4176 49.1607C69.6701 50.0447 69.6542 51.298 70.3912 51.9645L70.3927 51.9668L70.3922 51.9677L78.2347 62.0569C78.7227 63.1732 79.9095 63.7617 81.2053 63.3996C81.9212 63.1997 82.5398 62.7289 82.9902 62.1404C83.0394 62.0791 83.088 62.0174 83.1335 61.9523C83.1486 61.9293 83.1686 61.9098 83.1831 61.8876L91.4444 48.8421L91.4436 48.8416L91.4447 48.8385C92.1855 47.9474 92.1773 46.6983 91.4331 46.0404C90.6889 45.3826 89.4855 45.5719 88.7452 46.4622L88.535 46.7154L83.6409 52.3362C83.6415 52.3278 83.6376 52.3227 83.6374 52.3138C83.4377 50.2381 83.1148 47.7268 82.5672 44.9251C81.7923 41.023 80.5799 36.5548 78.5779 32.1429C76.5852 27.745 73.7502 23.4001 69.9659 20.1088C69.4898 19.6933 68.9786 19.3005 68.4873 18.9006C67.9919 18.5065 67.5045 18.2087 67.014 17.8578L66.613 17.5807L66.2167 17.3517L65.4261 16.8951C64.901 16.5921 64.3765 16.2895 63.855 15.989C63.345 15.6704 62.7923 15.4264 62.2482 15.1747C61.7054 14.9227 61.166 14.6718 60.6295 14.423C60.1026 14.1573 59.5466 13.9545 58.9921 13.7601C58.4411 13.5608 57.8948 13.3623 57.3521 13.1663C52.9688 11.6985 48.5915 11.0978 44.7897 11.1499C40.9864 11.1785 37.7847 11.7528 35.5768 12.313C33.3635 12.8732 32.137 13.4094 32.137 13.4094C32.137 13.4094 33.3872 12.9668 35.5928 12.5829Z" fill="#41F7D3"/>
</svg>
