<svg width="136" height="121" viewBox="0 0 136 121" fill="none" xmlns="http://www.w3.org/2000/svg">
<path d="M20.4837 99.0244C20.4837 99.0244 20.348 99.0244 20.4837 99.0244C19.6698 99.0244 18.9915 98.3462 18.9915 97.5323C19.2628 79.2195 15.8716 68.0962 12.7516 58.1938C8.54649 44.6288 5.01959 32.9629 11.6664 8.68159C13.0229 3.5269 17.7707 0 23.061 0H98.7537C99.5676 0 100.246 0.678249 100.246 1.49215C100.246 2.30605 99.5676 2.9843 98.7537 2.9843H23.061C19.1272 2.9843 15.6003 5.6973 14.5151 9.49549C8.00389 32.9629 11.5308 44.2219 15.6003 57.3799C18.7202 67.418 22.2471 78.9482 21.9758 97.6679C21.8402 98.3462 21.2976 99.0244 20.4837 99.0244Z" fill="#02FFCD"/>
<path d="M97.8037 62.4002C97.1254 62.4002 96.5828 61.9933 96.3115 61.315C95.2263 56.7029 93.5985 51.2769 93.5985 51.1413C91.1568 40.5606 91.4281 30.2512 92.1064 23.3331C92.242 22.5192 92.9203 21.9766 93.7342 21.9766C94.5481 22.1122 95.0907 22.7905 95.0907 23.6044C94.4124 30.2512 94.1411 40.2893 96.5828 50.463C96.5828 50.463 98.2106 55.889 99.2958 60.6368C99.4315 61.4507 99.0245 62.2646 98.2106 62.4002C97.9393 62.4002 97.8037 62.4002 97.8037 62.4002Z" fill="#02FFCD"/>
<path d="M60.0932 121H15.6001C14.7862 121 14.1079 120.322 14.1079 119.508C14.1079 118.694 14.7862 118.016 15.6001 118.016H60.0932C60.9071 118.016 61.5854 118.694 61.5854 119.508C61.5854 120.322 60.9071 121 60.0932 121Z" fill="#02FFCD"/>
<path d="M15.5997 121H14.6502C6.64684 121 0 114.353 0 106.35V97.6679C0 96.854 0.678249 96.1758 1.49215 96.1758H39.2028C40.0167 96.1758 40.695 96.854 40.695 97.6679C40.695 98.4818 40.0167 99.1601 39.2028 99.1601H2.9843V106.35C2.9843 112.861 8.27464 118.151 14.7858 118.151H15.7354C16.5493 118.151 17.2275 118.829 17.2275 119.643C17.2275 120.457 16.4136 121 15.5997 121Z" fill="#02FFCD"/>
<path d="M110.826 24.9587H29.3005C28.8936 24.9587 28.4866 24.823 28.2153 24.4161C27.944 24.1448 27.8084 23.7378 27.8084 23.3309C28.0797 21.1605 28.0797 14.9206 25.638 12.072C25.0954 11.5294 25.0954 10.5798 25.7736 10.0372C26.3162 9.49461 27.2658 9.49461 27.8084 10.1729C30.7927 13.4285 30.9283 19.2614 30.7927 22.1101H109.198V14.9206C109.198 8.40941 103.908 3.11906 97.3968 3.11906H96.4472C95.6333 3.11906 94.9551 2.44081 94.9551 1.62691C94.9551 0.813015 95.6333 0.134766 96.4472 0.134766H97.3968C105.536 0.134766 112.183 6.78161 112.183 14.9206V23.6022C112.318 24.2804 111.64 24.9587 110.826 24.9587Z" fill="#02FFCD"/>
<path d="M45.3066 113.539C44.4927 113.539 43.8145 112.861 43.8145 112.047V77.9989C43.8145 77.3207 44.2214 76.7781 44.8997 76.6424L84.1025 64.2983C87.4937 63.2131 91.1563 63.2131 94.5475 64.2983L133.75 76.6424C134.971 77.0494 135.785 78.1346 135.785 79.4911C135.785 80.8476 134.971 81.9328 133.75 82.3397L94.5475 94.6838C91.1563 95.769 87.4937 95.769 84.1025 94.6838L52.7673 84.7814C51.9535 84.5101 51.5465 83.6962 51.8178 82.8823C52.0891 82.0684 52.903 81.6615 53.7169 81.9328L84.9164 91.6996C87.765 92.6491 90.7493 92.6491 93.598 91.6996L132.801 79.3554L93.598 67.0113C90.7493 66.0617 87.765 66.0617 84.9164 67.0113L46.7988 78.9485V112.047C46.7988 112.861 46.1205 113.539 45.3066 113.539Z" fill="black"/>
<path d="M89.258 120.999C80.0338 120.999 70.8096 119.1 62.128 115.166C59.9576 114.217 58.6011 112.047 58.6011 109.74V85.7304C58.6011 84.9165 59.2793 84.2383 60.0932 84.2383C60.9071 84.2383 61.5854 84.9165 61.5854 85.7304V109.74C61.5854 110.961 62.2636 112.047 63.3488 112.453C79.7625 119.914 98.6178 119.914 115.031 112.453C116.117 111.911 116.795 110.826 116.795 109.74V85.7304C116.795 84.9165 117.473 84.2383 118.287 84.2383C119.101 84.2383 119.779 84.9165 119.779 85.7304V109.74C119.779 112.047 118.423 114.217 116.252 115.166C107.706 119.1 98.4821 120.999 89.258 120.999Z" fill="black"/>
</svg>
