<svg width="118" height="79" viewBox="0 0 118 79" fill="none" xmlns="http://www.w3.org/2000/svg">
<path d="M6.89106 0.0351562C3.09217 0.0351562 0 3.18396 0 7.05087V71.0152C0 74.882 3.09199 78.0352 6.89106 78.0352H111.109C114.908 78.0352 118 74.8819 118 71.0152V7.05087C118 3.18406 114.908 0.0351562 111.109 0.0351562H6.89106ZM6.89106 2.3382H111.109C113.693 2.3382 115.739 4.42086 115.739 7.05087V71.0151C115.739 73.645 113.693 75.7261 111.109 75.7261H6.89106C4.3073 75.7261 2.26716 73.645 2.26716 71.0151V7.05087C2.26716 4.42086 4.3073 2.3382 6.89106 2.3382ZM11.8837 5.72298C8.08477 5.72298 4.98697 8.87023 4.98697 12.7372V66.0886C4.98697 69.9554 8.08487 73.1024 11.8837 73.1024H84.9911C88.79 73.1024 91.8836 69.9552 91.8836 66.0886V12.7372C91.8836 8.87042 88.7901 5.72298 84.9911 5.72298H11.8837ZM11.8837 8.02601H84.9911C87.5749 8.02601 89.615 10.1071 89.615 12.7371V39.8916L85.7104 39.882L81.1027 39.8677L76.0618 28.2551C75.9725 28.0521 75.8274 27.8799 75.6441 27.759C75.4608 27.6381 75.247 27.5736 75.0285 27.5736C74.8101 27.5736 74.5963 27.6381 74.4129 27.759C74.2296 27.8799 74.0845 28.0521 73.9953 28.2551L70.0789 37.2543L65.455 14.6352C65.3999 14.3696 65.2546 14.1322 65.0445 13.9651C64.8345 13.7979 64.5732 13.7117 64.3068 13.7214C64.0537 13.73 63.8108 13.8245 63.6168 13.9902C63.4228 14.1558 63.2889 14.383 63.2366 14.6352L58.4961 37.8273L54.6417 31.1642C54.5416 30.9915 54.399 30.8485 54.228 30.7491C54.057 30.6498 53.8635 30.5975 53.6666 30.5975C53.4697 30.5975 53.2762 30.6498 53.1052 30.7491C52.9342 30.8485 52.7917 30.9915 52.6916 31.1642L48.535 38.3371L44.0393 26.7007C43.9564 26.4854 43.8118 26.3004 43.6242 26.1699C43.4367 26.0394 43.2149 25.9693 42.9877 25.9688C42.7605 25.9683 42.5384 26.0374 42.3503 26.1671C42.1622 26.2968 42.0168 26.4812 41.933 26.6962C38.9788 34.3398 36.0165 41.8644 32.2459 48.9972L22.6353 29.6334C22.541 29.4428 22.3965 29.2825 22.218 29.1706C22.0395 29.0586 21.8339 28.9994 21.6242 28.9994C21.4145 28.9994 21.2089 29.0586 21.0304 29.1706C20.8518 29.2825 20.7073 29.4428 20.613 29.6334L16.4682 37.9695L12.0124 25.1369C11.9327 24.9081 11.7841 24.7108 11.5877 24.5731C11.3914 24.4354 11.1573 24.3643 10.9189 24.37C10.6805 24.3756 10.45 24.4578 10.2602 24.6047C10.0704 24.7516 9.93094 24.9558 9.86183 25.1881L7.25436 34.0358V12.7355C7.25436 10.1055 9.30037 8.02441 11.8841 8.02441L11.8837 8.02601ZM112.407 8.71023C112.394 8.71049 112.38 8.71096 112.367 8.71169H95.5932C95.5558 8.70981 95.5185 8.70981 95.4811 8.71169C95.1864 8.73379 94.9118 8.87242 94.716 9.09784C94.5202 9.32326 94.4188 9.61761 94.4335 9.91811C94.4481 10.2186 94.5776 10.5014 94.7943 10.706C95.011 10.9106 95.2977 11.0209 95.5932 11.0133H112.367C112.519 11.0213 112.671 10.9981 112.813 10.9452C112.956 10.8922 113.087 10.8106 113.198 10.7051C113.309 10.5996 113.398 10.4725 113.46 10.3312C113.522 10.1899 113.555 10.0373 113.558 9.88268C113.561 9.72804 113.533 9.57447 113.476 9.43105C113.419 9.28763 113.334 9.15738 113.227 9.04797C113.119 8.93855 112.992 8.85225 112.851 8.79423C112.71 8.73621 112.559 8.70764 112.407 8.71023ZM95.5932 14.8524C95.4427 14.8498 95.2932 14.8777 95.1534 14.9345C95.0137 14.9914 94.8864 15.0759 94.7791 15.1833C94.6718 15.2907 94.5865 15.4187 94.5283 15.56C94.4702 15.7013 94.4402 15.853 94.4402 16.0062C94.4402 16.1594 94.4702 16.311 94.5283 16.4523C94.5865 16.5936 94.6718 16.7217 94.7791 16.8291C94.8864 16.9365 95.0137 17.0211 95.1534 17.0779C95.2932 17.1347 95.4427 17.1626 95.5932 17.16H112.367C112.518 17.1626 112.667 17.1347 112.807 17.0779C112.947 17.0211 113.074 16.9365 113.181 16.8291C113.288 16.7217 113.374 16.5936 113.432 16.4523C113.49 16.311 113.52 16.1594 113.52 16.0062C113.52 15.853 113.49 15.7013 113.432 15.56C113.374 15.4187 113.288 15.2907 113.181 15.1833C113.074 15.0759 112.947 14.9914 112.807 14.9345C112.667 14.8777 112.518 14.8498 112.367 14.8524H95.5932ZM64.3447 20.5283L68.5795 41.2376C68.6279 41.4768 68.7499 41.6942 68.9276 41.8584C69.1054 42.0225 69.3298 42.1247 69.5685 42.1506C69.8071 42.1764 70.0477 42.1245 70.2554 42.0021C70.4631 41.8798 70.6272 41.6933 70.7241 41.4697L75.0252 31.5688L79.3307 41.4875C79.4196 41.6917 79.5648 41.8652 79.7488 41.987C79.9327 42.1087 80.1475 42.1734 80.3669 42.1732L85.7041 42.1875L89.6146 42.197V66.0883C89.6146 68.7182 87.5745 70.8008 84.9907 70.8008H11.8832C9.29947 70.8008 7.25347 68.7182 7.25347 66.0883V41.5606C7.39807 41.4161 7.50191 41.2346 7.55417 41.0353L11.0298 29.235L15.2204 41.2857C15.2952 41.4969 15.429 41.6814 15.6054 41.8162C15.7818 41.9511 15.993 42.0306 16.2132 42.0449C16.4333 42.0592 16.6528 42.0076 16.8446 41.8967C17.0364 41.7858 17.1922 41.6204 17.2928 41.4206L21.6204 32.7108L31.2925 52.2064C31.3848 52.3923 31.5248 52.5494 31.6977 52.6608C31.8707 52.7722 32.07 52.8339 32.2746 52.8391C32.4792 52.8443 32.6814 52.793 32.8596 52.6906C33.0378 52.5883 33.1855 52.4385 33.2868 52.2575C37.2903 45.1568 40.0502 37.5959 42.9237 30.1081L47.2689 41.3814C47.3459 41.5837 47.4775 41.7598 47.6485 41.8894C47.8195 42.019 48.023 42.0968 48.2355 42.1138C48.448 42.1309 48.661 42.0865 48.8498 41.9858C49.0387 41.8851 49.1958 41.7324 49.303 41.5448L53.6645 34.0206L58.032 41.5686C58.1481 41.7692 58.3212 41.9293 58.5284 42.0278C58.7357 42.1263 58.9673 42.1586 59.193 42.1204C59.4186 42.0822 59.6276 41.9753 59.7924 41.8139C59.9571 41.6524 60.0701 41.444 60.1162 41.216L64.3447 20.5283ZM112.407 20.998C112.394 20.9983 112.38 20.9987 112.367 20.9995H95.5932C95.4409 20.9934 95.2889 21.0187 95.1465 21.0738C95.004 21.129 94.874 21.2128 94.7641 21.3203C94.6543 21.4278 94.5669 21.5569 94.5072 21.6996C94.4475 21.8423 94.4167 21.9958 94.4167 22.1509C94.4167 22.306 94.4475 22.4597 94.5072 22.6024C94.5669 22.7451 94.6543 22.8742 94.7641 22.9817C94.874 23.0892 95.004 23.173 95.1465 23.2281C95.2889 23.2833 95.4409 23.3086 95.5932 23.3025H112.367C112.516 23.3064 112.665 23.2801 112.805 23.2252C112.944 23.1703 113.071 23.0879 113.179 22.9827C113.287 22.8775 113.373 22.7515 113.433 22.6122C113.493 22.4728 113.525 22.3228 113.528 22.1708C113.531 22.0187 113.504 21.8676 113.449 21.7261C113.394 21.5847 113.312 21.4557 113.207 21.3467C113.103 21.2377 112.979 21.1508 112.841 21.0909C112.704 21.0311 112.556 20.9995 112.407 20.998ZM112.407 27.1449C112.394 27.1452 112.38 27.1458 112.367 27.1465H95.5932C95.5558 27.1446 95.5185 27.1446 95.4811 27.1465C95.1824 27.1635 94.9025 27.3 94.7024 27.5264C94.5023 27.7527 94.3982 28.0505 94.413 28.3547C94.4278 28.6588 94.5602 28.9446 94.7813 29.1497C95.0024 29.3548 95.2943 29.4627 95.5932 29.4495H112.367C112.516 29.4529 112.664 29.4262 112.803 29.3711C112.942 29.316 113.069 29.2335 113.177 29.1283C113.284 29.0231 113.37 28.8974 113.43 28.7583C113.49 28.6192 113.522 28.4694 113.524 28.3176C113.527 28.1659 113.5 28.0151 113.445 27.8739C113.39 27.7327 113.309 27.604 113.205 27.495C113.101 27.3861 112.977 27.299 112.84 27.239C112.703 27.1789 112.556 27.1469 112.407 27.1449ZM103.548 36.8882C100.525 36.8882 98.0507 39.4086 98.0507 42.4861C98.0507 45.5636 100.525 48.0827 103.548 48.0827C106.572 48.0827 109.046 45.5638 109.046 42.4861C109.046 39.4088 106.572 36.8882 103.548 36.8882ZM103.548 39.1912C105.348 39.1912 106.779 40.6541 106.779 42.486C106.779 44.3179 105.348 45.7747 103.548 45.7747C101.749 45.7747 100.312 44.3179 100.312 42.486C100.312 40.6541 101.749 39.1912 103.548 39.1912ZM103.548 52.2503C100.525 52.2503 98.0507 54.7707 98.0507 57.8482C98.0507 60.9258 100.525 63.4448 103.548 63.4448C106.572 63.4448 109.046 60.9258 109.046 57.8482C109.046 54.7706 106.572 52.2503 103.548 52.2503ZM103.548 54.5533C105.348 54.5533 106.779 56.0162 106.779 57.8481C106.779 59.68 105.348 61.1368 103.548 61.1368C101.749 61.1368 100.312 59.68 100.312 57.8481C100.312 56.0162 101.749 54.5533 103.548 54.5533Z" fill="#02FFCD"/>
<path d="M6 40.5352L11.2342 25.5352L16.4685 40.5352L21.7027 30.0352L32.1712 51.0352L42.6396 27.7852L47.8739 40.5352L53.8559 33.0352L59.8378 40.5352L64.3243 15.0352L69.5586 40.5352L75.5405 30.0352L80.7748 41.2852H89" stroke="black"/>
</svg>
