<svg width="13" height="13" viewBox="0 0 13 13" fill="none" xmlns="http://www.w3.org/2000/svg">
<path d="M12.3921 5.80357H11.1763C11.1295 5.47857 11.036 5.10714 10.8957 4.82857L11.9712 4.17857C12.2986 3.99286 12.4388 3.575 12.205 3.25C11.9712 2.925 11.5971 2.78571 11.2698 3.01786L10.1942 3.62143C9.96043 3.34286 9.72662 3.11071 9.44604 2.87857L10.054 1.81071C10.241 1.48571 10.1475 1.06786 9.82014 0.882143C9.4928 0.696429 9.07194 0.789286 8.88489 1.11429L8.27698 2.18214C7.94964 2.04286 7.6223 1.95 7.29496 1.90357V0.696429C7.2482 0.325 6.92086 0 6.54676 0C6.17266 0 5.84532 0.325 5.84532 0.696429V1.90357C5.51799 1.95 5.14388 2.04286 4.86331 2.18214L4.20863 1.11429C4.02158 0.789286 3.60072 0.65 3.27338 0.882143C2.94604 1.11429 2.80576 1.48571 3.03957 1.81071L3.64748 2.87857C3.36691 3.11071 3.13309 3.34286 2.89928 3.62143L1.82374 3.01786C1.4964 2.78571 1.07554 2.925 0.888489 3.25C0.701439 3.575 0.794964 3.99286 1.1223 4.17857L2.19784 4.78214C2.05755 5.10714 1.96403 5.43214 1.91727 5.75714H0.701439C0.327338 5.80357 0 6.12857 0 6.5C0 6.87143 0.327338 7.19643 0.701439 7.19643H1.91727C1.96403 7.52143 2.05755 7.89286 2.19784 8.17143L1.1223 8.82143C0.794964 9.00714 0.654676 9.425 0.888489 9.75C1.1223 10.075 1.4964 10.2143 1.82374 9.98214L2.89928 9.37857C3.13309 9.65714 3.36691 9.88928 3.64748 10.1214L3.03957 11.1893C2.85252 11.5143 2.94604 11.9321 3.27338 12.1179C3.60072 12.3036 4.02158 12.2107 4.20863 11.8857L4.81655 10.8179C5.14388 10.9571 5.47122 11.05 5.79856 11.0964V12.3036C5.79856 12.675 6.1259 13 6.5 13C6.8741 13 7.20144 12.675 7.20144 12.3036V11.0964C7.52878 11.05 7.90288 10.9571 8.18345 10.8179L8.79137 11.8857C8.97842 12.2107 9.39928 12.35 9.72662 12.1179C10.054 11.8857 10.1942 11.5143 9.96043 11.1893L9.35252 10.1214C9.63309 9.88928 9.86691 9.65714 10.1007 9.37857L11.1763 9.98214C11.5036 10.1679 11.9245 10.075 12.1115 9.75C12.2986 9.425 12.205 9.00714 11.8777 8.82143L10.8022 8.21786C10.9424 7.89286 11.036 7.56786 11.0827 7.24286H12.2986C12.6727 7.24286 13 6.91786 13 6.54643C13 6.175 12.7662 5.80357 12.3921 5.80357ZM4.44245 8.35714C4.06835 8.35714 3.74101 8.03214 3.74101 7.66071C3.74101 7.28929 4.06835 6.96429 4.44245 6.96429C4.81655 6.96429 5.14388 7.28929 5.14388 7.66071C5.14388 8.03214 4.81655 8.35714 4.44245 8.35714ZM6.54676 5.57143C5.7518 5.57143 5.14388 5.15357 5.14388 4.64286C5.14388 4.13214 5.7518 3.71429 6.54676 3.71429C7.34173 3.71429 7.94964 4.13214 7.94964 4.64286C7.94964 5.15357 7.34173 5.57143 6.54676 5.57143ZM9.16547 8.63571C8.83813 8.96071 8.27698 8.86786 7.85611 8.45C7.43525 8.03214 7.34173 7.475 7.66906 7.15C7.9964 6.825 8.55755 6.91786 8.97842 7.33571C9.39928 7.75357 9.49281 8.31071 9.16547 8.63571Z" fill="black"/>
</svg>
