<svg width="30" height="30" fill="none" xmlns="http://www.w3.org/2000/svg"><path d="M14.503 26.811l.497.441.497-.44c.796-.706 1.703-1.446 2.67-2.236l.08-.065c3.294-2.688 7.298-5.955 9.07-9.88.584-1.293.933-2.673.933-4.137C28.25 6.29 24.875 3 20.625 3a8.397 8.397 0 00-4.57 1.35l.41.628-.41-.628A7.87 7.87 0 0015 5.173a7.87 7.87 0 00-1.056-.823A8.397 8.397 0 009.375 3C5.125 3 1.75 6.29 1.75 10.494c0 1.464.35 2.844.934 4.137 1.771 3.925 5.775 7.192 9.068 9.88l.08.065c.968.79 1.875 1.53 2.67 2.235z" fill="#fff" stroke="#F862D7" stroke-width="1.5"/></svg>