<svg width="18" height="18" fill="none" xmlns="http://www.w3.org/2000/svg"><g opacity=".6" fill="#fff"><path d="M9 5.533a3.467 3.467 0 10-.001 6.934 3.467 3.467 0 000-6.934zm0 5.72a2.253 2.253 0 11-.001-4.506 2.253 2.253 0 010 4.506zm3.604-5.039a.809.809 0 100-1.617.809.809 0 000 1.617z"/><path d="M15.4 4.583a3.454 3.454 0 00-1.975-1.974 4.955 4.955 0 00-1.64-.315c-.722-.031-.95-.04-2.782-.04s-2.066 0-2.782.04a4.916 4.916 0 00-1.639.315 3.45 3.45 0 00-1.974 1.974 4.939 4.939 0 00-.315 1.64c-.032.721-.042.95-.042 2.782s0 2.065.042 2.783c.012.56.117 1.114.315 1.64a3.457 3.457 0 001.975 1.974c.522.204 1.077.32 1.639.337.722.032.951.042 2.782.042 1.832 0 2.067 0 2.783-.042a4.96 4.96 0 001.64-.314A3.46 3.46 0 0015.4 13.45a4.939 4.939 0 00.315-1.64c.032-.72.042-.95.042-2.782s0-2.064-.042-2.782a4.937 4.937 0 00-.316-1.663zm-.914 7.15c-.005.431-.083.86-.233 1.265a2.24 2.24 0 01-1.284 1.283c-.401.15-.824.228-1.252.234-.713.033-.914.04-2.741.04-1.829 0-2.015 0-2.741-.04a3.72 3.72 0 01-1.252-.234 2.238 2.238 0 01-1.29-1.283 3.811 3.811 0 01-.232-1.252c-.033-.712-.04-.913-.04-2.74 0-1.828 0-2.015.04-2.741.005-.432.083-.86.233-1.266a2.24 2.24 0 011.289-1.284c.4-.148.825-.227 1.252-.233.713-.032.913-.041 2.741-.041s2.015 0 2.74.041a3.72 3.72 0 011.253.233c.59.228 1.055.694 1.284 1.284.147.4.226.825.233 1.252.032.713.04.914.04 2.741s0 2.024-.031 2.74h-.009z"/></g></svg>