<svg width="18" height="18" fill="none" xmlns="http://www.w3.org/2000/svg"><path d="M9 5.533a3.467 3.467 0 10-.001 6.934 3.467 3.467 0 000-6.934zm0 5.72a2.253 2.253 0 11-.001-4.506 2.253 2.253 0 010 4.506zm3.604-5.039a.809.809 0 100-1.617.809.809 0 000 1.617z" fill="#200E32"/><path d="M15.4 4.583a3.454 3.454 0 00-1.975-1.974 4.955 4.955 0 00-1.64-.315c-.722-.031-.95-.04-2.782-.04s-2.066 0-2.782.04a4.916 4.916 0 00-1.639.315 3.45 3.45 0 00-1.974 1.974 4.939 4.939 0 00-.315 1.64c-.032.721-.042.95-.042 2.782s0 2.065.042 2.783c.012.56.117 1.114.315 1.64a3.457 3.457 0 001.975 1.974c.522.204 1.077.32 1.639.338.722.031.951.04 2.782.04 1.832 0 2.067 0 2.783-.04a4.96 4.96 0 001.64-.315A3.46 3.46 0 0015.4 13.45a4.939 4.939 0 00.315-1.639c.032-.722.042-.95.042-2.782 0-1.833 0-2.065-.042-2.783a4.937 4.937 0 00-.316-1.663zm-.914 7.15c-.005.431-.083.86-.233 1.265a2.24 2.24 0 01-1.284 1.284 3.742 3.742 0 01-1.252.233c-.713.033-.914.041-2.741.041-1.829 0-2.015 0-2.741-.041a3.72 3.72 0 01-1.252-.234 2.238 2.238 0 01-1.29-1.283 3.811 3.811 0 01-.232-1.252c-.033-.712-.04-.913-.04-2.74 0-1.828 0-2.014.04-2.741.005-.432.083-.86.233-1.265a2.24 2.24 0 011.289-1.284c.4-.149.825-.228 1.252-.234.713-.032.913-.041 2.741-.041s2.015 0 2.74.041a3.72 3.72 0 011.253.234A2.24 2.24 0 0114.253 5c.147.4.226.824.233 1.251.032.714.04.914.04 2.742 0 1.826 0 2.023-.031 2.74h-.009z" fill="#200E32"/></svg>