<svg width="18" height="18" fill="none" xmlns="http://www.w3.org/2000/svg"><path d="M8.08 11.931c.331.634 1.302 1.17 2.332 1.17 3.068 0 5.277-2.822 5.277-6.327C15.69 3.414 12.946.9 9.42.9 5.029.9 2.7 3.845 2.7 7.056c0 1.493.793 3.348 2.064 3.939.194.091.296.051.34-.134.033-.143.205-.83.282-1.153a.303.303 0 00-.072-.291c-.42-.511-.756-1.447-.756-2.32 0-2.244 1.698-4.416 4.592-4.416 2.5 0 4.25 1.7 4.25 4.138 0 2.752-1.39 4.658-3.2 4.658-.998 0-1.746-.825-1.506-1.838.288-1.21.842-2.514.842-3.388 0-.782-.42-1.432-1.288-1.432-1.021 0-1.84 1.056-1.84 2.468 0 .902.305 1.51.305 1.51s-1.008 4.261-1.193 5.055c-.211.913-.114 2.223-.023 3.022.208.08.414.16.628.226.414-.665 1.082-1.835 1.319-2.754l.636-2.415z" fill="#fff" opacity=".6"/></svg>