<svg width="14" height="14" fill="none" xmlns="http://www.w3.org/2000/svg"><path d="M13.486.514a1.73 1.73 0 00-1.633-.466L2.519 2.014A2.914 2.914 0 00.855 6.96l1.002 1.001a.583.583 0 01.171.413v1.848c.002.26.061.516.175.75l-.004.004.015.015c.17.344.45.622.794.791l.015.015.004-.004c.234.114.49.173.75.175h1.848c.155 0 .303.06.412.17l1.002 1.002a2.894 2.894 0 002.99.705 2.878 2.878 0 001.95-2.325l1.969-9.354a1.735 1.735 0 00-.462-1.653zM2.683 7.14L1.681 6.137a1.715 1.715 0 01-.422-1.793 1.737 1.737 0 011.459-1.182l9.24-1.945-8.764 8.765V8.375a1.737 1.737 0 00-.51-1.236zm8.15 4.182a1.749 1.749 0 01-2.969.999l-1.003-1.003a1.736 1.736 0 00-1.236-.513H4.018l8.766-8.762-1.951 9.28z" fill="#fff"/></svg>