<svg width="22" height="18" fill="none" xmlns="http://www.w3.org/2000/svg"><g stroke="#200E32" stroke-width="1.5" stroke-linecap="round" stroke-linejoin="round"><ellipse cx="10.421" cy="5.459" rx="4.3" ry="3.584"/><path clip-rule="evenodd" d="M3.6 14.026c-.001-.252.066-.5.198-.728.412-.686 1.573-1.05 2.537-1.215.695-.123 1.4-.206 2.109-.247a27.041 27.041 0 013.946 0c.709.041 1.414.124 2.109.247.964.165 2.125.495 2.537 1.215.264.463.264 1 0 1.463-.412.72-1.573 1.05-2.537 1.208a16.7 16.7 0 01-2.109.254c-1.069.075-2.142.09-3.213.041-.247 0-.486 0-.733-.041-.707-.04-1.41-.125-2.1-.254-.973-.158-2.126-.488-2.546-1.208-.13-.23-.198-.48-.198-.735z"/></g></svg>