<svg width="150" height="32" viewBox="0 0 150 32" fill="none" xmlns="http://www.w3.org/2000/svg">
<path fill-rule="evenodd" clip-rule="evenodd" d="M99.9202 13.3954L104.749 3.97555H104.835L110.173 13.3954H115.659L108.582 1.21866H103.944L97.5429 13.3893L99.9202 13.3954ZM23.9992 8.07727L31.5735 7.99169C31.4875 9.68495 30.5107 10.6386 30.0009 11.042C28.7477 11.9956 26.9601 12.0812 26.1062 12.0812C24.8531 12.0812 23.7657 11.91 22.66 11.2743C21.9597 10.8708 21.1488 10.1923 20.7434 9.62382L20.4055 9.13479L17.9361 10.4918C18.6609 11.2987 19.7851 12.0995 20.9768 12.6741C22.8074 13.5422 24.4845 13.7561 26.5301 13.7561C28.6986 13.7561 32.0833 13.4566 34.5282 11.7022C36.2298 10.4735 37.0161 8.8047 37.0161 7.31928C37.0161 5.83386 36.236 4.1406 34.5344 2.93637C32.4273 1.40816 29.3436 0.882455 26.5977 0.882455C24.8101 0.882455 23.1699 1.05361 21.5113 1.64656C20.1291 2.11114 19.0418 2.74687 17.9361 3.67602L20.4055 5.00862L21.0014 4.39734C21.4928 3.86552 22.3221 3.38261 23.0654 3.08308C24.0668 2.66129 25.1049 2.53292 26.1922 2.53292C28.3853 2.53292 29.6384 3.21145 30.3387 3.86552C30.8056 4.28731 31.426 5.0942 31.5735 6.32289L23.9992 6.21897V8.07727ZM124.793 2.36176C126.028 2.36176 127.428 2.6185 128.516 3.9511C129.388 5.00862 129.535 6.23731 129.535 7.31928C129.535 8.40125 129.388 9.60548 128.516 10.6875C127.428 12.0201 126.028 12.2768 124.793 12.2768C123.558 12.2768 122.158 12.0201 121.07 10.6875C120.198 9.60548 120.051 8.40125 120.051 7.31928C120.051 6.23731 120.198 5.01474 121.07 3.9511C122.152 2.6185 123.558 2.36176 124.793 2.36176ZM124.793 13.75C127.091 13.75 130.303 13.2426 132.453 11.6961C134.155 10.4918 134.966 8.77414 134.966 7.31317C134.966 5.8522 134.155 4.1406 132.453 2.93026C130.303 1.38371 127.091 0.876342 124.793 0.876342C122.514 0.876342 119.283 1.38371 117.114 2.93026C115.413 4.13449 114.626 5.8522 114.626 7.31317C114.626 8.77414 115.413 10.4857 117.114 11.6961C119.283 13.2426 122.514 13.75 124.793 13.75ZM82.6093 4.28731C83.1192 4.12837 83.6475 4.05502 84.1819 4.05502H84.7593V10.3818H84.1819C83.6475 10.3818 83.1192 10.3023 82.6093 10.1495C82.1854 10.0212 81.7984 9.85 81.5036 9.59937C80.9261 9.15313 80.4593 8.41348 80.4593 7.20925C80.4593 6.02336 80.9261 5.2837 81.5036 4.83746C81.7984 4.58684 82.1854 4.41568 82.6093 4.28731ZM91.4982 11.9284C94.2441 11.7572 95.6877 11.1215 96.4556 10.6569C97.9053 9.78887 98.5626 8.56019 98.5626 7.20925C98.5626 5.43041 97.3893 4.37289 96.4556 3.77994C95.1594 2.95471 93.3288 2.61239 91.4982 2.50847C91.0068 2.46568 90.5215 2.46568 90.03 2.46568H89.4956V0.796875H84.5812V2.47179H84.0713C83.5799 2.47179 83.0946 2.47179 82.6032 2.51458C80.7541 2.6185 78.9235 2.96082 77.6458 3.78606C76.7121 4.379 75.5387 5.43652 75.5387 7.21536C75.5387 8.57241 76.196 9.79498 77.6458 10.663C78.3891 11.1276 79.8388 11.7633 82.6032 11.9345C83.0516 11.9589 83.5369 11.9773 84.0713 11.9773H84.5812V13.7561H89.4956V11.9773H90.03C90.5215 11.9712 91.0129 11.9589 91.4982 11.9284ZM91.4982 4.28731C91.9221 4.41568 92.3091 4.58684 92.6039 4.83746C93.1814 5.2837 93.6482 6.02336 93.6482 7.20925C93.6482 8.41348 93.1814 9.15924 92.6039 9.59937C92.3029 9.85611 91.9221 10.0212 91.4982 10.1495C90.9822 10.3023 90.4416 10.3818 89.901 10.3818H89.3482V4.05502H89.901C90.4785 4.05502 91.0129 4.1406 91.4982 4.28731ZM64.721 2.36176C65.9311 2.36176 67.3563 2.6185 68.4436 3.9511C69.3159 5.00862 69.4633 6.23731 69.4633 7.31928C69.4633 8.40125 69.3159 9.60548 68.4436 10.6875C67.3563 12.0201 65.9311 12.2768 64.721 12.2768C63.4862 12.2768 62.0611 12.0201 60.9799 10.6875C60.1076 9.60548 59.9786 8.40125 59.9786 7.31928C59.9786 6.23731 60.1076 5.01474 60.9799 3.9511C62.0611 2.6185 63.4862 2.36176 64.721 2.36176ZM64.721 13.75C67 13.75 70.2312 13.2426 72.3812 11.6961C74.0644 10.4918 74.8507 8.77414 74.8507 7.31317C74.8507 5.8522 74.0644 4.1406 72.3812 2.93026C70.2312 1.38371 67 0.876342 64.721 0.876342C62.4235 0.876342 59.1923 1.38371 57.0422 2.93026C55.3406 4.13449 54.5543 5.8522 54.5543 7.31317C54.5543 8.77414 55.3406 10.4857 57.0422 11.6961C59.1861 13.2426 62.4235 13.75 64.721 13.75ZM46.1692 8.92696H47.0845C49.4434 8.92696 51.0836 8.67022 52.2507 7.9978C53.7189 7.12978 54.0568 5.94389 54.0568 5.01474C54.0568 4.10392 53.7189 2.91803 52.2507 2.0928C51.0774 1.43872 49.5048 1.22477 46.8695 1.22477H38.4659V13.3954H43.3803V8.92696H46.1692ZM46.1692 3.08308C46.765 3.10753 47.5329 3.21145 48.0858 3.54765C48.8291 4.01223 48.9581 4.64797 48.9581 5.02696C48.9581 5.40596 48.8537 6.08448 48.0428 6.57351C47.4899 6.93417 46.808 7.03809 46.1692 7.08088H43.3803V3.06474H45.6593C45.8067 3.06474 45.9787 3.06474 46.1692 3.08308ZM8.13188 4.07947L10.5768 8.23009H5.68697L8.00902 3.99389H8.07045L8.13188 4.07947ZM11.5781 9.88056L13.6851 13.3954H19.1708L11.7255 1.21866H7.17357L0.410156 13.3954H2.85506L4.7901 9.88056H11.5781ZM133.983 3.06474H139.26V13.3954H144.174V3.06474H149.469V1.21866H133.983V3.06474ZM144.426 21.6722H143.615L140.384 24.7837L141.471 21.6722H140.642L139.192 25.9084H140.022L143.234 22.7725L142.172 25.9084H143.001L144.426 21.6722ZM139.407 21.6722H138.596L138.025 23.3227H136.004L136.581 21.6722H135.752L134.309 25.9084H135.138L135.795 23.9401H137.816L137.134 25.9084H137.988L139.407 21.6722ZM134.511 21.6722H133.707L130.475 24.7837L131.538 21.6722H130.727L129.284 25.9084H130.095L133.326 22.7725L132.263 25.9084H133.074L134.511 21.6722ZM126.962 21.6722L126.47 22.8765C126.323 23.286 126.151 23.6895 125.96 24.0807C125.684 24.6736 125.407 25.2482 124.683 25.4133L124.554 25.9635C124.977 25.939 125.297 25.774 125.512 25.6456C126.341 25.1138 126.618 24.203 127.232 22.7236L127.447 22.2163H128.467L127.232 25.9023H128.043L129.486 21.6661L126.962 21.6722ZM108.84 23.9523C108.95 23.9279 109.098 23.9279 109.264 23.9279H109.86L109.565 24.8142C109.436 24.9854 109.307 25.0893 109.141 25.1932C109.049 25.2482 108.95 25.291 108.84 25.3216C108.692 25.3827 108.545 25.4072 108.391 25.4072C108.219 25.4072 108.011 25.3888 107.882 25.2177C107.777 25.071 107.777 24.8998 107.839 24.6859C107.9 24.5147 108.011 24.3497 108.244 24.1785C108.373 24.1051 108.539 23.9951 108.84 23.9523ZM109.282 25.9023H110.007L110.947 23.1515C111.094 22.7298 111.266 22.308 111.033 21.9473C110.842 21.6722 110.376 21.5683 109.989 21.5683C109.497 21.5683 109.141 21.6294 108.84 21.7395C108.226 21.9718 107.949 22.3752 107.924 22.7359L108.649 22.7787C108.686 22.6503 108.748 22.5341 108.84 22.4425C109.03 22.2102 109.35 22.1429 109.755 22.1429C109.927 22.1429 110.136 22.1674 110.222 22.3141C110.351 22.4608 110.283 22.6747 110.222 22.8642L110.05 23.4144H109.43C109.215 23.4144 109.024 23.4144 108.834 23.4388C108.004 23.5428 107.304 23.8851 107.003 24.7531C106.77 25.4072 107.003 25.9818 107.937 25.9818C108.213 25.9818 108.514 25.9573 108.809 25.8106H108.828C109.049 25.7006 109.245 25.56 109.423 25.3888H109.448L109.282 25.9023ZM122.858 23.9523C122.987 23.9279 123.116 23.9279 123.282 23.9279H123.902L123.577 24.8203C123.448 24.9915 123.319 25.0954 123.153 25.1993C123.061 25.2544 122.963 25.2971 122.858 25.3277C122.711 25.3888 122.582 25.4133 122.434 25.4133C122.244 25.4133 122.029 25.395 121.924 25.2238C121.795 25.0771 121.795 24.9059 121.863 24.692C121.924 24.5208 122.035 24.3558 122.268 24.1846C122.385 24.1051 122.557 23.9951 122.858 23.9523ZM123.3 25.9023H124.044L124.977 23.1515C125.106 22.7298 125.272 22.308 125.039 21.9473C124.848 21.6722 124.382 21.5683 123.995 21.5683C123.528 21.5683 123.141 21.6294 122.846 21.7395C122.231 21.9718 121.973 22.3752 121.93 22.7359L122.655 22.7787C122.686 22.6503 122.754 22.5341 122.846 22.4425C123.061 22.2102 123.356 22.1429 123.761 22.1429C123.933 22.1429 124.142 22.1674 124.253 22.3141C124.363 22.4608 124.314 22.6747 124.253 22.8642L124.062 23.4144H123.448C123.233 23.4144 123.042 23.4144 122.852 23.4388C122.023 23.5428 121.322 23.8851 121.021 24.7531C120.788 25.4072 121.021 25.9818 121.961 25.9818C122.238 25.9818 122.539 25.9573 122.852 25.8106C123.147 25.6639 123.386 25.45 123.448 25.3888H123.491L123.3 25.9023ZM121.027 21.6722H120.198L116.985 24.7837L118.048 21.6722H117.219L115.769 25.9084H116.598L119.811 22.7725L118.748 25.9084H119.578L121.027 21.6722ZM113.902 24.0196C114.049 24.0196 114.178 24.0807 114.264 24.1479C114.375 24.2763 114.375 24.4903 114.289 24.6798C114.221 24.8754 114.092 25.0465 113.926 25.1688C113.926 25.1688 113.902 25.1688 113.902 25.1932C113.73 25.2972 113.496 25.3399 113.263 25.3399H112.261L112.71 24.0073H113.754C113.816 23.9951 113.859 23.9951 113.902 24.0196ZM113.902 22.2163H114.325C114.473 22.2163 114.669 22.2163 114.792 22.3446C114.921 22.4914 114.897 22.6381 114.854 22.8092C114.792 22.9804 114.706 23.1454 114.51 23.2738C114.295 23.4205 114.104 23.4205 113.895 23.4205H112.894L113.318 22.2163H113.902ZM113.902 25.8412C114.178 25.7556 114.436 25.6089 114.626 25.4805C114.86 25.291 115.093 25.016 115.222 24.6736C115.308 24.4169 115.327 24.1846 115.198 23.9768C115.112 23.8301 114.94 23.7017 114.706 23.6589L114.731 23.6345C115.007 23.5733 115.241 23.4205 115.388 23.2738C115.536 23.1271 115.665 22.8887 115.751 22.6809C115.88 22.3019 115.812 22.0879 115.665 21.9167C115.45 21.6845 115.112 21.6661 114.835 21.6661H112.685L111.217 25.9023H113.324C113.521 25.9023 113.711 25.884 113.902 25.8412ZM99.7543 22.1979C99.8833 22.1551 100.012 22.1368 100.117 22.1368C100.946 22.1368 100.756 22.8337 100.608 23.2188L100.547 23.4083H98.8022L98.8636 23.2188C99.0725 22.5769 99.4349 22.3019 99.7543 22.1979ZM99.7543 23.9523H101.18C101.818 22.4302 101.732 21.5622 100.307 21.5622C100.135 21.5622 99.9448 21.5867 99.7543 21.6233C98.925 21.8128 98.1817 22.4914 97.7333 23.8484C97.119 25.6456 97.8439 25.9635 98.8206 25.9635C99.1831 25.9635 99.5025 25.9207 99.7543 25.8351C100.436 25.6028 100.817 25.1382 100.885 24.6675L100.178 24.5575C100.135 24.6859 100.031 24.9609 99.7543 25.1504C99.5823 25.2788 99.3489 25.3827 99.011 25.3827C98.753 25.3827 98.1142 25.3216 98.4766 24.3435L98.6056 23.9401L99.7543 23.9523ZM97.4139 21.6722H96.603L93.3718 24.7837L94.4345 21.6722H93.6237L92.1739 25.9084H93.0032L96.216 22.7725L95.1533 25.9084H95.9826L97.4139 21.6722ZM89.1209 21.6722L87.6711 25.9084H88.5004L89.1577 24.0012H89.944C90.0914 24.0012 90.288 24.0012 90.3679 24.1479C90.4109 24.2091 90.4539 24.3374 90.3925 24.5514L90.288 25.126C90.2266 25.4011 90.1775 25.7006 90.5215 25.8656C90.6935 25.9268 90.9453 25.9757 91.0989 25.9757L91.4429 25.3583C91.3815 25.3583 91.3139 25.3583 91.2525 25.3399C91.0805 25.2788 91.105 25.1077 91.1235 24.9793L91.1665 24.6859C91.191 24.4964 91.277 24.2213 91.191 24.0073C91.148 23.8606 90.976 23.7506 90.8102 23.7139V23.6895C91.0252 23.6467 91.1726 23.5428 91.3016 23.4144C91.449 23.2432 91.5166 23.1393 91.6026 22.9682L91.7501 22.6686C91.8115 22.5219 91.9221 22.2896 92.1309 22.2041C92.1739 22.1857 92.2415 22.1613 92.4319 22.1429L92.5179 21.5928C92.1985 21.6356 91.8791 21.6356 91.5842 21.8495C91.3262 22.039 91.2217 22.2957 91.1173 22.5036L90.9883 22.7359C90.8839 22.9498 90.8163 23.1149 90.6075 23.2432C90.46 23.3716 90.288 23.3716 90.1406 23.3716H89.3973L89.9747 21.6783L89.1209 21.6722ZM86.6268 25.0526C86.4794 25.1382 86.2889 25.1993 86.0985 25.2666C85.8958 25.3216 85.6869 25.3522 85.4781 25.3522C85.2016 25.3522 84.9006 25.3338 84.7102 25.0771C84.4768 24.7837 84.6242 24.313 84.8146 23.7873C84.9621 23.2799 85.1341 22.8153 85.4351 22.5158C85.6071 22.3446 85.8589 22.1368 86.3074 22.1368C86.6084 22.1368 86.7742 22.2224 86.8603 22.3691C86.9647 22.5403 86.9032 22.7298 86.7742 23.0048L87.5605 22.9437C87.8554 22.4791 87.8186 22.0084 87.4745 21.7762C87.2657 21.6294 86.9462 21.5622 86.6022 21.5622C86.1784 21.5622 85.6624 21.6722 85.2385 21.9229C84.4522 22.3874 84.0652 23.2371 83.8993 23.7628C83.7519 24.2091 83.5369 25.0343 83.9608 25.5417C84.2372 25.9023 84.6856 25.9635 85.1709 25.9635C85.4904 25.9635 85.7668 25.939 86.1292 25.8351C86.3197 25.7495 86.5347 25.6639 86.7435 25.56L86.6268 25.0526ZM82.9287 19.8262C82.8857 19.9423 82.812 20.0462 82.7137 20.1257C82.5663 20.2541 82.3329 20.3152 82.1793 20.3152C82.0319 20.3152 81.8169 20.2541 81.7739 20.1257C81.7124 20.0401 81.7309 19.9362 81.7739 19.8262H81.178C81.0306 20.144 81.049 20.4619 81.2394 20.6331C81.4299 20.8225 81.7739 20.8409 81.9827 20.8409C82.2407 20.8409 82.5602 20.8225 82.898 20.6331C83.2175 20.4619 83.4325 20.144 83.5185 19.8262H82.9287ZM83.5676 21.6722H82.7567L79.5255 24.7837L80.5883 21.6722H79.7774L78.3277 25.9084H79.157L82.3697 22.7725L81.307 25.9084H82.1363L83.5676 21.6722ZM78.5427 21.6722H77.7318L74.5006 24.7837L75.5633 21.6722H74.7524L73.3027 25.9084H74.1136L77.3263 22.7725L76.2636 25.9084H77.0929L78.5427 21.6722ZM72.4181 25.0526C72.2277 25.1382 72.0802 25.1993 71.8652 25.2666C71.6318 25.3277 71.4598 25.3522 71.2264 25.3522C70.9684 25.3522 70.6489 25.3338 70.4831 25.0771C70.2681 24.7837 70.3971 24.313 70.5875 23.7873C70.7595 23.2799 70.9254 22.8153 71.2264 22.5158C71.3738 22.3446 71.6502 22.1368 72.0802 22.1368C72.3812 22.1368 72.5471 22.2224 72.6515 22.3691C72.7375 22.5403 72.6761 22.7298 72.5655 23.0048L73.3334 22.9437C73.6344 22.4791 73.6098 22.0084 73.272 21.7762C73.057 21.6294 72.7191 21.5622 72.3751 21.5622C71.9512 21.5622 71.4414 21.6722 71.0114 21.9229C70.2251 22.3874 69.8626 23.2371 69.6722 23.7628C69.5248 24.2091 69.3098 25.0343 69.7336 25.5417C70.0101 25.9023 70.4769 25.9635 70.9438 25.9635C71.2632 25.9635 71.5581 25.939 71.9021 25.8351C72.0741 25.7495 72.3075 25.6639 72.498 25.56L72.4181 25.0526ZM68.2286 25.0526C68.0505 25.1321 67.8662 25.2055 67.6757 25.2666C67.4423 25.3277 67.2703 25.3522 67.0369 25.3522C66.7789 25.3522 66.4594 25.3338 66.2936 25.0771C66.0601 24.7837 66.2076 24.313 66.398 23.7873C66.5454 23.2799 66.7174 22.8153 67.0369 22.5158C67.1843 22.3446 67.4423 22.1368 67.8907 22.1368C68.1672 22.1368 68.3576 22.2224 68.4436 22.3691C68.5296 22.5403 68.4866 22.7298 68.3576 23.0048L69.1439 22.9437C69.4449 22.4791 69.4019 22.0084 69.0825 21.7762C68.8675 21.6294 68.5296 21.5622 68.1856 21.5622C67.7617 21.5622 67.2519 21.6722 66.8219 21.9229C66.0356 22.3874 65.6731 23.2371 65.4827 23.7628C65.3353 24.2091 65.1203 25.0343 65.5441 25.5417C65.8206 25.9023 66.2874 25.9635 66.7543 25.9635C67.0737 25.9635 67.3686 25.939 67.7126 25.8351C67.8846 25.7495 68.118 25.6639 68.3085 25.56L68.2286 25.0526ZM62.7184 22.2591C62.8658 22.1979 63.0624 22.1307 63.2958 22.1307C63.6337 22.1307 63.8057 22.2774 63.8732 22.4058C64.0452 22.7236 63.8917 23.1882 63.8302 23.4022L63.5538 24.1418C63.4924 24.3558 63.3204 24.8203 62.9579 25.1138C62.8965 25.1749 62.8289 25.2177 62.7245 25.2849C62.5771 25.3461 62.4051 25.4133 62.1716 25.4133C61.8092 25.4133 61.6372 25.2666 61.5758 25.1199C61.4283 24.8203 61.5758 24.3558 61.6372 24.1479L61.8952 23.4083C61.9812 23.2004 62.1532 22.7298 62.5095 22.4119C62.5709 22.3691 62.6324 22.3019 62.7184 22.2591ZM63.4862 21.5622C63.2098 21.5622 62.9518 21.605 62.7184 21.6722C62.4296 21.77 62.1655 21.9229 61.932 22.1185C61.3362 22.583 61.0352 23.2371 60.8693 23.7873C60.6789 24.2946 60.5069 24.9548 60.7833 25.4377C60.9737 25.7556 61.3362 25.9696 61.9751 25.9696C62.2515 25.9696 62.5095 25.9451 62.7184 25.8595C63.0132 25.7801 63.2896 25.6334 63.5292 25.4377C64.1251 24.9487 64.4261 24.2946 64.6165 23.7873C64.7885 23.2371 64.936 22.583 64.6595 22.1185C64.4814 21.7945 64.1251 21.5622 63.4862 21.5622ZM59.3151 20.4863H59.8496C60.126 20.4863 60.4455 20.5719 60.5745 20.7431C60.6605 20.8287 60.8079 21.0365 60.6605 21.4644C60.513 21.9106 60.2366 22.1613 60.1076 22.2468C59.8312 22.4547 59.5547 22.5403 59.3213 22.5403C59.2599 22.5647 59.1923 22.5647 59.1309 22.5647H57.9084L58.6087 20.4925L59.3151 20.4863ZM59.3151 23.2371C59.8496 23.2066 60.3594 23.0109 60.7833 22.687C61.1888 22.4119 61.5266 21.9473 61.6986 21.4583C61.8031 21.116 61.889 20.5719 61.5082 20.1868C61.1273 19.8262 60.5745 19.7834 60.0646 19.7834H57.9575L55.8751 25.9023H56.7904L57.6873 23.2555H59.008C59.0817 23.2555 59.1861 23.2555 59.3151 23.2371ZM149.469 21.6722H148.64L145.427 24.7837L146.49 21.6722H145.661L144.211 25.9084H145.04L148.253 22.7725L147.19 25.9084H148.02L149.469 21.6722ZM8.55574 27.9562L6.79271 27.1921L14.109 26.3058C14.238 26.5197 14.367 26.7092 14.5144 26.8987L8.55574 27.9562ZM28.1948 27.9562L29.9579 27.1493L22.6846 26.2813C22.6232 26.5136 22.4266 26.7031 22.3037 26.8926L28.1948 27.9562ZM27.1321 28.0846L24.9206 28.8243L21.7693 27.8707L21.4928 27.7851C21.5973 27.6995 21.6833 27.6139 21.7693 27.51C21.8983 27.4 22.0027 27.2533 22.1317 27.1493L27.1321 28.0846ZM32.9802 26.0307L30.9592 26.9598L22.875 26.0307L23.0654 25.4561L32.9802 26.0307ZM33.7051 25.7556L36.3404 24.0807H22.0457C22.0457 24.6736 21.9597 25.181 21.7693 25.6272C21.2164 27.0454 19.8342 27.724 18.4521 27.6995C17.0883 27.6567 15.7062 26.9598 15.0919 25.6639C14.8646 25.1688 14.7479 24.6247 14.754 24.0746H0.410156L3.02706 25.7495L13.98 25.1749C14.195 25.9573 14.5759 26.6359 15.0857 27.1432C15.958 28.054 17.2112 28.5614 18.4459 28.5614C19.6561 28.5859 20.8908 28.1396 21.7631 27.1616C22.23 26.6542 22.5924 25.994 22.8074 25.2116L33.7051 25.7556ZM21.7693 30.0713L22.0457 30.5786L21.7693 30.707L21.026 31.0432L20.1721 29.3744C19.6192 29.5639 19.0357 29.6739 18.4459 29.6923C17.8071 29.7106 17.1498 29.6312 16.5723 29.4355L15.8475 31.0432C15.614 31.0677 15.2946 31.0432 15.0796 30.8965C14.9567 30.8293 14.8646 30.7131 14.8216 30.5786L15.0796 30.1569L15.6939 29.0565C15.5034 28.9282 15.3314 28.8487 15.1594 28.6776L15.6693 28.0663C16.5416 28.5981 17.4999 28.8915 18.4336 28.8915C19.3674 28.916 20.3073 28.6164 21.1796 28.0051L21.757 28.1763L21.9904 28.2619C21.9044 28.323 21.843 28.3903 21.757 28.4514C21.585 28.6225 21.4376 28.7937 21.1611 28.9404L21.7693 30.0713ZM21.7693 21.4155C22.3221 22.0696 22.7276 22.8765 22.9426 23.8056H22.0273C21.9659 23.5305 21.8799 23.2616 21.7693 22.9987C21.155 21.391 19.8957 20.2479 18.4521 19.2943C18.2616 19.1904 18.0896 19.062 17.8992 18.9581C18.0896 19.0193 18.2616 19.0865 18.4521 19.1476C19.7667 19.6794 20.94 20.4008 21.7693 21.4155ZM19.2998 27.3877C19.6131 27.3266 19.9141 27.1921 20.1721 27.0087L18.7285 24.1479L20.2397 23.4266L18.9619 22.3263L18.4521 22.5586L16.259 23.555L16.8979 24.9976L17.9422 24.533L19.2998 27.3877ZM15.3437 27.7851C15.2577 27.7239 15.1717 27.6384 15.0857 27.5772C14.926 27.4428 14.7847 27.296 14.6619 27.131L9.66762 28.0724L11.7931 28.7815L15.3437 27.7851ZM13.9861 26.0307C13.9063 25.8412 13.8326 25.6517 13.7711 25.4561L3.77036 26.0307L5.7914 27.0026L13.9861 26.0307Z" fill="white"/>
</svg>
