<svg width="152" height="18" viewBox="0 0 152 18" fill="none" xmlns="http://www.w3.org/2000/svg">
<path d="M125.292 1.87558L119.49 10.8353C118.706 12.0173 117.527 13.1992 116.041 13.2882V13.5423H122.474C124.201 13.5423 125.451 12.3604 126.235 11.0069L132.196 1.79297H125.298C125.292 1.79297 125.292 1.87558 125.292 1.87558Z" fill="#EB212B"/>
<path d="M64.9303 9.49282H68.1518L66.4623 6.21296L64.9303 9.49282ZM70.6527 14.1188L69.3629 11.7679H63.804L62.6777 14.1188H59.9406L65.4995 3.44499H67.9944L74.2739 14.1188H70.6527ZM5.16883 9.49282H8.46907L6.77959 6.21296L5.16883 9.49282ZM11.0487 14.1188L9.75888 11.7679H4.04252L2.83142 14.1188H0.015625L5.73199 3.44499H8.31162L14.7546 14.1188H11.0487ZM27.6407 8.31738C28.8518 8.31738 29.415 7.72966 29.415 6.97131C29.415 6.21296 28.9305 5.7074 27.6407 5.7074H24.4979V8.31106H27.6407V8.31738ZM30.0568 10.0805L34.1624 14.1124H30.9409C30.2143 14.1124 29.7298 13.8597 29.4089 13.5247L26.587 10.6683C26.587 10.5861 26.5083 10.5861 26.4235 10.5861H24.4919V14.1188H21.5126V3.44499H27.9556C31.3406 3.44499 32.7091 5.04384 32.7091 6.72485C32.7152 8.73447 31.0257 9.74561 30.0568 10.0805ZM53.2554 8.31738C54.4665 8.31738 55.0296 7.72966 55.0296 6.97131C55.0296 6.21296 54.5452 5.7074 53.2554 5.7074H50.1126V8.31106H53.2554V8.31738ZM55.6715 10.0805L59.7771 14.1124H56.5556C55.8289 14.1124 55.3445 13.8597 55.0236 13.5247L52.2017 10.6683C52.2017 10.5861 52.123 10.5861 52.0382 10.5861H50.1065V14.1188H47.1272V3.44499H53.5702C56.9553 3.44499 58.3238 5.04384 58.3238 6.72485C58.3298 8.73447 56.6343 9.74561 55.6715 10.0805ZM101.978 14.1188V3.44499H112.369V5.71372H105.042V7.56535H112.29V9.83408H105.042V11.7679H112.369V14.0366L101.978 14.1188ZM35.3735 14.1188V3.44499H45.359V5.71372H38.3528V8.39954H45.1168V10.6683H38.2741V14.1124L35.3735 14.1188ZM100.131 6.88916C98.7622 6.21928 97.2302 5.62524 95.2198 5.62524C92.8037 5.62524 91.0294 6.88916 91.0294 8.73447C91.0294 10.5798 92.8824 11.9259 95.2198 11.9259C97.1515 11.9259 98.6835 11.4203 100.216 10.4976V13.1013C98.847 13.7712 97.0728 14.2767 95.0623 14.2767C90.9567 14.2767 87.7352 12.0902 87.7352 8.72815C87.7352 5.36614 91.0355 3.26172 95.0623 3.26172C96.994 3.26172 98.6896 3.59666 100.137 4.27285V6.88916H100.131ZM84.5864 14.1188L77.4167 7.81182V14.1188H74.9218V3.44499H77.0958L84.1807 9.66345V3.44499H86.6755V14.1188H84.5864ZM18.7028 14.1188H15.7235V3.44499H18.7028V14.1188Z" fill="white"/>
<path d="M148.643 3.99799C149.888 5.25398 150.628 6.92444 150.797 8.75819C151.126 12.9344 147.984 16.5265 143.845 16.7777C141.941 16.9472 140.118 16.2753 138.711 15.1889C140.198 16.5265 142.19 17.3617 144.337 17.1922C148.226 16.941 151.207 13.6817 151.288 9.7567V9.68134V9.17894C151.045 7.08772 150.05 5.25398 148.643 3.99799ZM135.4 12.6015C135.151 12.7711 135.071 12.9344 135.232 13.2672C135.313 13.5184 135.481 13.6879 135.73 13.6C135.898 13.5184 135.898 13.4305 135.811 13.0976V12.9281C135.73 12.5952 135.73 12.4257 135.811 12.344C135.892 12.1745 135.979 12.0928 136.06 12.0112C136.39 11.8416 136.72 12.0928 136.888 12.5952C137.056 13.0976 136.969 13.5121 136.558 13.6817L136.477 13.4305C136.726 13.3488 136.807 13.0097 136.645 12.6769C136.564 12.344 136.315 12.2561 136.147 12.344C135.979 12.4257 135.979 12.5952 135.979 12.9281V13.2609C136.06 13.5121 136.06 13.5937 135.979 13.7633C135.979 13.9329 135.898 14.0145 135.73 14.0145C135.4 14.1841 135.151 13.9329 134.903 13.5121C134.734 13.0097 134.822 12.6769 135.151 12.5073L135.4 12.6015ZM135.151 9.84462L136.309 8.83983V9.26058L135.313 10.0142L135.643 10.347H136.303V10.6798H134.398V10.4287H135.394L135.313 10.347L135.232 10.2654L134.405 9.3485V8.92774L135.151 9.84462ZM136.06 6.83652L136.807 7.08772L136.726 7.33892L135.979 7.08772L134.654 7.50848L134.734 7.17564L135.562 6.92444H135.811L135.643 6.75488L135.145 6.08921L135.226 5.75637L136.06 6.83652ZM137.305 3.25067L136.888 3.75307L138.132 4.75786L137.803 5.17862L136.645 4.17383L136.228 4.67622L135.979 4.42502L137.056 3.0874L137.305 3.25067ZM139.95 1.41065L138.954 1.99468L139.122 2.32752L140.03 1.82513L140.198 2.15796L139.29 2.66036L139.539 3.08112L140.534 2.49708L140.703 2.74828L139.377 3.58351L138.381 1.91305L139.707 1.15945L139.95 1.41065ZM142.52 1.15945C142.439 0.989893 142.352 0.908254 142.271 0.738695C142.271 0.908254 142.271 0.989893 142.19 1.15945L142.109 1.49229L142.688 1.41065L142.52 1.15945ZM143.677 2.16424H143.179L142.93 1.74349L142.184 1.91305L142.103 2.41544L141.605 2.49708L142.103 0.405858L142.601 0.324219L143.677 2.16424ZM146.739 2.82992L146.322 2.66036L146.49 2.07632C146.49 1.99468 146.49 1.90677 146.571 1.82513C146.571 1.74349 146.652 1.57393 146.652 1.57393C146.652 1.49229 146.733 1.40437 146.733 1.32273L146.814 1.15317C146.733 1.32273 146.646 1.40437 146.565 1.57393C146.484 1.65557 146.484 1.74349 146.484 1.74349L145.905 2.49708L145.575 2.41544L145.494 1.49857V1.32901V1.07781V0.826614L145.413 1.07781C145.333 1.32901 145.333 1.41065 145.245 1.74349L145.077 2.32752L144.66 2.24588L145.158 0.324219L145.818 0.405858L145.899 1.32273V1.9884L146.067 1.65557C146.148 1.57393 146.148 1.48601 146.235 1.40437L146.733 0.650776L147.312 0.901974L146.739 2.82992Z" fill="white"/>
<path d="M147.386 9.32362C147.994 8.89183 148.433 8.72427 148.78 8.72427C148.956 8.72427 149.218 8.80805 149.218 8.98206C149.218 9.23984 148.956 9.41384 148.609 9.5814C148.263 9.74896 147.654 9.75541 147.046 9.66518C147.124 9.49118 147.301 9.4074 147.386 9.32362ZM139.209 10.0067C138.862 10.0067 138.685 9.83274 138.685 9.57496C138.685 9.57496 138.685 8.63405 140.772 8.54383H141.642L141.381 8.71783L141.296 8.80161C140.772 9.32362 139.987 10.0905 139.209 10.0067ZM143.559 6.75223C143.297 6.92623 142.866 7.43536 142.342 7.86714L141.904 8.29893C141.466 8.21515 141.034 8.21515 140.596 8.21515C139.64 8.21515 138.679 8.47293 138.332 8.89828C138.155 9.07228 138.07 9.23984 138.07 9.41385C138.07 9.84563 138.594 10.097 138.764 10.1872C139.634 10.5288 140.327 10.445 141.112 9.84563C141.551 9.58785 142.067 9.07228 142.421 8.73072L143.467 8.9885L143.814 9.07228C143.376 9.50407 142.859 10.0132 142.421 10.3612C141.812 10.8768 141.374 11.2183 140.766 11.3923C140.327 11.4761 139.981 11.3923 139.896 11.3086C140.242 11.5663 140.589 11.7403 141.204 11.7403C141.812 11.6566 142.421 11.3086 143.121 10.7092L143.991 9.85208L144.599 9.25273L145.908 9.59429L145.123 10.3676L144.429 11.0508C143.736 11.7339 143.382 12.0819 142.951 12.3397C142.257 12.7715 141.734 13.0228 141.21 13.113C140.949 13.113 140.602 13.113 140.255 12.939C140.602 13.1968 141.04 13.5384 141.734 13.5384C142.519 13.5384 143.297 13.1066 144.429 12.0819C144.952 11.6501 145.476 11.0508 145.908 10.6254L146.778 9.7683C147.301 9.85208 147.824 9.9423 148.341 9.9423C149.126 9.9423 149.82 9.51051 149.82 9.08517C149.82 8.74361 149.558 8.5696 149.381 8.48582C149.296 8.40204 148.858 8.22804 148.426 8.22804C147.818 8.22804 147.209 8.48582 146.601 9.00139L146.163 9.34295L145.986 9.25917L144.854 8.91761C145.201 8.57605 145.463 8.31826 145.724 8.14426C146.333 7.54491 147.033 7.37091 147.465 7.28713C147.726 7.28713 148.335 7.28713 148.511 7.46113C147.903 6.94557 147.465 6.94557 147.033 6.94557C146.594 6.94557 145.986 7.02935 145.208 7.62869C144.861 7.88648 144.423 8.31182 143.991 8.74361L143.382 8.5696L143.206 8.48582L142.597 8.31182L142.944 7.97026C143.382 7.53847 143.729 7.19691 144.076 6.93912C145.208 5.99821 145.901 5.90799 146.424 5.90799C146.948 5.90799 147.38 5.99177 147.733 6.24955C147.124 5.6502 146.686 5.4762 145.908 5.4762C145.208 5.63731 144.429 5.97888 143.559 6.75223ZM148.603 1.35166C148.603 1.35166 148.688 1.43544 148.78 1.35166H148.603V1.26788V1.35166ZM148.688 1.60944L148.603 1.35166H148.518L148.433 1.52566L148.609 1.1841L148.786 1.26788C148.871 1.26788 148.871 1.35166 148.871 1.44188C148.871 1.53211 148.786 1.52566 148.694 1.44188V1.60944H148.688ZM148.865 1.51922C148.95 1.34522 148.865 1.17766 148.78 1.17766C148.603 1.09388 148.433 1.17766 148.433 1.26144C148.348 1.43544 148.433 1.603 148.518 1.603C148.603 1.69322 148.78 1.69322 148.865 1.51922ZM148.256 1.26144C148.341 1.08743 148.518 1.00365 148.694 1.08743C148.871 1.17121 148.956 1.34522 148.871 1.51922C148.786 1.69322 148.609 1.777 148.433 1.69322C148.341 1.60944 148.256 1.43544 148.256 1.26144Z" fill="white"/>
</svg>
