<svg width="146" height="23" viewBox="0 0 146 23" fill="none" xmlns="http://www.w3.org/2000/svg">
<path d="M120.59 0.510765C123.066 0.510765 124.671 0.138625 126.48 2.18927L132.397 9.33938H128.006C127.015 9.33938 125.882 9.06221 124.961 7.53683L120.59 0.510765Z" fill="url(#paint0_linear)"/>
<path d="M133.714 11.5547L142.728 22.6234H136.41C134.224 22.6234 132.971 21.3091 132.157 19.8921L129.445 15.221L130.231 12.7645L133.714 11.5547Z" fill="url(#paint1_linear)"/>
<path d="M130.289 16.7194L128.2 13.0285C127.592 11.8837 128.14 10.5225 130.368 10.2699C132.596 10.0172 136.467 9.6263 137.562 11.998C134.548 11.6772 130.059 12.6355 130.289 16.7194Z" fill="url(#paint2_linear)"/>
<path d="M20.8865 18.2538V13.7746C20.8865 12.3045 20.3593 11.5272 19.3653 11.5272C19.0298 11.5387 18.7058 11.6547 18.4378 11.8593C18.1698 12.0639 17.9706 12.3472 17.8676 12.6706C17.794 12.9019 17.7585 13.1439 17.7625 13.3869V18.2538H15.8913V13.5562C15.8913 12.2671 15.3564 11.5272 14.4227 11.5272C13.5999 11.5272 13.0727 12.1786 12.8666 12.7375C12.7961 12.9695 12.7606 13.2111 12.7615 13.4538V18.2538H10.8981V12.5466C10.8981 11.6275 10.865 10.8364 10.8339 10.1653H12.4561L12.5631 11.3756H12.7109L12.7304 11.3422C12.9769 10.9096 13.335 10.5529 13.7663 10.3102C14.1977 10.0676 14.6861 9.94809 15.1794 9.96454C15.6506 9.95281 16.114 10.0884 16.5064 10.3529C16.8987 10.6174 17.2008 10.9979 17.3715 11.4425L17.3891 11.4858H17.5038L17.5233 11.4543C17.7688 11.0485 18.1012 10.7035 18.4959 10.4447C18.977 10.1148 19.5488 9.94681 20.1298 9.96454C20.7484 9.96454 22.7674 10.2165 22.7674 13.4637V18.246L20.8865 18.2538ZM28.2003 18.4231C25.656 18.4231 24.0746 16.8487 24.0746 14.3335C24.0746 12.2317 25.2981 9.97242 27.9824 9.97242C30.5228 9.97242 31.4234 12.0939 31.4234 13.9085C31.426 14.1798 31.4071 14.451 31.367 14.7193H25.9089V14.7901C25.9633 16.4078 27.2705 16.9845 28.4804 16.9845C29.2301 16.9944 29.976 16.8753 30.6862 16.6322L30.9585 17.9232C30.0792 18.2716 29.1405 18.4409 28.1964 18.4211L28.2003 18.4231ZM27.8657 11.2575C26.4866 11.2575 25.9886 12.5584 25.9205 13.3279V13.4027H29.6338V13.3377C29.6338 13.0996 29.6144 12.2789 29.0814 11.7279C28.9239 11.5699 28.7358 11.4465 28.529 11.3656C28.3221 11.2846 28.1009 11.2478 27.8793 11.2575H27.8657ZM32.8764 18.2538V12.7434C32.8764 11.5882 32.8589 10.8305 32.8142 10.1594H34.4501L34.5337 11.7141H34.6952L34.7107 11.6688C35.0686 10.6376 35.9226 9.97242 36.8854 9.97242C37.0566 9.97242 37.1655 9.98619 37.6362 10.0118V11.8184C37.1324 11.7928 36.9632 11.781 36.7512 11.781C35.7786 11.781 35.0433 12.4049 34.8488 13.4066C34.8138 13.6179 34.7968 13.8319 34.7983 14.0462V18.2538H32.8764ZM46.0374 18.4231C43.532 18.4231 41.9117 16.7975 41.9117 14.2902C41.9117 11.7121 43.7051 9.98029 46.372 9.98029C47.0238 9.97955 47.6706 10.0962 48.2821 10.3247L47.9456 11.7594C47.4702 11.5519 46.9556 11.4525 46.4381 11.4681C46.1036 11.4568 45.7703 11.5139 45.4581 11.636C45.146 11.758 44.8613 11.9426 44.6213 12.1786C44.3716 12.4486 44.1775 12.7662 44.0503 13.1128C43.9231 13.4595 43.8653 13.8283 43.8802 14.1978C43.8802 15.8253 44.9073 16.9176 46.4362 16.9176C46.9732 16.9236 47.5064 16.824 48.0059 16.6243L48.2646 18.0275C47.553 18.3006 46.7965 18.4342 46.0354 18.4211L46.0374 18.4231ZM51.6492 18.4388C50.0152 18.4388 49.1613 17.2403 49.1613 16.0556C49.1613 14.0875 50.8264 13.015 53.8492 13.015H53.995V12.8182C53.995 12.2553 53.7714 11.3126 52.2755 11.3126C51.5225 11.3148 50.7825 11.512 50.1261 11.8853L49.7643 10.6691C50.6428 10.1918 51.6288 9.95375 52.6257 9.97832C55.3489 9.97832 55.9169 11.8342 55.9169 13.3928V16.3449C55.9042 16.9841 55.9439 17.6232 56.0355 18.2558H54.3199L54.1682 17.3426H54.0301L54.0087 17.3702C53.4951 18.0511 52.6471 18.4408 51.657 18.4408L51.6492 18.4388ZM53.8589 14.2312C52.0051 14.2312 51.0656 14.7704 51.0656 15.8371C51.0656 16.6086 51.5383 17.0868 52.3008 17.0868C52.6683 17.0936 53.0285 16.9832 53.3305 16.7712C53.6325 16.5593 53.8609 16.2566 53.9834 15.906C54.0277 15.7508 54.0461 15.5891 54.0378 15.4278V14.2273L53.8589 14.2312ZM62.7891 18.2538V13.6743C62.7891 12.2966 62.2056 11.5272 61.1688 11.5272C60.7958 11.5361 60.4349 11.6624 60.1362 11.8885C59.8374 12.1146 59.6157 12.4292 59.5018 12.7887C59.4289 13.0086 59.394 13.2396 59.3987 13.4716V18.2538H57.4769V12.5466C57.4769 11.6275 57.4458 10.8364 57.4146 10.1653H59.07L59.1692 11.3914H59.319L59.3384 11.3579C59.6074 10.9233 59.9841 10.5674 60.4312 10.3258C60.8782 10.0841 61.3799 9.96497 61.8866 9.98029C63.2482 9.98029 64.709 10.8915 64.709 13.444V18.2617L62.7891 18.2538ZM82.2952 18.2538V12.7434C82.2952 11.5882 82.2777 10.8305 82.233 10.1594H83.8688L83.9525 11.7141H84.1139L84.1295 11.6688C84.4893 10.6376 85.3433 9.97242 86.3042 9.97242C86.4773 9.97242 86.5843 9.98619 87.057 10.0118V11.8184C86.5512 11.7928 86.382 11.781 86.1719 11.781C85.1993 11.781 84.4621 12.4049 84.2676 13.4066C84.2325 13.6179 84.2156 13.8319 84.217 14.0462V18.2538H82.2952ZM87.907 6.39062H89.8269V18.2538H87.907V6.39062ZM101.119 18.2538V13.6743C101.119 12.2966 100.535 11.5272 99.4982 11.5272C99.1252 11.5361 98.7643 11.6624 98.4656 11.8885C98.1668 12.1146 97.9451 12.4292 97.8312 12.7887C97.7583 13.0086 97.7234 13.2396 97.7281 13.4716V18.2538H95.816V12.5466C95.816 11.6275 95.7849 10.8364 95.7538 10.1653H97.4091L97.5083 11.3973H97.6581L97.6795 11.3638C97.948 10.9292 98.3244 10.5733 98.7711 10.3316C99.2178 10.0899 99.7193 9.97083 100.226 9.98619C101.587 9.98619 103.05 10.8974 103.05 13.4499V18.2676L101.119 18.2538ZM108.635 18.4231C106.09 18.4231 104.509 16.8487 104.509 14.3335C104.509 12.2317 105.731 9.97242 108.417 9.97242C110.957 9.97242 111.858 12.0939 111.858 13.9085C111.859 14.1798 111.841 14.4509 111.801 14.7193H106.343V14.7901C106.4 16.4078 107.705 16.9845 108.917 16.9845C109.666 16.9944 110.412 16.8753 111.122 16.6322L111.395 17.9232C110.515 18.2712 109.577 18.4404 108.633 18.4211L108.635 18.4231ZM108.3 11.2575C106.919 11.2575 106.423 12.5584 106.355 13.3279V13.4027H110.068V13.3377C110.068 13.0996 110.049 12.2789 109.516 11.7279C109.358 11.5699 109.17 11.4465 108.963 11.3656C108.756 11.2846 108.535 11.2478 108.314 11.2575H108.3ZM115.213 18.4231C114.385 18.4368 113.565 18.2513 112.821 17.8819L113.21 16.5043C113.833 16.8528 114.529 17.0489 115.24 17.077C116.112 17.077 116.602 16.7129 116.602 16.0792C116.602 15.4455 116.157 15.1621 115.223 14.8157C113.785 14.3257 113.029 13.5188 113.029 12.4797C113.029 11.0076 114.264 9.97832 116.034 9.97832C116.757 9.9659 117.473 10.1221 118.127 10.4349L117.738 11.7535C117.221 11.473 116.644 11.3218 116.057 11.3126C115.328 11.3126 114.855 11.6846 114.855 12.2593C114.855 12.8339 115.287 13.0858 116.318 13.4716C117.794 13.9931 118.43 14.7212 118.446 15.9119C118.446 17.4627 117.205 18.429 115.205 18.429L115.213 18.4231ZM7.94141 18.2538H10.0208L6.40667 6.99874H3.87796L0.308594 18.2538H2.29655L3.00459 15.7722H7.21003L7.94141 18.2538ZM3.40918 14.3591L4.45373 10.6986C4.57044 10.2676 4.68715 9.78742 4.79997 9.321C4.86416 9.05926 4.92641 8.80538 4.99449 8.56528L5.00616 8.51608H5.14426L5.25319 8.95495C5.3913 9.50797 5.54886 10.1358 5.72392 10.6907L6.80154 14.3552L3.40918 14.3591ZM75.2479 18.2538H77.337L73.7151 6.99874H71.1864L67.6209 18.2538H69.6011L70.3091 15.7722H74.5145L75.2479 18.2538ZM70.7234 14.3591L71.768 10.6986C71.8866 10.2676 72.0033 9.78742 72.1162 9.321C72.1804 9.05926 72.2426 8.80538 72.3107 8.56528L72.3243 8.51608H72.4605L72.5713 8.95495C72.7094 9.50797 72.8651 10.1358 73.0401 10.6907L74.1177 14.3552L70.7234 14.3591ZM38.6886 18.2538V10.1594H40.6104V18.2538H38.6886ZM38.7917 7.06762H40.5151V8.72863H38.7917V7.06762ZM78.2726 18.2538V10.1594H80.1925V18.2538H78.2726ZM78.3737 7.06762H80.0972V8.72863H78.3737V7.06762ZM92.0093 18.2538V10.1594H93.9292V18.2538H92.0093ZM92.1124 7.06762H93.8358V8.72863H92.1124V7.06762ZM143.926 21.6093H143.583V21.4834H144.418V21.6093H144.074V22.6248H143.926V21.6093ZM145.492 22.123C145.492 21.9635 145.474 21.7707 145.474 21.631C145.433 21.7628 145.388 21.9065 145.332 22.0639L145.138 22.6169H145.029L144.834 22.0738C144.782 21.9124 144.737 21.7667 144.706 21.631C144.706 21.7727 144.696 21.9616 144.684 22.1348L144.655 22.6248H144.515L144.595 21.4834H144.789L144.984 22.0344C145.031 22.1761 145.068 22.3001 145.099 22.428C145.13 22.3119 145.169 22.1859 145.219 22.0344L145.414 21.4834H145.608L145.678 22.6248H145.534L145.492 22.123Z" fill="white"/>
<defs>
<linearGradient id="paint0_linear" x1="126.492" y1="0.644502" x2="126.492" y2="9.23472" gradientUnits="userSpaceOnUse">
<stop stop-color="#00D9FF"/>
<stop offset="1" stop-color="#0E518A"/>
</linearGradient>
<linearGradient id="paint1_linear" x1="129.445" y1="17.0891" x2="142.728" y2="17.0891" gradientUnits="userSpaceOnUse">
<stop stop-color="#F12E1F"/>
<stop offset="1" stop-color="#9F1E1C"/>
</linearGradient>
<linearGradient id="paint2_linear" x1="130.199" y1="13.4275" x2="137.316" y2="13.2973" gradientUnits="userSpaceOnUse">
<stop stop-color="#E6EAEF"/>
<stop offset="1" stop-color="#95AAB1"/>
</linearGradient>
</defs>
</svg>
