<svg width="153" height="27" viewBox="0 0 153 27" fill="none" xmlns="http://www.w3.org/2000/svg">
<path d="M18.9088 11.1275C18.8109 11.1275 18.728 11.1275 18.6828 11.135C18.6301 11.2329 18.5472 11.3685 18.4267 11.5492C20.2798 11.5492 21.9672 11.6998 23.8355 12.0387L23.3081 12.5433C21.6282 12.2421 20.2271 12.1291 18.4493 12.1291C18.1931 12.1291 18.1329 12.1291 18.0726 12.1291C18.0123 12.2195 17.8692 12.4002 17.7336 12.5735C17.8918 12.5659 18.2007 12.5584 18.6225 12.5584C20.084 12.5584 21.455 12.6638 22.939 12.9048L22.4117 13.4169C21.2817 13.2437 19.8956 13.1383 18.6602 13.1383C18.2157 13.1383 17.7185 13.1533 17.2741 13.1835C17.1762 13.2964 16.905 13.5826 16.8296 13.673C17.4248 13.6127 18.0801 13.5826 18.8561 13.5826C19.9634 13.5826 21.0181 13.6579 22.02 13.801L21.4927 14.3056C20.777 14.2152 19.9107 14.1625 19.1498 14.1625C17.1762 14.1625 15.6243 14.5918 14.0122 15.5708C15.5415 17.2126 18.0575 18.2519 20.4907 18.2519H20.7167L19.8655 19.0728C16.355 18.4176 12.6638 16.8737 9.54509 14.7575C6.5469 12.7316 5.49226 12.1366 3.15699 11.0974L3.14192 10.4949L4.72388 11.1727L5.26627 10.7434L10.4415 13.1157L10.1025 13.3868L7.45088 12.2346L7.18722 12.4379L8.56578 13.2061C9.73342 13.8537 10.6148 14.1474 11.4359 14.1474C13.2288 14.1474 14.8334 12.8747 15.8729 10.6455C16.6564 10.5476 17.485 10.4949 18.4869 10.4949C20.5435 10.4949 22.5322 10.6907 24.7922 11.1124L24.2422 11.6471C22.8185 11.3685 20.4305 11.1275 18.9088 11.1275ZM13.8766 25.8884C7.14955 25.8884 1.68802 20.4283 1.68802 13.7031C1.68802 6.97787 7.14955 1.51786 13.8766 1.51786C20.6037 1.51786 26.0653 6.97787 26.0653 13.7031C26.0653 20.4283 20.6037 25.8884 13.8766 25.8884ZM13.8766 0.742157C6.70509 0.742157 0.912109 6.53354 0.912109 13.7031C0.912109 20.8727 6.70509 26.6641 13.8766 26.6641C21.0482 26.6641 26.8412 20.8727 26.8412 13.7031C26.8412 6.53354 21.0482 0.742157 13.8766 0.742157ZM48.1374 18.8619H55.5726V22.3412H44.1373V5.06499H48.1374V18.8619ZM64.5596 9.89993H68.2885V22.3412H64.7781V20.9103C64.2583 21.8743 63.1961 22.7103 61.245 22.7103C58.0585 22.7103 56.4012 21.2794 56.4012 17.1825V9.89993H60.1301V17.0092C60.1301 18.6661 60.8458 19.4041 62.3524 19.4041C63.7084 19.4041 64.5521 18.6661 64.5521 17.0092V9.89993H64.5596ZM71.1511 9.433C71.1511 6.42058 73.0495 4.81646 76.0401 4.81646C77.0044 4.81646 77.6221 4.96708 77.6221 4.96708V7.97951C77.6221 7.97951 77.1023 7.92679 76.6578 7.92679C75.4977 7.92679 74.88 8.3184 74.88 9.41041V9.90746H77.6221V12.9425H74.88V22.3488H71.1511V12.9425H69.2754V9.90746H71.1511V9.433ZM84.1985 9.89993H87.0385V12.9425H84.1985V17.7849C84.1985 19.1179 84.8916 19.4644 85.9763 19.4644C86.4208 19.4644 87.0385 19.3891 87.0385 19.3891V22.3789C87.0385 22.3789 86.1722 22.5747 85.2607 22.5747C82.27 22.5747 80.4696 21.2191 80.4696 18.2067V12.95H78.5863V9.91499H80.4621V6.26996H84.191V9.89993H84.1985ZM95.2948 9.5309C98.4588 9.5309 100.109 10.9618 100.109 15.0587V22.3412H96.3796V15.2319C96.3796 13.5751 95.664 12.837 94.1046 12.837C92.6959 12.837 91.8597 13.5751 91.8597 15.2319V22.3412H88.1308V5.08005H91.8823V11.1049C92.5226 10.2012 93.5396 9.5309 95.2948 9.5309ZM109.615 17.5063C109.615 18.8619 108.327 19.8786 106.353 19.8786C105.389 19.8786 104.824 19.4342 104.824 18.5908C104.824 17.9506 105.216 17.4084 106.482 17.2352L108.628 16.9415C108.998 16.8887 109.397 16.821 109.615 16.7457V17.5063ZM107.544 9.5309C103.86 9.5309 102.082 10.9392 101.939 13.5826H105.57C105.623 12.8898 106.014 12.3701 107.544 12.3701C108.9 12.3701 109.548 12.8144 109.548 13.4847C109.548 14.0797 109.178 14.2981 108.259 14.396L105.886 14.6445C102.677 14.9909 101.216 16.3239 101.216 18.7414C101.216 20.9856 102.602 22.7178 105.54 22.7178C107.544 22.7178 108.726 22.0776 109.766 20.7898V22.3488H113.179V14.1776C113.171 10.7434 111.175 9.5309 107.544 9.5309ZM121.796 9.5309C125.036 9.5309 126.685 10.9618 126.685 15.0587V22.3412H122.957V15.2319C122.957 13.5751 122.241 12.837 120.682 12.837C119.273 12.837 118.437 13.5751 118.437 15.2319V22.3412H114.708V9.89993H118.218V11.3308C118.738 10.3744 119.8 9.5309 121.796 9.5309ZM134.558 14.5466C137.721 14.9683 139.303 15.9549 139.303 18.5456C139.303 21.1664 137.45 22.7178 133.526 22.7178C129.254 22.7178 127.748 21.0158 127.672 18.523H131.356C131.454 19.4342 132.094 19.8786 133.526 19.8786C134.979 19.8786 135.575 19.5321 135.575 18.8393C135.575 18.1992 135.077 17.8979 133.797 17.7247L132.486 17.5515C129.744 17.1825 128.162 16.1206 128.162 13.6504C128.162 11.2781 129.917 9.52337 133.593 9.52337C136.998 9.52337 138.829 10.879 139.002 13.5751H135.371C135.251 12.8596 134.851 12.4153 133.593 12.4153C132.358 12.4153 131.891 12.837 131.891 13.3793C131.891 13.9215 132.185 14.2152 133.247 14.3658L134.558 14.5466ZM148.637 17.5063C148.637 18.8619 147.349 19.8786 145.375 19.8786C144.411 19.8786 143.846 19.4342 143.846 18.5908C143.846 17.9506 144.238 17.4084 145.503 17.2352L147.65 16.9415C148.019 16.8887 148.419 16.821 148.637 16.7457V17.5063ZM146.558 9.5309C142.882 9.5309 141.096 10.9392 140.953 13.5826H144.584C144.637 12.8898 145.029 12.3701 146.558 12.3701C147.914 12.3701 148.562 12.8144 148.562 13.4847C148.562 14.0797 148.193 14.2981 147.273 14.396L144.901 14.6445C141.691 14.9909 140.23 16.3239 140.23 18.7414C140.23 20.9856 141.616 22.7178 144.554 22.7178C146.558 22.7178 147.741 22.0776 148.78 20.7898V22.3488H152.185V14.1776C152.193 10.7434 150.189 9.5309 146.558 9.5309Z" fill="white"/>
</svg>
