<svg width="89" height="27" viewBox="0 0 89 27" fill="none" xmlns="http://www.w3.org/2000/svg">
<path d="M4.85321 23.822C4.85321 23.822 8.25649 18.724 8.56303 18.2204C8.93883 17.6041 8.9542 16.6242 8.61778 16.0979C8.44624 15.8229 3.37164 7.77553 3.37164 7.77553C2.91547 6.90608 3.02856 6.31329 3.33292 5.88878C3.83347 5.14815 4.71602 3.83594 4.71602 3.83594C4.71602 3.83594 10.876 13.5264 11.132 13.9597C11.7939 15.0654 11.6107 16.1478 11.0657 17.0758C10.6087 17.8575 6.61723 23.8227 6.61723 23.8227" fill="#F99C1C"/>
<path d="M3.75803 24.3712C3.75803 24.3712 7.69696 18.5894 7.98966 18.1102C8.33339 17.5247 8.29555 16.7006 7.98966 16.2037C7.82543 15.941 2.35682 7.30956 2.35682 7.30956C2.35682 7.30956 1.38616 8.77695 1.08027 9.23053C0.774486 9.68139 0.592807 10.2442 1.11756 11.1485C1.11756 11.1485 5.03458 17.3474 5.19958 17.6101C5.51855 18.116 5.5047 19.0446 5.14854 19.6301C4.85585 20.1029 0.816907 26.0081 0.816907 26.0081H12.4723C13.6562 26.0081 14.3058 25.5464 14.8788 24.7209C15.3743 24.019 17.2915 21.2256 17.5856 20.7872C17.8755 20.348 18.46 20.056 18.7213 20.056H19.6322L17.8551 17.3445H15.0194C14.478 17.3445 13.8231 17.8267 13.4795 18.3376C13.2102 18.7409 11.2704 21.6542 10.9222 22.1227C10.7237 22.3869 10.5536 22.4447 10.396 22.4461C10.3092 22.4461 10.0579 22.4446 10.0274 22.4446C10.1428 22.2119 13.3993 17.46 14.0402 16.4142C14.8144 15.1261 14.9897 13.4253 14.0685 11.7933C13.7323 11.2014 6.96436 0.492188 6.96436 0.492188C6.96436 0.492188 6.06228 1.7927 5.68715 2.35104C5.38278 2.80551 5.28944 3.4006 5.72804 4.2707C5.72804 4.2707 11.4092 13.3325 11.68 13.7474C12.3397 14.7808 12.2579 16.1617 11.68 17.1022C11.2084 17.8779 7.28268 23.8212 7.28268 23.8212H10.3933C11.5201 23.8212 11.7966 23.4019 12.1076 23.0549C12.4187 22.705 14.1104 20.1334 14.3016 19.8626C14.4972 19.5941 14.9904 18.8344 15.6394 18.8344H17.6823V18.8937C17.2471 18.9815 16.818 19.2457 16.5072 19.6731C16.1962 20.0952 14.1439 23.1441 13.8965 23.4991C13.585 23.947 13.2302 24.3716 12.3369 24.3716" fill="#F99C1C"/>
<path d="M22.6892 8.7385H24.7398C25.2082 8.7385 25.5258 9.01308 25.5258 9.54473C25.5258 10.0755 25.208 10.351 24.7398 10.351H20.3314V11.7422H24.5849C26.2368 11.7422 27.0476 10.6362 27.0476 9.51355C27.0476 8.38941 26.2359 7.29259 24.5849 7.29259C23.875 7.29259 22.5249 7.29686 22.5249 7.29686C22.0659 7.29686 21.7586 7.02783 21.7586 6.51326C21.7586 5.99528 22.0659 5.72711 22.5249 5.72711H26.9414V4.33629H22.6898C21.0573 4.33629 20.252 5.31588 20.252 6.54081C20.2509 7.76936 21.0562 8.73829 22.6892 8.73829V8.7385ZM44.5878 11.7409H47.8421V6.90912H46.242V10.3115H44.3673C43.0153 10.3115 42.1081 9.51911 42.1081 7.99996C42.1081 6.47548 43.0143 5.68974 44.3673 5.68974H47.8411V4.3365H44.5867C41.842 4.3365 40.49 6.33562 40.49 8.04736C40.4898 9.75589 41.843 11.7409 44.5878 11.7409ZM28.6837 4.3365H30.283V11.7411H28.6837V4.3365ZM33.8615 5.68847H36.5116C37.1615 5.68847 37.5778 6.29036 37.5778 6.84912V11.7401H39.1738V6.64458C39.1738 5.38272 38.2898 4.33522 36.8742 4.33522H34.7761L33.8625 5.56911V4.335H32.2644V11.7401H33.8625L33.8615 5.68847ZM76.3539 5.68953H78.8653C79.4536 5.68953 79.8243 6.26431 79.8243 6.78101C79.8243 7.29771 79.4523 7.85541 78.8656 7.85541H76.8997L80.0837 11.7396H81.9797L79.7218 8.97913H79.726C80.6967 8.66036 81.3207 7.754 81.3207 6.73297C81.3207 5.45745 80.3501 4.33458 78.9353 4.33458H74.7794V11.7392H76.3539V5.68953ZM88.9748 11.7409V10.3858L84.7064 10.3887V8.49061H88.424V7.14399H84.7066V5.68868L88.9748 5.68953V4.3365H83.098V11.7409H84.7066H88.9748ZM53.0813 5.61309L54.2385 8.28841L51.9325 8.29269L53.0813 5.61309ZM51.3868 9.59128L54.784 9.59341L55.7306 11.7403H57.476L53.9074 4.33543H52.2556L48.6876 11.7401H50.4456L51.3868 9.59128ZM59.8971 5.68847H62.3779C62.965 5.68847 63.3391 6.31086 63.3391 6.87069C63.3391 7.4271 62.964 8.03135 62.3779 8.03135H59.8971V5.68847ZM59.8971 8.1475V8.14408L60.8105 9.37584H62.4455C63.82 9.37584 64.7895 8.21304 64.7895 6.87133C64.7895 5.52363 63.82 4.33735 62.4455 4.33735H58.2904V11.742H59.8971V8.1475ZM69.6209 5.49353C70.9912 5.49353 72.1088 6.62814 72.1088 8.03006C72.1088 9.41982 70.9912 10.5523 69.6209 10.5523C68.2431 10.5523 67.1263 9.41961 67.1263 8.03006C67.1263 6.62835 68.2433 5.49353 69.6209 5.49353ZM69.6209 12.0512C71.8058 12.0512 73.5797 10.2468 73.5797 8.03113C73.5797 5.80355 71.8047 4 69.6209 4C67.4325 4 65.6671 5.80355 65.6671 8.03113C65.6661 10.2468 67.4314 12.0512 69.6209 12.0512ZM55.6232 15.5205H57.2303V22.9205H55.6232V15.5205ZM54.5012 22.9226V21.5677L50.7741 21.5707V15.5195H49.1658V22.9226H50.7741H54.5012ZM31.5797 16.7959L32.7356 19.4707L30.4301 19.475L31.5797 16.7961V16.7959ZM29.8858 20.7732L33.28 20.7753L34.2253 22.9218H35.9713L32.404 15.5186H30.7521L27.1842 22.9216H28.9441L29.8858 20.7732ZM42.4466 16.8725H44.9598C45.5467 16.8725 45.9206 17.4469 45.9206 17.9636C45.9206 18.4803 45.5455 19.038 44.9598 19.038H42.9943L46.1791 22.9213H48.0746L45.8149 20.1615H45.8191C46.7896 19.8429 47.4136 18.9368 47.4136 17.9162C47.4136 16.6406 46.4452 15.5182 45.031 15.5182H40.8744V22.9213H42.4464L42.4466 16.8725ZM37.0467 15.5195H38.6465V22.9226H37.0467V15.5195ZM77.7013 19.9208H79.7478C80.2194 19.9208 80.5359 20.1952 80.5359 20.7268C80.5359 21.2574 80.2194 21.5331 79.7478 21.5331H75.3418V22.9237H79.5952C81.2459 22.9237 82.0575 21.8183 82.0575 20.6957C82.0575 19.5717 81.2448 18.4751 79.5952 18.4751C78.8866 18.4751 77.5346 18.4794 77.5346 18.4794C77.0769 18.4794 76.7696 18.2104 76.7696 17.6958C76.7696 17.1783 77.0769 16.9101 77.5346 16.9101H81.9495V15.5195H77.701C76.066 15.5195 75.2611 16.4991 75.2611 17.7238C75.2621 18.9521 76.066 19.9208 77.701 19.9208H77.7013ZM73.7229 22.9226V21.5677L69.4543 21.5707V19.6732H73.1739V18.3267H69.454V16.8714L73.7229 16.8725V15.5195H67.8482V22.9226H69.4543H73.7229ZM60.788 16.8714H63.4396C64.0882 16.8714 64.5024 17.4729 64.5024 18.0317V22.9216H66.1001V17.8271C66.1001 16.5657 65.2167 15.5186 63.8002 15.5186H61.7024L60.7892 16.7521V15.5186H59.1914V22.9218H60.7892" fill="white"/>
</svg>
