<svg width="97" height="25" viewBox="0 0 97 25" fill="none" xmlns="http://www.w3.org/2000/svg">
<path d="M3.12305 19.172C9.79881 17.2722 16.4447 15.4117 23.0707 13.4922C23.0508 13.4036 23.0409 13.3052 23.021 13.2166C20.2651 13.4036 17.5093 13.5808 14.644 13.7777C14.7932 13.6005 14.8728 13.4922 14.9623 13.4036C16.9521 11.2478 17.0616 8.66878 15.2707 6.33581C13.8878 4.53441 11.9975 3.39254 9.97789 2.44754C9.15213 2.06363 8.30646 1.74863 7.4608 1.4041C8.84371 -0.161054 14.3654 -0.456366 17.5988 0.852851C22.6031 2.88066 25.3789 7.67456 25.2197 12.4783C25.0506 17.6856 21.469 22.3811 16.1164 23.7789C10.9529 25.1374 5.82917 22.9422 3.12305 19.172Z" fill="#EB212B"/>
<path d="M9.96593 9.80083C9.88634 11.809 9.38889 14.014 7.69756 15.7957C6.39425 17.1738 4.74272 17.9219 2.96185 18.4633C2.65343 18.5519 2.55394 18.3747 2.43456 18.168C1.47945 16.5044 0.892464 14.7227 0.812872 12.8032C0.623842 8.40302 2.34501 4.89865 5.857 2.24084C6.46389 1.77819 6.47384 1.79788 7.04093 2.31959C8.91134 4.06194 9.96593 6.63115 9.96593 9.80083Z" fill="#EB212B"/>
<path d="M79.1831 23.6889C78.3772 23.6889 77.5813 23.7086 76.7953 23.6692C76.666 23.6594 76.5068 23.4822 76.4173 23.3444C75.0841 21.228 73.7708 19.1116 72.4476 16.9853C72.4277 16.9558 72.3979 16.9361 72.3382 16.877C72.3382 19.1411 72.3382 21.3658 72.3382 23.6397C71.6418 23.6397 70.9951 23.6397 70.3086 23.6397C70.3086 20.3027 70.3086 16.9755 70.3086 13.6286C70.9254 13.6286 71.5224 13.5794 72.1094 13.6384C72.7162 13.6975 73.154 14.0814 73.4724 14.6031C74.6364 16.4931 75.8104 18.3733 76.9744 20.2633C77.0043 20.3125 77.0441 20.3617 77.1435 20.4897C77.1435 18.1469 77.1435 15.9025 77.1435 13.6188C77.84 13.6188 78.4966 13.6188 79.1831 13.6188C79.1831 16.9656 79.1831 20.3027 79.1831 23.6889Z" fill="white"/>
<path d="M86.4355 0.488281C87.0424 0.488281 87.6195 0.488281 88.1965 0.488281C88.3756 0.488281 88.5547 0.488281 88.7736 0.488281C88.7736 1.83687 88.7736 3.1264 88.7736 4.48484C89.0919 4.48484 89.3605 4.48484 89.6391 4.48484C90.5843 4.48484 91.5294 4.46515 92.4746 4.49468C92.9024 4.50453 93.0516 4.40609 93.0417 3.95328C93.0019 2.82125 93.0218 1.69906 93.0218 0.527656C93.8177 0.527656 94.5639 0.527656 95.3797 0.527656C95.3896 0.665469 95.4095 0.822968 95.4095 0.980468C95.4095 4.0025 95.3996 7.01468 95.4195 10.0367C95.4195 10.4895 95.2702 10.5978 94.8524 10.5781C94.2654 10.5486 93.6684 10.5683 93.0218 10.5683C93.0218 9.14093 93.0218 7.79233 93.0218 6.39452C91.5891 6.39452 90.2162 6.39452 88.7935 6.39452C88.7935 7.7628 88.7935 9.12124 88.7935 10.5191C87.9876 10.5191 87.2215 10.5191 86.4355 10.5191C86.4355 7.19187 86.4355 3.88437 86.4355 0.488281Z" fill="white"/>
<path d="M58.9652 6.19579C59.9004 7.64282 60.8057 9.05048 61.8106 10.6058C60.9649 10.5467 60.2386 10.5959 59.572 10.4286C59.1542 10.3203 58.7562 9.93641 58.4876 9.57219C57.9703 8.87329 57.5126 8.12516 57.1146 7.35735C56.7764 6.69782 56.3287 6.43204 55.5527 6.67813C55.5427 6.8061 55.5328 6.98329 55.5328 7.15063C55.5328 8.13501 55.5129 9.11938 55.5427 10.1038C55.5527 10.4778 55.4233 10.5959 55.0552 10.5763C54.5478 10.5467 54.0305 10.5664 53.5131 10.5763C53.2843 10.5763 53.1351 10.5369 53.145 10.2613C53.1549 7.08173 53.1549 3.9022 53.1549 0.722675C53.1549 0.663612 53.1848 0.594706 53.1947 0.555331C54.8463 0.555331 56.4879 0.466738 58.1095 0.584862C59.5322 0.6833 60.4078 1.56924 60.6565 2.81939C60.9351 4.22704 60.4475 5.30986 59.194 6.05798C59.1343 6.07767 59.0746 6.12689 58.9652 6.19579ZM55.5725 2.29767C55.5725 3.23283 55.5725 4.13845 55.5725 5.08345C55.7914 5.08345 55.9705 5.08345 56.1496 5.08345C56.468 5.08345 56.7764 5.10314 57.0947 5.07361C57.8608 5.0047 58.3284 4.50267 58.3583 3.7447C58.3881 2.94736 57.9603 2.39611 57.1843 2.30752C56.657 2.24845 56.1197 2.29767 55.5725 2.29767Z" fill="white"/>
<path d="M53.9204 19.3016C54.8656 20.7584 55.7809 22.1759 56.6962 23.6033C55.1243 24.0266 54.01 23.6033 53.1942 22.3039C52.8061 21.6936 52.438 21.0734 52.06 20.4533C51.5625 19.6461 51.5625 19.6461 50.5079 19.8134C50.5079 21.0734 50.5079 22.3433 50.5079 23.6623C49.712 23.6623 48.9559 23.6623 48.1699 23.6623C48.1699 20.3351 48.1699 17.008 48.1699 13.6414C48.2893 13.6316 48.4186 13.602 48.548 13.602C49.8215 13.602 51.0949 13.5922 52.3684 13.602C53.5026 13.6119 54.5273 13.8973 55.2138 14.9014C55.9898 16.0334 55.9699 18.2778 54.1791 19.1441C54.1194 19.1736 54.0498 19.2228 53.9204 19.3016ZM50.5278 18.2286C51.1745 18.1991 51.7715 18.2187 52.3485 18.1302C52.9952 18.0219 53.3235 17.51 53.3135 16.7816C53.3036 16.0925 52.9753 15.5609 52.3485 15.4822C51.7516 15.4034 51.1447 15.4625 50.5278 15.4625C50.5278 16.3583 50.5278 17.2442 50.5278 18.2286Z" fill="white"/>
<path d="M42.1817 23.6893C41.4355 23.6893 40.7093 23.6992 39.983 23.6795C39.8536 23.6696 39.6646 23.522 39.6149 23.394C39.4557 23.0003 39.3264 22.5967 39.2169 22.1832C39.1473 21.9174 39.0179 21.819 38.7394 21.8289C37.6151 21.8485 36.4909 21.8387 35.3567 21.8289C35.108 21.8289 34.9687 21.8978 34.8991 22.1537C34.4215 23.8173 34.2126 23.709 32.6506 23.6992C32.4516 23.6992 32.2526 23.6992 32.0039 23.6992C32.0437 23.5417 32.0636 23.4235 32.1034 23.3153C33.2674 20.2342 34.4514 17.1531 35.6054 14.0621C35.7348 13.7176 35.9039 13.5798 36.282 13.5995C36.9088 13.629 37.5455 13.5896 38.1723 13.6192C38.3116 13.629 38.5304 13.7373 38.5802 13.8554C39.8039 17.0743 41.0077 20.3031 42.2115 23.5318C42.2016 23.5417 42.1917 23.581 42.1817 23.6893ZM38.4608 19.9684C38.0031 18.6296 37.5554 17.3303 37.0679 15.9128C36.5605 17.3303 36.0929 18.6296 35.6154 19.9684C36.6003 19.9684 37.4858 19.9684 38.4608 19.9684Z" fill="white"/>
<path d="M67.8011 5.0571C69.2437 6.86835 70.6565 8.65991 72.0792 10.4613C70.547 10.9338 69.2437 10.5401 68.3185 9.34897C67.4629 8.24647 66.5973 7.15382 65.6422 5.9332C65.6422 7.53772 65.6422 9.00444 65.6422 10.5499C64.8861 10.5499 64.1797 10.5598 63.4733 10.5302C63.3937 10.5302 63.2644 10.2743 63.2644 10.1365C63.2445 9.28007 63.2544 8.4335 63.2544 7.5771C63.2544 5.43116 63.2544 3.27539 63.2544 1.12945C63.2544 0.932577 63.2544 0.735703 63.2544 0.499453C64.0404 0.499453 64.7866 0.499453 65.6024 0.499453C65.6024 1.88742 65.6024 3.27539 65.6024 4.6732C65.6422 4.68304 65.682 4.70273 65.7218 4.71257C66.0302 4.29914 66.3486 3.8857 66.657 3.47226C67.3236 2.57648 67.9802 1.67086 68.6766 0.794765C68.8159 0.627422 69.0945 0.489609 69.3134 0.469922C69.96 0.430547 70.6167 0.450234 71.3927 0.450234C70.169 2.04492 69.0049 3.53132 67.8011 5.0571Z" fill="white"/>
<path d="M48.7979 0.507812C49.554 0.507812 50.2405 0.507812 51.0066 0.507812C51.0066 0.685 51.0066 0.862187 51.0066 1.02953C51.0066 2.99828 51.0066 4.96702 51.0066 6.93577C51.0066 9.11124 49.8923 10.3712 47.7135 10.637C46.6688 10.765 45.6242 10.7158 44.6293 10.3417C43.505 9.91842 42.8186 9.10139 42.5897 7.93983C42.5101 7.53624 42.4704 7.1228 42.4704 6.71921C42.4604 4.77015 42.4604 2.81125 42.4704 0.862187C42.4704 0.76375 42.4903 0.665312 42.5002 0.5275C43.2563 0.5275 44.0124 0.5275 44.8283 0.5275C44.8382 0.704687 44.8581 0.891718 44.8581 1.07875C44.8581 2.91953 44.8581 4.75046 44.8581 6.59124C44.8581 6.86687 44.8681 7.15233 44.9377 7.41811C45.1566 8.35327 45.8331 8.81592 46.8877 8.79624C47.9224 8.77655 48.5392 8.29421 48.7283 7.34921C48.778 7.09327 48.7979 6.82749 48.7979 6.57155C48.8078 4.73077 48.7979 2.89984 48.7979 1.05906C48.7979 0.881874 48.7979 0.714531 48.7979 0.507812Z" fill="white"/>
<path d="M81.3496 13.6211C83.4687 13.6211 85.5481 13.6211 87.6772 13.6211C87.6772 14.0247 87.7269 14.4086 87.6672 14.7827C87.5976 15.2453 87.1996 15.5012 86.6325 15.5111C85.8565 15.5209 85.0805 15.5111 84.2945 15.5111C84.1154 15.5111 83.9363 15.5111 83.7374 15.5111C83.7374 16.2395 83.7374 16.8991 83.7374 17.6472C84.2746 17.6472 84.8119 17.6472 85.3491 17.6472C85.4784 17.6472 85.6177 17.6472 85.7471 17.6472C87.2892 17.6472 87.3488 17.7259 87.0504 19.3305C85.9659 19.3305 84.8616 19.3305 83.7374 19.3305C83.7374 20.1672 83.7374 20.935 83.7374 21.7717C85.0606 21.7717 86.3639 21.7717 87.6772 21.7717C87.6772 22.4312 87.6772 23.0317 87.6772 23.6519C85.558 23.6519 83.4687 23.6519 81.3496 23.6519C81.3496 20.3148 81.3496 16.9975 81.3496 13.6211Z" fill="white"/>
<path d="M95.8169 15.6596C94.9414 15.5317 94.1355 15.3938 93.3197 15.2954C93.071 15.2659 92.7924 15.3348 92.5437 15.4037C92.1557 15.512 91.9269 15.7777 91.8871 16.1813C91.8473 16.5652 92.0065 16.8704 92.3447 17.0377C92.8919 17.3035 93.459 17.5398 94.0161 17.7859C94.3445 17.9335 94.6827 18.0812 95.0011 18.2485C96.0358 18.7998 96.4338 19.6956 96.4139 20.8177C96.394 21.9301 95.9164 22.7865 94.9215 23.3082C93.4988 24.0465 92.0065 23.889 90.5141 23.5543C89.5789 23.3377 89.5789 23.3082 89.5789 22.3534C89.5789 22.0285 89.5789 21.7037 89.5789 21.4084C90.3947 21.6052 91.1508 21.8316 91.9169 21.9498C92.3447 22.0187 92.8024 21.9301 93.2302 21.8415C93.6978 21.7431 93.9664 21.4084 93.9963 20.9359C94.0261 20.4929 93.7973 20.1779 93.4093 19.9909C92.9516 19.7743 92.4641 19.5971 91.9965 19.3806C91.6383 19.2132 91.2702 19.0557 90.932 18.849C89.8177 18.1501 89.3799 17.0771 89.6386 15.699C89.8674 14.4784 90.7131 13.8582 91.8572 13.5924C93.061 13.3168 94.2649 13.4251 95.4289 13.7893C95.5682 13.8385 95.7572 14.0256 95.7672 14.1634C95.8468 14.6752 95.8169 15.1871 95.8169 15.6596Z" fill="white"/>
<path d="M77.6893 8.21478C78.147 8.37228 78.525 8.55931 78.923 8.61837C79.6492 8.71681 80.3954 8.79556 81.1316 8.76603C81.7286 8.7365 82.047 8.34275 82.1066 7.88009C82.1663 7.39775 81.9574 7.05322 81.3704 6.78744C80.7436 6.50197 80.0771 6.26572 79.4602 5.97041C78.0674 5.29119 77.4804 4.12963 77.749 2.65307C77.9679 1.41276 78.923 0.585884 80.4054 0.398853C81.4699 0.261041 82.5146 0.369322 83.5493 0.674478C83.8378 0.763072 83.9373 0.89104 83.9273 1.18635C83.8975 1.65885 83.9174 2.13135 83.9174 2.63338C83.3304 2.48573 82.7832 2.30854 82.226 2.22979C81.7584 2.17073 81.2709 2.19041 80.8033 2.24948C80.3556 2.30854 80.0572 2.58416 80.0074 3.06651C79.9577 3.54885 80.2163 3.84416 80.6243 4.03119C81.3605 4.36588 82.1166 4.66119 82.8429 5.01557C84.2855 5.72431 84.8526 7.01384 84.4049 8.53962C84.0567 9.72087 83.1811 10.3509 82.0171 10.5871C80.674 10.8726 79.3508 10.7151 78.0475 10.3017C77.7888 10.2229 77.6794 10.0851 77.6893 9.79962C77.6992 9.2779 77.6893 8.77587 77.6893 8.21478Z" fill="white"/>
<path d="M32.9785 2.38187C32.9785 1.73219 32.9785 1.15141 32.9785 0.53125C35.5851 0.53125 38.1719 0.53125 40.8183 0.53125C40.8183 0.895468 40.868 1.27937 40.8084 1.63375C40.7288 2.10625 40.3706 2.36218 39.8831 2.37203C39.4354 2.38187 38.9877 2.40156 38.54 2.37203C38.1619 2.35234 38.0624 2.49015 38.0624 2.85437C38.0724 5.21687 38.0724 7.57937 38.0724 9.93202C38.0724 10.5719 38.0724 10.5719 37.4257 10.5719C36.8785 10.5719 36.3413 10.5719 35.7244 10.5719C35.7244 7.8353 35.7244 5.13812 35.7244 2.38187C34.7793 2.38187 33.8938 2.38187 32.9785 2.38187Z" fill="white"/>
<path d="M58.1992 13.6208C58.6469 13.6208 59.0946 13.5716 59.5324 13.6306C60.1791 13.7192 60.5273 14.2213 60.5273 14.9497C60.5273 17.0267 60.5273 19.1136 60.5273 21.1906C60.5273 21.3875 60.5273 21.5745 60.5273 21.8206C61.7709 21.8206 62.9747 21.8206 64.2084 21.8206C64.2084 22.4506 64.2084 23.0314 64.2084 23.6516C62.2186 23.6516 60.2288 23.6516 58.1992 23.6516C58.1992 20.3145 58.1992 16.9873 58.1992 13.6208Z" fill="white"/>
<path d="M73.4121 0.488281C74.2279 0.488281 74.9741 0.488281 75.7501 0.488281C75.7501 3.82531 75.7501 7.14265 75.7501 10.5486C75.0338 10.5486 74.3175 10.5584 73.6011 10.5289C73.5315 10.5289 73.432 10.2828 73.432 10.145C73.4121 9.3378 73.4221 8.54046 73.4221 7.73327C73.4221 5.50859 73.4221 3.27406 73.4221 1.04937C73.4121 0.882031 73.4121 0.704844 73.4121 0.488281Z" fill="white"/>
<path d="M43.6836 13.6211C44.4397 13.6211 45.1759 13.6211 45.952 13.6211C45.952 16.968 45.952 20.305 45.952 23.6617C45.1958 23.6617 44.4596 23.6617 43.6836 23.6617C43.6836 20.3345 43.6836 17.0073 43.6836 13.6211Z" fill="white"/>
<path d="M65.8008 23.6912C65.8008 20.3148 65.8008 16.9877 65.8008 13.6211C66.5669 13.6211 67.3031 13.6211 68.0791 13.6211C68.089 13.7983 68.1089 13.9558 68.1089 14.1133C68.1089 17.1255 68.099 20.1475 68.1189 23.1597C68.1189 23.6026 67.9896 23.7306 67.5518 23.7011C66.9947 23.6617 66.4176 23.6912 65.8008 23.6912Z" fill="white"/>
</svg>
