<svg width="666" height="150" fill="none" xmlns="http://www.w3.org/2000/svg"><path fill-rule="evenodd" clip-rule="evenodd" d="M348.857 32.884h20.034l-39.269 112.524h-20.034l39.269-112.524zm2.717 3.846l-36.585 104.832h11.916L363.49 36.729h-11.916zm128.071 79.117v31.961h-91.548v-24.681l41.513-38.956.009-.01c3.783-3.597 6.018-6.37 7.057-8.361 1.088-2.194 1.58-4.274 1.58-6.275 0-2.53-.798-4.093-2.142-5.208-1.409-1.167-3.829-2.05-7.859-2.05-3.382 0-6.438.777-9.236 2.309l-.019.01-.019.01c-2.649 1.412-4.888 3.504-6.714 6.384l-1.949 3.073-29.262-16.38 2.054-3.42c4.587-7.635 11.019-13.62 19.195-17.943 8.247-4.362 17.863-6.467 28.719-6.467 8.616 0 16.374 1.404 23.193 4.32 6.926 2.916 12.455 7.197 16.407 12.897 4.09 5.645 6.097 12.209 6.097 19.531 0 6.45-1.413 12.584-4.232 18.36-2.775 5.795-8.008 12.05-15.321 18.76l-.007.007-13.077 12.129h35.561zm-45.39 3.86h41.543v24.241h-83.855v-19.146l40.312-37.83c3.898-3.705 6.514-6.845 7.847-9.418 1.334-2.676 2-5.353 2-8.03 0-3.499-1.179-6.227-3.538-8.182-2.36-1.956-5.796-2.934-10.309-2.934-4.001 0-7.693.926-11.078 2.78-3.283 1.749-6.001 4.322-8.155 7.72l-22.618-12.662a44.319 44.319 0 012.134-3.225c3.99-5.488 9.177-9.92 15.56-13.296 7.591-4.015 16.566-6.022 26.926-6.022 8.206 0 15.438 1.338 21.695 4.014 6.36 2.677 11.283 6.537 14.771 11.58 3.59 4.942 5.385 10.706 5.385 17.294 0 5.868-1.282 11.426-3.847 16.676-2.461 5.147-7.282 11.014-14.463 17.602l-20.31 18.838zm52.792 2.13l-.012-.026c-4.29-9.162-6.366-19.834-6.366-31.905 0-12.068 2.075-22.697 6.374-31.767l.008-.018c4.383-9.126 10.494-16.209 18.377-21.068 7.843-4.835 16.759-7.21 26.631-7.21 9.779 0 18.641 2.38 26.478 7.21 7.884 4.86 13.947 11.947 18.227 21.078 4.404 9.073 6.531 19.705 6.531 31.775 0 12.08-2.13 22.761-6.531 31.931-4.285 9.037-10.35 16.067-18.227 20.923-7.837 4.83-16.699 7.21-26.478 7.21-9.872 0-18.788-2.375-26.631-7.21-7.871-4.852-13.982-11.873-18.369-20.898l-.012-.025zm86.247-1.667c4.103-8.544 6.155-18.632 6.155-30.264 0-11.631-2.052-21.668-6.155-30.109-4-8.543-9.59-15.028-16.771-19.455-7.18-4.426-15.335-6.64-24.464-6.64-9.232 0-17.438 2.214-24.618 6.64-7.18 4.427-12.822 10.912-16.925 19.455-4 8.441-6 18.478-6 30.11 0 11.631 2 21.719 6 30.263 4.103 8.441 9.745 14.874 16.925 19.301 7.18 4.426 15.386 6.639 24.618 6.639 9.129 0 17.284-2.213 24.464-6.639 7.181-4.427 12.771-10.86 16.771-19.301zm-32.366-51.881l-.024-.04c-2.397-4.065-5.287-5.672-8.845-5.672-3.699 0-6.694 1.648-9.176 5.712-2.412 4.013-3.902 11.003-3.902 21.617 0 10.579 1.479 17.636 3.902 21.773 2.462 3.931 5.448 5.557 9.176 5.557 3.597 0 6.484-1.595 8.863-5.547l.012-.02c2.512-4.117 4.05-11.162 4.05-21.763 0-10.611-1.542-17.58-4.032-21.578l-.024-.04zm3.286 45.396c-2.974 4.941-7.026 7.411-12.155 7.411-5.231 0-9.385-2.47-12.463-7.411-2.974-5.044-4.462-12.97-4.462-23.779 0-10.808 1.488-18.683 4.462-23.624 3.078-5.043 7.232-7.565 12.463-7.565 5.129 0 9.181 2.522 12.155 7.565 3.078 4.941 4.616 12.816 4.616 23.624 0 10.809-1.538 18.735-4.616 23.779z" fill="#02FFCD"/><path d="M650.516 28.336a9.864 9.864 0 00-4.313 5.146 9.832 9.832 0 00-.013 6.706l-18.516 10.94a41.726 41.726 0 00-2.236-3.784 40.776 40.776 0 00-11.283-11.355 40.873 40.873 0 00-16.411-6.437l2.146-8.52a7.107 7.107 0 004.455-1.61 7.075 7.075 0 002.448-4.047 7.049 7.049 0 00-2.987-7.264 7.113 7.113 0 00-7.871-.027 7.085 7.085 0 00-3.037 4.48 7.05 7.05 0 003.472 7.559l-2.265 9.002a41.136 41.136 0 00-26.226 7.145l-10.727-18.003a9.833 9.833 0 002.06-12.427 9.893 9.893 0 00-4.217-3.894 9.927 9.927 0 00-10.897 1.488 9.879 9.879 0 00-3.013 4.882 9.866 9.866 0 002.903 9.779 9.92 9.92 0 0010.025 2l10.946 18.374a40.692 40.692 0 00-13.777 22.143l-8.391-2.096a7.057 7.057 0 00-1.617-4.443 7.089 7.089 0 00-4.063-2.431 7.113 7.113 0 00-5.321 1.035 7.08 7.08 0 00-3.036 4.48 7.052 7.052 0 002.986 7.264 7.08 7.08 0 002.551 1.063 7.093 7.093 0 004.356-.498 7.072 7.072 0 003.226-2.961l8.635 2.155a40.384 40.384 0 002.961 22.018l-19.412 10.261a9.947 9.947 0 00-12.359-2.642 9.87 9.87 0 00-5.27 9.621 9.851 9.851 0 003.507 6.692 9.912 9.912 0 0010.927 1.175 9.864 9.864 0 004.551-4.935 9.828 9.828 0 00.333-6.699l19.324-10.213a43.2 43.2 0 001.863 3.085 40.758 40.758 0 0022.426 16.589l-2.102 8.347a7.109 7.109 0 00-4.455 1.61 7.073 7.073 0 00-2.448 4.047 7.043 7.043 0 001.04 5.306 7.077 7.077 0 004.497 3.018 7.096 7.096 0 005.323-1.032 7.068 7.068 0 003.034-4.483 7.038 7.038 0 00-.501-4.345 7.067 7.067 0 00-2.97-3.215l2.107-8.37.126.027a41.02 41.02 0 0025.22-2.886l10.185 19.109a9.852 9.852 0 00-.805 14.793 9.906 9.906 0 0010.374 2.214 9.9 9.9 0 004.439-3.28 9.85 9.85 0 00.896-10.545 9.914 9.914 0 00-4.963-4.529 9.939 9.939 0 00-6.719-.331l-10.171-19.083a40.92 40.92 0 0012.711-11.18 40.802 40.802 0 007.084-15.358l8.386 2.094a7.054 7.054 0 001.618 4.443 7.085 7.085 0 004.063 2.432 7.102 7.102 0 005.324-1.031 7.048 7.048 0 00.046-11.748 7.082 7.082 0 00-2.55-1.063 7.12 7.12 0 00-7.588 3.46l-8.653-2.161a40.391 40.391 0 00-2.689-20.962l18.814-11.114a9.933 9.933 0 0012.47 2.055 9.876 9.876 0 004.582-6.017 9.834 9.834 0 00-1.029-7.486 9.897 9.897 0 00-9.891-4.793 9.904 9.904 0 00-3.648 1.262zm-93.791-15.939a6.206 6.206 0 01-2.9 3.804 6.293 6.293 0 01-4.749.646 6.278 6.278 0 01-3.823-2.885 6.232 6.232 0 012.269-8.541 6.265 6.265 0 013.132-.84 6.283 6.283 0 015.422 3.09 6.175 6.175 0 01.649 4.726zm-17.639 46.85a3.45 3.45 0 01-2.727 2.69 3.463 3.463 0 01-3.538-1.476 3.414 3.414 0 01-.505-2.58 3.445 3.445 0 011.48-2.183 3.461 3.461 0 014.782.966 3.439 3.439 0 01.507 2.582l.001.001zm-6.826 45.178a6.208 6.208 0 01-3.078 3.664 6.295 6.295 0 01-4.776.421 6.275 6.275 0 01-3.682-3.063 6.23 6.23 0 012.478-8.319 6.283 6.283 0 018.633 2.547 6.183 6.183 0 01.425 4.75zm89.38 24.061a6.3 6.3 0 014.776-.421 6.278 6.278 0 013.682 3.063 6.236 6.236 0 01.423 4.756 6.233 6.233 0 01-3.077 3.658 6.292 6.292 0 01-4.775.421 6.275 6.275 0 01-3.682-3.063 6.214 6.214 0 01.75-6.89 6.237 6.237 0 011.903-1.524zm21.712-48.153a3.456 3.456 0 014.72-2.486 3.453 3.453 0 012.057 2.511c.087.443.084.899-.007 1.34a3.462 3.462 0 01-6.263 1.217 3.423 3.423 0 01-.506-2.583h-.001zm-46.891-67.047a3.459 3.459 0 014.72-2.486 3.454 3.454 0 012.057 2.512c.086.442.084.898-.007 1.34a3.46 3.46 0 01-4.721 2.486 3.46 3.46 0 01-1.545-1.273 3.39 3.39 0 01-.504-2.579zm-15.775 111.936a3.446 3.446 0 01-.956 1.757 3.463 3.463 0 01-5.309-.544 3.408 3.408 0 01.451-4.336 3.455 3.455 0 013.764-.729 3.45 3.45 0 012.057 2.512c.086.443.084.898-.007 1.34zm47.203-47.86c-4.109 20.153-23.916 33.219-44.157 29.127a37.435 37.435 0 01-13.469-5.609 37.337 37.337 0 01-10.29-10.327 37.232 37.232 0 01-5.491-28.03c3.6-17.66 19.255-29.877 36.692-29.877a37.6 37.6 0 0117.719 4.441 37.492 37.492 0 0113.516 12.262 36.923 36.923 0 015.48 28.013zm33.682-38.928a6.205 6.205 0 01-2.9 3.804 6.294 6.294 0 01-4.75.645 6.277 6.277 0 01-3.822-2.885 6.231 6.231 0 012.269-8.541 6.264 6.264 0 013.132-.84 6.281 6.281 0 015.422 3.091 6.173 6.173 0 01.649 4.726z" fill="#000"/><path d="M548.992 48.943a2.28 2.28 0 102.485-3.72 2.278 2.278 0 00-2.485.494 2.28 2.28 0 00-.496 2.486c.115.277.284.528.496.74zM536.668 36.29l8.599 9.674c.165.19.361.341.578.445a1.61 1.61 0 001.373.01c.218-.1.416-.249.583-.436.167-.188.298-.41.388-.656a2.224 2.224 0 00-.01-1.545 2.035 2.035 0 00-.395-.65l-8.599-9.673a1.684 1.684 0 00-1.256-.575 1.687 1.687 0 00-1.251.586c-.332.374-.519.88-.521 1.408a2.14 2.14 0 00.511 1.412zm-3.678-11.538a1.864 1.864 0 002.621-.018 1.868 1.868 0 00.017-2.62l-2.368-2.37a1.865 1.865 0 10-2.639 2.64l2.369 2.368zm15.116 13.665a1.915 1.915 0 002.707-2.708l-9.878-9.878a1.915 1.915 0 00-2.707 2.708l9.878 9.878zm-12.708 85.703h-.003a2.28 2.28 0 000 4.562h.003a2.278 2.278 0 002.28-2.281 2.285 2.285 0 00-2.28-2.281zm13.923-11.643a1.781 1.781 0 00-2.518 0l-8.604 8.603a1.78 1.78 0 002.518 2.518l8.604-8.603a1.792 1.792 0 00.522-1.259 1.792 1.792 0 00-.522-1.259zm12.566-4.683l-2.358 1.769a1.449 1.449 0 00-.414.452c-.096.17-.147.352-.149.537-.001.185.046.368.139.538.094.171.231.327.406.457.174.131.381.234.608.304.228.07.472.106.718.104.246-.001.49-.039.716-.111.227-.073.432-.178.604-.31l2.358-1.769c.344-.262.536-.615.534-.983-.002-.368-.198-.72-.544-.98-.347-.26-.817-.407-1.307-.408-.49-.002-.961.142-1.311.4zm-7.686 6.223l-9.862 9.863a1.908 1.908 0 00-.019 2.721 1.913 1.913 0 002.722-.018l9.862-9.863a1.914 1.914 0 00-.018-2.684 1.91 1.91 0 00-2.685-.019zm77.752-18.744a1.522 1.522 0 00-2.325-1.334 1.516 1.516 0 00-.694 1.54c.05.297.186.572.392.791l.001.002a1.517 1.517 0 001.062.477h.047a1.523 1.523 0 001.519-1.476h-.002zm3.146 2.093a1.829 1.829 0 00-.578-.445 1.709 1.709 0 00-1.392-.044c-.224.092-.428.23-.602.407a1.968 1.968 0 00-.412.624 2.091 2.091 0 00.336 2.151l8.529 9.764c.332.376.788.596 1.269.611a1.75 1.75 0 001.299-.534c.351-.356.556-.848.571-1.367a2.057 2.057 0 00-.49-1.404l-8.53-9.763zm12.263 22.764a1.9 1.9 0 00-1.311-.572 1.904 1.904 0 00-1.341.5 1.811 1.811 0 00-.083 2.591l2.313 2.399a1.909 1.909 0 002.672.092c.181-.167.326-.367.427-.589a1.805 1.805 0 00-.364-2.023l-2.313-2.398zm-13.549-15.184a1.967 1.967 0 00-.621-.427 2.04 2.04 0 00-1.497-.045 1.957 1.957 0 00-.648.388 1.88 1.88 0 00-.442.596 1.81 1.81 0 00-.041 1.435c.092.23.23.44.408.619l9.769 9.932c.176.18.386.325.621.427a2.02 2.02 0 002.144-.342c.187-.169.338-.372.443-.597a1.806 1.806 0 00-.367-2.054l-9.769-9.932zm7.266-85.748a1.517 1.517 0 001.491-1.224 1.523 1.523 0 00-.911-1.701 1.52 1.52 0 00-1.655 2.48 1.52 1.52 0 001.075.445zm-14.62 11.644c.375.334.884.521 1.415.521s1.04-.187 1.415-.521l9.671-8.596c.188-.165.338-.361.441-.578a1.604 1.604 0 00.006-1.368 1.769 1.769 0 00-.435-.58 2.039 2.039 0 00-.653-.388 2.217 2.217 0 00-1.54.006 2.028 2.028 0 00-.649.392l-9.671 8.596a1.682 1.682 0 00-.586 1.258c0 .472.21.924.586 1.258zm-8.947 3.563a2.283 2.283 0 002.234-1.839 2.282 2.282 0 10-2.234 1.838zm2.666-4.562c.251 0 .499-.044.731-.13a1.94 1.94 0 00.619-.367l9.849-8.755c.182-.157.326-.344.425-.551a1.53 1.53 0 00.01-1.31 1.695 1.695 0 00-.416-.555 1.944 1.944 0 00-.625-.37 2.122 2.122 0 00-1.473.009 1.926 1.926 0 00-.62.377l-9.85 8.755c-.266.237-.448.54-.522.869-.073.329-.036.67.109.98.144.31.389.575.703.761.314.187.683.287 1.06.287zm-44.485 29.66a6.847 6.847 0 00-4.218-6.328 6.846 6.846 0 00-9.336 4.981 6.843 6.843 0 1013.554 1.347zm-9.94 0a3.105 3.105 0 011.906-2.867 3.097 3.097 0 11-1.906 2.867zm9.927 22.04a9.127 9.127 0 00-8.42 5.641 9.116 9.116 0 001.986 9.938 9.122 9.122 0 0015.57-6.455 9.138 9.138 0 00-9.136-9.124zm0 14.663a5.542 5.542 0 01-5.42-6.629 5.542 5.542 0 0110.04-1.987 5.54 5.54 0 01.932 3.076 5.551 5.551 0 01-5.552 5.54zm39.533-45.076a9.122 9.122 0 00-8.931 10.913 9.12 9.12 0 0012.441 6.639 9.125 9.125 0 005.629-8.428 9.14 9.14 0 00-9.139-9.123zm0 14.664a5.536 5.536 0 01-5.107-3.43 5.545 5.545 0 011.21-6.033 5.544 5.544 0 016.036-1.194 5.543 5.543 0 013.416 5.117 5.552 5.552 0 01-5.555 5.54zm-25.057-8.586c.095.003.191.005.286.005 1.82 0 3.568-.666 4.872-1.858a6.99 6.99 0 002.001-3.183 6.657 6.657 0 00.016-3.696 2.62 2.62 0 01-.104-1.106c.044-.37.167-.73.362-1.056a5.615 5.615 0 00.848-3.911c-.208-1.357-.912-2.604-1.991-3.527a5.941 5.941 0 00-2.137-1.164 6.2 6.2 0 00-2.457-.232 6.282 6.282 0 00-3.561 1.644 5.63 5.63 0 00-1.795 4.142 2.918 2.918 0 01-1.011 2.06 7.01 7.01 0 00-1.669 2.392 6.662 6.662 0 00-.516 2.821c.125 3.598 3.137 6.527 6.856 6.669zm-2.018-9.364a6.462 6.462 0 001.559-2.094 6.116 6.116 0 00.57-2.499c0-.109.007-.218.022-.326.06-.479.285-.925.64-1.272a2.403 2.403 0 011.329-.649 2.208 2.208 0 011.668.51c.255.22.458.487.597.784.138.298.208.62.205.945.002.43-.123.854-.36 1.223a6.105 6.105 0 00-.876 2.396 5.968 5.968 0 00.193 2.526c.084.298.126.604.125.911.003.465-.095.926-.286 1.355a3.481 3.481 0 01-.825 1.143 3.29 3.29 0 01-1.102.665 3.433 3.433 0 01-1.291.201c-1.725-.065-3.177-1.519-3.238-3.242a3.29 3.29 0 01.25-1.394 3.46 3.46 0 01.82-1.184v.001zm22.256 41.245a6.534 6.534 0 00-.772-.321 3.107 3.107 0 01-1.709-1.61 7.113 7.113 0 00-1.815-2.308 7.563 7.563 0 00-2.633-1.43c-3.629-1.134-7.581.524-8.996 3.772a6.282 6.282 0 00.076 5.21 7.212 7.212 0 002.488 2.88 7.756 7.756 0 003.681 1.295c.396.023.784.122 1.14.29.356.168.673.402.932.688a6.263 6.263 0 002.19 1.647 6.58 6.58 0 002.724.588 6.435 6.435 0 002.896-.68 5.771 5.771 0 001.888-1.492 5.417 5.417 0 001.071-2.098 5.51 5.51 0 00-.419-3.73 5.93 5.93 0 00-2.742-2.701zm-.488 5.573a1.957 1.957 0 01-.39.76 2.086 2.086 0 01-.685.538 2.599 2.599 0 01-2.008.115 2.507 2.507 0 01-1.099-.743 6.694 6.694 0 00-2.088-1.604 7.025 7.025 0 00-2.583-.703 3.936 3.936 0 01-.953-.203 3.726 3.726 0 01-1.256-.724 3.508 3.508 0 01-.858-1.131 2.922 2.922 0 01-.284-1.202 2.919 2.919 0 01.241-1.21 3.328 3.328 0 011.301-1.416 3.588 3.588 0 011.908-.502 3.85 3.85 0 012.444.875c.379.317.686.704.902 1.138.364.793.892 1.51 1.553 2.106a6.902 6.902 0 002.293 1.368c.11.038.218.083.322.134.455.217.823.57 1.047 1.004.224.434.292.926.193 1.4zm-14.674-24.099a1.74 1.74 0 001.054.781c.445.117.921.062 1.324-.154.403-.217.699-.577.825-1.001.126-.425.071-.88-.153-1.265a5.233 5.233 0 00-2.376-2.106 5.552 5.552 0 00-3.215-.399 5.405 5.405 0 00-2.861 1.456 4.994 4.994 0 00-1.445 2.77c-.058.353-.228.68-.487.937a1.847 1.847 0 01-.962.502 1.905 1.905 0 01-1.09-.117 1.797 1.797 0 01-.822-.692 1.745 1.745 0 00-1.077-.76 1.823 1.823 0 00-1.325.191 1.68 1.68 0 00-.796 1.029c-.111.43-.04.885.2 1.264a5.156 5.156 0 001.923 1.804 5.454 5.454 0 002.607.657c.357 0 .713-.033 1.063-.1a5.342 5.342 0 002.819-1.46 4.942 4.942 0 001.408-2.75c.058-.358.231-.689.496-.948.264-.258.606-.432.979-.496a1.899 1.899 0 011.099.136c.343.154.627.406.813.72h-.001z" fill="#000"/><path fill-rule="evenodd" clip-rule="evenodd" d="M98.873 118.246v-13.647l50.203-69.57h40.897L158.87 79.473h34.351V97.71h16.007v31.724h-16.007v20.536h-37.4v-20.536H99.527v20.536H7.95v-24.498l41.527-38.666a.703.703 0 00.009-.008c3.785-3.571 6.02-6.324 7.06-8.3 1.088-2.178 1.58-4.242 1.58-6.228 0-2.51-.798-4.062-2.143-5.168-1.409-1.16-3.83-2.035-7.861-2.035-3.383 0-6.44.77-9.24 2.29l-.018.011-.019.01c-2.65 1.401-4.89 3.477-6.716 6.336l-1.95 3.05L.906 60.507l2.055-3.394c4.589-7.578 11.023-13.518 19.201-17.81 8.25-4.329 17.869-6.418 28.729-6.418 8.618 0 16.379 1.394 23.2 4.287 6.929 2.895 12.459 7.144 16.413 12.802 4.091 5.603 6.099 12.117 6.099 19.385 0 6.401-1.414 12.49-4.234 18.224-2.776 5.75-8.01 11.96-15.325 18.619a.053.053 0 01-.008.007l-13.08 12.038h34.917zm-44.75 3.832H95.68v24.061H11.797v-19.004l40.325-37.547c3.9-3.678 6.516-6.794 7.85-9.349 1.334-2.656 2-5.313 2-7.969 0-3.474-1.18-6.181-3.54-8.122-2.36-1.942-5.797-2.912-10.311-2.912-4.002 0-7.696.92-11.082 2.758-3.284 1.737-6.003 4.291-8.157 7.663L6.256 59.09a43.81 43.81 0 012.135-3.201c3.991-5.447 9.18-9.846 15.565-13.197 7.593-3.985 16.572-5.977 26.935-5.977 8.209 0 15.443 1.328 21.702 3.985 6.361 2.656 11.287 6.487 14.775 11.494 3.592 4.904 5.387 10.625 5.387 17.164 0 5.824-1.282 11.341-3.848 16.552-2.462 5.108-7.285 10.932-14.467 17.471l-20.317 18.697zm105.546 3.525v20.536h29.705v-20.536h16.007v-24.061h-16.007V83.304h-28.782v18.238h-21.856l43.866-62.681h-31.553l-48.328 66.972v19.77h56.948zM146.108 97.71h10.636V82.511l-10.636 15.2z" fill="#02FFCD"/><path fill-rule="evenodd" clip-rule="evenodd" d="M195.995 125c-5.27 0-9.557-3.898-9.557-8.687 0-.725.647-1.313 1.444-1.313.798 0 1.444.588 1.444 1.313 0 3.342 2.991 6.061 6.668 6.061.797 0 1.444.588 1.444 1.313.003.725-.644 1.313-1.443 1.313zm.079 10c-10.276 0-18.636-8.358-18.636-18.634a1.367 1.367 0 012.732 0c0 8.768 7.133 15.901 15.902 15.901a1.367 1.367 0 01.002 2.733z" fill="#000"/><path fill-rule="evenodd" clip-rule="evenodd" d="M196.053 145c-15.778 0-28.615-12.838-28.615-28.615a1.385 1.385 0 112.77 0c0 14.251 11.594 25.844 25.845 25.844a1.386 1.386 0 010 2.771zm72.627 2c-.686 0-1.242-.602-1.242-1.343V118.52c0-5.945.866-11.864 2.574-17.59.21-.705.909-1.092 1.564-.865.654.227 1.012.984.802 1.689a58.642 58.642 0 00-2.454 16.766v27.137c0 .743-.556 1.343-1.244 1.343z" fill="#000"/><path fill-rule="evenodd" clip-rule="evenodd" d="M277.971 147h-49.318a1.38 1.38 0 01-.973-.4 1.345 1.345 0 01-.4-.962l.11-17.602h-10.258c-5.992 0-11.392-3.513-13.756-8.947-.183-.419-.139-.9.115-1.28.255-.381.684-.61 1.146-.61h11.946c2.649 0 4.805-2.127 4.805-4.741s-2.156-4.741-4.805-4.741H203.54a1.364 1.364 0 01-1.373-1.355v-5.418h-12.356c-.445 0-.861-.212-1.118-.57a1.337 1.337 0 01-.179-1.23l8.941-25.442a46.205 46.205 0 01-.525-7.078c0-12.902 5.144-24.982 14.482-34.016 9.328-9.023 21.661-13.85 34.727-13.599 26.338.511 47.554 22.085 47.297 48.09a47.053 47.053 0 01-6.42 23.242c-5.019 8.583-7.673 18.243-7.673 27.93v27.373a1.362 1.362 0 01-1.372 1.356zm-47.937-2.709h46.565v-26.019c0-10.162 2.781-20.289 8.04-29.283a44.363 44.363 0 006.053-21.915c.244-24.526-19.765-44.873-44.604-45.353-12.325-.236-23.955 4.314-32.751 12.824-8.808 8.521-13.659 19.915-13.659 32.082 0 2.443.184 4.793.543 6.984.038.222.017.448-.057.661l-8.423 23.965h11.8c.758 0 1.372.606 1.372 1.354v5.418h11.671c4.163 0 7.551 3.343 7.551 7.451 0 4.107-3.388 7.449-7.551 7.449h-9.654c2.235 3.346 6.045 5.418 10.202 5.418h11.638c.366 0 .717.145.975.4.258.256.402.602.399.963l-.11 17.601z" fill="#000"/><path fill-rule="evenodd" clip-rule="evenodd" d="M276.114 89c-.237 0-.48-.058-.702-.181-.673-.375-.905-1.206-.517-1.855a33.164 33.164 0 004.721-16.695c.192-18.686-15.419-34.186-34.797-34.553-.778-.015-1.396-.635-1.381-1.385.015-.74.644-1.331 1.408-1.331h.029c20.916.396 37.767 17.127 37.561 37.295a35.841 35.841 0 01-5.099 18.026 1.422 1.422 0 01-1.223.679zm-92.176-37c-6.894 0-12.5-5.158-12.5-11.5s5.606-11.5 12.5-11.5c6.892 0 12.5 5.158 12.5 11.5s-5.607 11.5-12.5 11.5zm0-20.443c-5.361 0-9.723 4.013-9.723 8.945 0 4.931 4.362 8.944 9.723 8.944 5.361 0 9.723-4.013 9.723-8.944 0-4.932-4.362-8.945-9.723-8.945zM174.937 92c-4.686 0-8.499-3.589-8.499-8s3.813-8 8.499-8c4.688 0 8.501 3.589 8.501 8s-3.813 8-8.501 8zm0-13.333c-3.124 0-5.666 2.393-5.666 5.334 0 2.94 2.541 5.333 5.666 5.333 3.125 0 5.668-2.393 5.668-5.333 0-2.94-2.543-5.334-5.668-5.334z" fill="#000"/></svg>