<svg width="269" height="153" fill="none" xmlns="http://www.w3.org/2000/svg"><path fill-rule="evenodd" clip-rule="evenodd" d="M19.707 117.362c3.336 1.902 6.96 3.43 10.87 4.584 5.331 1.545 10.561 2.317 15.688 2.317 5.23 0 9.383-.978 12.46-2.934 3.076-1.956 4.614-4.735 4.614-8.338 0-7-5.486-10.5-16.458-10.5H34.114v-19.3L53.34 62.346H10.888V38.722h77.83v19.146L66.415 81.955c1.477.307 2.896.665 4.257 1.073 6.864 2.058 12.264 5.406 16.2 10.045 4.82 5.455 7.23 12.095 7.23 19.918 0 6.382-1.743 12.301-5.23 17.757-3.384 5.455-8.614 9.882-15.689 13.278-6.973 3.294-15.638 4.941-25.995 4.941-7.588 0-15.125-.926-22.61-2.779-7.384-1.853-13.793-4.478-19.228-7.875l11.075-23.006a46.86 46.86 0 003.282 2.055zm72.415 15.448c-3.85 6.197-9.702 11.061-17.28 14.699l-.022.01c-7.63 3.604-16.894 5.309-27.632 5.309-7.903 0-15.75-.966-23.531-2.892l-.012-.003c-7.7-1.933-14.495-4.697-20.327-8.343l-2.933-1.833 14.52-30.166 3.689 2.528c3.847 2.638 8.19 4.683 13.057 6.121 5.011 1.45 9.88 2.162 14.614 2.162 4.803 0 8.154-.905 10.402-2.334 1.983-1.261 2.826-2.82 2.826-5.077 0-2.294-.792-3.635-2.331-4.617-1.835-1.17-5.079-2.022-10.281-2.022H30.268V81.678L44.54 66.206H7.042V34.862h85.522v24.523l-19 20.52c6.614 2.264 12.075 5.773 16.211 10.635 5.474 6.21 8.172 13.772 8.172 22.451 0 7.125-1.956 13.758-5.825 19.819zm14.284-8.116l-.012-.025c-4.289-9.162-6.364-19.835-6.364-31.905 0-12.069 2.074-22.698 6.371-31.767l.009-.018c4.381-9.127 10.491-16.21 18.371-21.068 7.84-4.835 16.754-7.21 26.623-7.21 9.776 0 18.636 2.379 26.469 7.21 7.883 4.86 13.943 11.946 18.222 21.077 4.403 9.073 6.529 19.706 6.529 31.776 0 12.079-2.129 22.761-6.529 31.93-4.283 9.037-10.347 16.067-18.222 20.923-7.833 4.831-16.693 7.211-26.469 7.211-9.869 0-18.783-2.376-26.623-7.211-7.868-4.852-13.978-11.873-18.363-20.897l-.012-.026zm86.22-1.667c4.102-8.543 6.153-18.631 6.153-30.263 0-11.632-2.051-21.668-6.153-30.11-3.999-8.543-9.587-15.028-16.765-19.454-7.178-4.427-15.331-6.64-24.457-6.64-9.229 0-17.432 2.213-24.61 6.64-7.178 4.426-12.818 10.911-16.92 19.455-3.999 8.44-5.999 18.477-5.999 30.109 0 11.632 2 21.72 5.999 30.263 4.102 8.441 9.742 14.875 16.92 19.301 7.178 4.426 15.381 6.639 24.61 6.639 9.126 0 17.279-2.213 24.457-6.639 7.178-4.426 12.766-10.86 16.765-19.301zm-32.356-51.88l-.024-.041c-2.396-4.065-5.285-5.672-8.842-5.672-3.698 0-6.692 1.648-9.174 5.712-2.411 4.013-3.9 11.003-3.9 21.618 0 10.579 1.479 17.635 3.901 21.772 2.461 3.931 5.446 5.558 9.173 5.558 3.596 0 6.481-1.596 8.86-5.548l.012-.019c2.511-4.117 4.048-11.162 4.048-21.763 0-10.612-1.541-17.581-4.029-21.578l-.025-.04zm3.285 45.395c-2.973 4.941-7.024 7.412-12.151 7.412-5.23 0-9.383-2.471-12.459-7.412-2.974-5.044-4.461-12.97-4.461-23.778 0-10.808 1.487-18.683 4.461-23.624 3.076-5.044 7.229-7.566 12.459-7.566 5.127 0 9.178 2.522 12.151 7.566 3.077 4.94 4.615 12.816 4.615 23.624 0 10.808-1.538 18.734-4.615 23.778z" fill="#02FFCD"/><path d="M239.734 31.028l1.962-2.857-.278-.195a2.052 2.052 0 002.871-.527 2.093 2.093 0 00-.521-2.896l-5.118-3.575a2.052 2.052 0 00-2.871.526 2.093 2.093 0 00.522 2.897l2.559 1.788-2.837-1.982-1.902 2.769c-8.517-5.508-18.341-9.134-28.91-10.266V9.393h.171c1.88 0 3.403-1.536 3.403-3.433V4.2c0-1.896-1.523-3.432-3.403-3.432h-14.641c-1.88 0-3.403 1.536-3.403 3.432v1.76c0 1.897 1.523 3.433 3.403 3.433h.171v7.317a66.106 66.106 0 00-27.866 9.59l-1.439-2.093-.278.196a2.093 2.093 0 00.522-2.897 2.052 2.052 0 00-2.871-.526l-5.115 3.575a2.093 2.093 0 00-.522 2.896 2.052 2.052 0 002.871.527l2.559-1.789-2.837 1.982 1.432 2.085c-15.932 12.337-26.212 31.732-26.212 53.558 0 37.275 29.956 67.493 66.907 67.493 36.95 0 66.906-30.218 66.906-67.493.002-21.377-9.86-40.418-25.235-52.786zm-41.669 103.357c-27.641 0-50.13-22.686-50.13-50.57 0-27.883 22.489-50.57 50.13-50.57 27.642 0 50.131 22.687 50.131 50.57 0 27.886-22.489 50.57-50.131 50.57zm0 8.138v-5.209c29.244 0 53.034-23.999 53.034-53.5 0-29.498-23.79-53.497-53.034-53.497v-5.21c32.091 0 58.196 26.337 58.196 58.707 0 32.373-26.105 58.709-58.196 58.709z" fill="#000"/><path fill-rule="evenodd" clip-rule="evenodd" d="M198.063 25.097c-32.952 1.842-59.304 27.557-59.304 59.303s26.352 57.461 59.304 59.303v-5.785c-29.986-1.829-53.473-25.221-53.473-53.518s23.487-51.689 53.473-53.518v-5.785z" fill="#fff"/><path fill-rule="evenodd" clip-rule="evenodd" d="M198.823 20.245c-34.975 0-63.359 28.366-63.359 63.395 0 35.03 28.384 63.395 63.359 63.395s63.359-28.365 63.359-63.395-28.384-63.395-63.359-63.395zM129.636 83.64c0-38.193 30.958-69.187 69.187-69.187S268.01 45.447 268.01 83.64c0 38.194-30.958 69.188-69.187 69.188s-69.187-30.994-69.187-69.188z" fill="#02FFCD"/></svg>