<svg width="489" height="150" fill="none" xmlns="http://www.w3.org/2000/svg"><path d="M369.88 10.126c-.489 1.559-1.272 3.506-1.663 4.383-.685 1.655 1.076 1.753 27.58 1.753h28.264l1.369-3.7 1.76-4.383c.196-.39-12.42-.682-27.97-.682h-28.362l-.978 2.63z" fill="#20C4F4"/><path d="M104.94 40.121l-7.14 3.311V111.7h10.758V80.536c0-17.14.294-31.163.783-31.163.391 0 6.846 10.615 14.376 23.372l13.692 23.373 7.824-.195 7.824-.292 13.692-23.08c7.531-12.758 13.986-23.08 14.475-23.178.391 0 .684 14.023.684 31.163v31.261l5.673-.292 5.574-.292.294-32.138c.098-17.724 0-33.11-.294-34.28-.293-1.46-2.542-2.921-7.921-5.16-7.238-3.02-7.531-3.02-9.291-1.267-.881.974-7.922 12.27-15.551 25.126-7.53 12.855-14.278 23.372-14.865 23.372-.587 0-7.237-10.517-14.866-23.47-14.572-24.833-15.844-26.683-17.604-26.683-.587.097-4.303 1.558-8.117 3.408zm169.683-.681c-1.174 1.46-11.443 16.068-22.788 32.332l-20.538 29.507-.293-31.747-.196-31.845h-11.736V71.09c0 38.078-.782 34.669 9.096 39.246 5.476 2.435 5.77 2.435 7.53.877 1.076-.974 11.541-15.582 23.179-32.527l21.32-30.774.489 31.65.489 31.651 5.673.292 5.574.292v-33.5c0-30.677-.098-33.599-1.662-34.962-2.054-1.753-11.541-6.622-12.91-6.622-.489 0-1.956 1.266-3.227 2.727zM14.181 41.29c-6.259 6.719-6.357 7.4-6.357 33.208 0 12.952.391 24.541.978 25.904.49 1.364 2.739 4.48 4.988 6.915l4.108 4.382h58.386v-10.712l-28.068-.195-28.167-.292-.293-10.518-.294-10.42h54.866V68.85H19.462l.294-10.031.293-9.934 27.873-.486 27.873-.487.294-5.162.293-5.064H17.506l-3.325 3.603zm324.109-1.948c-.782.876-8.019 17.334-16.235 36.714l-14.767 35.156 5.965.292c3.326.195 6.162-.097 6.357-.486.098-.39 6.064-14.803 13.203-31.943l12.91-31.163 5.966-.292c4.303-.195 6.259.097 7.139 1.168.587.78 3.13 6.135 5.477 11.979l4.205 10.517-11.54.292-11.54.293-1.956 4.577-2.054 4.577 15.746.487 15.745.487 5.966 14.802 5.966 14.9h6.161c3.326 0 6.064-.389 6.064-.876s-2.445-6.72-5.477-13.829c-3.032-7.207-5.672-13.634-5.966-14.316-.391-.876 1.076-1.168 5.477-1.168 5.477 0 6.064-.195 7.237-2.727 3.717-7.207 3.912-7.012-7.335-7.012h-10.073l-6.259-15.387c-3.423-8.375-6.944-16.068-7.726-17.042-1.272-1.461-3.326-1.656-14.377-1.656-10.856 0-13.203.292-14.279 1.656zm83.033 1.461c-6.846 7.304-6.651 6.525-6.651 33.987v24.931l4.108 5.551c2.249 3.019 4.988 5.746 6.063 6.038 1.174.195 14.181.292 28.949.195l26.895-.292v-9.739l-26.895-.487-26.895-.487-.293-26.002-.196-26.1 27.091-.194 27.188-.292.294-5.161.293-5.065h-56.92l-3.031 3.117z" fill="#000"/><path d="M319.317 136.63c-.782 1.948-1.467 3.896-1.467 4.383 0 .486 12.03.779 28.069.681l27.971-.292 1.76-4.188 1.76-4.09h-56.626l-1.467 3.506z" fill="#20C4F4"/></svg>