<svg width="18" height="18" fill="none" xmlns="http://www.w3.org/2000/svg"><path fill-rule="evenodd" clip-rule="evenodd" d="M8.966 18h.008-.008zm.063 0h-.003.008-.005zm-.09 0h.008-.009zm.12 0h-.006.009-.004zm-.147 0h.005-.005zm.175 0h-.004.005zm.03 0h-.003.008-.006zm-.24 0h.009-.008zm.268-.001h-.004.01-.006zm-.295 0h.01-.01zm.324 0h-.006.009-.003zm-.35 0h.008-.009zm-.034-.001h.008-.008zm.413 0h-.001.008-.007zm-.442-.001h.011-.011zm.471 0h-.004.01-.006zm.03 0h-.008.011-.004zm-.527 0h.011-.011zm-.025-.002h.007-.014.007zm.58 0h-.007.014-.007zm.029 0h-.004.012-.008zm-.646 0h.012-.012zm-.026-.002h.012-.012zm.7 0h-.006.012-.005zm-.726 0h.012-.012zm.755 0h-.01.013-.003zm-.791-.002h.013-.013zm.82 0h-.003.013-.01zm-.846-.002l.013.001H8.56zm.875 0l-.006.001h.013-.007zm-.901 0h.014-.014zm.93 0h-.01.014-.004zm.029-.002h-.013.024-.011zm-.982 0h.011-.024.013zm1.01-.002h-.005.014-.009zm-1.049 0h.014-.014zm-.025-.002l.014.001h-.014zm1.103 0l-.009.001h.014-.005zm-1.128-.001h.013-.012l-.012-.001h.011zm1.157 0h-.012.013l.01-.001h-.011zm.028-.002h-.004.014-.01zm-1.222 0h.014-.014zm-.025-.003l.013.001H8.36zm1.276.001h-.007.013-.006zm-1.301-.002h.012-.012zm1.33 0h-.01.012-.003zM8.3 17.973h.01-.01zm1.392 0H9.69h.01-.008zm.029-.001h-.006.011-.005zm-1.447 0h.01-.01zm-.026-.003h.01-.01zm1.501 0h-.006.009-.003zm-1.529-.002h.003-.003zm1.558 0h.002-.002zm.028-.003h-.002.006-.004zm-1.616 0h.006-.006zm-.026-.002h.004-.004zm1.67 0h-.002.004-.002zm-2.24-.071C3.294 17.215 0 13.489 0 9c0-4.967 4.033-9 9-9s9 4.033 9 9c0 4.489-3.293 8.215-7.594 8.89v-6.288h2.097l.4-2.602h-2.497V7.312c0-.712.349-1.406 1.467-1.406h1.135V3.691s-1.03-.175-2.015-.175c-2.056 0-3.4 1.246-3.4 3.501V9H5.31v2.602h2.285v6.289z" fill="#000F0E"/></svg>