<svg width="19" height="19" fill="none" xmlns="http://www.w3.org/2000/svg"><path d="M13.422 7.421V5.67l-.228.004-1.524.004.008 1.751 1.744-.008zm-3.97 4.039a1.82 1.82 0 001.819-1.817c0-.396-.13-.762-.345-1.06a1.816 1.816 0 00-1.474-.759c-.606 0-1.143.3-1.473.758a1.804 1.804 0 00-.344 1.06 1.82 1.82 0 001.817 1.818z" fill="#000F0E"/><path d="M9.5 0a9.5 9.5 0 100 19 9.5 9.5 0 000-19zm5.117 8.585v4.228c0 1.1-.895 1.996-1.996 1.996H6.284c-1.1 0-1.995-.895-1.995-1.996V6.477c0-1.101.895-1.996 1.995-1.996h6.337c1.1 0 1.996.895 1.996 1.996v2.108z" fill="#000F0E"/><path d="M12.28 9.644a2.827 2.827 0 01-2.824 2.824A2.827 2.827 0 016.84 8.584H5.298v4.229a.99.99 0 00.99.989h6.336a.99.99 0 00.99-.99V8.585H12.07c.134.328.21.685.21 1.06z" fill="#000F0E"/></svg>