<svg width="76" height="90" fill="none" xmlns="http://www.w3.org/2000/svg"><path d="M75.458 55.68v6.87h-.875c-4.605 0-9.21.024-13.815-.023-.67 0-.823.188-.798.753.052 1.882.078 3.764.078 5.647 0 .494.154.635.694.635 3.293 0 6.612.047 9.905.07h.849v6.895c-.231.023-.489.023-.746.023H60.665c-.515 0-.72.094-.695.612.026 1.953 0 3.906.026 5.882 0 .165.026.353.026.589h15.436v6.047h-23v-34h23z" fill="#000"/><path d="M32.458 7.963V.693c22.807-.601 43.54 18.4 42.99 40.987h-7.585c-.263-9.225-3.596-17.222-10.472-23.765-6.877-6.567-15.249-9.676-24.933-9.952z" fill="#02FFCD"/><path d="M29.395 62.597h-6.89c-.023-.235-.047-.375-.047-.516V56.22c0-.399.118-.54.54-.54h19.92c.305 0 .54 0 .54.423-.023 2.04 0 4.103 0 6.143 0 .094-.047.188-.07.352h-6.21c-.8 0-.8 0-.8.774v26.285h-.681c-1.858 0-3.716-.023-5.574.024-.54 0-.682-.141-.682-.68.024-8.512 0-17.047 0-25.559-.047-.281-.047-.516-.047-.844zM7.725 83.633h14.733v6.047h-22v-34h7.267v27.953z" fill="#000"/><path d="M56.458 41.592c-.184.022-.276.066-.39.066-1.978 0-3.955 0-5.909.022-.46 0-.483-.265-.506-.552-.16-1.808-.436-3.572-1.149-5.248-2.575-6.086-7.31-9.57-14.046-10.563a26.872 26.872 0 00-2-.176V18.68c6.39.088 11.931 2.205 16.552 6.439 4.896 4.432 7.241 10.011 7.448 16.473zm-14 .088h-10v-8c5.169-.072 10 3.468 10 8z" fill="#02FFCD"/></svg>