<svg width="340" height="89" fill="none" xmlns="http://www.w3.org/2000/svg"><path fill-rule="evenodd" clip-rule="evenodd" d="M161.546 16.231h12.724l-25.757 72.154h-12.724l25.757-72.154zm1.458 2.018l-24.316 68.118h8.367l24.316-68.118h-8.367zm57.39-9.609v78.152h-25.507V29.499h-13.582V8.64h39.089zm-23.096 18.442v57.293h20.685V11.057h-34.267v16.025h13.582zm90.615 38.432v21.278h-61.76V70.338l28.125-26.367.005-.005c2.576-2.447 4.113-4.347 4.833-5.728.752-1.513 1.095-2.955 1.095-4.348 0-1.766-.561-2.887-1.527-3.687-1.006-.833-2.703-1.437-5.465-1.437-2.328 0-4.436.535-6.367 1.59l-.012.007-.012.006c-1.831.976-3.377 2.42-4.634 4.4l-1.221 1.925-19.523-10.918 1.288-2.141c3.095-5.146 7.434-9.18 12.955-12.098 5.565-2.94 12.061-4.363 19.407-4.363 5.828 0 11.069.949 15.67 2.914 4.673 1.966 8.395 4.848 11.055 8.68 2.751 3.793 4.103 8.203 4.103 13.132a27.84 27.84 0 01-2.854 12.367c-1.868 3.897-5.4 8.12-10.358 12.664a.023.023 0 01-.005.005l-9.257 8.578h24.459zm-30.619 2.417h28.208v16.444h-56.938V71.387l27.372-25.661c2.646-2.514 4.422-4.643 5.328-6.39.905-1.815 1.358-3.63 1.358-5.446 0-2.374-.801-4.224-2.403-5.55-1.602-1.328-3.935-1.99-7-1.99-2.716 0-5.223.628-7.522 1.884-2.228 1.188-4.074 2.933-5.537 5.237l-15.357-8.588c.418-.697.862-1.371 1.33-2.024 2.725-3.798 6.286-6.86 10.684-9.183 5.154-2.723 11.248-4.085 18.283-4.085 5.572 0 10.482.908 14.731 2.723 4.318 1.816 7.661 4.434 10.029 7.856 2.438 3.351 3.657 7.261 3.657 11.73 0 3.98-.871 7.751-2.612 11.312-1.672 3.491-4.945 7.472-9.821 11.94l-13.79 12.779zM65.252 66.054V86.79H5.06V70.756l27.416-25.702c2.51-2.385 4.008-4.236 4.71-5.582.733-1.475 1.067-2.88 1.067-4.237 0-1.722-.547-2.815-1.489-3.594-.98-.812-2.633-1.4-5.325-1.4-2.27 0-4.324.52-6.206 1.55l-.011.006-.012.006c-1.785.95-3.29 2.358-4.516 4.288l-1.19 1.876L.477 27.327l1.255-2.087c3.016-5.015 7.245-8.947 12.626-11.79 5.424-2.866 11.755-4.253 18.914-4.253 5.68 0 10.787.925 15.271 2.84 4.555 1.916 8.183 4.725 10.775 8.46 2.68 3.696 3.998 7.995 3.998 12.798 0 4.234-.928 8.26-2.78 12.052-1.821 3.798-5.263 7.913-10.096 12.343l-.004.005-9.022 8.359h23.837zM35.41 68.409h27.491v16.026H7.411V71.779L34.087 46.77c2.58-2.45 4.31-4.525 5.193-6.226.883-1.77 1.324-3.539 1.324-5.308 0-2.314-.78-4.117-2.342-5.41-1.561-1.293-3.835-1.94-6.822-1.94-2.647 0-5.091.613-7.331 1.837-2.172 1.157-3.971 2.859-5.397 5.104l-14.967-8.37c.408-.679.84-1.336 1.297-1.972 2.655-3.702 6.126-6.685 10.412-8.95 5.023-2.654 10.963-3.981 17.819-3.981 5.43 0 10.216.884 14.356 2.654 4.209 1.77 7.467 4.321 9.775 7.656 2.376 3.266 3.564 7.077 3.564 11.432 0 3.88-.849 7.554-2.546 11.024-1.629 3.403-4.82 7.282-9.57 11.637L35.41 68.41z" fill="#02FFCD"/><path d="M330.127 18.198a5.994 5.994 0 00-2.625 3.125 5.96 5.96 0 00-.008 4.074l-11.271 6.644a25.081 25.081 0 00-1.361-2.298 24.796 24.796 0 00-6.867-6.896 24.918 24.918 0 00-9.99-3.91l1.306-5.176a4.333 4.333 0 002.712-.977 4.296 4.296 0 001.49-2.459 4.27 4.27 0 00-1.818-4.412 4.34 4.34 0 00-4.791-.016 4.3 4.3 0 00-1.848 2.72 4.263 4.263 0 00.305 2.64 4.296 4.296 0 001.808 1.952l-1.379 5.468a25.081 25.081 0 00-15.964 4.34l-6.529-10.935a5.962 5.962 0 001.254-7.548 6.017 6.017 0 00-2.567-2.365 6.052 6.052 0 00-6.633.904 6.003 6.003 0 00-1.834 2.965 5.986 5.986 0 001.767 5.94 6.05 6.05 0 006.103 1.215l6.663 11.16a24.707 24.707 0 00-8.387 13.45l-5.107-1.274a4.282 4.282 0 00-.985-2.698 4.311 4.311 0 00-2.473-1.477 4.334 4.334 0 00-3.238.629 4.299 4.299 0 00-1.849 2.72 4.29 4.29 0 00-.006 1.675 4.289 4.289 0 001.824 2.738c.47.315.998.534 1.553.645a4.325 4.325 0 002.651-.302 4.3 4.3 0 001.964-1.799l5.256 1.31a24.482 24.482 0 001.802 13.373l-11.816 6.233a6.045 6.045 0 00-3.472-2.148 6.067 6.067 0 00-4.051.544 5.997 5.997 0 00-2.955 3.518 5.961 5.961 0 00.409 4.569A6.026 6.026 0 00252.705 69a6.047 6.047 0 004.59-.408 5.997 5.997 0 002.77-2.998c.543-1.29.615-2.73.203-4.068l11.762-6.203c.349.636.727 1.26 1.134 1.873a24.805 24.805 0 0013.65 10.077l-1.279 5.07a4.335 4.335 0 00-2.712.977 4.296 4.296 0 00-1.49 2.458 4.289 4.289 0 00-.006 1.674 4.287 4.287 0 001.824 2.737 4.332 4.332 0 004.793.019 4.29 4.29 0 001.846-2.724 4.27 4.27 0 00-2.113-4.591l1.283-5.084.077.016a25.018 25.018 0 0015.351-1.753l6.2 11.607a5.973 5.973 0 00-.49 8.985 6.048 6.048 0 006.314 1.345 6.018 6.018 0 002.702-1.992 5.972 5.972 0 00-2.476-9.156 6.065 6.065 0 00-4.089-.202l-6.191-11.59a24.895 24.895 0 007.737-6.791 24.757 24.757 0 004.312-9.328l5.104 1.272c.008.985.355 1.938.985 2.698a4.316 4.316 0 002.474 1.477 4.33 4.33 0 003.24-.626 4.29 4.29 0 001.846-2.724 4.27 4.27 0 00-.632-3.224 4.298 4.298 0 00-2.738-1.833 4.345 4.345 0 00-2.652.305 4.321 4.321 0 00-1.967 1.796L318.8 46.78a24.475 24.475 0 00-1.637-12.733l11.452-6.75a6.06 6.06 0 007.591 1.248 5.994 5.994 0 002.789-3.655 5.971 5.971 0 00-2.187-6.297 6.045 6.045 0 00-6.681-.395zm-57.09-9.681a3.774 3.774 0 01-1.765 2.31 3.838 3.838 0 01-2.891.392 3.822 3.822 0 01-2.327-1.752 3.777 3.777 0 011.381-5.188 3.833 3.833 0 013.809-.01 3.804 3.804 0 011.885 2.773c.068.493.037.994-.092 1.475zm-10.736 28.456a2.097 2.097 0 01-1.66 1.634 2.102 2.102 0 01-2.465-1.65 2.048 2.048 0 01.004-.814c.112-.543.436-1.02.9-1.325a2.111 2.111 0 011.579-.305 2.103 2.103 0 011.332.891 2.072 2.072 0 01.309 1.569h.001zm-4.156 27.442a3.757 3.757 0 01-1.873 2.225 3.839 3.839 0 01-2.907.256 3.816 3.816 0 01-2.241-1.86 3.78 3.78 0 01.121-3.717 3.821 3.821 0 013.254-1.825 3.83 3.83 0 013.388 2.035 3.75 3.75 0 01.258 2.886zm54.406 14.614a3.84 3.84 0 012.907-.256c.964.301 1.77.97 2.241 1.86a3.779 3.779 0 01-.457 4.186 3.799 3.799 0 01-1.158.925 3.84 3.84 0 01-2.907.256 3.816 3.816 0 01-2.241-1.86 3.762 3.762 0 01-.258-2.889 3.785 3.785 0 011.873-2.222zm13.216-29.248c.083-.405.286-.777.581-1.067a2.11 2.11 0 013.232.33 2.068 2.068 0 01.307 1.566 2.092 2.092 0 01-.901 1.326 2.112 2.112 0 01-1.578.305 2.094 2.094 0 01-1.641-2.46zM297.224 9.057a2.104 2.104 0 012.873-1.51 2.1 2.1 0 011.252 1.525c.053.27.052.546-.004.814a2.104 2.104 0 01-2.873 1.51 2.105 2.105 0 01-.941-.773 2.064 2.064 0 01-.307-1.566zm-9.602 67.99a2.104 2.104 0 01-2.873 1.51 2.097 2.097 0 01-1.252-1.526 2.066 2.066 0 01.004-.815 2.097 2.097 0 011.66-1.633 2.102 2.102 0 012.465 1.65c.053.268.052.545-.004.814zm28.732-29.07c-2.501 12.24-14.557 20.176-26.878 17.69a22.818 22.818 0 01-8.199-3.406 22.715 22.715 0 01-6.263-6.273 22.578 22.578 0 01-3.342-17.025c2.191-10.726 11.72-18.147 22.334-18.147 3.763.001 7.468.928 10.785 2.698a22.811 22.811 0 018.228 7.447 22.406 22.406 0 013.335 17.015zm20.502-23.646a3.757 3.757 0 01-1.765 2.31 3.837 3.837 0 01-2.891.393 3.823 3.823 0 01-2.327-1.752 3.777 3.777 0 011.381-5.188 3.832 3.832 0 013.809-.01 3.804 3.804 0 011.885 2.773 3.72 3.72 0 01-.092 1.474z" fill="#000"/><path d="M268.856 30.34a.931.931 0 00.497.355c.189.05.384.024.561-.074.178-.098.33-.264.436-.477.107-.213.164-.463.164-.72 0-.256-.057-.507-.164-.72a1.088 1.088 0 00-.436-.477.747.747 0 00-.561-.074.931.931 0 00-.497.355 1.37 1.37 0 00-.211.42c-.05.157-.075.326-.075.496 0 .17.025.34.075.497.049.157.12.3.211.42zm-7.141-7.565l4.58 5.038a.95.95 0 00.308.232.87.87 0 00.731.005.952.952 0 00.311-.227 1.124 1.124 0 00-.01-1.484l-4.579-5.039a.907.907 0 00-.669-.299.905.905 0 00-.666.305 1.097 1.097 0 00-.278.733 1.1 1.1 0 00.272.736zm-1.648-7.239c.225.182.526.283.84.282.313-.002.613-.107.835-.291a.918.918 0 00.349-.696.914.914 0 00-.338-.7l-1.513-1.262a1.325 1.325 0 00-.844-.29c-.316 0-.619.104-.843.29a.917.917 0 00-.349.703.92.92 0 00.349.703l1.514 1.261zm8.103 7.744c.187.202.44.314.703.313a.957.957 0 00.701-.319 1.14 1.14 0 00.292-.765 1.143 1.143 0 00-.286-.767l-5.145-5.612a.954.954 0 00-.703-.312.957.957 0 00-.701.319 1.14 1.14 0 00-.292.764c-.001.287.102.563.286.768l5.145 5.611zm-6.726 52.793h-.002a1.294 1.294 0 00-.915 2.212c.243.243.572.38.915.38h.002a1.294 1.294 0 00.916-2.213 1.295 1.295 0 00-.916-.38zm8.736-8.061a1.093 1.093 0 00-.804-.361 1.1 1.1 0 00-.805.36l-5.499 5.958a1.289 1.289 0 00-.333.872c0 .327.12.64.333.872.214.23.503.36.805.36a1.1 1.1 0 00.805-.36l5.498-5.957c.106-.115.19-.25.247-.4a1.327 1.327 0 000-.944 1.237 1.237 0 00-.247-.4zm5.44-2.022l-1.507 1.257a.991.991 0 00-.264.321.845.845 0 00-.007.764c.06.121.148.231.259.324.112.093.244.166.389.216a1.403 1.403 0 00.917-.005c.145-.052.276-.126.385-.22l1.508-1.256a.912.912 0 00.341-.699.913.913 0 00-.348-.695 1.317 1.317 0 00-.835-.29 1.323 1.323 0 00-.838.284zm-1.92 3.29l-6.07 6.07a1.184 1.184 0 00-.268 1.29 1.194 1.194 0 00.642.641 1.18 1.18 0 001.29-.268l6.07-6.07a1.175 1.175 0 00-.835-1.997 1.179 1.179 0 00-.829.334zm45.406-10.348a.974.974 0 00-1.857-.428.977.977 0 00.177 1.065l.001.001a.98.98 0 00.679.305h.03a.974.974 0 00.971-.943h-.001zm1.843 1.264a1.104 1.104 0 00-1.507-.043 1.016 1.016 0 00-.335.714 1.001 1.001 0 00.29.732l4.997 5.084a1.097 1.097 0 001.505.041c.205-.186.325-.442.334-.712a.997.997 0 00-.287-.731l-4.997-5.085zm12.54 12.355a1.219 1.219 0 00-1.695-.046 1.164 1.164 0 00-.377.817c-.01.31.107.613.324.84l1.479 1.532a1.194 1.194 0 00.841.378 1.23 1.23 0 00.866-.319 1.173 1.173 0 00.377-.826 1.162 1.162 0 00-.336-.843l-1.479-1.533zm-13.759-7.804a1.1 1.1 0 00-.352-.242 1.152 1.152 0 00-1.219.195 1.072 1.072 0 00-.251.338 1.022 1.022 0 00.208 1.167l5.551 5.643a1.1 1.1 0 00.352.242 1.152 1.152 0 001.219-.194 1.07 1.07 0 00.251-.34 1.011 1.011 0 00.023-.815 1.06 1.06 0 00-.231-.35l-5.551-5.644zm4.237-51.521a.84.84 0 00.616-.294c.174-.19.293-.455.336-.75.044-.293.01-.599-.096-.863a1.14 1.14 0 00-.486-.586.747.747 0 00-.654-.042c-.215.087-.401.271-.525.52-.125.25-.181.55-.159.848.022.298.121.577.28.789.091.12.198.215.316.28a.763.763 0 00.372.098zm-7.795 6.203a1.1 1.1 0 00.737.277c.277 0 .542-.1.737-.277l5.037-4.579a.942.942 0 00.229-.307.857.857 0 00.004-.73.96.96 0 00-.227-.308 1.053 1.053 0 00-.34-.207 1.133 1.133 0 00-.802.003c-.127.049-.242.12-.338.209l-5.037 4.579a.907.907 0 00-.305.67c0 .25.11.492.305.67zm-5.486 2.219a1.295 1.295 0 10-.004-2.59 1.295 1.295 0 00.004 2.59zm2.288-2.591a.987.987 0 00.703-.291l5.129-5.13a.99.99 0 00.226-1.089.994.994 0 00-1.632-.316l-5.129 5.13a.991.991 0 00.151 1.529.99.99 0 00.552.167zM284.768 36.88a4.213 4.213 0 00-8.342-.829 4.216 4.216 0 001.79 4.325 4.212 4.212 0 006.552-3.496zm-6.117 0a1.904 1.904 0 013.251-1.355 1.901 1.901 0 01.416 2.078 1.903 1.903 0 01-1.761 1.178 1.904 1.904 0 01-1.906-1.9zm6.432 13.276a6.4 6.4 0 00-3.417.987 5.907 5.907 0 00-2.263 2.619 5.547 5.547 0 00-.347 3.368 5.735 5.735 0 001.687 2.983 6.264 6.264 0 003.151 1.594 6.473 6.473 0 003.555-.333 6.097 6.097 0 002.761-2.148 5.615 5.615 0 001.037-3.239c-.003-1.547-.654-3.03-1.809-4.123-1.156-1.093-2.722-1.707-4.355-1.708zm0 9.372a3.887 3.887 0 01-2.074-.6 3.595 3.595 0 01-1.373-1.592 3.373 3.373 0 01-.209-2.045 3.487 3.487 0 011.025-1.81 3.807 3.807 0 011.914-.967 3.93 3.93 0 012.158.203 3.702 3.702 0 011.676 1.304 3.41 3.41 0 01.629 1.966 3.458 3.458 0 01-1.1 2.505 3.854 3.854 0 01-2.646 1.036zm23.648-28.161a5.616 5.616 0 00-3.237 1.042 6.101 6.101 0 00-2.143 2.765 6.473 6.473 0 00-.328 3.555 6.266 6.266 0 001.598 3.15 5.743 5.743 0 002.985 1.68 5.547 5.547 0 003.368-.351 5.917 5.917 0 002.616-2.267 6.404 6.404 0 00.982-3.419c-.003-1.633-.62-3.198-1.715-4.352-1.095-1.154-2.578-1.802-4.126-1.803zm0 9.892a3.41 3.41 0 01-1.964-.634 3.7 3.7 0 01-1.3-1.68 3.924 3.924 0 01-.198-2.158c.138-.725.476-1.39.971-1.911a3.49 3.49 0 011.814-1.02 3.367 3.367 0 012.044.214 3.595 3.595 0 011.588 1.377c.388.614.595 1.336.595 2.075a3.855 3.855 0 01-1.042 2.644 3.459 3.459 0 01-2.508 1.094zm-14.98-5.36c.053.002.106.004.158.004 1.008 0 1.977-.437 2.699-1.219a4.752 4.752 0 001.108-2.086c.197-.793.2-1.629.009-2.423a2.03 2.03 0 01.143-1.417c.42-.768.586-1.675.47-2.564a4.02 4.02 0 00-1.103-2.312 3.175 3.175 0 00-1.183-.763 2.932 2.932 0 00-1.362-.152 3.274 3.274 0 00-1.972 1.078 3.953 3.953 0 00-.965 2.196c-.02.172-.03.345-.029.519-.02.514-.222 1-.56 1.35-.402.447-.717.98-.925 1.569a5.072 5.072 0 00-.285 1.848c.069 2.359 1.737 4.28 3.797 4.372zm-1.118-6.138c.368-.389.661-.855.864-1.373.202-.517.31-1.074.315-1.638 0-.071.004-.143.012-.214a1.53 1.53 0 01.355-.834c.197-.227.456-.376.736-.425a1.116 1.116 0 01.924.334c.142.144.254.32.331.515.076.195.115.406.114.619a1.66 1.66 0 01-.2.801 4.476 4.476 0 00-.485 1.57 4.592 4.592 0 00.107 1.657c.046.195.07.396.069.597.001.305-.052.607-.158.888a2.308 2.308 0 01-.458.75c-.174.19-.382.338-.61.435a1.636 1.636 0 01-.715.133c-.955-.043-1.76-.996-1.793-2.126a2.498 2.498 0 01.138-.913c.102-.291.257-.555.454-.777zm13.396 25.012a3.946 3.946 0 00-.481-.211c-.479-.2-.861-.58-1.064-1.06a4.654 4.654 0 00-2.77-2.463c-2.26-.746-4.721.346-5.602 2.485a4.352 4.352 0 00.047 3.43c.34.76.875 1.414 1.55 1.897a4.664 4.664 0 002.292.853 1.85 1.85 0 011.29.644 3.929 3.929 0 003.061 1.472c.628 0 1.247-.154 1.803-.449a3.63 3.63 0 001.843-2.363 3.826 3.826 0 00-.261-2.456 3.804 3.804 0 00-1.708-1.78zm-.304 3.67a1.316 1.316 0 01-.669.854 1.542 1.542 0 01-1.251.076 1.559 1.559 0 01-.684-.49 4.205 4.205 0 00-2.909-1.518 2.349 2.349 0 01-1.375-.61 2.284 2.284 0 01-.535-.746 2.012 2.012 0 01-.027-1.588 2.152 2.152 0 011.999-1.263c.241 0 .48.038.709.114a2.293 2.293 0 011.374 1.212 4.277 4.277 0 002.395 2.288c.069.024.136.054.201.088a1.46 1.46 0 01.772 1.583zm-8.729-15.304c.142.245.376.424.653.5a1.1 1.1 0 00.82-.1 1.07 1.07 0 00.512-.64 1.053 1.053 0 00-.095-.808 3.282 3.282 0 00-1.473-1.345 3.344 3.344 0 00-1.992-.255 3.313 3.313 0 00-1.773.93 3.223 3.223 0 00-.896 1.77 1.105 1.105 0 01-.302.6 1.136 1.136 0 01-1.271.245 1.126 1.126 0 01-.51-.442 1.084 1.084 0 00-.668-.485 1.1 1.1 0 00-.821.121 1.073 1.073 0 00-.493.658c-.069.275-.025.565.124.808.289.48.699.877 1.192 1.153.492.276 1.049.42 1.615.42.221 0 .442-.021.659-.064a3.275 3.275 0 001.747-.933 3.19 3.19 0 00.873-1.758c.036-.229.143-.44.307-.605a1.148 1.148 0 011.289-.23c.212.098.388.259.503.46z" fill="#000"/><path fill-rule="evenodd" clip-rule="evenodd" d="M65.393 73.267c-3.622 0-6.568-2.678-6.568-5.97 0-.498.445-.901.993-.901s.992.403.992.901c0 2.297 2.055 4.166 4.582 4.166.548 0 .992.404.992.902.002.498-.442.902-.991.902zm.054 6.872c-7.062 0-12.806-5.744-12.806-12.805a.939.939 0 011.877 0c0 6.025 4.902 10.927 10.927 10.927a.939.939 0 01.002 1.878z" fill="#000"/><path fill-rule="evenodd" clip-rule="evenodd" d="M65.433 87.01c-10.843 0-19.664-8.821-19.664-19.663a.952.952 0 111.904 0c0 9.793 7.966 17.76 17.76 17.76a.952.952 0 010 1.904zm49.907 1.375c-.471 0-.854-.413-.854-.923V68.814c0-4.085.596-8.152 1.769-12.087.144-.484.625-.75 1.075-.594.449.156.695.676.551 1.16a40.317 40.317 0 00-1.686 11.521v18.648c-.001.51-.383.923-.855.923z" fill="#000"/><path fill-rule="evenodd" clip-rule="evenodd" d="M121.725 88.385H87.834a.95.95 0 01-.669-.275.926.926 0 01-.274-.661l.075-12.095h-7.048c-4.118 0-7.829-2.415-9.454-6.15a.92.92 0 01.08-.879.946.946 0 01.787-.419h8.209c1.82 0 3.302-1.461 3.302-3.257 0-1.797-1.481-3.258-3.302-3.258h-8.963a.937.937 0 01-.943-.931v-3.723h-8.49a.945.945 0 01-.77-.392.92.92 0 01-.122-.845l6.144-17.484a31.68 31.68 0 01-.36-4.864c0-8.865 3.534-17.167 9.951-23.374C82.397 3.578 90.872.26 99.851.433c18.098.351 32.677 15.176 32.5 33.046a32.334 32.334 0 01-4.411 15.971c-3.449 5.898-5.273 12.536-5.273 19.193v18.81a.935.935 0 01-.942.932zm-32.941-1.862h31.997v-17.88c0-6.983 1.911-13.941 5.525-20.121a30.475 30.475 0 004.16-15.06c.168-16.854-13.582-30.835-30.651-31.166-8.47-.161-16.461 2.965-22.505 8.813-6.053 5.856-9.386 13.685-9.386 22.046 0 1.678.126 3.293.373 4.799a.916.916 0 01-.04.454L62.47 54.876h8.109c.52 0 .943.417.943.93v3.724h8.02c2.86 0 5.189 2.297 5.189 5.12 0 2.822-2.328 5.119-5.189 5.119h-6.634a8.422 8.422 0 007.01 3.723h7.998c.252 0 .492.1.67.275a.92.92 0 01.274.661l-.075 12.095z" fill="#000"/><path fill-rule="evenodd" clip-rule="evenodd" d="M120.449 48.529a.99.99 0 01-.483-.125.916.916 0 01-.355-1.274 22.792 22.792 0 003.244-11.473c.132-12.84-10.596-23.491-23.912-23.743-.534-.01-.96-.437-.948-.952.01-.509.441-.915.967-.915h.02c14.373.273 25.952 11.77 25.811 25.629a24.637 24.637 0 01-3.504 12.386.976.976 0 01-.84.467zM57.107 23.104c-4.737 0-8.59-3.545-8.59-7.903 0-4.357 3.853-7.902 8.59-7.902 4.736 0 8.59 3.545 8.59 7.902 0 4.358-3.853 7.903-8.59 7.903zm0-14.048c-3.684 0-6.68 2.757-6.68 6.146 0 3.39 2.996 6.147 6.68 6.147 3.684 0 6.681-2.758 6.681-6.147 0-3.389-2.997-6.146-6.68-6.146zM50.922 50.59c-3.22 0-5.84-2.466-5.84-5.497 0-3.031 2.62-5.497 5.84-5.497 3.221 0 5.842 2.466 5.842 5.497 0 3.031-2.62 5.497-5.842 5.497zm0-9.161c-2.147 0-3.893 1.644-3.893 3.664 0 2.021 1.746 3.665 3.893 3.665 2.148 0 3.895-1.644 3.895-3.665 0-2.02-1.747-3.664-3.895-3.664z" fill="#000"/></svg>