<svg width="502" height="131" fill="none" xmlns="http://www.w3.org/2000/svg"><path fill-rule="evenodd" clip-rule="evenodd" d="M238.715 23.424h18.859L219.4 130.36h-18.859l38.174-106.936zm2.162 2.99L204.838 127.37h12.4l36.039-100.955h-12.4zm85.056-14.241V128h-37.804V43.088H268V12.173h57.933zm-34.231 27.333v84.912h30.658V15.755h-50.787v23.751h20.129zM426 96.464V128h-91.533v-24.386l41.684-39.077a.054.054 0 01.008-.008c3.817-3.626 6.095-6.443 7.163-8.49 1.114-2.242 1.622-4.38 1.622-6.443 0-2.618-.832-4.28-2.263-5.465-1.491-1.235-4.006-2.13-8.099-2.13-3.451 0-6.576.793-9.437 2.357l-.017.01-.018.01c-2.714 1.445-5.005 3.585-6.868 6.52l-1.81 2.852-28.934-16.18 1.908-3.174c4.587-7.626 11.018-13.605 19.201-17.929C356.855 12.11 366.482 10 377.369 10c8.638 0 16.405 1.407 23.224 4.319 6.926 2.914 12.443 7.185 16.384 12.865 4.078 5.621 6.081 12.158 6.081 19.463 0 6.438-1.412 12.561-4.229 18.328-2.768 5.775-8.003 12.033-15.351 18.77l-.008.007-13.719 12.712H426zm-45.379 3.582h41.806v24.372h-84.386v-19.249l40.567-38.032c3.922-3.725 6.555-6.882 7.897-9.469 1.342-2.69 2.013-5.381 2.013-8.072 0-3.519-1.188-6.261-3.562-8.227-2.374-1.966-5.832-2.95-10.374-2.95-4.026 0-7.742.932-11.148 2.795-3.303 1.759-6.039 4.346-8.206 7.761l-22.762-12.729a44.553 44.553 0 011.972-3c4.038-5.629 9.316-10.166 15.835-13.61 7.638-4.036 16.671-6.054 27.096-6.054 8.258 0 15.536 1.346 21.832 4.036 6.4 2.691 11.355 6.572 14.865 11.643 3.612 4.967 5.419 10.762 5.419 17.386 0 5.898-1.29 11.487-3.871 16.765-2.477 5.174-7.329 11.073-14.555 17.696l-20.438 18.938zM96 97.266V128H6.792v-23.766l40.633-38.092c3.72-3.533 5.94-6.278 6.98-8.273 1.087-2.186 1.582-4.268 1.582-6.28 0-2.55-.81-4.17-2.206-5.326-1.453-1.203-3.904-2.075-7.893-2.075-3.363 0-6.409.772-9.197 2.297l-.017.01-.017.008c-2.646 1.41-4.878 3.495-6.694 6.355l-1.764 2.78L0 39.868l1.86-3.092c4.47-7.432 10.738-13.26 18.712-17.473C28.613 15.055 37.995 13 48.605 13c8.42 0 15.988 1.371 22.634 4.209 6.75 2.84 12.127 7.002 15.969 12.538 3.973 5.478 5.926 11.849 5.926 18.968 0 6.275-1.376 12.242-4.122 17.862-2.698 5.629-7.8 11.728-14.962 18.294l-.006.006-13.371 12.389H96zm-44.227 3.491h40.745v23.752H10.275v-18.76l39.537-37.064c3.823-3.631 6.388-6.707 7.696-9.229 1.308-2.622 1.961-5.244 1.961-7.867 0-3.429-1.156-6.102-3.47-8.018-2.314-1.916-5.684-2.874-10.11-2.874-3.924 0-7.546.907-10.866 2.723-3.22 1.715-5.885 4.236-7.998 7.564L4.842 38.58a43.335 43.335 0 011.922-2.923c3.935-5.487 9.08-9.908 15.432-13.265 7.445-3.933 16.247-5.9 26.408-5.9 8.049 0 15.141 1.311 21.278 3.934 6.237 2.622 11.066 6.404 14.487 11.346 3.52 4.841 5.281 10.49 5.281 16.944 0 5.749-1.257 11.195-3.772 16.339-2.415 5.043-7.143 10.791-14.185 17.246l-19.92 18.457z" fill="#02FFCD"/><path d="M488.565 26.34a8.882 8.882 0 00-3.89 4.632 8.835 8.835 0 00-.012 6.037l-16.704 9.847a37.522 37.522 0 00-2.017-3.405 36.742 36.742 0 00-10.179-10.221 36.918 36.918 0 00-14.805-5.795l1.936-7.671a6.42 6.42 0 004.019-1.449 6.366 6.366 0 002.208-3.643 6.323 6.323 0 00-.937-4.779 6.376 6.376 0 00-4.058-2.717 6.43 6.43 0 00-4.8.933 6.373 6.373 0 00-2.739 4.032 6.325 6.325 0 00.452 3.91 6.363 6.363 0 002.68 2.895l-2.044 8.104a37.17 37.17 0 00-23.659 6.432l-9.677-16.207a8.837 8.837 0 001.858-11.187 8.92 8.92 0 00-3.804-3.505 8.972 8.972 0 00-9.831 1.34 8.884 8.884 0 00-2.717 4.394 8.85 8.85 0 002.618 8.803 8.965 8.965 0 009.044 1.8l9.875 16.542a36.626 36.626 0 00-12.429 19.933l-7.57-1.887a6.345 6.345 0 00-1.459-4 6.394 6.394 0 00-3.665-2.188 6.426 6.426 0 00-4.8.931 6.373 6.373 0 00-2.739 4.033 6.323 6.323 0 00.937 4.779 6.377 6.377 0 004.058 2.718 6.412 6.412 0 003.93-.448 6.372 6.372 0 002.91-2.666l7.79 1.94a36.285 36.285 0 002.671 19.82l-17.512 9.238a8.964 8.964 0 00-5.145-3.184 8.995 8.995 0 00-6.005.806 8.892 8.892 0 00-4.38 5.215 8.835 8.835 0 00.607 6.77 8.903 8.903 0 005.239 4.361 8.954 8.954 0 006.802-.604 8.887 8.887 0 004.106-4.443 8.835 8.835 0 00.3-6.03l17.433-9.194a38.423 38.423 0 001.68 2.778 36.767 36.767 0 0020.231 14.933l-1.896 7.514a6.43 6.43 0 00-4.019 1.449 6.372 6.372 0 00-2.208 3.643 6.322 6.322 0 00.938 4.777 6.358 6.358 0 001.757 1.76 6.42 6.42 0 007.102.028 6.364 6.364 0 002.737-4.036 6.327 6.327 0 00-.452-3.911 6.356 6.356 0 00-2.68-2.894l1.902-7.535c.037.008.075.017.113.024a37.082 37.082 0 0022.752-2.597l9.188 17.202a8.894 8.894 0 00-2.895 4.037 8.853 8.853 0 002.169 9.279 8.943 8.943 0 004.388 2.351 8.97 8.97 0 004.971-.357 8.925 8.925 0 004.004-2.954 8.858 8.858 0 00.808-9.492 8.93 8.93 0 00-4.477-4.077 8.983 8.983 0 00-6.061-.298l-9.176-17.179a36.88 36.88 0 0011.467-10.065 36.708 36.708 0 006.391-13.824l7.565 1.885a6.341 6.341 0 001.46 4 6.394 6.394 0 003.665 2.189 6.418 6.418 0 004.803-.929 6.341 6.341 0 002.746-6.518 6.377 6.377 0 00-5.005-5.014 6.437 6.437 0 00-3.93.451 6.399 6.399 0 00-2.915 2.663l-7.807-1.945a36.277 36.277 0 00-2.425-18.87l16.973-10.005a8.976 8.976 0 0011.249 1.85 8.875 8.875 0 004.134-5.416 8.86 8.86 0 00-3.241-9.334 8.939 8.939 0 00-6.611-1.72 8.954 8.954 0 00-3.291 1.135zm-84.611-14.35a5.576 5.576 0 01-2.616 3.425 5.69 5.69 0 01-4.285.58 5.666 5.666 0 01-3.449-2.596 5.592 5.592 0 01-.018-5.626 5.624 5.624 0 012.065-2.063 5.664 5.664 0 012.826-.756 5.678 5.678 0 012.818.742 5.649 5.649 0 012.074 2.04 5.554 5.554 0 01.585 4.254zm-15.913 42.175c-.124.6-.424 1.15-.862 1.582a3.125 3.125 0 01-3.396.656 3.117 3.117 0 01-1.856-2.261 3.063 3.063 0 01.007-1.207 3.101 3.101 0 011.335-1.965 3.126 3.126 0 014.314.87 3.086 3.086 0 01.457 2.324l.001.001zm-6.158 40.67a5.591 5.591 0 01-2.777 3.298 5.688 5.688 0 01-4.308.38 5.662 5.662 0 01-3.322-2.758 5.602 5.602 0 01.18-5.507 5.639 5.639 0 014.823-2.705 5.679 5.679 0 012.933.81 5.642 5.642 0 012.087 2.206 5.554 5.554 0 01.384 4.276zm80.633 21.66a5.69 5.69 0 014.308-.379 5.658 5.658 0 013.321 2.757 5.583 5.583 0 01-.676 6.203 5.645 5.645 0 01-1.717 1.372 5.694 5.694 0 01-4.308.379 5.663 5.663 0 01-3.322-2.757 5.592 5.592 0 012.394-7.575zm19.587-43.349a3.117 3.117 0 012.46-2.421 3.133 3.133 0 011.798.184 3.109 3.109 0 011.855 2.26c.078.4.076.81-.006 1.207a3.106 3.106 0 01-1.336 1.964 3.128 3.128 0 01-4.314-.868 3.095 3.095 0 01-.457-2.326zm-42.302-60.355c.124-.6.423-1.15.861-1.582a3.125 3.125 0 013.397-.657 3.117 3.117 0 011.394 1.146 3.065 3.065 0 01-.407 3.903 3.125 3.125 0 01-5.252-1.604 3.043 3.043 0 01.007-1.206zm-14.232 100.766a3.104 3.104 0 01-2.46 2.421 3.127 3.127 0 01-3.191-1.329 3.05 3.05 0 01-.456-2.322 3.104 3.104 0 012.461-2.422 3.135 3.135 0 011.798.184 3.107 3.107 0 011.855 2.261c.078.399.076.809-.007 1.207zm42.584-43.084c-3.707 18.141-21.575 29.903-39.835 26.22a33.811 33.811 0 01-12.152-5.05 33.652 33.652 0 01-9.283-9.296 33.5 33.5 0 01-4.999-12.126c-.85-4.33-.835-8.783.046-13.107 3.248-15.897 17.371-26.895 33.101-26.895a33.977 33.977 0 0115.985 3.998 33.795 33.795 0 0112.193 11.038 33.16 33.16 0 014.944 25.218zm30.385-35.045a5.557 5.557 0 01-.962 1.974 5.594 5.594 0 01-1.653 1.451 5.69 5.69 0 01-4.285.581 5.66 5.66 0 01-3.449-2.597 5.592 5.592 0 01-.018-5.626 5.624 5.624 0 012.065-2.063 5.66 5.66 0 012.826-.756 5.678 5.678 0 012.818.742 5.647 5.647 0 012.073 2.04 5.535 5.535 0 01.585 4.254z" fill="#000"/><path d="M397.757 44.336c.201.269.458.451.737.526.279.074.569.035.832-.11.263-.145.487-.391.646-.707.158-.316.242-.687.242-1.067 0-.38-.084-.751-.242-1.067a1.629 1.629 0 00-.646-.707 1.11 1.11 0 00-.832-.11 1.377 1.377 0 00-.737.526c-.134.178-.241.39-.313.622a2.47 2.47 0 000 1.471c.072.233.179.445.313.623zm-10.583-11.212l6.788 7.467c.129.146.284.263.456.343a1.294 1.294 0 001.083.008c.173-.077.329-.192.461-.337a1.58 1.58 0 00.306-.506 1.7 1.7 0 00-.008-1.192 1.565 1.565 0 00-.312-.502l-6.788-7.466a1.34 1.34 0 00-.991-.444c-.37.002-.725.165-.987.453-.262.288-.41.679-.411 1.087-.002.407.143.799.403 1.09zm-2.444-10.728c.333.27.781.42 1.245.417.465-.003.91-.158 1.238-.431.329-.274.515-.645.518-1.032.003-.387-.177-.76-.501-1.037l-2.243-1.87a1.963 1.963 0 00-1.25-.431 1.96 1.96 0 00-1.25.431c-.332.276-.518.651-.518 1.042 0 .39.187.765.518 1.041l2.243 1.87zm12.01 11.478c.278.298.652.464 1.042.462a1.42 1.42 0 001.039-.472c.276-.3.431-.708.433-1.133a1.691 1.691 0 00-.425-1.137l-7.624-8.318a1.417 1.417 0 00-1.043-.462 1.417 1.417 0 00-1.038.472c-.276.3-.432.708-.433 1.133a1.69 1.69 0 00.424 1.137l7.625 8.318zm-9.968 78.241h-.003a1.92 1.92 0 000 3.841h.003a1.919 1.919 0 001.357-3.278 1.92 1.92 0 00-1.357-.563zm12.948-11.947a1.626 1.626 0 00-1.193-.535 1.62 1.62 0 00-1.192.535l-8.15 8.829a1.907 1.907 0 00-.494 1.292c0 .484.178.949.494 1.292.316.342.745.535 1.193.535a1.62 1.62 0 001.192-.535l8.15-8.829a1.83 1.83 0 00.365-.593 1.951 1.951 0 000-1.398 1.841 1.841 0 00-.365-.593zm8.062-2.995l-2.234 1.862c-.167.135-.3.297-.392.476-.091.178-.139.37-.141.565a1.26 1.26 0 00.132.567c.088.179.219.343.384.48.165.138.361.246.576.32a2.075 2.075 0 001.359-.007c.214-.077.408-.188.571-.327l2.234-1.861c.326-.276.507-.648.506-1.035-.002-.387-.188-.758-.516-1.031a1.95 1.95 0 00-1.237-.43 1.957 1.957 0 00-1.242.42zm-2.846 4.875l-8.996 8.996a1.753 1.753 0 00-.527 1.237 1.732 1.732 0 00.51 1.245 1.751 1.751 0 001.245.511 1.747 1.747 0 001.238-.528l8.996-8.996a1.745 1.745 0 00-2.466-2.465zm67.295-15.336a1.441 1.441 0 10-2.489.944l.001.001a1.433 1.433 0 001.006.453h.045a1.438 1.438 0 001.438-1.4l-.001.002zm2.732 1.874a1.584 1.584 0 00-.503-.343 1.633 1.633 0 00-1.731.28c-.151.136-.273.3-.358.481a1.462 1.462 0 00.292 1.66l7.406 7.536c.288.291.684.46 1.102.472a1.62 1.62 0 001.128-.412c.304-.275.482-.654.495-1.055.013-.401-.14-.79-.425-1.083l-7.406-7.536zm18.585 18.311a1.8 1.8 0 00-1.242-.542 1.802 1.802 0 00-1.27.473 1.723 1.723 0 00-.559 1.212c-.014.46.158.907.48 1.243l2.191 2.272a1.787 1.787 0 001.247.56 1.82 1.82 0 001.284-.473 1.712 1.712 0 00.06-2.473l-2.191-2.272zM473.157 95.33a1.65 1.65 0 00-.523-.359 1.701 1.701 0 00-1.806.289 1.576 1.576 0 00-.372.502 1.513 1.513 0 00-.035 1.208c.078.194.194.37.344.521l8.225 8.363c.148.152.326.274.523.359a1.703 1.703 0 001.806-.288c.157-.142.284-.313.372-.502a1.518 1.518 0 00-.309-1.729l-8.225-8.364zm6.278-76.358c.333 0 .656-.155.913-.437.258-.282.434-.674.499-1.11a2.494 2.494 0 00-.143-1.28c-.157-.392-.412-.699-.72-.869a1.107 1.107 0 00-.969-.062c-.319.129-.594.402-.779.771-.185.37-.268.814-.235 1.256.033.442.18.855.415 1.17.134.178.293.319.468.415.174.097.362.146.551.146zm-11.551 9.192c.289.263.682.411 1.092.411.41 0 .802-.148 1.092-.411l7.464-6.786a1.41 1.41 0 00.341-.456 1.3 1.3 0 00.005-1.08 1.411 1.411 0 00-.336-.458 1.572 1.572 0 00-.505-.306 1.674 1.674 0 00-1.188.005 1.557 1.557 0 00-.501.309l-7.464 6.786a1.34 1.34 0 00-.453.993c0 .372.163.73.453.993zm-8.133 3.29a1.92 1.92 0 10-.003-3.839 1.92 1.92 0 00.003 3.84zm3.392-3.84a1.463 1.463 0 001.041-.431l7.602-7.602a1.463 1.463 0 00.446-1.046 1.48 1.48 0 00-.431-1.052 1.47 1.47 0 00-1.62-.314 1.48 1.48 0 00-.478.328l-7.602 7.602a1.474 1.474 0 001.042 2.515zm-41.804 26.415a6.237 6.237 0 00-3.847-5.772 6.243 6.243 0 10-2.394 12.006 6.242 6.242 0 006.241-6.234zm-9.066 0a2.825 2.825 0 115.65-.017 2.825 2.825 0 01-5.65.017zm9.534 19.676a9.487 9.487 0 00-5.065 1.463 8.759 8.759 0 00-3.354 3.88 8.227 8.227 0 00-.514 4.993 8.512 8.512 0 002.5 4.422 9.285 9.285 0 004.671 2.361 9.595 9.595 0 005.269-.493 9.029 9.029 0 004.091-3.184 8.322 8.322 0 001.537-4.8c-.004-2.293-.969-4.49-2.681-6.11-1.713-1.62-4.034-2.531-6.454-2.532zm0 13.89a5.759 5.759 0 01-3.074-.89 5.325 5.325 0 01-2.035-2.358 4.995 4.995 0 01-.31-3.031 5.176 5.176 0 011.519-2.684 5.647 5.647 0 012.837-1.433 5.822 5.822 0 013.198.3 5.482 5.482 0 012.484 1.934 5.05 5.05 0 01.933 2.914c-.003 1.393-.59 2.728-1.631 3.712a5.71 5.71 0 01-3.921 1.536zm35.048-41.737a8.326 8.326 0 00-4.798 1.545 9.04 9.04 0 00-3.177 4.097 9.594 9.594 0 00-.486 5.27 9.291 9.291 0 002.369 4.666 8.51 8.51 0 004.425 2.493 8.22 8.22 0 004.991-.522 8.757 8.757 0 003.876-3.36 9.487 9.487 0 001.456-5.066c-.004-2.42-.918-4.74-2.541-6.451-1.623-1.71-3.822-2.671-6.115-2.672zm0 14.661a5.056 5.056 0 01-2.912-.94 5.488 5.488 0 01-1.926-2.49 5.828 5.828 0 01-.293-3.199 5.642 5.642 0 011.439-2.832 5.171 5.171 0 012.687-1.512 4.995 4.995 0 013.031.318 5.319 5.319 0 012.352 2.04c.576.911.884 1.982.883 3.077a5.708 5.708 0 01-1.545 3.918c-.986 1.039-2.323 1.621-3.716 1.62zm-22.202-7.944c.078.004.157.005.235.005 1.494.001 2.929-.647 4-1.805a7.063 7.063 0 001.642-3.092 7.597 7.597 0 00.013-3.591 3.008 3.008 0 01.212-2.1 6.278 6.278 0 00.697-3.8c-.171-1.319-.749-2.53-1.635-3.426a4.72 4.72 0 00-1.754-1.132 4.344 4.344 0 00-2.018-.224c-1.106.156-2.135.718-2.923 1.596-.788.879-1.291 2.024-1.43 3.255a6.38 6.38 0 00-.043.77 3.05 3.05 0 01-.831 2 6.953 6.953 0 00-1.37 2.325 7.537 7.537 0 00-.423 2.74c.102 3.496 2.575 6.342 5.628 6.479zm-1.656-9.097a6.31 6.31 0 001.279-2.034c.3-.766.46-1.592.468-2.428 0-.106.006-.212.018-.317.049-.465.234-.899.526-1.236a1.87 1.87 0 011.091-.63c.064-.008.129-.012.194-.012.434 0 .854.182 1.175.508.209.212.376.472.49.761.113.29.171.602.169.918.001.419-.101.83-.296 1.188a6.646 6.646 0 00-.719 2.328 6.85 6.85 0 00.158 2.454c.069.29.104.587.103.886.002.451-.078.899-.235 1.316a3.404 3.404 0 01-.677 1.11 2.653 2.653 0 01-.905.646 2.422 2.422 0 01-1.06.196c-1.416-.063-2.608-1.476-2.658-3.15a3.713 3.713 0 01.205-1.354 3.43 3.43 0 01.674-1.15zm19.853 37.068a5.888 5.888 0 00-.712-.313 2.94 2.94 0 01-1.578-1.57 6.888 6.888 0 00-4.105-3.65c-3.35-1.106-6.998.512-8.303 3.683a6.438 6.438 0 00.07 5.083 6.945 6.945 0 002.296 2.812 6.915 6.915 0 003.397 1.263 2.74 2.74 0 011.913.955 5.821 5.821 0 004.536 2.181 5.676 5.676 0 002.672-.664 5.404 5.404 0 002.732-3.503 5.669 5.669 0 00-.387-3.64 5.636 5.636 0 00-2.531-2.637zm-.45 5.44a1.955 1.955 0 01-.993 1.266 2.277 2.277 0 01-1.853.112 2.306 2.306 0 01-1.014-.725 6.233 6.233 0 00-4.312-2.25 3.465 3.465 0 01-.879-.2 3.398 3.398 0 01-1.951-1.81 2.983 2.983 0 01-.04-2.353 3.174 3.174 0 012.962-1.873c.357 0 .712.057 1.051.168a3.397 3.397 0 012.037 1.797 6.314 6.314 0 003.55 3.39c.102.037.201.081.297.131a2.158 2.158 0 011.145 2.347zm-12.938-22.681c.211.363.558.629.968.74.409.111.846.059 1.216-.146s.642-.546.758-.948a1.558 1.558 0 00-.141-1.198 4.856 4.856 0 00-2.182-1.995 4.959 4.959 0 00-2.953-.378c-1 .18-1.919.661-2.628 1.379a4.787 4.787 0 00-1.328 2.624 1.64 1.64 0 01-.447.888 1.695 1.695 0 01-1.884.364 1.663 1.663 0 01-.755-.655 1.606 1.606 0 00-.99-.72 1.63 1.63 0 00-1.217.18 1.565 1.565 0 00-.547 2.172 4.792 4.792 0 001.766 1.71 4.89 4.89 0 002.394.623c.328 0 .655-.032.977-.095a4.858 4.858 0 002.589-1.383 4.737 4.737 0 001.294-2.606 1.63 1.63 0 01.455-.897 1.696 1.696 0 011.909-.341c.315.145.576.384.747.682h-.001z" fill="#000"/><path fill-rule="evenodd" clip-rule="evenodd" d="M96.209 107.955c-5.368 0-9.734-3.97-9.734-8.848 0-.738.659-1.337 1.47-1.337.813 0 1.472.6 1.472 1.337 0 3.404 3.046 6.173 6.79 6.173.813 0 1.471.599 1.471 1.337.003.739-.656 1.338-1.47 1.338zm.079 10.184c-10.465 0-18.979-8.512-18.979-18.977a1.391 1.391 0 012.783 0c0 8.929 7.264 16.194 16.195 16.194a1.391 1.391 0 01.001 2.783z" fill="#000"/><path fill-rule="evenodd" clip-rule="evenodd" d="M96.268 128.324c-16.07 0-29.143-13.075-29.143-29.143a1.41 1.41 0 012.821 0c0 14.514 11.808 26.321 26.322 26.321a1.41 1.41 0 010 2.822zm73.966 2.037c-.698 0-1.265-.613-1.265-1.368v-27.637a62.62 62.62 0 012.622-17.914c.213-.719.926-1.113 1.592-.882.667.232 1.031 1.002.817 1.72a59.752 59.752 0 00-2.499 17.075v27.638c0 .757-.566 1.368-1.267 1.368z" fill="#000"/><path fill-rule="evenodd" clip-rule="evenodd" d="M179.697 130.361h-50.229c-.372 0-.728-.147-.991-.408a1.375 1.375 0 01-.407-.98l.112-17.926h-10.446c-6.103 0-11.603-3.578-14.011-9.112a1.365 1.365 0 01.118-1.304 1.402 1.402 0 011.167-.621h12.166c2.698 0 4.894-2.166 4.894-4.828 0-2.663-2.196-4.829-4.894-4.829h-13.284a1.39 1.39 0 01-1.398-1.38v-5.518H89.911c-.454 0-.878-.216-1.14-.58a1.364 1.364 0 01-.182-1.252l9.107-25.913a46.945 46.945 0 01-.535-7.208c0-13.14 5.238-25.443 14.749-34.643 9.5-9.19 22.061-14.106 35.368-13.85 26.824.52 48.431 22.493 48.168 48.977a47.914 47.914 0 01-6.538 23.67c-5.111 8.742-7.815 18.58-7.815 28.445v27.878a1.386 1.386 0 01-1.396 1.382zm-48.821-2.76h47.423v-26.498c0-10.35 2.832-20.663 8.189-29.823a45.182 45.182 0 006.164-22.32c.249-24.977-20.129-45.7-45.427-46.189-12.552-.24-24.397 4.394-33.354 13.061C104.9 24.51 99.96 36.114 99.96 48.505c0 2.488.187 4.882.553 7.113.038.226.017.457-.058.673L91.876 80.7h12.018c.772 0 1.397.617 1.397 1.378v5.518h11.887c4.239 0 7.69 3.405 7.69 7.588 0 4.184-3.451 7.587-7.69 7.587h-9.832c2.275 3.408 6.156 5.518 10.39 5.518h11.852c.373 0 .73.147.993.408.263.26.409.613.406.98l-.111 17.925z" fill="#000"/><path fill-rule="evenodd" clip-rule="evenodd" d="M177.805 71.291a1.46 1.46 0 01-.714-.185c-.686-.381-.922-1.227-.527-1.888a33.784 33.784 0 004.808-17.004c.195-19.03-15.704-34.816-35.439-35.19-.793-.015-1.422-.646-1.406-1.41.014-.754.655-1.356 1.433-1.356h.03c21.302.404 38.464 17.443 38.254 37.983A36.495 36.495 0 01179.05 70.6a1.445 1.445 0 01-1.245.691zM83.93 33.608c-7.022 0-12.731-5.253-12.731-11.712 0-6.458 5.71-11.712 12.73-11.712 7.019 0 12.73 5.254 12.73 11.712 0 6.459-5.71 11.712-12.73 11.712zm0-20.82c-5.461 0-9.903 4.087-9.903 9.11s4.442 9.11 9.902 9.11c5.46 0 9.902-4.087 9.902-9.11s-4.442-9.11-9.902-9.11zm-9.168 61.558c-4.772 0-8.656-3.654-8.656-8.147s3.883-8.148 8.656-8.148c4.774 0 8.658 3.655 8.658 8.148s-3.884 8.147-8.658 8.147zm0-13.578c-3.181 0-5.77 2.437-5.77 5.431 0 2.995 2.588 5.432 5.77 5.432 3.183 0 5.772-2.437 5.772-5.432 0-2.994-2.589-5.431-5.772-5.431z" fill="#000"/></svg>