<svg width="305" height="140" fill="none" xmlns="http://www.w3.org/2000/svg"><path fill-rule="evenodd" clip-rule="evenodd" d="M58.749 23.783V139.35h-37.91V55.063H.965v-31.28h57.783zm-34.09 27.428v84.286h30.268V27.635H4.787v23.576H24.66zm228.718 76.902c24.949 0 45.173-20.224 45.173-45.173 0-24.948-20.224-45.173-45.173-45.173-24.948 0-45.173 20.225-45.173 45.173 0 24.949 20.225 45.173 45.173 45.173zm0 5.767c28.134 0 50.94-22.806 50.94-50.94 0-28.133-22.806-50.94-50.94-50.94-28.133 0-50.94 22.807-50.94 50.94 0 28.134 22.807 50.94 50.94 50.94z" fill="#02FFCD"/><path d="M209.287 81.565c-5.869 0-10.644-4.435-10.644-9.883 0-5.45 4.775-9.885 10.644-9.885 5.87 0 10.644 4.434 10.644 9.885-.001 5.448-4.776 9.883-10.644 9.883zm0-16.946c-4.193 0-7.603 3.167-7.603 7.061 0 3.892 3.41 7.06 7.603 7.06 4.192 0 7.602-3.168 7.602-7.06 0-3.893-3.41-7.06-7.602-7.06z" fill="#000"/><path d="M209.287 81.565c-5.869 0-10.644-4.435-10.644-9.883 0-5.45 4.775-9.885 10.644-9.885 5.87 0 10.644 4.434 10.644 9.885-.001 5.448-4.776 9.883-10.644 9.883zm0-16.946c-4.193 0-7.603 3.167-7.603 7.061 0 3.892 3.41 7.06 7.603 7.06 4.192 0 7.602-3.168 7.602-7.06 0-3.893-3.41-7.06-7.602-7.06z" stroke="#000"/><path d="M209.29 90.688c-.074 0-.146 0-.218-.002h-.073a18.265 18.265 0 01-12.52-5.212c-3.376-3.289-5.305-7.653-5.432-12.286-.198-7.16 3.996-13.802 10.52-16.814v-35.62c0-4.2 3.462-7.616 7.72-7.616 4.256 0 7.719 3.416 7.719 7.616v35.619c6.427 2.953 10.528 9.258 10.528 16.313 0 4.862-1.933 9.417-5.444 12.83-3.443 3.34-7.979 5.172-12.8 5.172zm-.003-74.783c-2.709 0-4.913 2.173-4.913 4.847v36.526c0 .564-.347 1.07-.878 1.283-5.944 2.374-9.819 8.221-9.644 14.548.223 8.04 7.038 14.68 15.19 14.805 4.172.05 8.106-1.49 11.076-4.377 2.972-2.885 4.608-6.741 4.608-10.854 0-6.237-3.787-11.78-9.651-14.122a1.386 1.386 0 01-.877-1.283V20.752c0-2.672-2.203-4.847-4.911-4.847z" fill="#000"/><path d="M209.29 90.688c-.074 0-.146 0-.218-.002h-.073a18.265 18.265 0 01-12.52-5.212c-3.376-3.289-5.305-7.653-5.432-12.286-.198-7.16 3.996-13.802 10.52-16.814v-35.62c0-4.2 3.462-7.616 7.72-7.616 4.256 0 7.719 3.416 7.719 7.616v35.619c6.427 2.953 10.528 9.258 10.528 16.313 0 4.862-1.933 9.417-5.444 12.83-3.443 3.34-7.979 5.172-12.8 5.172h0zm-.003-74.783c-2.709 0-4.913 2.173-4.913 4.847v36.526c0 .564-.347 1.07-.878 1.283-5.944 2.374-9.819 8.221-9.644 14.548.223 8.04 7.038 14.68 15.19 14.805 4.172.05 8.106-1.49 11.076-4.377 2.972-2.885 4.608-6.741 4.608-10.854 0-6.237-3.787-11.78-9.651-14.122a1.386 1.386 0 01-.877-1.283V20.752c0-2.672-2.203-4.847-4.911-4.847v0z" stroke="#000"/><path d="M209.287 64.839c-.839 0-1.52-.624-1.52-1.395V32.78c0-.77.681-1.395 1.52-1.395.84 0 1.521.624 1.521 1.395v30.663c0 .77-.681 1.395-1.521 1.395z" fill="#000"/><path d="M209.287 64.839c-.839 0-1.52-.624-1.52-1.395V32.78c0-.77.681-1.395 1.52-1.395.84 0 1.521.624 1.521 1.395v30.663c0 .77-.681 1.395-1.521 1.395z" stroke="#000"/><path d="M240.072 131.745h-52.137c-.387 0-.758-.147-1.031-.41a1.35 1.35 0 01-.421-.984l.116-17.982h-10.842c-8.723 0-15.82-6.765-15.82-15.084V84.692h-13.062c-.471 0-.911-.217-1.184-.581a1.329 1.329 0 01-.189-1.257l9.453-25.993a45.527 45.527 0 01-.555-7.232c0-13.18 5.437-25.523 15.31-34.752C179.57 5.657 192.609.72 206.423.984c27.844.523 50.274 22.563 50 49.132-.086 8.338-2.434 16.548-6.787 23.745-5.307 8.77-8.111 18.637-8.111 28.534v27.966c0 .764-.652 1.384-1.453 1.384zm-50.678-2.768h49.226v-26.582c0-10.383 2.939-20.728 8.5-29.917 4.106-6.784 6.318-14.528 6.4-22.389.258-25.058-20.896-45.844-47.155-46.337-13.027-.247-25.325 4.408-34.623 13.103-9.312 8.703-14.439 20.346-14.439 32.776 0 2.496.193 4.897.575 7.137.037.227.018.458-.063.675l-8.902 24.485h12.473c.802 0 1.452.62 1.452 1.385V97.29c0 6.792 5.795 12.316 12.916 12.316h12.304c.385 0 .756.147 1.029.41.273.262.424.616.421.984l-.114 17.977z" fill="#000"/><path d="M240.072 131.745h-52.137c-.387 0-.758-.147-1.031-.41a1.35 1.35 0 01-.421-.984l.116-17.982h-10.842c-8.723 0-15.82-6.765-15.82-15.084V84.692h-13.062c-.471 0-.911-.217-1.184-.581a1.329 1.329 0 01-.189-1.257l9.453-25.993a45.527 45.527 0 01-.555-7.232c0-13.18 5.437-25.523 15.31-34.752C179.57 5.657 192.609.72 206.423.984c27.844.523 50.274 22.563 50 49.132-.086 8.338-2.434 16.548-6.787 23.745-5.307 8.77-8.111 18.637-8.111 28.534v27.966c0 .764-.652 1.384-1.453 1.384zm-50.678-2.768h49.226v-26.582c0-10.383 2.939-20.728 8.5-29.917 4.106-6.784 6.318-14.528 6.4-22.389.258-25.058-20.896-45.844-47.155-46.337-13.027-.247-25.325 4.408-34.623 13.103-9.312 8.703-14.439 20.346-14.439 32.776 0 2.496.193 4.897.575 7.137.037.227.018.458-.063.675l-8.902 24.485h12.473c.802 0 1.452.62 1.452 1.385V97.29c0 6.792 5.795 12.316 12.916 12.316h12.304c.385 0 .756.147 1.029.41.273.262.424.616.421.984l-.114 17.977z" stroke="#000"/><path d="M229.046 131.745c-.835 0-1.512-.623-1.512-1.392v-28.094c0-6.154 1.053-12.28 3.132-18.209.255-.731 1.107-1.132 1.901-.897.796.237 1.233 1.02.976 1.75-1.98 5.652-2.985 11.491-2.985 17.356v28.094c0 .769-.678 1.392-1.512 1.392z" fill="#000"/><path d="M229.046 131.745c-.835 0-1.512-.623-1.512-1.392v-28.094c0-6.154 1.053-12.28 3.132-18.209.255-.731 1.107-1.132 1.901-.897.796.237 1.233 1.02.976 1.75-1.98 5.652-2.985 11.491-2.985 17.356v28.094c0 .769-.678 1.392-1.512 1.392z" stroke="#000"/><path fill-rule="evenodd" clip-rule="evenodd" d="M257.187 22.262c-4.61 0-8.364-3.75-8.364-8.364 0-4.61 3.753-8.363 8.364-8.363 4.611 0 8.362 3.751 8.362 8.363 0 4.614-3.751 8.364-8.362 8.364zm0-13.938a5.582 5.582 0 00-5.576 5.574 5.582 5.582 0 005.576 5.576 5.583 5.583 0 005.576-5.576 5.582 5.582 0 00-5.576-5.574z" fill="#02FFCD"/></svg>