<svg width="18" height="18" fill="none" xmlns="http://www.w3.org/2000/svg"><path d="M9 0C4.036 0 0 4.036 0 9s4.036 9 9 9 9-4.036 9-9-4.036-9-9-9zm4.945 12.335c-.17.417-.473.833-.663 1.023-1.08 1.08-3.979.114-6.366-2.274-2.388-2.387-3.354-5.267-2.274-6.366.19-.19.625-.493 1.023-.663a.738.738 0 01.872.227L7.73 5.798a.742.742 0 01-.095 1.023c-.303.265-.512.455-.569.512-.454.454.209 1.42 1.213 2.425 1.004 1.004 1.952 1.686 2.425 1.213.057-.057.247-.266.512-.569a.74.74 0 011.023-.095l1.516 1.194c.246.152.322.512.19.834z" fill="#000F0E"/></svg>