<svg width="258" height="169" fill="none" xmlns="http://www.w3.org/2000/svg"><path fill-rule="evenodd" clip-rule="evenodd" d="M58.22 39.535v115.566H20.31V70.815H.438v-31.28H58.22zM24.131 66.963v84.286H54.4V43.387H4.259v23.576h19.872zm132.927-1.577c.84 0 1.521.858 1.521 1.917v11.371c0 1.06-.681 1.918-1.521 1.918-.84 0-1.52-.859-1.52-1.918v-11.37c0-1.06.68-1.918 1.52-1.918zm6.843 0c1.26 0 2.281.858 2.281 1.917v11.371c0 1.06-1.021 1.918-2.281 1.918-1.26 0-2.281-.859-2.281-1.918v-11.37c0-1.06 1.021-1.918 2.281-1.918zm6.843 0c.84 0 1.52.858 1.52 1.917v11.371c0 1.06-.68 1.918-1.52 1.918s-1.521-.859-1.521-1.918v-11.37c0-1.06.681-1.918 1.521-1.918zm6.082 0c.84 0 1.521.858 1.521 1.917v11.371c0 1.06-.681 1.918-1.521 1.918-.84 0-1.52-.859-1.52-1.918v-11.37c0-1.06.68-1.918 1.52-1.918zm7.603 0c.84 0 1.521.858 1.521 1.917v11.371c0 1.06-.681 1.918-1.521 1.918-.84 0-1.52-.859-1.52-1.918v-11.37c0-1.06.68-1.918 1.52-1.918zm6.083 0c.84 0 1.52.858 1.52 1.917v11.371c0 1.06-.68 1.918-1.52 1.918s-1.521-.859-1.521-1.918v-11.37c0-1.06.681-1.918 1.521-1.918zm54.741 37.253c0 1.26-.858 2.281-1.916 2.281H148.33c-1.058 0-1.916-1.021-1.916-2.281 0-1.259.858-2.281 1.916-2.281h95.007c1.058 0 1.916 1.022 1.916 2.281zm0-19.007c0 .84-.858 1.52-1.916 1.52H148.33c-1.058 0-1.916-.68-1.916-1.52s.858-1.52 1.916-1.52h95.007c1.058 0 1.916.68 1.916 1.52z" fill="#02FFCD"/><path fill-rule="evenodd" clip-rule="evenodd" d="M143.401 32.65l3.887.464V152.4c0 6.87 4.181 12.49 9.291 12.49h78.509c5.11 0 9.291-5.62 9.291-12.386V33.114c0-6.87-4.181-12.49-9.291-12.49h-78.509c-7.783 0-9.291 12.49-9.291 12.49-3.887-.465-3.887-.466-3.887-.467l.001-.01.002-.016.006-.046.02-.145a29.606 29.606 0 01.395-2.118c.296-1.319.792-3.13 1.594-4.983 1.47-3.4 4.746-8.602 11.16-8.602h78.509c4.096 0 7.485 2.257 9.709 5.247 2.227 2.995 3.497 6.948 3.497 11.14v119.389c0 4.152-1.276 8.081-3.504 11.058-2.223 2.971-5.609 5.225-9.702 5.225h-78.509c-4.095 0-7.484-2.257-9.708-5.247-2.228-2.995-3.498-6.948-3.498-11.14V33.114c0-.155.009-.31.028-.465z" fill="#000"/><path fill-rule="evenodd" clip-rule="evenodd" d="M252.803 85.154h-4.455a4.197 4.197 0 01-3.341-1.628 4.238 4.238 0 01-.602-1.082 6.083 6.083 0 01-.287-1.058 18.397 18.397 0 01-.219-1.83c-.106-1.339-.167-3.115-.167-5.023V10.862a111.798 111.798 0 01.132-4.357 32.43 32.43 0 01.182-2.218c.039-.3.102-.728.218-1.142a4.51 4.51 0 01.435-1.057c.132-.229.408-.663.896-1.08A4.237 4.237 0 01248.348 0h4.455a4.197 4.197 0 013.34 1.627c.355.462.532.898.603 1.083.159.418.242.82.286 1.057.099.535.168 1.18.219 1.83.106 1.34.167 3.116.167 5.024v63.968c0 1.88-.061 3.644-.167 4.976a18.35 18.35 0 01-.219 1.824 6.081 6.081 0 01-.287 1.056 4.284 4.284 0 01-.603 1.082 4.195 4.195 0 01-3.339 1.627zm0-3.929h-4.455c-.29 0-.528-3.011-.528-6.692V10.862c0-.16.001-.318.004-.479.02-1.191.132-6.455.524-6.455h4.455c.29 0 .527 3.012.527 6.693v63.968c0 3.625-.237 6.636-.527 6.636zm-82.059 54.108c.84 0 1.52.724 1.52 1.617v30.219c0 .893-.68 1.617-1.52 1.617s-1.521-.724-1.521-1.617V136.95c0-.893.681-1.617 1.521-1.617zm-13.686 0c.84 0 1.521.724 1.521 1.617v30.219c0 .893-.681 1.617-1.521 1.617-.84 0-1.52-.724-1.52-1.617V136.95c0-.893.68-1.617 1.52-1.617zm6.879-.333c.828 0 1.5.714 1.5 1.595v29.81c0 .881-.672 1.595-1.5 1.595s-1.5-.714-1.5-1.595v-29.81c0-.881.672-1.595 1.5-1.595zm12.889.333c.84 0 1.521.724 1.521 1.617v30.219c0 .893-.681 1.617-1.521 1.617-.84 0-1.52-.724-1.52-1.617V136.95c0-.893.68-1.617 1.52-1.617zm7.603 0c.84 0 1.521.724 1.521 1.617v30.219c0 .893-.681 1.617-1.521 1.617-.84 0-1.52-.724-1.52-1.617V136.95c0-.893.68-1.617 1.52-1.617zm6.083 0c.84 0 1.52.724 1.52 1.617v30.219c0 .893-.68 1.617-1.52 1.617s-1.521-.724-1.521-1.617V136.95c0-.893.681-1.617 1.521-1.617zm12.767 0c.84 0 1.521.724 1.521 1.617v30.219c0 .893-.681 1.617-1.521 1.617-.839 0-1.52-.724-1.52-1.617V136.95c0-.893.681-1.617 1.52-1.617zm6.603 0c.84 0 1.521.724 1.521 1.617v30.219c0 .893-.681 1.617-1.521 1.617-.839 0-1.52-.724-1.52-1.617V136.95c0-.893.681-1.617 1.52-1.617zm-12.685 0c.84 0 1.52.724 1.52 1.617v30.219c0 .893-.68 1.617-1.52 1.617s-1.521-.724-1.521-1.617V136.95c0-.893.681-1.617 1.521-1.617zm-44.635-75.517V36.717l.003-.042a12.178 12.178 0 01.206-1.364c.19-.911.538-2.106 1.161-3.283 1.209-2.283 3.455-4.554 7.959-4.554h70.188l.001-1.573-.001 1.573c3.566 0 7.027 3.809 7.027 9.194v43.923h3.106V36.668c0-6.458-4.261-12.339-10.132-12.339h-70.189c-5.86 0-9.055 3.112-10.697 6.213-.801 1.514-1.231 3.011-1.462 4.119a15.592 15.592 0 00-.263 1.759 2.702 2.702 0 00-.008.116l-.003.036v.016l-.001.002s0 .002 1.552.078l-1.552-.078-.001.078v43.923h3.106V59.816z" fill="#000"/><path fill-rule="evenodd" clip-rule="evenodd" d="M240.692 80.592h-91.236v-3.041h91.236v3.041z" fill="#000"/></svg>